<?xml version="1.0" encoding="utf-8"?>
<!-- Generator: Adobe Illustrator 22.0.1, SVG Export Plug-In . SVG Version: 6.00 Build 0)  -->
<svg version="1.1" id="图层_1" xmlns="http://www.w3.org/2000/svg" xmlns:xlink="http://www.w3.org/1999/xlink" x="0px" y="0px"
	 viewBox="0 0 128 128" style="enable-background:new 0 0 128 128;" xml:space="preserve">
<style type="text/css">
	.st0{fill:#FFFFFF;}
	.st1{fill:#999999;}
	.st2{fill:#CCCCCC;}
	.st3{fill:#DDDDDD;}
	.st4{fill:#7B96F7;}
</style>
<path class="st0" d="M38,22.2v-6.6c0-3.5,2.8-6.3,6.3-6.3h59.5c3.5,0,6.3,2.8,6.3,6.3v84.6c0,3.5-2.8,6.3-6.3,6.3h-8.9"/>
<path class="st1" d="M103.9,107.7h-8.9c-0.7,0-1.3-0.6-1.3-1.3s0.6-1.3,1.3-1.3h8.9c2.8,0,5-2.2,5-5V15.6c0-2.8-2.2-5-5-5H44.3
	c-2.8,0-5,2.2-5,5v6.6c0,0.7-0.6,1.3-1.3,1.3c-0.7,0-1.3-0.6-1.3-1.3v-6.6c0-4.2,3.4-7.6,7.6-7.6h59.6c4.2,0,7.6,3.4,7.6,7.6v84.6
	C111.5,104.3,108.1,107.7,103.9,107.7z"/>
<path class="st2" d="M43.5,12.2h61.1c2.4,0,4.3,1.9,4.3,4.3v84.4c0,2.4-1.9,4.3-4.3,4.3H44.1c-2.7,0-4.8-2.2-4.8-4.8V16.5
	C39.2,14.1,41.2,12.2,43.5,12.2z"/>
<path class="st3" d="M91.3,18.6h-52v86.6H99V26.3C99,22,95.6,18.6,91.3,18.6z"/>
<path class="st0" d="M17.9,24h76.4v90.7c0,2.1-1.7,3.8-3.8,3.8H22.3c-2.4,0-4.4-2-4.4-4.4V24z"/>
<path class="st4" d="M61.8,48.4c0,1.8-2.4,4.2-5.4,4.2S51,49.9,51,48.4"/>
<path class="st0" d="M89,23H23.7c-2.4,0-4.4,2-4.4,4.4v2.8c0-2.4,2-4.4,4.4-4.4H89c2.4,0,4.4,2,4.4,4.4v-2.8C93.4,25,91.5,23,89,23z
	"/>
<path class="st0" d="M52.2,44.9c0,2.3,1.9,4.2,4.2,4.2s4.2-1.9,4.2-4.2s-1.9-4.2-4.2-4.2S52.2,42.6,52.2,44.9z"/>
<path class="st1" d="M44.7,98.2h-9.2c-1.3,0-2.3,1-2.3,2.3c0,0.1,0,0.2,0,0.3c0.2,1.2,1.2,2,2.4,2h9.2c1.3,0,2.3-1,2.3-2.3
	c0-0.1,0-0.2,0-0.3C46.9,99,45.9,98.2,44.7,98.2z M49.4,88.9H35.5c-1.3,0-2.3,1-2.3,2.3c0,0.1,0,0.2,0,0.3c0.2,1.2,1.2,2,2.4,2h13.8
	c1.3,0,2.3-1,2.3-2.3c0-0.1,0-0.2,0-0.3C51.5,89.7,50.5,88.9,49.4,88.9z M88.1,20.7H23.7c-4.9,0-7.1,2.5-7.1,7.5v82.7
	c0,5,3.4,9.1,8.4,9.1h62.4c4.9,0,8.9-4.1,8.9-9.1V27.6C96.3,22.6,93,20.7,88.1,20.7z M93.5,111.2c0,2.6-2.9,5.5-5.5,5.5H24.9
	c-2.6,0-5.6-2.7-5.6-5.3V37.5c7,4.9,19,8,30.5,9c0.8,3.1,3.5,5.2,6.6,5.2s6-2.2,6.6-5.4c11.5-1,23.5-4,30.5-8.9L93.5,111.2z
	 M52.3,44.3c0.3-2.2,2.3-3.8,4.6-3.5s3.8,2.3,3.5,4.6c-0.2,1.8-1.7,3.3-3.5,3.5c-2.2,0.3-4.3-1.3-4.6-3.6
	C52.3,45,52.3,44.6,52.3,44.3z M93.5,33c-6,5.6-18.4,9.1-30.7,10.2c-0.6-3.5-3.5-5.3-6.4-5.3s-5.6,1.3-6.8,5.4
	c-12.3-1.1-24.2-4.2-30.3-9.8v-4.9c0-2.6,2.1-4.6,4.6-4.6h64.3c3.8,0,5.3,2.1,5.3,5.5V33z"/>
</svg>
