<?xml version="1.0" standalone="no"?><!DOCTYPE svg PUBLIC "-//W3C//DTD SVG 1.1//EN" "http://www.w3.org/Graphics/SVG/1.1/DTD/svg11.dtd"><svg class="icon" width="200px" height="200.00px" viewBox="0 0 1024 1024" version="1.1" xmlns="http://www.w3.org/2000/svg"><path d="M770.9 457.5c0-144.3-118-261-262.7-258.9-139 2-252.5 115.1-255 254.1-1.7 93.5 47.1 180.7 127.9 228 11.1 6.6 18.4 18.1 19.7 30.9l16.1 153.5V876c0 40.5 42.6 73.4 95.2 73.4s95.2-32.9 95.2-73.4v-10.7l16.1-153.5c1.4-12.9 8.7-24.4 19.9-31 79-46.5 127.6-131.4 127.6-223.3z" fill="#ffffff" /><path d="M406.5 684.2c-1.3-13.1-8.8-24.8-20.1-31.5-61.2-35.9-105.3-95-122.5-163.8 11.7 77.2 57.6 145.1 125 184.6 11.1 6.6 18.4 18.1 19.7 30.9M613.3 707.2c1.4-12.9 8.7-24.4 19.9-31 67.3-39.6 113.2-107.4 124.8-184.6-17.2 68.8-61.2 127.8-122.3 163.7-11.4 6.7-18.9 18.5-20.3 31.6" fill="#bbc9fa" /><path d="M512 960.1c-58.4 0-105.9-37.7-105.9-84.1v-10.2l-16-153c-1-9.5-6.3-17.9-14.5-22.8-83.9-49.3-134.7-140-133.1-237.4 1.2-70 29.4-136 79.4-185.8S438 189 508 188c148.9-2.2 271.4 116.8 273.5 265.7 0.7 49-11.9 97.3-36.6 139.7-23.3 39.9-56.5 73.2-96.3 96.6-8.2 4.9-13.7 13.4-14.7 22.9l-16 153V876c0 46.4-47.5 84.1-105.9 84.1z m0-750.7h-3.7c-64.4 0.9-125.3 26.7-171.3 72.6s-72 106.6-73.2 171c-1.5 89.7 45.3 173.2 122.6 218.7 14 8.3 23.3 22.8 24.9 39l16.2 154.1V876c0 34.6 37.9 62.7 84.5 62.7s84.5-28.1 84.5-62.7l0.1-11.8 16.1-153.5c1.7-16.3 11-30.7 25.1-39.1 75.7-44.8 122.2-126.1 122.4-214 0-137.1-111.1-248.2-248.2-248.2z" fill="#3f63f6" /><path d="M512 921c-44.2 0-80.4-26.2-84.2-59.5h-0.3v9.5c0 36 37.8 65.2 84.5 65.2s84.5-29.2 84.5-65.2v-9.5h-0.3c-3.8 33.4-40 59.5-84.2 59.5z" fill="#d0d9fb" /><path d="M512 932.2c-44.2 0-80.4-30.5-84.2-63.8h-0.3c-0.2 3.2-0.2 6.3 0 9.5C432.2 916 465.4 943 512 943c46.7 0 80.6-28 84.5-65.2 0.2-3.2 0.2-6.3 0-9.5h-0.3c-3.8 33.4-40 63.9-84.2 63.9zM599.5 836.1l-175-0.1-10.7-102.4h196.4z" fill="#bbc9fa" /><path d="M599.5 836.1H424.7l-1.6-15h178.1z" fill="#7b96f7" /><path d="M617.2 853.3H407.9l-14.1-137h237.5l-14.1 137z m-193.9-17.1h178.4l10.6-102.8H412.8l10.5 102.8zM585 466.3c-11.6-11.8-36.7-25.6-69.9-36.2-19.7-6.3-31.1-11.2-31.1-26.1 0-20.9 13.2-25.5 29.8-25.5 12.8 0 31.7 15.5 31.7 28.1l51-12c0-9.7-7.4-25.8-22.1-38.4-11.8-10-27.1-15.9-45.7-17.9v-26.9h-33.9v27c-19.7 2.4-33.5 8.8-45.3 18.9-12.2 10.2-19.6 27.2-19.6 44.1 0 19.5 3 36.4 13.9 48.2s50 25.2 69.4 29.5c18.7 4.2 36 16 36.2 32.4 0.2 20-18.2 27.5-33.6 27.5-25.8 0-43.1-19.2-43.1-36l-51 12.5c3.3 17.8 8.4 32 25 45.2 12.6 10.1 27.5 16.2 48.2 18.7v32.2h33.9v-31.7c19.4-1.5 35.7-9 49.2-19 15.9-11.9 24.3-27.1 24.3-49.5 0-18.2-5.8-33.2-17.3-45.1z" fill="#3f63f6" /><path d="M828.6 453.3h73c5.9 0 10.7 4.8 10.7 10.7 0 5.9-4.8 10.7-10.7 10.7h-73c-5.9 0-10.7-4.8-10.7-10.7 0-5.9 4.8-10.7 10.7-10.7zM522.7 74.6v73c0 5.9-4.8 10.7-10.7 10.7-5.9 0-10.7-4.8-10.7-10.7v-73c0-5.9 4.8-10.7 10.7-10.7 5.9 0 10.7 4.8 10.7 10.7zM122.4 459.7h73c5.9 0 10.7 4.8 10.7 10.7 0 5.9-4.8 10.7-10.7 10.7h-73c-5.9 0-10.7-4.8-10.7-10.7 0-5.9 4.8-10.7 10.7-10.7z" fill="#d0d9fb" /><path d="M736.6 672.2l51.5 51.5c4.2 4.2 4.2 10.9 0 15.1-4.2 4.2-10.9 4.2-15.1 0l-51.5-51.5c-4.2-4.2-4.2-10.9 0-15.1 4.2-4.2 11-4.2 15.1 0zM250.8 195.4l51.7 51.7c4.2 4.2 4.2 10.9 0 15.1-4.2 4.2-10.9 4.2-15.1 0l-51.7-51.7c-4.2-4.2-4.2-10.9 0-15.1 4.2-4.1 10.9-4.1 15.1 0zM717 242.6l51.5-51.5c4.2-4.2 10.9-4.2 15.1 0 4.2 4.2 4.2 10.9 0 15.1l-51.5 51.5c-4.2 4.2-10.9 4.2-15.1 0-4.2-4.2-4.2-11 0-15.1zM240.5 728.1l51.4-51.4c4.2-4.2 10.9-4.2 15.1 0 4.2 4.2 4.2 10.9 0 15.1l-51.4 51.4c-4.2 4.2-10.9 4.2-15.1 0-4.2-4.1-4.2-10.9 0-15.1z" fill="#3f63f6" /></svg>