<?xml version="1.0" encoding="utf-8"?>
<!-- Generator: Adobe Illustrator 16.0.0, SVG Export Plug-In . SVG Version: 6.00 Build 0)  -->
<!DOCTYPE svg PUBLIC "-//W3C//DTD SVG 1.1//EN" "http://www.w3.org/Graphics/SVG/1.1/DTD/svg11.dtd">
<svg version="1.1" id="图层_1" xmlns="http://www.w3.org/2000/svg" xmlns:xlink="http://www.w3.org/1999/xlink" x="0px" y="0px"
	 width="200px" height="200px" viewBox="0 0 200 200" enable-background="new 0 0 200 200" xml:space="preserve">
<path fill="#FFFFFF" d="M23.301,14.258h134.063c1.289,0,2.344,1.055,2.344,2.344v163.516c0,1.289-1.055,2.344-2.344,2.344H23.301
	c-1.289,0-2.344-1.055-2.344-2.344V16.602C20.957,15.313,22.012,14.258,23.301,14.258z"/>
<path fill="#3F63F6" d="M155.391,184.18H25.313c-3.398,0-6.152-2.617-6.152-5.84V18.398c0-3.223,2.754-5.84,6.152-5.84h130.078
	c3.379,0,6.152,2.617,6.152,5.84V178.34C161.523,181.563,158.77,184.18,155.391,184.18z M25.293,15.977
	c-1.387,0-2.539,1.074-2.539,2.402V178.32c0,1.328,1.133,2.402,2.539,2.402h130.078c1.387,0,2.539-1.074,2.539-2.402V18.398
	c0-1.328-1.133-2.402-2.539-2.402H25.293V15.977z"/>
<path fill="#AFC2F9" d="M42.539,38.379h8.926c0.723,0,1.309,0.586,1.309,1.309v8.945c0,0.723-0.586,1.309-1.309,1.309h-8.926
	c-0.723,0-1.309-0.586-1.309-1.309v-8.926C41.23,38.965,41.816,38.379,42.539,38.379z M64.375,40.859h74.199
	c0.488,0,0.879,0.391,0.879,0.859v4.844c0,0.488-0.391,0.859-0.879,0.859H64.375c-0.488,0-0.859-0.391-0.859-0.859v-4.844
	C63.516,41.25,63.906,40.859,64.375,40.859z"/>
<path fill="#3F63F6" d="M42.539,36.934h8.926c0.723,0,1.309,0.586,1.309,1.309v8.926c0,0.723-0.586,1.309-1.309,1.309h-8.926
	c-0.723,0-1.309-0.586-1.309-1.309v-8.926C41.23,37.52,41.816,36.934,42.539,36.934z M64.375,39.414h74.199
	c0.488,0,0.879,0.391,0.879,0.859v4.844c0,0.488-0.391,0.859-0.879,0.859H64.375c-0.488,0-0.859-0.391-0.859-0.859v-4.844
	C63.516,39.805,63.906,39.414,64.375,39.414z"/>
<path fill="#AFC2F9" d="M42.539,67.324h8.926c0.723,0,1.309,0.586,1.309,1.309v8.926c0,0.723-0.586,1.309-1.309,1.309h-8.926
	c-0.723,0-1.309-0.586-1.309-1.309v-8.926C41.23,67.91,41.816,67.324,42.539,67.324z M64.375,69.824h74.199
	c0.488,0,0.879,0.391,0.879,0.879v4.844c0,0.488-0.391,0.879-0.879,0.879H64.375c-0.488,0-0.859-0.391-0.859-0.879v-4.844
	C63.516,70.195,63.906,69.824,64.375,69.824z"/>
<path fill="#3F63F6" d="M42.539,65.879h8.926c0.723,0,1.309,0.586,1.309,1.309v8.926c0,0.723-0.586,1.309-1.309,1.309h-8.926
	c-0.723,0-1.309-0.586-1.309-1.309v-8.926C41.23,66.465,41.816,65.879,42.539,65.879z M64.375,68.379h74.199
	c0.488,0,0.879,0.391,0.879,0.879v4.844c0,0.488-0.391,0.879-0.879,0.879H64.375c-0.488,0-0.859-0.391-0.859-0.879v-4.844
	C63.516,68.75,63.906,68.379,64.375,68.379z"/>
<path fill="#AFC2F9" d="M42.539,95.234h8.926c0.723,0,1.309,0.586,1.309,1.309v8.926c0,0.723-0.586,1.309-1.309,1.309h-8.926
	c-0.723,0-1.309-0.586-1.309-1.309v-8.926C41.23,95.84,41.816,95.234,42.539,95.234z M64.375,97.734h74.199
	c0.488,0,0.879,0.391,0.879,0.879v4.844c0,0.488-0.391,0.879-0.879,0.879H64.375c-0.488,0-0.859-0.391-0.859-0.879v-4.844
	C63.516,98.125,63.906,97.734,64.375,97.734z"/>
<path fill="#3F63F6" d="M42.539,93.789h8.926c0.723,0,1.309,0.586,1.309,1.309v8.926c0,0.723-0.586,1.309-1.309,1.309h-8.926
	c-0.723,0-1.309-0.586-1.309-1.309v-8.906C41.23,94.395,41.816,93.789,42.539,93.789z M64.375,96.289h74.199
	c0.488,0,0.879,0.391,0.879,0.879v4.844c0,0.488-0.391,0.879-0.879,0.879H64.375c-0.488,0-0.859-0.391-0.859-0.879v-4.844
	C63.516,96.68,63.906,96.289,64.375,96.289z"/>
<path fill="#AFC2F9" d="M23.848,177.227h133.008c0.586,0,1.074,0.488,1.074,1.074v0.352c0,1.133-0.918,2.07-2.07,2.07H24.844
	c-1.133,0-2.07-0.918-2.07-2.07v-0.352C22.773,177.715,23.242,177.227,23.848,177.227z"/>
</svg>
