<?xml version="1.0" encoding="utf-8"?>
<!-- Generator: Adobe Illustrator 16.0.0, SVG Export Plug-In . SVG Version: 6.00 Build 0)  -->
<!DOCTYPE svg PUBLIC "-//W3C//DTD SVG 1.1//EN" "http://www.w3.org/Graphics/SVG/1.1/DTD/svg11.dtd">
<svg version="1.1" id="图层_1" xmlns="http://www.w3.org/2000/svg" xmlns:xlink="http://www.w3.org/1999/xlink" x="0px" y="0px"
	 width="72px" height="72px" viewBox="0 0 72 72" enable-background="new 0 0 72 72" xml:space="preserve">
<circle fill="#FFFFFF" stroke="#999999" stroke-miterlimit="10" cx="35.724" cy="36.576" r="34.161"/>
<g>
	<path fill="#FFFFFF" d="M52.259,21.438H19.145c-1.305,0-2.325,1.023-2.325,2.326v26.277c0,1.487,1.905,2.14,2.836,0.978
		l3.211-4.139c1.022-1.304,2.604-1.117,4.278-1.117h25.162c1.303,0,2.326-1.023,2.326-2.326V23.764
		C54.584,22.51,53.56,21.438,52.259,21.438z"/>
	<path fill="#3F63F6" d="M52.259,21.438c1.301,0,2.325,1.023,2.325,2.326v19.673c0,1.303-1.024,2.326-2.325,2.326H27.095
		c-0.416,0-0.789,0-1.162,0c-1.209,0-2.324,0.094-3.114,1.117l-3.209,4.139c-0.281,0.371-0.744,0.604-1.21,0.604
		c-0.791,0-1.581-0.604-1.581-1.582V23.764c0-1.303,1.021-2.326,2.325-2.326H52.259 M52.259,20.322H19.145
		c-1.906,0-3.489,1.535-3.489,3.488v26.278c0,0.743,0.325,1.487,0.885,1.998c0.513,0.467,1.209,0.744,1.861,0.744
		c0.836,0,1.626-0.371,2.139-1.068l3.257-4.14c0.418-0.514,0.929-0.651,2.185-0.651c0.188,0,0.371,0,0.558,0s0.419,0,0.604,0h25.162
		c1.908,0,3.488-1.58,3.488-3.488v-19.72C55.746,21.857,54.212,20.275,52.259,20.322z"/>
	<path fill="#D0D9FB" d="M52.259,44.925H27.095c-1.672,0-3.253-0.187-4.276,1.116l-3.21,4.14c-0.932,1.162-2.838,0.512-2.838-0.978
		v0.886c0,1.487,1.906,2.139,2.838,0.977l3.21-4.141c1.022-1.302,2.604-1.115,4.276-1.115h25.164c1.301,0,2.325-1.023,2.325-2.326
		v-0.885C54.584,43.854,53.56,44.925,52.259,44.925z M49.327,35.948c-0.324-0.326-1.07-0.744-1.999-1.023
		c-0.56-0.186-0.884-0.326-0.884-0.744c0-0.604,0.372-0.744,0.884-0.744c0.373,0,0.929,0.466,0.929,0.838l1.488-0.372
		c0-0.28-0.23-0.745-0.65-1.118c-0.326-0.277-0.789-0.464-1.301-0.512v-0.789h-0.978v0.789c-0.558,0.094-0.978,0.234-1.304,0.56
		c-0.371,0.279-0.558,0.79-0.558,1.257c0,0.557,0.093,1.069,0.419,1.395c0.324,0.324,1.441,0.744,2,0.835
		c0.559,0.14,1.023,0.466,1.023,0.931c0,0.558-0.514,0.79-0.979,0.79c-0.744,0-1.255-0.559-1.255-1.023l-1.487,0.373
		c0.092,0.512,0.23,0.93,0.742,1.303c0.373,0.279,0.793,0.465,1.396,0.559v0.93h0.931v-0.93c0.511-0.047,1.021-0.232,1.442-0.559
		c0.463-0.325,0.697-0.791,0.697-1.441C49.841,36.739,49.7,36.274,49.327,35.948z"/>
	<path fill="#3F63F6" d="M49.327,35.623c-0.324-0.325-1.07-0.743-1.999-1.022c-0.56-0.187-0.884-0.326-0.884-0.744
		c0-0.605,0.372-0.744,0.884-0.744c0.373,0,0.929,0.465,0.929,0.836l1.488-0.372c0-0.278-0.23-0.744-0.65-1.116
		c-0.326-0.279-0.789-0.466-1.301-0.513v-0.79h-0.978v0.79c-0.558,0.094-0.978,0.233-1.304,0.56
		c-0.371,0.277-0.558,0.791-0.558,1.256c0,0.559,0.093,1.069,0.419,1.396c0.326,0.325,1.441,0.744,2,0.835
		c0.559,0.14,1.023,0.466,1.023,0.931c0,0.559-0.514,0.791-0.979,0.791c-0.744,0-1.255-0.559-1.255-1.023l-1.487,0.373
		c0.092,0.512,0.23,0.931,0.742,1.303c0.373,0.277,0.793,0.465,1.396,0.557v0.932h0.931v-0.932c0.511-0.045,1.021-0.231,1.442-0.557
		c0.463-0.326,0.697-0.791,0.697-1.441C49.841,36.413,49.7,35.994,49.327,35.623z"/>
	<path fill="#D0D9FB" d="M22.492,27.159h27.114c0.139,0,0.279,0.095,0.279,0.233v1.396c0,0.14-0.094,0.279-0.279,0.279H22.492
		c-0.141,0-0.232-0.093-0.232-0.279v-1.396C22.26,27.251,22.354,27.159,22.492,27.159z"/>
	<path fill="#3F63F6" d="M22.492,26.74h27.114c0.139,0,0.279,0.094,0.279,0.232v1.396c0,0.14-0.094,0.278-0.279,0.278H22.492
		c-0.141,0-0.232-0.092-0.232-0.278v-1.396C22.26,26.833,22.354,26.74,22.492,26.74z"/>
	<path fill="#D0D9FB" d="M22.631,32.321h19.163c0.139,0,0.278,0.094,0.278,0.278v1.396c0,0.141-0.093,0.279-0.278,0.279H22.631
		c-0.139,0-0.23-0.094-0.23-0.279v-1.396C22.399,32.414,22.492,32.321,22.631,32.321z"/>
	<path fill="#3F63F6" d="M22.631,31.903h19.163c0.139,0,0.278,0.093,0.278,0.278v1.396c0,0.139-0.093,0.279-0.278,0.279H22.631
		c-0.139,0-0.23-0.094-0.23-0.279v-1.396C22.399,31.996,22.492,31.903,22.631,31.903z"/>
	<path fill="#D0D9FB" d="M34.398,37.298h1.58c0.141,0,0.279,0.092,0.279,0.278v1.396c0,0.141-0.093,0.279-0.279,0.279h-1.58
		c-0.141,0-0.278-0.094-0.278-0.279v-1.396C34.167,37.437,34.259,37.298,34.398,37.298z"/>
	<path fill="#3F63F6" d="M34.398,36.878h1.58c0.141,0,0.279,0.094,0.279,0.279v1.396c0,0.139-0.093,0.278-0.279,0.278h-1.58
		c-0.141,0-0.278-0.094-0.278-0.278v-1.396C34.167,37.017,34.259,36.878,34.398,36.878z"/>
	<path fill="#D0D9FB" d="M38.304,37.298h1.584c0.14,0,0.277,0.092,0.277,0.278v1.396c0,0.141-0.093,0.279-0.277,0.279h-1.584
		c-0.139,0-0.277-0.094-0.277-0.279v-1.396C38.072,37.437,38.165,37.298,38.304,37.298z"/>
	<path fill="#3F63F6" d="M38.304,36.878h1.584c0.14,0,0.277,0.094,0.277,0.279v1.396c0,0.139-0.093,0.278-0.277,0.278h-1.584
		c-0.139,0-0.277-0.094-0.277-0.278v-1.396C38.072,37.017,38.165,36.878,38.304,36.878z"/>
	<path fill="#D0D9FB" d="M26.492,37.298h1.58c0.143,0,0.279,0.092,0.279,0.278v1.396c0,0.141-0.092,0.279-0.279,0.279h-1.58
		c-0.141,0-0.279-0.094-0.279-0.279v-1.396C26.212,37.437,26.353,37.298,26.492,37.298z"/>
	<path fill="#3F63F6" d="M26.492,36.878h1.58c0.143,0,0.279,0.094,0.279,0.279v1.396c0,0.139-0.092,0.278-0.279,0.278h-1.58
		c-0.141,0-0.279-0.094-0.279-0.278v-1.396C26.212,37.017,26.353,36.878,26.492,36.878z"/>
	<path fill="#D0D9FB" d="M22.631,37.298h1.584c0.139,0,0.23,0.092,0.23,0.278v1.396c0,0.141-0.094,0.279-0.23,0.279h-1.584
		c-0.139,0-0.23-0.094-0.23-0.279v-1.396C22.399,37.437,22.492,37.298,22.631,37.298z"/>
	<path fill="#3F63F6" d="M22.631,36.878h1.584c0.139,0,0.23,0.094,0.23,0.279v1.396c0,0.139-0.094,0.278-0.23,0.278h-1.584
		c-0.139,0-0.23-0.094-0.23-0.278v-1.396C22.399,37.017,22.492,36.878,22.631,36.878z"/>
	<path fill="#D0D9FB" d="M30.398,37.298h1.582c0.14,0,0.279,0.092,0.279,0.278v1.396c0,0.141-0.095,0.279-0.279,0.279h-1.582
		c-0.141,0-0.278-0.094-0.278-0.279v-1.396C30.12,37.437,30.212,37.298,30.398,37.298z"/>
	<path fill="#3F63F6" d="M30.398,36.878h1.582c0.14,0,0.279,0.094,0.279,0.279v1.396c0,0.139-0.095,0.278-0.279,0.278h-1.582
		c-0.141,0-0.278-0.094-0.278-0.278v-1.396C30.12,37.017,30.212,36.878,30.398,36.878z"/>
	<path fill="#FFFFFF" d="M52.259,21.438H19.145c-1.305,0-2.325,1.023-2.325,2.326v26.277c0,1.487,1.905,2.14,2.836,0.978
		l3.211-4.139c1.022-1.304,2.604-1.117,4.278-1.117h25.162c1.303,0,2.326-1.023,2.326-2.326V23.764
		C54.584,22.51,53.56,21.438,52.259,21.438z"/>
	<path fill="#999999" d="M52.259,21.438c1.301,0,2.325,1.023,2.325,2.326v19.673c0,1.303-1.024,2.326-2.325,2.326H27.095
		c-0.416,0-0.789,0-1.162,0c-1.209,0-2.324,0.094-3.114,1.117l-3.209,4.139c-0.281,0.371-0.744,0.604-1.21,0.604
		c-0.791,0-1.581-0.604-1.581-1.582V23.764c0-1.303,1.021-2.326,2.325-2.326H52.259 M52.259,20.322H19.145
		c-1.906,0-3.489,1.535-3.489,3.488v26.278c0,0.743,0.325,1.487,0.885,1.998c0.513,0.467,1.209,0.744,1.861,0.744
		c0.836,0,1.626-0.371,2.139-1.068l3.257-4.14c0.418-0.514,0.929-0.651,2.185-0.651c0.188,0,0.371,0,0.558,0s0.419,0,0.604,0h25.162
		c1.908,0,3.488-1.58,3.488-3.488v-19.72C55.746,21.857,54.212,20.275,52.259,20.322z"/>
	<path opacity="0.5" fill="#999999" enable-background="new    " d="M22.492,27.159h27.114c0.139,0,0.279,0.095,0.279,0.233v1.396
		c0,0.14-0.094,0.279-0.279,0.279H22.492c-0.141,0-0.232-0.093-0.232-0.279v-1.396C22.26,27.251,22.354,27.159,22.492,27.159z"/>
	<path fill="#999999" d="M22.492,26.74h27.114c0.139,0,0.279,0.094,0.279,0.232v1.396c0,0.14-0.094,0.278-0.279,0.278H22.492
		c-0.141,0-0.232-0.092-0.232-0.278v-1.396C22.26,26.833,22.354,26.74,22.492,26.74z"/>
	<path opacity="0.5" fill="#999999" enable-background="new    " d="M22.631,32.321h19.163c0.139,0,0.278,0.094,0.278,0.278v1.396
		c0,0.141-0.093,0.279-0.278,0.279H22.631c-0.139,0-0.23-0.094-0.23-0.279v-1.396C22.399,32.414,22.492,32.321,22.631,32.321z"/>
	<path fill="#999999" d="M22.631,31.903h19.163c0.139,0,0.278,0.093,0.278,0.278v1.396c0,0.139-0.093,0.279-0.278,0.279H22.631
		c-0.139,0-0.23-0.094-0.23-0.279v-1.396C22.399,31.996,22.492,31.903,22.631,31.903z"/>
	<path opacity="0.5" fill="#999999" enable-background="new    " d="M34.398,37.298h1.58c0.141,0,0.279,0.092,0.279,0.278v1.396
		c0,0.141-0.093,0.279-0.279,0.279h-1.58c-0.141,0-0.278-0.094-0.278-0.279v-1.396C34.167,37.437,34.259,37.298,34.398,37.298z"/>
	<path fill="#999999" d="M34.398,36.878h1.58c0.141,0,0.279,0.094,0.279,0.279v1.396c0,0.139-0.093,0.278-0.279,0.278h-1.58
		c-0.141,0-0.278-0.094-0.278-0.278v-1.396C34.167,37.017,34.259,36.878,34.398,36.878z"/>
	<path opacity="0.5" fill="#999999" enable-background="new    " d="M38.304,37.298h1.584c0.14,0,0.277,0.092,0.277,0.278v1.396
		c0,0.141-0.093,0.279-0.277,0.279h-1.584c-0.139,0-0.277-0.094-0.277-0.279v-1.396C38.072,37.437,38.165,37.298,38.304,37.298z"/>
	<path fill="#999999" d="M38.304,36.878h1.584c0.14,0,0.277,0.094,0.277,0.279v1.396c0,0.139-0.093,0.278-0.277,0.278h-1.584
		c-0.139,0-0.277-0.094-0.277-0.278v-1.396C38.072,37.017,38.165,36.878,38.304,36.878z"/>
	<path opacity="0.5" fill="#999999" enable-background="new    " d="M26.492,37.298h1.58c0.143,0,0.279,0.092,0.279,0.278v1.396
		c0,0.141-0.092,0.279-0.279,0.279h-1.58c-0.141,0-0.279-0.094-0.279-0.279v-1.396C26.212,37.437,26.353,37.298,26.492,37.298z"/>
	<path fill="#999999" d="M26.492,36.878h1.58c0.143,0,0.279,0.094,0.279,0.279v1.396c0,0.139-0.092,0.278-0.279,0.278h-1.58
		c-0.141,0-0.279-0.094-0.279-0.278v-1.396C26.212,37.017,26.353,36.878,26.492,36.878z"/>
	<path opacity="0.5" fill="#999999" enable-background="new    " d="M22.631,37.298h1.584c0.139,0,0.23,0.092,0.23,0.278v1.396
		c0,0.141-0.094,0.279-0.23,0.279h-1.584c-0.139,0-0.23-0.094-0.23-0.279v-1.396C22.399,37.437,22.492,37.298,22.631,37.298z"/>
	<path fill="#999999" d="M22.631,36.878h1.584c0.139,0,0.23,0.094,0.23,0.279v1.396c0,0.139-0.094,0.278-0.23,0.278h-1.584
		c-0.139,0-0.23-0.094-0.23-0.278v-1.396C22.399,37.017,22.492,36.878,22.631,36.878z"/>
	<path opacity="0.5" fill="#999999" enable-background="new    " d="M30.398,37.298h1.582c0.14,0,0.279,0.092,0.279,0.278v1.396
		c0,0.141-0.095,0.279-0.279,0.279h-1.582c-0.141,0-0.278-0.094-0.278-0.279v-1.396C30.12,37.437,30.212,37.298,30.398,37.298z"/>
	<path fill="#999999" d="M30.398,36.878h1.582c0.14,0,0.279,0.094,0.279,0.279v1.396c0,0.139-0.095,0.278-0.279,0.278h-1.582
		c-0.141,0-0.278-0.094-0.278-0.278v-1.396C30.12,37.017,30.212,36.878,30.398,36.878z"/>
	
		<text transform="matrix(1 0 0 1 44.1055 38.7168)" fill="#999999" font-family="'AdobeSongStd-Light-GBpc-EUC-H'" font-size="7.998">磋</text>
</g>
</svg>
