<?xml version="1.0" standalone="no"?><!DOCTYPE svg PUBLIC "-//W3C//DTD SVG 1.1//EN" "http://www.w3.org/Graphics/SVG/1.1/DTD/svg11.dtd"><svg class="icon" width="200px" height="200.00px" viewBox="0 0 1024 1024" version="1.1" xmlns="http://www.w3.org/2000/svg"><path d="M344.8 192.8h555.4c22.1 0 40.1 17.9 40.1 40.1v462.6c0 25.7-32.5 36.9-48.4 16.6l-55.5-71.2c-17.6-22.6-44.7-19.1-73.3-19.1H344.8c-22.1 0-40-17.9-40.1-40v-349c0.1-22.1 18-40 40.1-40z" fill="#d0d9fb" /><path d="M900.3 192.8c22.1 0 40.1 17.9 40.1 40.1v462.6c0 16.6-13.5 27.1-27.3 27.1-8.3 0-16.1-3.9-21.1-10.5l-55.6-71.2c-13.5-17.2-32.4-19.3-53.3-19.3-6.5 0-13.2 0.2-20 0.2H344.8c-22.1 0-40-17.9-40.1-40v-349c0-22.1 17.9-40.1 40.1-40.1l555.5 0.1m0-19.9H344.8c-33.1 0-60 26.9-60 60v349c0 33.1 26.9 60 60 60H763c3.6 0 7.1 0 10.5-0.1s6.4-0.1 9.5-0.1c21.6 0 30.8 2.8 37.6 11.6l55.6 71.2c8.8 11.4 22.4 18.1 36.8 18.1 12-0.1 23.5-4.6 32.3-12.7 9.6-8.9 15-21.3 14.9-34.4V232.8c0-33.1-26.8-60-59.9-59.9z" fill="#3f63f6" /><path d="M900.3 192.8H344.8c-22.1 0-40.1 17.9-40.1 40.1v18.7c0-22.1 17.9-40.1 40.1-40.1h555.4c22.1 0 40.1 17.9 40.1 40.1v-18.7c0-22.2-17.9-40.1-40-40.1z" fill="#ffffff" /><path d="M892 696.7l-55.6-71.2c-17.6-22.6-44.7-19.1-73.3-19.1H344.8c-22.1 0-40.1-17.9-40.1-40.1v15.5c0 22.1 18 40 40.1 40H763c28.7 0 55.7-3.5 73.3 19.1l55.6 71.2c15.8 20.3 48.4 9.1 48.4-16.6V680.1c0 25.7-32.5 36.9-48.3 16.6z" fill="#7b96f7" /><path d="M709.4 281.8H310.5c-1.9 0-3.8 0.1-5.7 0.3v339.9l459.8-0.1v-285c0-30.4-24.7-55.1-55.2-55.1z" fill="#afc2f9" /><path d="M693.9 311.6h-570c-22.1 0-40.1 17.9-40.1 40.1V804.1c0 25.7 32.5 36.9 48.4 16.6l55.6-71.2c17.6-22.6 44.7-19.1 73.3-19.1h432.8c22.1 0 40-18 40-40.1V351.6c0-22.1-17.9-40-40-40z" fill="#ffffff" /><path d="M693.9 311.6c22.1 0 40 18 40 40.1v338.7c0 22.1-17.9 40-40 40.1H261.1c-6.8 0-13.5-0.2-20-0.2-20.9 0-39.9 2-53.3 19.3l-55.5 71.2c-5 6.6-12.8 10.5-21.1 10.5-13.8 0-27.3-10.5-27.3-27.1V351.6c0-22.1 17.9-40.1 40.1-40.1h569.9m0-19.8h-570c-33.1 0-60 26.9-60 60v452.3c-0.1 13.1 5.3 25.5 14.9 34.4 8.8 8.1 20.4 12.6 32.3 12.6 14.4 0 28-6.7 36.8-18.2l55.6-71.2c6.9-8.8 16-11.6 37.6-11.6 3.1 0 6.2 0 9.5 0.1s6.9 0.1 10.5 0.1h432.8c33.1 0 60-26.9 60-60V351.6c0-33.1-26.9-60-60-59.9z" fill="#3f63f6" /><path d="M693.9 714.9H261.1c-28.6 0-55.7-3.5-73.3 19.1l-55.5 71.2c-15.8 20.3-48.4 9.1-48.4-16.6v15.4c0 25.7 32.5 36.9 48.4 16.6l55.6-71.2c17.6-22.6 44.7-19.1 73.3-19.1h432.7c22.1 0 40-18 40-40.1v-15.4c0 22.2-17.9 40.1-40 40.1zM643.6 560.9c-5.8-5.9-18.3-12.8-34.8-18-9.8-3.1-15.5-5.6-15.5-13 0-10.4 6.6-12.7 14.9-12.7 6.4 0 15.8 7.7 15.8 14l25.4-6c0-4.8-3.7-12.9-11-19.1-5.9-5-13.5-7.9-22.8-8.9v-13.5h-16.9v13.5c-9.8 1.2-16.7 4.4-22.6 9.4-6.1 5.1-9.8 13.6-9.8 22 0 9.7 1.5 18.1 6.9 24s24.9 12.6 34.6 14.7c9.3 2.1 18 8 18 16.1 0.1 10-9.1 13.7-16.7 13.7-12.9 0-21.5-9.6-21.5-17.9l-25.4 6.2c1.6 8.9 4.2 15.9 12.5 22.5 6.3 5 13.7 8.1 24 9.3v16h16.9v-15.8c8.9-0.8 17.4-4.1 24.5-9.5 7.9-5.9 12.1-13.5 12.1-24.7 0-8.9-2.9-16.4-8.6-22.3z" fill="#d0d9fb" /><path d="M643.6 555.4c-5.8-5.9-18.3-12.8-34.8-18-9.8-3.1-15.5-5.6-15.5-13 0-10.4 6.6-12.7 14.9-12.7 6.4 0 15.8 7.7 15.8 14l25.4-6c0-4.8-3.7-12.9-11-19.1-5.9-5-13.5-7.9-22.8-8.9v-13.5h-16.9v13.5c-9.8 1.2-16.7 4.4-22.6 9.4-6.1 5.1-9.8 13.6-9.8 22 0 9.7 1.5 18.1 6.9 24s24.9 12.6 34.6 14.7c9.3 2.1 18 8 18 16.1 0.1 10-9.1 13.7-16.7 13.7-12.9 0-21.5-9.6-21.5-17.9l-25.4 6.2c1.6 8.9 4.2 15.9 12.5 22.5 6.3 5 13.7 8.1 24 9.3v16h16.9v-15.8c8.9-0.8 17.4-4.1 24.5-9.5 7.9-5.9 12.1-13.5 12.1-24.7 0-8.9-2.9-16.3-8.6-22.3z" fill="#3f63f6" /><path d="M181.9 409.3h465.9c2.5 0 4.5 2 4.5 4.4v24.1c0 2.5-2 4.5-4.5 4.5H181.9c-2.5 0-4.4-2-4.4-4.5v-24.1c0-2.4 1.9-4.4 4.4-4.4z" fill="#d0d9fb" /><path d="M181.9 402.1h465.9c2.5 0 4.5 2 4.5 4.4v24.1c0 2.5-2 4.5-4.5 4.5H181.9c-2.5 0-4.4-2-4.4-4.5v-24.1c0-2.4 1.9-4.4 4.4-4.4z" fill="#3f63f6" /><path d="M184 498.2h329.9c2.5 0 4.5 2 4.5 4.5v24.1c0 2.5-2 4.5-4.5 4.5H184c-2.5 0-4.4-2-4.4-4.5v-24.1c0-2.6 2-4.5 4.4-4.5z" fill="#d0d9fb" /><path d="M184 490.9h329.9c2.5 0 4.5 2 4.5 4.5v24.1c0 2.5-2 4.5-4.5 4.5H184c-2.5 0-4.4-2-4.4-4.5v-24.1c0-2.5 2-4.5 4.4-4.5z" fill="#3f63f6" /><path d="M386.8 584.1h27.3c2.5 0 4.5 2 4.5 4.5v24.1c0 2.5-2 4.4-4.5 4.4h-27.3c-2.5 0-4.5-2-4.5-4.4v-24.1c0.1-2.5 2-4.5 4.5-4.5z" fill="#d0d9fb" /><path d="M386.8 576.9h27.3c2.5 0 4.5 2 4.5 4.5v24.1c0 2.5-2 4.5-4.5 4.5h-27.3c-2.5 0-4.5-2-4.5-4.5v-24.1c0.1-2.5 2-4.5 4.5-4.5z" fill="#3f63f6" /><path d="M453.8 584.1h27.3c2.5 0 4.5 2 4.5 4.5v24.1c0 2.5-2 4.4-4.5 4.4h-27.3c-2.5 0-4.5-2-4.5-4.4v-24.1c0.1-2.5 2.1-4.5 4.5-4.5z" fill="#d0d9fb" /><path d="M453.8 576.9h27.3c2.5 0 4.5 2 4.5 4.5v24.1c0 2.5-2 4.5-4.5 4.5h-27.3c-2.5 0-4.5-2-4.5-4.5v-24.1c0.1-2.5 2.1-4.5 4.5-4.5z" fill="#3f63f6" /><path d="M250.2 584.1h27.3c2.5 0 4.5 2 4.5 4.5v24.1c0 2.5-2 4.4-4.5 4.4h-27.3c-2.5 0-4.5-2-4.5-4.4v-24.1c0-2.5 2-4.5 4.5-4.5z" fill="#d0d9fb" /><path d="M250.2 576.9h27.3c2.5 0 4.5 2 4.5 4.5v24.1c0 2.5-2 4.5-4.5 4.5h-27.3c-2.5 0-4.5-2-4.5-4.5v-24.1c0-2.5 2-4.5 4.5-4.5z" fill="#3f63f6" /><path d="M184 584.1h27.3c2.5 0 4.4 2 4.4 4.5v24.1c0 2.5-2 4.4-4.4 4.4H184c-2.5 0-4.4-2-4.4-4.4v-24.1c0-2.5 2-4.5 4.4-4.5z" fill="#d0d9fb" /><path d="M184 576.9h27.3c2.5 0 4.4 2 4.4 4.5v24.1c0 2.5-2 4.5-4.4 4.5H184c-2.5 0-4.4-2-4.4-4.5v-24.1c0-2.5 2-4.5 4.4-4.5z" fill="#3f63f6" /><path d="M317.2 584.1h27.3c2.5 0 4.5 2 4.5 4.5v24.1c0 2.5-2 4.4-4.5 4.4h-27.3c-2.5 0-4.5-2-4.5-4.4v-24.1c0.1-2.5 2-4.5 4.5-4.5z" fill="#d0d9fb" /><path d="M317.2 576.9h27.3c2.5 0 4.5 2 4.5 4.5v24.1c0 2.5-2 4.5-4.5 4.5h-27.3c-2.5 0-4.5-2-4.5-4.5v-24.1c0.1-2.5 2-4.5 4.5-4.5z" fill="#3f63f6" /><path d="M753.8 606.4h10.8v15.5h-10.8z" fill="#5c8bf2" /></svg>