<?xml version="1.0" encoding="utf-8"?>
<!-- Generator: Adobe Illustrator 16.0.0, SVG Export Plug-In . SVG Version: 6.00 Build 0)  -->
<!DOCTYPE svg PUBLIC "-//W3C//DTD SVG 1.1//EN" "http://www.w3.org/Graphics/SVG/1.1/DTD/svg11.dtd">
<svg version="1.1" id="图层_1" xmlns="http://www.w3.org/2000/svg" xmlns:xlink="http://www.w3.org/1999/xlink" x="0px" y="0px"
	 width="200px" height="200px" viewBox="0 0 200 200" enable-background="new 0 0 200 200" xml:space="preserve">
<path fill="#FFFFFF" d="M23.301,14.258h134.063c1.289,0,2.345,1.055,2.345,2.344v163.516c0,1.288-1.056,2.344-2.345,2.344H23.301
	c-1.289,0-2.344-1.056-2.344-2.344V16.602C20.957,15.313,22.012,14.258,23.301,14.258z"/>
<path fill="#3F63F6" d="M155.391,184.18H25.313c-3.398,0-6.152-2.617-6.152-5.84V18.398c0-3.223,2.754-5.84,6.152-5.84h130.078
	c3.379,0,6.152,2.617,6.152,5.84V178.34C161.523,181.563,158.77,184.18,155.391,184.18z M25.293,15.977
	c-1.387,0-2.539,1.074-2.539,2.402V178.32c0,1.328,1.133,2.402,2.539,2.402h130.078c1.387,0,2.539-1.074,2.539-2.402V18.398
	c0-1.328-1.133-2.402-2.539-2.402H25.293V15.977z"/>
<path fill="#AFC2F9" d="M42.539,38.379h8.926c0.723,0,1.309,0.586,1.309,1.309v8.945c0,0.723-0.586,1.309-1.309,1.309h-8.926
	c-0.723,0-1.309-0.586-1.309-1.309v-8.926C41.23,38.965,41.816,38.379,42.539,38.379z M64.375,40.859h74.199
	c0.488,0,0.879,0.391,0.879,0.859v4.844c0,0.488-0.391,0.859-0.879,0.859H64.375c-0.488,0-0.859-0.391-0.859-0.859v-4.844
	C63.516,41.25,63.906,40.859,64.375,40.859z"/>
<path fill="#3F63F6" d="M42.539,36.934h8.926c0.723,0,1.309,0.586,1.309,1.309v8.926c0,0.723-0.586,1.309-1.309,1.309h-8.926
	c-0.723,0-1.309-0.586-1.309-1.309v-8.926C41.23,37.52,41.816,36.934,42.539,36.934z M64.375,39.414h74.199
	c0.488,0,0.879,0.391,0.879,0.859v4.844c0,0.488-0.391,0.859-0.879,0.859H64.375c-0.488,0-0.859-0.391-0.859-0.859v-4.844
	C63.516,39.805,63.906,39.414,64.375,39.414z"/>
<path fill="#AFC2F9" d="M42.539,67.324h8.926c0.723,0,1.309,0.586,1.309,1.309v8.926c0,0.723-0.586,1.309-1.309,1.309h-8.926
	c-0.723,0-1.309-0.586-1.309-1.309v-8.926C41.23,67.91,41.816,67.324,42.539,67.324z M64.375,69.824h74.199
	c0.488,0,0.879,0.391,0.879,0.879v4.844c0,0.488-0.391,0.879-0.879,0.879H64.375c-0.488,0-0.859-0.391-0.859-0.879v-4.844
	C63.516,70.195,63.906,69.824,64.375,69.824z"/>
<path fill="#3F63F6" d="M42.539,65.879h8.926c0.723,0,1.309,0.586,1.309,1.309v8.926c0,0.723-0.586,1.309-1.309,1.309h-8.926
	c-0.723,0-1.309-0.586-1.309-1.309v-8.926C41.23,66.465,41.816,65.879,42.539,65.879z M64.375,68.379h74.199
	c0.488,0,0.879,0.391,0.879,0.879v4.844c0,0.488-0.391,0.879-0.879,0.879H64.375c-0.488,0-0.859-0.391-0.859-0.879v-4.844
	C63.516,68.75,63.906,68.379,64.375,68.379z"/>
<path fill="#AFC2F9" d="M42.539,95.234h8.926c0.723,0,1.309,0.586,1.309,1.309v8.926c0,0.723-0.586,1.309-1.309,1.309h-8.926
	c-0.723,0-1.309-0.586-1.309-1.309v-8.926C41.23,95.84,41.816,95.234,42.539,95.234z M64.375,97.734h74.199
	c0.488,0,0.879,0.391,0.879,0.879v4.844c0,0.488-0.391,0.879-0.879,0.879H64.375c-0.488,0-0.859-0.391-0.859-0.879v-4.844
	C63.516,98.125,63.906,97.734,64.375,97.734z"/>
<path fill="#3F63F6" d="M42.539,93.789h8.926c0.723,0,1.309,0.586,1.309,1.309v8.925c0,0.724-0.586,1.31-1.309,1.31h-8.926
	c-0.723,0-1.309-0.586-1.309-1.31v-8.905C41.23,94.395,41.816,93.789,42.539,93.789z M64.375,96.289h74.199
	c0.488,0,0.879,0.391,0.879,0.879v4.844c0,0.488-0.391,0.879-0.879,0.879H64.375c-0.488,0-0.859-0.391-0.859-0.879v-4.844
	C63.516,96.68,63.906,96.289,64.375,96.289z"/>
<path fill="#AFC2F9" d="M23.848,177.227h133.007c0.586,0,1.074,0.488,1.074,1.074v0.352c0,1.134-0.918,2.07-2.07,2.07H24.844
	c-1.133,0-2.07-0.918-2.07-2.07v-0.352C22.773,177.715,23.242,177.227,23.848,177.227z"/>
<path opacity="0.5" fill="#3F63F6" enable-background="new    " d="M168.787,166.814l4.568-2.876
	c0.677-0.508,1.015-1.354,0.846-2.201l-2.199-9.981c-0.169-0.847-0.848-1.522-1.693-1.522l-5.414-0.678
	c-0.507,0-1.015-0.337-1.354-0.678l-0.845-1.184c-0.339-0.507-0.508-1.015-0.508-1.523l0.677-5.415
	c0.17-0.845-0.338-1.691-1.185-2.029l-9.138-4.398c-0.845-0.338-1.69-0.17-2.368,0.337l-3.891,3.893
	c-0.338,0.338-0.846,0.676-1.522,0.676h-1.524c-0.507,0-1.015-0.169-1.522-0.676l-3.89-3.893c-0.679-0.676-1.524-0.846-2.37-0.337
	l-9.137,4.398c-0.506,0.338-1.015,1.185-1.015,2.029l0.677,5.415c0,0.509-0.168,1.017-0.507,1.523l-0.846,1.184
	c-0.339,0.508-0.847,0.678-1.354,0.678l-5.415,0.678c-0.845,0.168-1.522,0.676-1.691,1.522l-2.201,9.981
	c-0.167,0.846,0.171,1.693,0.846,2.201l4.57,2.876c0.506,0.337,0.845,0.677,0.845,1.354l0.339,1.353
	c0.169,0.509,0,1.015-0.339,1.523l-2.876,4.568c-0.508,0.677-0.337,1.691,0.17,2.368l6.43,7.951c0.508,0.677,1.522,1.016,2.2,0.677
	l5.074-1.859c0.509-0.171,1.017-0.171,1.524,0.169l1.353,0.678c0.508,0.169,0.845,0.677,1.015,1.185l1.861,5.243
	c0.339,0.848,1.016,1.354,1.861,1.354h10.152c0.844,0,1.691-0.507,1.86-1.354l1.86-5.243c0.171-0.508,0.509-1.016,1.016-1.185
	l1.354-0.678c0.508-0.169,1.015-0.339,1.522-0.169l5.076,1.859c0.846,0.339,1.691,0,2.201-0.677l6.428-7.951
	c0.509-0.678,0.678-1.692,0.17-2.368l-2.877-4.568c-0.338-0.509-0.338-1.015-0.338-1.523l0.338-1.353
	C167.941,167.491,168.279,166.983,168.787,166.814L168.787,166.814z M145.776,173.074c-5.414,0.846-10.49-2.707-11.336-8.121
	c-0.169-1.015-0.169-2.201,0-3.216c0.677-4.06,3.892-7.444,7.951-7.951c5.415-0.847,10.492,2.707,11.337,7.951
	c0.168,1.186,0.168,2.201,0,3.385C153.051,169.183,149.836,172.397,145.776,173.074z"/>
<path fill="#3F63F6" d="M168.785,164.191l4.57-2.876c0.676-0.508,1.015-1.354,0.845-2.2l-2.199-9.981
	c-0.17-0.847-0.848-1.523-1.692-1.523l-5.414-0.677c-0.508,0-1.015-0.338-1.354-0.679l-0.846-1.183
	c-0.338-0.508-0.508-1.016-0.508-1.523l0.677-5.415c0.17-0.845-0.338-1.692-1.185-2.03l-9.138-4.398
	c-0.845-0.338-1.691-0.17-2.368,0.338l-3.891,3.891c-0.338,0.339-0.846,0.678-1.523,0.678h-1.522c-0.508,0-1.016-0.17-1.522-0.678
	l-3.892-3.891c-0.677-0.676-1.522-0.846-2.369-0.338l-9.136,4.398c-0.508,0.338-1.015,1.186-1.015,2.03l0.677,5.415
	c0,0.508-0.17,1.016-0.508,1.523l-0.846,1.183c-0.338,0.509-0.846,0.679-1.354,0.679l-5.414,0.677
	c-0.845,0.168-1.524,0.677-1.691,1.523l-2.201,9.981c-0.169,0.846,0.17,1.692,0.846,2.2l4.568,2.876
	c0.508,0.338,0.846,0.677,0.846,1.354l0.339,1.353c0.17,0.508,0,1.016-0.339,1.522l-2.875,4.57c-0.51,0.676-0.338,1.69,0.169,2.368
	l6.429,7.95c0.508,0.678,1.523,1.017,2.201,0.678l5.075-1.859c0.507-0.171,1.015-0.171,1.523,0.169l1.353,0.676
	c0.508,0.17,0.846,0.678,1.016,1.186l1.861,5.244c0.337,0.847,1.016,1.354,1.859,1.354h10.154c0.844,0,1.69-0.507,1.86-1.354
	l1.86-5.244c0.169-0.508,0.508-1.016,1.016-1.186l1.353-0.676c0.508-0.169,1.015-0.34,1.523-0.169l5.075,1.859
	c0.846,0.339,1.692,0,2.2-0.678l6.429-7.95c0.508-0.679,0.678-1.693,0.171-2.368l-2.878-4.57c-0.337-0.507-0.337-1.015-0.337-1.522
	l0.337-1.353C167.94,164.868,168.279,164.361,168.785,164.191L168.785,164.191z M145.776,170.451
	c-5.415,0.845-10.49-2.708-11.337-8.121c-0.168-1.015-0.168-2.2,0-3.216c0.678-4.061,3.893-7.444,7.952-7.952
	c5.414-0.846,10.49,2.708,11.337,7.952c0.168,1.186,0.168,2.201,0,3.384C153.051,166.56,149.836,169.775,145.776,170.451z"/>
</svg>
