<?xml version="1.0" encoding="utf-8"?>
<!-- Generator: Adobe Illustrator 16.0.0, SVG Export Plug-In . SVG Version: 6.00 Build 0)  -->
<!DOCTYPE svg PUBLIC "-//W3C//DTD SVG 1.1//EN" "http://www.w3.org/Graphics/SVG/1.1/DTD/svg11.dtd">
<svg version="1.1" id="图层_1" xmlns="http://www.w3.org/2000/svg" xmlns:xlink="http://www.w3.org/1999/xlink" x="0px" y="0px"
	 width="72px" height="72px" viewBox="0 0 72 72" enable-background="new 0 0 72 72" xml:space="preserve">
<circle fill="#FFFFFF" stroke="#999999" stroke-miterlimit="10" cx="36.837" cy="36.838" r="34.162"/>
<g>
	<g>
		<g>
			<g>
				<g>
					<g>
						<defs>
							<rect id="SVGID_1_" x="15.67" y="13.94" width="42.337" height="41.793"/>
						</defs>
						<clipPath id="SVGID_2_">
							<use xlink:href="#SVGID_1_"  overflow="visible"/>
						</clipPath>
						<path opacity="0.5" clip-path="url(#SVGID_2_)" fill="#999999" enable-background="new    " d="M16.989,24.999h36.677
							c0.492,0,0.894,0.402,0.894,0.893v24.812c0,0.491-0.4,0.893-0.894,0.893H16.989c-0.491,0-0.894-0.4-0.894-0.893V25.891
							C16.096,25.401,16.497,24.999,16.989,24.999"/>
					</g>
				</g>
			</g>
		</g>
		<g>
			<g>
				<g>
					<g>
						<defs>
							<rect id="SVGID_3_" x="15.67" y="13.94" width="42.337" height="41.793"/>
						</defs>
						<clipPath id="SVGID_4_">
							<use xlink:href="#SVGID_3_"  overflow="visible"/>
						</clipPath>
						<path clip-path="url(#SVGID_4_)" fill="#999999" d="M52.956,52.02H17.697c-1.119,0-2.021-0.905-2.025-2.024V26.6
							c0.004-1.119,0.906-2.021,2.025-2.025h35.26c1.121,0.004,2.022,0.906,2.027,2.025v23.394
							C54.979,51.114,54.072,52.02,52.956,52.02 M17.697,25.424c-0.646,0.004-1.175,0.528-1.175,1.182V50
							c0,0.646,0.529,1.176,1.175,1.176h35.26c0.652,0,1.179-0.529,1.179-1.181V26.6c0-0.651-0.529-1.176-1.179-1.18h-35.26V25.424z
							"/>
					</g>
				</g>
			</g>
		</g>
	</g>
	<g>
		<g>
			<g>
				<g>
					<g>
						<defs>
							<rect id="SVGID_5_" x="15.67" y="13.94" width="42.331" height="41.793"/>
						</defs>
						<clipPath id="SVGID_6_">
							<use xlink:href="#SVGID_5_"  overflow="visible"/>
						</clipPath>
						<path clip-path="url(#SVGID_6_)" fill="#FFFFFF" d="M16.412,29.289l26.079-15.059c0.454-0.266,1.035-0.109,1.3,0.35
							l10.384,17.983c0.267,0.453,0.109,1.035-0.348,1.299L27.743,48.918c-0.453,0.266-1.035,0.108-1.298-0.351L16.063,30.588
							C15.799,30.133,15.953,29.547,16.412,29.289"/>
					</g>
				</g>
			</g>
		</g>
		<g>
			<g>
				<g>
					<g>
						<defs>
							<rect id="SVGID_7_" x="15.67" y="13.94" width="42.331" height="41.793"/>
						</defs>
						<clipPath id="SVGID_8_">
							<use xlink:href="#SVGID_7_"  overflow="visible"/>
						</clipPath>
						<path clip-path="url(#SVGID_8_)" fill="#999999" d="M27.546,49.191c-0.188,0-0.373-0.023-0.557-0.075
							c-0.549-0.146-1.011-0.501-1.295-0.993l-9.623-16.671c-0.585-1.021-0.241-2.319,0.78-2.909L41.622,14.24
							c1.02-0.587,2.319-0.237,2.909,0.778l9.629,16.669c0.586,1.021,0.235,2.32-0.778,2.91L28.607,48.908
							C28.287,49.096,27.919,49.191,27.546,49.191 M42.687,14.8c-0.228,0-0.443,0.063-0.639,0.17L17.277,29.279
							c-0.614,0.354-0.822,1.139-0.468,1.752l9.626,16.671c0.355,0.614,1.14,0.822,1.754,0.468l24.768-14.3
							c0.615-0.354,0.822-1.14,0.47-1.752l-9.625-16.67C43.57,15.046,43.144,14.804,42.687,14.8"/>
					</g>
				</g>
			</g>
		</g>
	</g>
	<g>
		<g>
			<g>
				<g>
					<g>
						<defs>
							<rect id="SVGID_9_" x="15.67" y="13.94" width="42.337" height="41.793"/>
						</defs>
						<clipPath id="SVGID_10_">
							<use xlink:href="#SVGID_9_"  overflow="visible"/>
						</clipPath>
						<polygon opacity="0.1" clip-path="url(#SVGID_10_)" fill="#999999" enable-background="new    " points="51.484,28.711 
							18.253,28.711 20.384,27.484 50.755,27.484 						"/>
					</g>
				</g>
			</g>
		</g>
		<g>
			<g>
				<g>
					<g>
						<defs>
							<rect id="SVGID_11_" x="15.67" y="13.94" width="42.337" height="41.793"/>
						</defs>
						<clipPath id="SVGID_12_">
							<use xlink:href="#SVGID_11_"  overflow="visible"/>
						</clipPath>
						<polygon opacity="0.3" clip-path="url(#SVGID_12_)" fill="#999999" enable-background="new    " points="22.171,33.422 
							46.173,19.563 49.988,26.167 25.985,40.024 						"/>
					</g>
				</g>
			</g>
		</g>
		<g>
			<g>
				<g>
					<g>
						<defs>
							<rect id="SVGID_13_" x="15.67" y="13.94" width="42.337" height="41.793"/>
						</defs>
						<clipPath id="SVGID_14_">
							<use xlink:href="#SVGID_13_"  overflow="visible"/>
						</clipPath>
						<path clip-path="url(#SVGID_14_)" fill="#FFFFFF" d="M16.989,28.655h36.677c0.492,0,0.894,0.4,0.894,0.893V54.36
							c0,0.491-0.4,0.894-0.894,0.894H16.989c-0.491,0-0.894-0.402-0.894-0.894V29.547C16.096,29.051,16.497,28.655,16.989,28.655"
							/>
					</g>
				</g>
			</g>
		</g>
		<g>
			<g>
				<g>
					<g>
						<defs>
							<rect id="SVGID_15_" x="15.67" y="13.94" width="42.337" height="41.793"/>
						</defs>
						<clipPath id="SVGID_16_">
							<use xlink:href="#SVGID_15_"  overflow="visible"/>
						</clipPath>
						<path clip-path="url(#SVGID_16_)" fill="#999999" d="M52.956,28.231H17.697c-1.119,0.004-2.021,0.906-2.025,2.025v23.396
							c0.004,1.12,0.906,2.021,2.025,2.026h35.26c1.121-0.006,2.021-0.906,2.027-2.026V30.256
							C54.979,29.137,54.072,28.235,52.956,28.231 M54.132,53.651c0,0.651-0.526,1.176-1.176,1.181H17.697
							c-0.646-0.005-1.175-0.527-1.175-1.181V30.256c0-0.646,0.529-1.175,1.175-1.18h35.26c0.652,0,1.177,0.528,1.177,1.18v23.396
							H54.132z"/>
					</g>
				</g>
			</g>
		</g>
	</g>
	<g>
		<g>
			<g>
				<g>
					<g>
						<defs>
							<rect id="SVGID_17_" x="15.67" y="13.94" width="42.331" height="41.793"/>
						</defs>
						<clipPath id="SVGID_18_">
							<use xlink:href="#SVGID_17_"  overflow="visible"/>
						</clipPath>
						<path clip-path="url(#SVGID_18_)" fill="#FFFFFF" d="M48.681,38.297h8.052c0.469,0,0.85,0.383,0.85,0.85v5.613
							c0,0.467-0.381,0.851-0.85,0.851h-8.052c-0.467,0-0.851-0.384-0.851-0.851v-5.613C47.83,38.68,48.208,38.297,48.681,38.297"/>
					</g>
				</g>
			</g>
		</g>
		<g>
			<g>
				<g>
					<g>
						<defs>
							<rect id="SVGID_19_" x="15.67" y="13.94" width="42.331" height="41.793"/>
						</defs>
						<clipPath id="SVGID_20_">
							<use xlink:href="#SVGID_19_"  overflow="visible"/>
						</clipPath>
						<path clip-path="url(#SVGID_20_)" fill="#999999" d="M56.056,46.031h-6.698c-1.077,0-1.951-0.875-1.951-1.952v-4.256
							c0-1.076,0.874-1.951,1.951-1.951h6.698c1.078,0,1.951,0.875,1.951,1.951v4.256C58.007,45.156,57.132,46.031,56.056,46.031
							 M49.357,38.723c-0.609,0-1.103,0.494-1.103,1.101v4.256c0,0.61,0.497,1.101,1.103,1.101h6.698
							c0.609,0,1.103-0.496,1.103-1.101v-4.256c0-0.608-0.496-1.101-1.103-1.101H49.357L49.357,38.723z"/>
					</g>
				</g>
			</g>
		</g>
	</g>
	<g>
		<g>
			<g>
				<g>
					<g>
						<defs>
							<rect id="SVGID_21_" x="15.67" y="13.94" width="42.337" height="41.793"/>
						</defs>
						<clipPath id="SVGID_22_">
							<use xlink:href="#SVGID_21_"  overflow="visible"/>
						</clipPath>
						<path opacity="0.1" clip-path="url(#SVGID_22_)" fill="#999999" enable-background="new    " d="M55.767,44.5H49.65
							c-0.771,0-1.396-0.623-1.396-1.395v0.959c0,0.628,0.506,1.134,1.135,1.134h6.644c0.629,0,1.135-0.506,1.135-1.134v-0.959
							C57.161,43.877,56.538,44.5,55.767,44.5"/>
					</g>
				</g>
			</g>
		</g>
		<g>
			<g>
				<g>
					<g>
						<defs>
							<rect id="SVGID_23_" x="15.67" y="13.94" width="42.337" height="41.793"/>
						</defs>
						<clipPath id="SVGID_24_">
							<use xlink:href="#SVGID_23_"  overflow="visible"/>
						</clipPath>
						<path clip-path="url(#SVGID_24_)" fill="#FFFFFF" d="M49.593,41.952c0,0.621,0.504,1.125,1.123,1.125
							c0.623,0,1.125-0.504,1.125-1.125c0-0.62-0.502-1.124-1.125-1.124C50.097,40.828,49.593,41.332,49.593,41.952"/>
					</g>
				</g>
			</g>
		</g>
		<g>
			<g>
				<g>
					<g>
						<defs>
							<rect id="SVGID_25_" x="15.67" y="13.94" width="42.337" height="41.793"/>
						</defs>
						<clipPath id="SVGID_26_">
							<use xlink:href="#SVGID_25_"  overflow="visible"/>
						</clipPath>
						<path clip-path="url(#SVGID_26_)" fill="#999999" d="M50.716,43.328c-0.76,0-1.373-0.619-1.373-1.38s0.617-1.375,1.379-1.375
							c0.763,0,1.375,0.619,1.375,1.375C52.097,42.713,51.478,43.328,50.716,43.328 M50.716,41.084
							c-0.475,0-0.867,0.387-0.867,0.868s0.388,0.87,0.867,0.87c0.482,0,0.871-0.389,0.871-0.87S51.199,41.084,50.716,41.084"/>
					</g>
				</g>
			</g>
		</g>
		<g>
			<g>
				<g>
					<g>
						<defs>
							<rect id="SVGID_27_" x="15.67" y="13.94" width="42.337" height="41.793"/>
						</defs>
						<clipPath id="SVGID_28_">
							<use xlink:href="#SVGID_27_"  overflow="visible"/>
						</clipPath>
						<path opacity="0.5" clip-path="url(#SVGID_28_)" fill="#999999" enable-background="new    " d="M19.728,32.32h3.15
							c0.189,0,0.34,0.152,0.34,0.34v0.539c0,0.189-0.149,0.34-0.34,0.34h-3.15c-0.188,0-0.34-0.15-0.34-0.34V32.66
							C19.388,32.473,19.539,32.32,19.728,32.32 M25.322,32.32h3.15c0.188,0,0.34,0.152,0.34,0.34v0.539
							c0,0.189-0.15,0.34-0.34,0.34h-3.15c-0.189,0-0.34-0.15-0.34-0.34V32.66C24.982,32.473,25.136,32.32,25.322,32.32
							 M31.003,32.32h3.151c0.188,0,0.34,0.152,0.34,0.34v0.539c0,0.189-0.151,0.34-0.34,0.34h-3.151
							c-0.188,0-0.341-0.15-0.341-0.34V32.66C30.662,32.473,30.815,32.32,31.003,32.32 M36.601,32.32h3.152
							c0.188,0,0.34,0.152,0.34,0.34v0.539c0,0.189-0.151,0.34-0.34,0.34h-3.152c-0.188,0-0.34-0.15-0.34-0.34V32.66
							C36.261,32.473,36.412,32.32,36.601,32.32 M42.175,32.32h3.151c0.188,0,0.341,0.152,0.341,0.34v0.539
							c0,0.189-0.15,0.34-0.341,0.34h-3.151c-0.188,0-0.34-0.15-0.34-0.34V32.66C41.835,32.473,41.991,32.32,42.175,32.32
							 M47.774,32.32h3.15c0.189,0,0.34,0.152,0.34,0.34v0.539c0,0.189-0.149,0.34-0.34,0.34h-3.15c-0.188,0-0.34-0.15-0.34-0.34
							V32.66C47.435,32.473,47.585,32.32,47.774,32.32"/>
					</g>
				</g>
			</g>
		</g>
		<g>
			<g>
				<g>
					<g>
						<defs>
							<rect id="SVGID_29_" x="15.67" y="13.94" width="42.337" height="41.793"/>
						</defs>
						<clipPath id="SVGID_30_">
							<use xlink:href="#SVGID_29_"  overflow="visible"/>
						</clipPath>
						<path clip-path="url(#SVGID_30_)" fill="#999999" d="M19.728,31.98h3.15c0.189,0,0.34,0.15,0.34,0.34v0.539
							c0,0.189-0.149,0.34-0.34,0.34h-3.15c-0.188,0-0.34-0.15-0.34-0.34V32.32C19.388,32.133,19.539,31.98,19.728,31.98
							 M25.322,31.98h3.15c0.188,0,0.34,0.15,0.34,0.34v0.539c0,0.189-0.15,0.34-0.34,0.34h-3.15c-0.189,0-0.34-0.15-0.34-0.34
							V32.32C24.982,32.133,25.136,31.98,25.322,31.98 M31.003,31.98h3.151c0.188,0,0.34,0.15,0.34,0.34v0.539
							c0,0.189-0.151,0.34-0.34,0.34h-3.151c-0.188,0-0.341-0.15-0.341-0.34V32.32C30.662,32.133,30.815,31.98,31.003,31.98
							 M36.601,31.98h3.152c0.188,0,0.34,0.15,0.34,0.34v0.539c0,0.189-0.151,0.34-0.34,0.34h-3.152c-0.188,0-0.34-0.15-0.34-0.34
							V32.32C36.261,32.133,36.412,31.98,36.601,31.98 M42.175,31.98h3.151c0.188,0,0.341,0.15,0.341,0.34v0.539
							c0,0.189-0.15,0.34-0.341,0.34h-3.151c-0.188,0-0.34-0.15-0.34-0.34V32.32C41.835,32.133,41.991,31.98,42.175,31.98
							 M47.774,31.98h3.15c0.189,0,0.34,0.15,0.34,0.34v0.539c0,0.189-0.149,0.34-0.34,0.34h-3.15c-0.188,0-0.34-0.15-0.34-0.34
							V32.32C47.435,32.133,47.585,31.98,47.774,31.98"/>
					</g>
				</g>
			</g>
		</g>
		<g>
			<g>
				<g>
					<g>
						<defs>
							<rect id="SVGID_31_" x="15.67" y="13.94" width="42.337" height="41.793"/>
						</defs>
						<clipPath id="SVGID_32_">
							<use xlink:href="#SVGID_31_"  overflow="visible"/>
						</clipPath>
						<path opacity="0.5" clip-path="url(#SVGID_32_)" fill="#999999" enable-background="new    " d="M19.728,50.821h3.15
							c0.189,0,0.34,0.151,0.34,0.341V51.7c0,0.188-0.149,0.34-0.34,0.34h-3.15c-0.188,0-0.34-0.149-0.34-0.34v-0.538
							C19.388,50.973,19.539,50.821,19.728,50.821 M25.322,50.821h3.15c0.188,0,0.34,0.151,0.34,0.341V51.7
							c0,0.188-0.15,0.34-0.34,0.34h-3.15c-0.189,0-0.34-0.149-0.34-0.34v-0.538C24.982,50.973,25.136,50.821,25.322,50.821
							 M31.003,50.821h3.151c0.188,0,0.34,0.151,0.34,0.341V51.7c0,0.188-0.151,0.34-0.34,0.34h-3.151
							c-0.188,0-0.341-0.149-0.341-0.34v-0.538C30.662,50.973,30.815,50.821,31.003,50.821 M36.601,50.821h3.152
							c0.188,0,0.34,0.151,0.34,0.341V51.7c0,0.188-0.151,0.34-0.34,0.34h-3.152c-0.188,0-0.34-0.149-0.34-0.34v-0.538
							C36.261,50.973,36.412,50.821,36.601,50.821 M42.175,50.821h3.151c0.188,0,0.341,0.151,0.341,0.341V51.7
							c0,0.188-0.15,0.34-0.341,0.34h-3.151c-0.188,0-0.34-0.149-0.34-0.34v-0.538C41.835,50.973,41.991,50.821,42.175,50.821
							 M47.774,50.821h3.15c0.189,0,0.34,0.151,0.34,0.341V51.7c0,0.188-0.149,0.34-0.34,0.34h-3.15c-0.188,0-0.34-0.149-0.34-0.34
							v-0.538C47.435,50.973,47.585,50.821,47.774,50.821"/>
					</g>
				</g>
			</g>
		</g>
		<g>
			<g>
				<g>
					<g>
						<defs>
							<rect id="SVGID_33_" x="15.67" y="13.94" width="42.337" height="41.793"/>
						</defs>
						<clipPath id="SVGID_34_">
							<use xlink:href="#SVGID_33_"  overflow="visible"/>
						</clipPath>
						<path clip-path="url(#SVGID_34_)" fill="#999999" d="M19.728,50.48h3.15c0.189,0,0.34,0.15,0.34,0.341v0.539
							c0,0.188-0.149,0.34-0.34,0.34h-3.15c-0.188,0-0.34-0.151-0.34-0.34v-0.539C19.388,50.631,19.539,50.48,19.728,50.48
							 M25.322,50.48h3.15c0.188,0,0.34,0.15,0.34,0.341v0.539c0,0.188-0.15,0.34-0.34,0.34h-3.15c-0.189,0-0.34-0.151-0.34-0.34
							v-0.539C24.982,50.631,25.136,50.48,25.322,50.48 M31.003,50.48h3.151c0.188,0,0.34,0.15,0.34,0.341v0.539
							c0,0.188-0.151,0.34-0.34,0.34h-3.151c-0.188,0-0.341-0.151-0.341-0.34v-0.539C30.662,50.631,30.815,50.48,31.003,50.48
							 M36.601,50.48h3.152c0.188,0,0.34,0.15,0.34,0.341v0.539c0,0.188-0.151,0.34-0.34,0.34h-3.152c-0.188,0-0.34-0.151-0.34-0.34
							v-0.539C36.261,50.631,36.412,50.48,36.601,50.48 M42.175,50.48h3.151c0.188,0,0.341,0.15,0.341,0.341v0.539
							c0,0.188-0.15,0.34-0.341,0.34h-3.151c-0.188,0-0.34-0.151-0.34-0.34v-0.539C41.835,50.631,41.991,50.48,42.175,50.48
							 M47.774,50.48h3.15c0.189,0,0.34,0.15,0.34,0.341v0.539c0,0.188-0.149,0.34-0.34,0.34h-3.15c-0.188,0-0.34-0.151-0.34-0.34
							v-0.539C47.435,50.631,47.585,50.48,47.774,50.48"/>
					</g>
				</g>
			</g>
		</g>
		<g>
			<g>
				<g>
					<g>
						<defs>
							<rect id="SVGID_35_" x="15.67" y="13.94" width="42.337" height="41.793"/>
						</defs>
						<clipPath id="SVGID_36_">
							<use xlink:href="#SVGID_35_"  overflow="visible"/>
						</clipPath>
						<path opacity="0.1" clip-path="url(#SVGID_36_)" fill="#999999" enable-background="new    " d="M52.564,54.219h-34.48
							c-0.864,0-1.567-0.705-1.567-1.569v1.002c0,0.661,0.539,1.198,1.199,1.198h35.218c0.662,0,1.199-0.537,1.199-1.198v-1.002
							C54.132,53.514,53.429,54.219,52.564,54.219"/>
					</g>
				</g>
			</g>
		</g>
		<g>
			<g>
				<g>
					<g>
						<defs>
							<rect id="SVGID_37_" x="15.67" y="13.94" width="42.337" height="41.793"/>
						</defs>
						<clipPath id="SVGID_38_">
							<use xlink:href="#SVGID_37_"  overflow="visible"/>
						</clipPath>
						<polygon opacity="0.8" clip-path="url(#SVGID_38_)" fill="#999999" enable-background="new    " points="32.458,27.484 
							31.175,28.225 46.38,28.225 47.707,27.484 						"/>
					</g>
				</g>
			</g>
		</g>
	</g>
</g>
</svg>
