<?xml version="1.0" encoding="utf-8"?>
<!-- Generator: Adobe Illustrator 16.0.0, SVG Export Plug-In . SVG Version: 6.00 Build 0)  -->
<!DOCTYPE svg PUBLIC "-//W3C//DTD SVG 1.1//EN" "http://www.w3.org/Graphics/SVG/1.1/DTD/svg11.dtd">
<svg version="1.1" id="图层_1" xmlns="http://www.w3.org/2000/svg" xmlns:xlink="http://www.w3.org/1999/xlink" x="0px" y="0px"
	 width="72px" height="72px" viewBox="0 0 72 72" enable-background="new 0 0 72 72" xml:space="preserve">
<circle fill="#FFFFFF" stroke="#999999" stroke-miterlimit="10" cx="36.16" cy="36.161" r="34.161"/>
<g>
	<path opacity="0.5" fill="#999999" enable-background="new    " d="M15.879,36.73c-0.001,10.793,9.097,19.543,20.321,19.545
		c11.222,0,20.322-8.748,20.322-19.543c0-0.002,0-0.002,0-0.004c0-10.792-9.1-19.542-20.322-19.542S15.879,25.936,15.879,36.73z"/>
	<path opacity="0.8" fill="#999999" enable-background="new    " d="M36.16,55.119c-11.062,0-20.058-8.5-20.315-19.081
		c-0.003,0.153-0.006,0.312-0.006,0.465c0,10.793,9.099,19.544,20.321,19.544c11.224,0,20.322-8.75,20.322-19.543
		c0-0.154-0.002-0.313-0.006-0.465C56.22,46.619,47.222,55.119,36.16,55.119z"/>
	<path fill="#999999" d="M36.16,56.686c-5.482,0-10.636-2.135-14.513-6.012c-3.875-3.876-6.009-9.029-6.009-14.513
		s2.135-10.635,6.009-14.512c3.877-3.876,9.031-6.011,14.513-6.011c5.482,0,10.636,2.135,14.513,6.011
		c3.875,3.877,6.012,9.029,6.012,14.512s-2.137,10.637-6.012,14.513C46.798,54.551,41.642,56.686,36.16,56.686z M36.16,16.461
		c-5.262,0.001-10.208,2.049-13.929,5.77c-3.721,3.722-5.769,8.667-5.769,13.93s2.048,10.209,5.769,13.93
		c3.722,3.724,8.667,5.771,13.929,5.771c5.263,0,10.208-2.049,13.929-5.771c3.723-3.72,5.771-8.667,5.771-13.93
		s-2.049-10.208-5.771-13.93C46.368,18.51,41.423,16.462,36.16,16.461L36.16,16.461z"/>
	<path fill="#FFFFFF" d="M23.796,36.161c0,6.827,5.536,12.364,12.365,12.364c6.829,0,12.364-5.537,12.364-12.364
		c0-6.829-5.537-12.364-12.366-12.364C29.331,23.797,23.796,29.333,23.796,36.161z"/>
	<path fill="#999999" d="M36.16,48.938c-7.044,0-12.775-5.729-12.775-12.775c0-7.047,5.729-12.775,12.775-12.775
		c7.046,0,12.777,5.728,12.777,12.775C48.937,43.208,43.204,48.938,36.16,48.938z M36.16,24.209
		c-6.592-0.002-11.953,5.361-11.953,11.952c0,6.592,5.361,11.952,11.953,11.952c6.591,0,11.954-5.362,11.954-11.952
		c0-6.589-5.361-11.954-11.952-11.954v0.002H36.16z"/>
	<path opacity="0.3" fill="#999999" enable-background="new    " d="M36.16,47.206c-6.449,0-11.704-5.106-11.941-11.499
		c-0.006,0.15-0.011,0.302-0.011,0.454c0,6.601,5.352,11.952,11.952,11.952c6.601,0,11.954-5.352,11.954-11.952
		c0-0.151-0.005-0.304-0.011-0.453C47.862,42.1,42.608,47.206,36.16,47.206z"/>
	<path opacity="0.5" fill="#999999" enable-background="new    " d="M30.4,36.161c0,3.183,2.578,5.761,5.761,5.761
		c3.182,0,5.759-2.578,5.759-5.761c0-3.181-2.577-5.761-5.759-5.761C32.978,30.4,30.4,32.98,30.4,36.161z"/>
	<path fill="#999999" d="M36.16,42.333c-3.403,0-6.172-2.769-6.172-6.172c0-3.404,2.769-6.173,6.172-6.173
		c3.404,0,6.173,2.771,6.173,6.173C42.333,39.564,39.563,42.333,36.16,42.333z M36.16,30.813c-2.953,0-5.348,2.395-5.348,5.349
		c0,2.952,2.395,5.349,5.348,5.349c2.954,0.002,5.347-2.395,5.349-5.348c0,0,0,0,0-0.001C41.505,33.209,39.112,30.816,36.16,30.813z
		"/>
	<path opacity="0.8" fill="#999999" enable-background="new    " d="M36.16,40.865c-2.827,0-5.165-2.202-5.333-5.023
		c-0.007,0.105-0.011,0.213-0.011,0.321c-0.027,2.95,2.343,5.366,5.295,5.394c2.951,0.026,5.365-2.343,5.392-5.293
		c0-0.035,0-0.066,0-0.101c0-0.106-0.004-0.214-0.01-0.321C41.323,38.663,38.985,40.865,36.16,40.865L36.16,40.865z"/>
	<path fill="#FFFFFF" d="M36.16,31.297c2.845,0,5.169,2.239,5.333,4.905c0.006-0.101,0.01-0.202,0.01-0.304
		c0-2.807-2.393-5.082-5.343-5.082c-2.951,0-5.346,2.274-5.346,5.082c0,0.102,0.004,0.203,0.011,0.304
		C30.99,33.536,33.316,31.297,36.16,31.297z"/>
	<path opacity="0.7" fill="#999999" enable-background="new    " d="M41.464,36.202h-5.228l-0.428-0.837l5.56,0.005l0.051,0.239
		c0.029,0.199,0.041,0.31,0.043,0.32C41.472,36.021,41.472,36.111,41.464,36.202z"/>
	<path fill="#999999" d="M35.498,35.652L51.41,19.741l0.776,0.777L36.275,36.43L35.498,35.652z"/>
	<path opacity="0.3" fill="#999999" enable-background="new    " d="M51.171,20.565l-4.41,4.271c-0.1,0.096-0.258,0.094-0.354-0.007
		c-0.027-0.028-0.049-0.063-0.061-0.101l-0.617-2.058c-0.027-0.089-0.002-0.187,0.063-0.251l4.41-4.271
		c0.101-0.096,0.258-0.092,0.354,0.006c0.026,0.029,0.047,0.064,0.059,0.103l0.621,2.055C51.263,20.401,51.239,20.5,51.171,20.565z"
		/>
	<path fill="#3F63F6" d="M50.376,18.079c0.111-0.001,0.209,0.072,0.24,0.178l0.621,2.056c0.025,0.088,0,0.186-0.066,0.25
		l-4.41,4.272c-0.047,0.045-0.109,0.069-0.174,0.069c-0.109,0-0.207-0.07-0.24-0.178l-0.617-2.056
		c-0.026-0.09-0.002-0.187,0.064-0.251l4.41-4.271C50.251,18.104,50.313,18.079,50.376,18.079 M50.376,17.914
		c-0.105,0-0.209,0.042-0.287,0.116l-4.408,4.273c-0.113,0.106-0.156,0.268-0.108,0.416l0.616,2.059
		c0.063,0.219,0.291,0.346,0.511,0.281c0.065-0.02,0.127-0.055,0.178-0.104l4.41-4.271c0.11-0.106,0.151-0.269,0.108-0.416
		l-0.619-2.058C50.724,18.032,50.562,17.913,50.376,17.914z"/>
	<path fill="#999999" d="M51.366,20.606l-4.709,4.56c-0.09,0.089-0.234,0.088-0.324-0.002c-0.027-0.028-0.047-0.062-0.057-0.099
		l-0.738-2.453c-0.023-0.084,0-0.174,0.063-0.232l4.707-4.56c0.09-0.088,0.234-0.088,0.324,0.002
		c0.025,0.027,0.047,0.061,0.057,0.099l0.736,2.454C51.452,20.457,51.427,20.545,51.366,20.606z M46.817,24.551l4.174-4.043
		c0.063-0.061,0.086-0.148,0.061-0.232l-0.547-1.82c-0.027-0.096-0.129-0.15-0.223-0.121c-0.029,0.007-0.053,0.023-0.074,0.042
		l-4.096,3.967c-0.146,0.143-0.203,0.354-0.145,0.551l0.469,1.559c0.035,0.122,0.162,0.191,0.283,0.156
		c0.036-0.01,0.069-0.03,0.1-0.057h-0.002V24.551z"/>
	<path fill="#999999" d="M50.47,17.756c0.103-0.001,0.191,0.065,0.221,0.165l0.736,2.454c0.025,0.083,0.002,0.172-0.061,0.231
		l-4.709,4.561c-0.043,0.041-0.1,0.064-0.158,0.064c-0.104,0-0.193-0.066-0.223-0.166l-0.736-2.453
		c-0.025-0.084-0.002-0.174,0.061-0.232l4.707-4.56C50.351,17.778,50.409,17.756,50.47,17.756 M46.659,24.616
		c0.059,0,0.117-0.023,0.158-0.064l4.176-4.042c0.061-0.062,0.086-0.149,0.059-0.231l-0.547-1.822
		c-0.023-0.077-0.094-0.128-0.174-0.127c-0.047,0-0.092,0.018-0.125,0.05l-4.096,3.966c-0.146,0.143-0.201,0.354-0.143,0.551
		l0.467,1.559c0.028,0.098,0.121,0.166,0.223,0.165 M50.47,17.591c-0.104-0.001-0.203,0.038-0.274,0.109l-4.71,4.562
		c-0.104,0.102-0.146,0.256-0.104,0.396l0.736,2.455c0.063,0.209,0.283,0.328,0.492,0.265c0.061-0.019,0.115-0.05,0.16-0.094
		l4.709-4.56c0.106-0.103,0.147-0.257,0.104-0.397l-0.737-2.454C50.798,17.706,50.644,17.591,50.47,17.591z M46.659,24.453
		c-0.029,0-0.055-0.019-0.064-0.046l-0.467-1.559c-0.041-0.137-0.002-0.285,0.1-0.384l4.097-3.967
		c0.002-0.003,0.006-0.005,0.01-0.005c0.009,0,0.015,0.005,0.017,0.012l0.547,1.822c0.006,0.023,0,0.049-0.019,0.066l-4.176,4.041
		c-0.013,0.012-0.029,0.021-0.045,0.021h0.001V24.453z"/>
	<path opacity="0.3" fill="#999999" enable-background="new    " d="M51.378,20.942l-3.855,3.856
		c-0.217,0.218-0.219,0.567-0.002,0.784c0.063,0.063,0.142,0.111,0.226,0.139l1.396,0.44c0.196,0.063,0.414,0.009,0.559-0.138
		l3.857-3.856c0.217-0.216,0.217-0.567,0-0.784c-0.063-0.063-0.142-0.109-0.224-0.136l-1.396-0.442
		C51.741,20.743,51.524,20.795,51.378,20.942z"/>
	<path fill="#3F63F6" d="M49.308,26.354c-0.074,0-0.147-0.012-0.219-0.035l-1.393-0.441c-0.379-0.121-0.588-0.523-0.469-0.902
		c0.035-0.111,0.096-0.211,0.178-0.291l3.855-3.857c0.19-0.191,0.471-0.26,0.727-0.178l1.393,0.442
		c0.379,0.121,0.59,0.524,0.469,0.903c-0.035,0.109-0.096,0.209-0.178,0.291l-3.855,3.855
		C49.681,26.276,49.499,26.354,49.308,26.354L49.308,26.354z M51.771,20.944c-0.104,0-0.203,0.041-0.275,0.115l-3.857,3.855
		c-0.152,0.152-0.152,0.398,0,0.551c0.045,0.044,0.101,0.077,0.158,0.096l1.393,0.443c0.14,0.044,0.291,0.008,0.396-0.096
		l3.854-3.855c0.152-0.152,0.152-0.398,0-0.551c-0.045-0.044-0.098-0.077-0.157-0.096l-1.392-0.443
		C51.851,20.951,51.81,20.944,51.771,20.944L51.771,20.944z"/>
	<path fill="#999999" d="M54.122,21.835l-4.523,4.524c-0.057,0.056-0.141,0.076-0.217,0.053l-2.477-0.787
		c-0.113-0.036-0.176-0.156-0.141-0.27c0.012-0.033,0.028-0.062,0.053-0.086l4.66-4.662c0.055-0.055,0.139-0.076,0.215-0.053
		l2.291,0.729c0.176,0.054,0.272,0.239,0.221,0.415C54.188,21.75,54.161,21.797,54.122,21.835z M49.507,25.985l4.135-4.137
		c0.084-0.082,0.084-0.22,0-0.303c-0.022-0.023-0.055-0.042-0.086-0.053l-1.77-0.563c-0.078-0.023-0.16-0.002-0.217,0.053
		l-4.135,4.137c-0.084,0.083-0.084,0.22,0,0.302c0.022,0.024,0.053,0.043,0.086,0.054l1.77,0.562
		C49.366,26.061,49.45,26.041,49.507,25.985z"/>
	<path fill="#999999" d="M49.448,26.587c-0.039,0-0.078-0.006-0.115-0.019l-2.479-0.787c-0.199-0.063-0.312-0.276-0.246-0.475
		c0.018-0.058,0.049-0.111,0.094-0.154l4.66-4.662c0.102-0.1,0.248-0.135,0.383-0.09l2.291,0.728
		c0.262,0.083,0.406,0.362,0.324,0.624c-0.025,0.076-0.066,0.145-0.123,0.201l-4.523,4.523
		C49.642,26.547,49.546,26.587,49.448,26.587z M47.315,25.003l-0.381,0.381c-0.021,0.021-0.021,0.05,0,0.069
		c0.006,0.006,0.014,0.01,0.02,0.012l2.479,0.787c0.019,0.006,0.035,0.001,0.049-0.012l0.142-0.141
		c-0.103,0.1-0.246,0.135-0.381,0.092l-1.771-0.563c-0.199-0.063-0.31-0.275-0.246-0.475C47.241,25.1,47.274,25.046,47.315,25.003
		L47.315,25.003z M49.507,25.985l0.115,0.115L49.507,25.985z M51.722,21.085c-0.014,0-0.024,0.006-0.037,0.015l-4.135,4.137
		c-0.02,0.019-0.02,0.049,0,0.068c0.006,0.006,0.014,0.01,0.02,0.012l1.771,0.563c0.021,0.006,0.037,0.001,0.052-0.012l4.137-4.135
		c0.018-0.021,0.02-0.051,0-0.069c-0.006-0.007-0.014-0.011-0.02-0.013l-1.771-0.562C51.731,21.087,51.726,21.086,51.722,21.085
		L51.722,21.085L51.722,21.085z M51.722,20.755c0.039,0,0.078,0.007,0.113,0.019l1.77,0.563c0.199,0.063,0.312,0.275,0.25,0.475
		c-0.018,0.058-0.051,0.109-0.092,0.152l0.242-0.242c0.064-0.066,0.063-0.172-0.004-0.236c-0.018-0.018-0.039-0.03-0.064-0.039
		l-2.291-0.729c-0.018-0.006-0.037-0.001-0.049,0.012l-0.141,0.141C51.526,20.797,51.62,20.756,51.722,20.755z"/>
	<path fill="#FFFFFF" d="M46.144,22.764l4.188-4.271c0.008-0.008,0.01-0.018,0.008-0.028l-0.008-0.03
		c-0.014-0.047-0.061-0.072-0.107-0.061c-0.014,0.004-0.024,0.011-0.033,0.021l-4.034,4.143c-0.058,0.054-0.078,0.136-0.058,0.211
		c0.004,0.016,0.021,0.023,0.035,0.02C46.136,22.768,46.142,22.766,46.144,22.764z"/>
	<path opacity="0.3" fill="#999999" enable-background="new    " d="M47.536,25.125l3.895-4.002c0.062-0.06,0.148-0.082,0.229-0.056
		l0.106,0.033l-3.998,4.256h-0.096C47.538,25.329,47.45,25.253,47.536,25.125z"/>
	<path fill="#A5BBF9" d="M41.368,35.369h0.107c0.024,0.277,0.037,0.555,0.033,0.833h-0.048
		C41.462,35.922,41.429,35.643,41.368,35.369z"/>
</g>
</svg>
