<?xml version="1.0" encoding="utf-8"?>
<!-- Generator: Adobe Illustrator 16.0.0, SVG Export Plug-In . SVG Version: 6.00 Build 0)  -->
<!DOCTYPE svg PUBLIC "-//W3C//DTD SVG 1.1//EN" "http://www.w3.org/Graphics/SVG/1.1/DTD/svg11.dtd">
<svg version="1.1" id="图层_1" xmlns="http://www.w3.org/2000/svg" xmlns:xlink="http://www.w3.org/1999/xlink" x="0px" y="0px"
	 width="595.281px" height="841.891px" viewBox="0 0 595.281 841.891" enable-background="new 0 0 595.281 841.891"
	 xml:space="preserve">
<path fill="#D0D9FB" d="M109.755,231.2h305.081c3.721,0,5.582,1.859,5.582,5.58v373.911c0,3.721-1.861,5.58-5.582,5.58H109.755
	c-3.721,0-5.581-1.859-5.581-5.58V236.78C104.174,234.92,107.895,231.2,109.755,231.2L109.755,231.2z"/>
<path fill="#3F63F6" d="M411.115,619.992h-297.64c-7.441,0-14.882-5.58-14.882-13.021v-366.47c0-7.441,5.581-13.021,14.882-13.021
	h297.64c7.441,0,14.883,5.58,14.883,13.021v366.47C425.998,614.412,420.417,619.992,411.115,619.992L411.115,619.992z
	 M115.335,236.78c-3.72,0-5.581,1.86-5.581,3.721v366.47c0,3.721,1.86,5.581,5.581,5.581h297.641c3.721,0,5.58-1.86,5.58-5.581
	v-366.47c0-3.721-1.859-5.581-5.58-5.581L115.335,236.78L115.335,236.78z"/>
<path fill="#BBC9FA" d="M132.078,605.11h284.619V234.92H117.196v355.309C117.196,599.529,124.637,605.11,132.078,605.11
	L132.078,605.11z"/>
<path fill="#FFFFFF" d="M133.938,210.737h305.081c3.721,0,5.58,1.86,5.58,5.58v373.911c0,3.721-1.859,5.581-5.58,5.581H133.938
	c-3.72,0-5.581-1.86-5.581-5.581V216.317C128.357,214.457,130.218,210.737,133.938,210.737L133.938,210.737z"/>
<path fill="#BBC9FA" d="M132.078,582.787H440.88v5.581c0,1.86-1.861,1.86-1.861,1.86H135.798c-1.86,0-1.86-1.86-1.86-1.86v-5.581
	H132.078z"/>
<path fill="#3F63F6" d="M435.298,599.529h-297.64c-7.441,0-14.882-5.58-14.882-13.021v-366.47c0-7.44,5.581-13.021,14.882-13.021
	h297.64c7.441,0,14.883,5.581,14.883,13.021v364.609C450.181,593.949,442.74,599.529,435.298,599.529L435.298,599.529z
	 M137.659,214.457c-3.721,0-5.581,1.86-5.581,5.581v364.609c0,3.721,1.86,5.581,5.581,5.581h297.64c3.721,0,5.582-1.86,5.582-5.581
	V220.038c0-3.721-1.861-5.581-5.582-5.581H137.659L137.659,214.457z"/>
<path fill="#D0D9FB" d="M173.003,389.321h226.951c1.859,0,3.721,1.86,3.721,3.721v63.248c0,1.86-1.861,3.721-3.721,3.721H173.003
	c-1.86,0-3.721-1.86-3.721-3.721v-63.248C169.283,391.181,171.143,389.321,173.003,389.321L173.003,389.321z"/>
<path fill="#3F63F6" d="M399.955,454.429H174.864c-5.581,0-9.301-3.72-9.301-7.44v-59.528c0-3.721,3.72-7.441,9.301-7.441h225.091
	c5.58,0,9.301,3.721,9.301,7.441v59.528C409.255,450.71,405.535,454.429,399.955,454.429L399.955,454.429z M174.864,383.74
	c-1.86,0-5.581,1.86-5.581,3.721v59.528c0,1.86,1.86,3.721,5.581,3.721h225.091c1.859,0,5.58-1.86,5.58-3.721v-59.528
	c0-1.86-1.859-3.721-5.58-3.721H174.864L174.864,383.74z"/>
<path fill="#D0D9FB" d="M167.422,493.495h212.069c1.859,0,1.859,0,1.859,1.86v11.162c0,1.859,0,1.859-1.859,1.859H167.422
	c-1.86,0-1.86,0-1.86-1.859v-11.162C165.563,495.355,165.563,493.495,167.422,493.495L167.422,493.495z"/>
<path fill="#3F63F6" d="M167.422,489.774h212.069c1.859,0,1.859,0,1.859,1.86v11.162c0,1.86,0,1.86-1.859,1.86H167.422
	c-1.86,0-1.86,0-1.86-1.86v-11.162C165.563,491.635,165.563,489.774,167.422,489.774L167.422,489.774z"/>
<path fill="#D0D9FB" d="M167.422,534.421h154.401c1.859,0,1.859,0,1.859,1.86v11.161c0,1.86,0,1.86-1.859,1.86H167.422
	c-1.86,0-1.86,0-1.86-1.86v-11.161C165.563,534.421,165.563,534.421,167.422,534.421L167.422,534.421z"/>
<path fill="#3F63F6" d="M167.422,530.7h154.401c1.859,0,1.859,0,1.859,1.86v11.161c0,1.86,0,1.86-1.859,1.86H167.422
	c-1.86,0-1.86,0-1.86-1.86V532.56C165.563,530.7,165.563,530.7,167.422,530.7L167.422,530.7z"/>
<text transform="matrix(1 0 0 1 235.9507 327.3889)" fill="#3F63F6" font-family="'AdobeSongStd-Light-GBpc-EUC-H'" font-size="102.0441">招</text>
<path fill="#D0D9FB" d="M109.755,231.2h305.081c3.721,0,5.582,1.859,5.582,5.58v373.911c0,3.721-1.861,5.58-5.582,5.58H109.755
	c-3.721,0-5.581-1.859-5.581-5.58V236.78C104.174,234.92,107.895,231.2,109.755,231.2L109.755,231.2z"/>
<path fill="#3F63F6" d="M411.115,619.992h-297.64c-7.441,0-14.882-5.58-14.882-13.021v-366.47c0-7.441,5.581-13.021,14.882-13.021
	h297.64c7.441,0,14.883,5.58,14.883,13.021v366.47C425.998,614.412,420.417,619.992,411.115,619.992L411.115,619.992z
	 M115.335,236.78c-3.72,0-5.581,1.86-5.581,3.721v366.47c0,3.721,1.86,5.581,5.581,5.581h297.641c3.721,0,5.58-1.86,5.58-5.581
	v-366.47c0-3.721-1.859-5.581-5.58-5.581L115.335,236.78L115.335,236.78z"/>
<path fill="#BBC9FA" d="M132.078,605.11h284.619V234.92H117.196v355.309C117.196,599.529,124.637,605.11,132.078,605.11
	L132.078,605.11z"/>
<path fill="#FFFFFF" d="M133.938,210.737h305.081c3.721,0,5.58,1.86,5.58,5.58v373.911c0,3.721-1.859,5.581-5.58,5.581H133.938
	c-3.72,0-5.581-1.86-5.581-5.581V216.317C128.357,214.457,130.218,210.737,133.938,210.737L133.938,210.737z"/>
<path fill="#BBC9FA" d="M132.078,582.787H440.88v5.581c0,1.86-1.861,1.86-1.861,1.86H135.798c-1.86,0-1.86-1.86-1.86-1.86v-5.581
	H132.078z"/>
<path fill="#3F63F6" d="M435.298,599.529h-297.64c-7.441,0-14.882-5.58-14.882-13.021v-366.47c0-7.44,5.581-13.021,14.882-13.021
	h297.64c7.441,0,14.883,5.581,14.883,13.021v364.609C450.181,593.949,442.74,599.529,435.298,599.529L435.298,599.529z
	 M137.659,214.457c-3.721,0-5.581,1.86-5.581,5.581v364.609c0,3.721,1.86,5.581,5.581,5.581h297.64c3.721,0,5.582-1.86,5.582-5.581
	V220.038c0-3.721-1.861-5.581-5.582-5.581H137.659L137.659,214.457z"/>
<path fill="#D0D9FB" d="M173.003,389.321h226.951c1.859,0,3.721,1.86,3.721,3.721v63.248c0,1.86-1.861,3.721-3.721,3.721H173.003
	c-1.86,0-3.721-1.86-3.721-3.721v-63.248C169.283,391.181,171.143,389.321,173.003,389.321L173.003,389.321z"/>
<path fill="#3F63F6" d="M399.955,454.429H174.864c-5.581,0-9.301-3.72-9.301-7.44v-59.528c0-3.721,3.72-7.441,9.301-7.441h225.091
	c5.58,0,9.301,3.721,9.301,7.441v59.528C409.255,450.71,405.535,454.429,399.955,454.429L399.955,454.429z M174.864,383.74
	c-1.86,0-5.581,1.86-5.581,3.721v59.528c0,1.86,1.86,3.721,5.581,3.721h225.091c1.859,0,5.58-1.86,5.58-3.721v-59.528
	c0-1.86-1.859-3.721-5.58-3.721H174.864L174.864,383.74z"/>
<path fill="#D0D9FB" d="M167.422,493.495h212.069c1.859,0,1.859,0,1.859,1.86v11.162c0,1.859,0,1.859-1.859,1.859H167.422
	c-1.86,0-1.86,0-1.86-1.859v-11.162C165.563,495.355,165.563,493.495,167.422,493.495L167.422,493.495z"/>
<path fill="#3F63F6" d="M167.422,489.774h212.069c1.859,0,1.859,0,1.859,1.86v11.162c0,1.86,0,1.86-1.859,1.86H167.422
	c-1.86,0-1.86,0-1.86-1.86v-11.162C165.563,491.635,165.563,489.774,167.422,489.774L167.422,489.774z"/>
<path fill="#D0D9FB" d="M167.422,534.421h154.401c1.859,0,1.859,0,1.859,1.86v11.161c0,1.86,0,1.86-1.859,1.86H167.422
	c-1.86,0-1.86,0-1.86-1.86v-11.161C165.563,534.421,165.563,534.421,167.422,534.421L167.422,534.421z"/>
<path fill="#3F63F6" d="M167.422,530.7h154.401c1.859,0,1.859,0,1.859,1.86v11.161c0,1.86,0,1.86-1.859,1.86H167.422
	c-1.86,0-1.86,0-1.86-1.86V532.56C165.563,530.7,165.563,530.7,167.422,530.7L167.422,530.7z"/>
<text transform="matrix(1 0 0 1 233.6675 327.3889)" fill="#3F63F6" font-family="'AdobeSongStd-Light-GBpc-EUC-H'" font-size="102.0441">招</text>
</svg>
