<?xml version="1.0" encoding="utf-8"?>
<!-- Generator: Adobe Illustrator 16.0.0, SVG Export Plug-In . SVG Version: 6.00 Build 0)  -->
<!DOCTYPE svg PUBLIC "-//W3C//DTD SVG 1.1//EN" "http://www.w3.org/Graphics/SVG/1.1/DTD/svg11.dtd">
<svg version="1.1" id="图层_1" xmlns="http://www.w3.org/2000/svg" xmlns:xlink="http://www.w3.org/1999/xlink" x="0px" y="0px"
	 width="72px" height="72px" viewBox="0 0 72 72" enable-background="new 0 0 72 72" xml:space="preserve">
<circle fill="#FFFFFF" stroke="#999999" stroke-miterlimit="10" cx="36.161" cy="35.839" r="34.161"/>
<g>
	<g>
		<g>
			<g>
				<g>
					<g>
						<defs>
							<rect id="SVGID_1_" x="19.995" y="16.715" width="32.333" height="38.244"/>
						</defs>
						<clipPath id="SVGID_2_">
							<use xlink:href="#SVGID_1_"  overflow="visible"/>
						</clipPath>
						<path clip-path="url(#SVGID_2_)" fill="#D0D9FB" d="M20.891,18.987h28.35c0.281,0,0.512,0.23,0.512,0.514v34.583
							c0,0.281-0.229,0.512-0.512,0.512h-28.35c-0.281,0-0.513-0.229-0.513-0.512V19.5C20.378,19.217,20.604,18.987,20.891,18.987"
							/>
					</g>
				</g>
			</g>
		</g>
		<g>
			<g>
				<g>
					<g>
						<defs>
							<rect id="SVGID_3_" x="19.995" y="16.715" width="32.333" height="38.244"/>
						</defs>
						<clipPath id="SVGID_4_">
							<use xlink:href="#SVGID_3_"  overflow="visible"/>
						</clipPath>
						<path clip-path="url(#SVGID_4_)" fill="#3F63F6" d="M48.83,54.959H21.296c-0.717,0-1.301-0.556-1.301-1.238V19.864
							c0-0.684,0.584-1.238,1.301-1.238h27.54c0.719,0,1.303,0.555,1.303,1.238v33.861C50.135,54.403,49.551,54.959,48.83,54.959
							 M21.296,19.35c-0.293,0-0.532,0.23-0.532,0.509v33.862c0,0.283,0.239,0.509,0.532,0.509h27.54
							c0.295,0,0.533-0.229,0.533-0.509V19.864c0-0.281-0.24-0.508-0.533-0.508h-27.54V19.35z"/>
					</g>
				</g>
			</g>
		</g>
		<g>
			<g>
				<g>
					<g>
						<defs>
							<rect id="SVGID_5_" x="19.995" y="16.715" width="32.333" height="38.244"/>
						</defs>
						<clipPath id="SVGID_6_">
							<use xlink:href="#SVGID_5_"  overflow="visible"/>
						</clipPath>
						<path clip-path="url(#SVGID_6_)" fill="#BBC9FA" d="M22.897,53.641h26.458V19.303L21.6,19.35v32.992
							C21.6,53.06,22.181,53.641,22.897,53.641"/>
					</g>
				</g>
			</g>
		</g>
		<g>
			<g>
				<g>
					<g>
						<defs>
							<rect id="SVGID_7_" x="19.995" y="16.715" width="32.333" height="38.244"/>
						</defs>
						<clipPath id="SVGID_8_">
							<use xlink:href="#SVGID_7_"  overflow="visible"/>
						</clipPath>
						<path clip-path="url(#SVGID_8_)" fill="#FFFFFF" d="M23.081,17.081h28.351c0.281,0,0.514,0.229,0.514,0.512v34.583
							c0,0.281-0.23,0.513-0.514,0.513H23.081c-0.281,0-0.513-0.229-0.513-0.513V17.592C22.568,17.31,22.8,17.081,23.081,17.081"/>
					</g>
				</g>
			</g>
		</g>
		<g>
			<g>
				<g>
					<g>
						<defs>
							<rect id="SVGID_9_" x="19.995" y="16.715" width="32.333" height="38.244"/>
						</defs>
						<clipPath id="SVGID_10_">
							<use xlink:href="#SVGID_9_"  overflow="visible"/>
						</clipPath>
						<path clip-path="url(#SVGID_10_)" fill="#BBC9FA" d="M22.954,51.586h28.608v0.521c0,0.12-0.098,0.218-0.217,0.218H23.169
							c-0.118,0-0.217-0.098-0.217-0.218v-0.521H22.954z"/>
					</g>
				</g>
			</g>
		</g>
		<g>
			<g>
				<g>
					<g>
						<defs>
							<rect id="SVGID_11_" x="19.995" y="16.715" width="32.333" height="38.244"/>
						</defs>
						<clipPath id="SVGID_12_">
							<use xlink:href="#SVGID_11_"  overflow="visible"/>
						</clipPath>
						<path clip-path="url(#SVGID_12_)" fill="#3F63F6" d="M51.025,53.051H23.486c-0.718,0-1.302-0.555-1.302-1.237V17.956
							c0-0.685,0.584-1.238,1.302-1.238h27.539c0.717,0,1.303,0.555,1.303,1.238v33.862C52.328,52.496,51.742,53.051,51.025,53.051
							 M23.486,17.443c-0.294,0-0.532,0.231-0.532,0.508v33.863c0,0.282,0.238,0.508,0.532,0.508h27.539
							c0.295,0,0.533-0.229,0.533-0.508V17.956c0-0.283-0.238-0.509-0.533-0.509H23.486V17.443z"/>
					</g>
				</g>
			</g>
		</g>
		<g>
			<g>
				<g>
					<g>
						<defs>
							<rect id="SVGID_13_" x="19.995" y="16.715" width="32.333" height="38.244"/>
						</defs>
						<clipPath id="SVGID_14_">
							<use xlink:href="#SVGID_13_"  overflow="visible"/>
						</clipPath>
						<path clip-path="url(#SVGID_14_)" fill="#D0D9FB" d="M26.706,33.51h21.083c0.186,0,0.334,0.15,0.334,0.338v5.943
							c0,0.184-0.148,0.332-0.334,0.332H26.706c-0.185,0-0.337-0.148-0.337-0.332v-5.947C26.372,33.66,26.521,33.51,26.706,33.51"/>
					</g>
				</g>
			</g>
		</g>
		<g>
			<g>
				<g>
					<g>
						<defs>
							<rect id="SVGID_15_" x="19.995" y="16.715" width="32.333" height="38.244"/>
						</defs>
						<clipPath id="SVGID_16_">
							<use xlink:href="#SVGID_15_"  overflow="visible"/>
						</clipPath>
						<path clip-path="url(#SVGID_16_)" fill="#3F63F6" d="M47.688,39.61h-20.88c-0.491,0-0.888-0.333-0.888-0.747v-5.469
							c0-0.41,0.397-0.747,0.888-0.747h20.88c0.49,0,0.887,0.337,0.887,0.747v5.469C48.574,39.273,48.18,39.61,47.688,39.61
							 M26.807,33.024c-0.243,0-0.439,0.166-0.439,0.366v5.469c0,0.204,0.196,0.367,0.439,0.367h20.88
							c0.242,0,0.439-0.167,0.439-0.367v-5.465c0-0.205-0.197-0.367-0.439-0.367h-20.88V33.024z"/>
					</g>
				</g>
			</g>
		</g>
		<g>
			<g>
				<g>
					<g>
						<defs>
							<rect id="SVGID_17_" x="19.995" y="16.715" width="32.333" height="38.244"/>
						</defs>
						<clipPath id="SVGID_18_">
							<use xlink:href="#SVGID_17_"  overflow="visible"/>
						</clipPath>
						<path clip-path="url(#SVGID_18_)" fill="#D0D9FB" d="M26.112,43.248H45.74c0.105,0,0.191,0.086,0.191,0.192v1.015
							c0,0.108-0.086,0.193-0.191,0.193H26.112c-0.107,0-0.193-0.085-0.193-0.193v-1.019C25.919,43.334,26.005,43.248,26.112,43.248
							"/>
					</g>
				</g>
			</g>
		</g>
		<g>
			<g>
				<g>
					<g>
						<defs>
							<rect id="SVGID_19_" x="19.995" y="16.715" width="32.333" height="38.244"/>
						</defs>
						<clipPath id="SVGID_20_">
							<use xlink:href="#SVGID_19_"  overflow="visible"/>
						</clipPath>
						<path clip-path="url(#SVGID_20_)" fill="#3F63F6" d="M26.112,42.941H45.74c0.105,0,0.191,0.086,0.191,0.191v1.017
							c0,0.106-0.086,0.192-0.191,0.192H26.112c-0.107,0-0.193-0.086-0.193-0.192v-1.017C25.919,43.026,26.005,42.941,26.112,42.941
							"/>
					</g>
				</g>
			</g>
		</g>
		<g>
			<g>
				<g>
					<g>
						<defs>
							<rect id="SVGID_21_" x="19.995" y="16.715" width="32.333" height="38.244"/>
						</defs>
						<clipPath id="SVGID_22_">
							<use xlink:href="#SVGID_21_"  overflow="visible"/>
						</clipPath>
						<path clip-path="url(#SVGID_22_)" fill="#D0D9FB" d="M26.112,46.971h14.284c0.105,0,0.189,0.086,0.189,0.193v1.012
							c0,0.105-0.084,0.19-0.189,0.19H26.112c-0.107,0-0.193-0.085-0.193-0.19v-1.018C25.919,47.057,26.005,46.971,26.112,46.971"/>
					</g>
				</g>
			</g>
		</g>
		<g>
			<g>
				<g>
					<g>
						<defs>
							<rect id="SVGID_23_" x="19.995" y="16.715" width="32.333" height="38.244"/>
						</defs>
						<clipPath id="SVGID_24_">
							<use xlink:href="#SVGID_23_"  overflow="visible"/>
						</clipPath>
						<path clip-path="url(#SVGID_24_)" fill="#3F63F6" d="M26.112,46.664h14.284c0.105,0,0.189,0.086,0.189,0.191v1.016
							c0,0.106-0.084,0.193-0.189,0.193H26.112c-0.107,0-0.193-0.087-0.193-0.193v-1.016C25.919,46.75,26.005,46.664,26.112,46.664"
							/>
					</g>
				</g>
			</g>
		</g>
	</g>
	<text transform="matrix(1 0 0 1 32.5293 27.835)" fill="#3F63F6" font-family="'AdobeSongStd-Light-GBpc-EUC-H'" font-size="9.46">招</text>
	<g>
		<g>
			<g>
				<g>
					<g>
						<defs>
							<rect id="SVGID_25_" x="19.995" y="16.715" width="32.333" height="38.244"/>
						</defs>
						<clipPath id="SVGID_26_">
							<use xlink:href="#SVGID_25_"  overflow="visible"/>
						</clipPath>
						<path opacity="0.1" clip-path="url(#SVGID_26_)" fill="#999999" enable-background="new    " d="M20.891,18.987h28.35
							c0.281,0,0.512,0.23,0.512,0.514v34.583c0,0.281-0.229,0.512-0.512,0.512h-28.35c-0.281,0-0.513-0.229-0.513-0.512V19.5
							C20.378,19.217,20.604,18.987,20.891,18.987"/>
					</g>
				</g>
			</g>
		</g>
		<g>
			<g>
				<g>
					<g>
						<defs>
							<rect id="SVGID_27_" x="19.995" y="16.715" width="32.333" height="38.244"/>
						</defs>
						<clipPath id="SVGID_28_">
							<use xlink:href="#SVGID_27_"  overflow="visible"/>
						</clipPath>
						<path clip-path="url(#SVGID_28_)" fill="#999999" d="M48.83,54.959H21.296c-0.717,0-1.301-0.556-1.301-1.238V19.864
							c0-0.684,0.584-1.238,1.301-1.238h27.54c0.719,0,1.303,0.555,1.303,1.238v33.861C50.135,54.403,49.551,54.959,48.83,54.959
							 M21.296,19.35c-0.293,0-0.532,0.23-0.532,0.509v33.862c0,0.283,0.239,0.509,0.532,0.509h27.54
							c0.295,0,0.533-0.229,0.533-0.509V19.864c0-0.281-0.24-0.508-0.533-0.508h-27.54V19.35z"/>
					</g>
				</g>
			</g>
		</g>
		<g>
			<g>
				<g>
					<g>
						<defs>
							<rect id="SVGID_29_" x="19.995" y="16.715" width="32.333" height="38.244"/>
						</defs>
						<clipPath id="SVGID_30_">
							<use xlink:href="#SVGID_29_"  overflow="visible"/>
						</clipPath>
						<path opacity="0.5" clip-path="url(#SVGID_30_)" fill="#999999" enable-background="new    " d="M22.897,53.641h26.458V19.303
							L21.6,19.35v32.992C21.6,53.06,22.181,53.641,22.897,53.641"/>
					</g>
				</g>
			</g>
		</g>
		<g>
			<g>
				<g>
					<g>
						<defs>
							<rect id="SVGID_31_" x="19.995" y="16.715" width="32.333" height="38.244"/>
						</defs>
						<clipPath id="SVGID_32_">
							<use xlink:href="#SVGID_31_"  overflow="visible"/>
						</clipPath>
						<path clip-path="url(#SVGID_32_)" fill="#FFFFFF" d="M23.081,17.081h28.351c0.281,0,0.514,0.229,0.514,0.512v34.583
							c0,0.281-0.23,0.513-0.514,0.513H23.081c-0.281,0-0.513-0.229-0.513-0.513V17.592C22.568,17.31,22.8,17.081,23.081,17.081"/>
					</g>
				</g>
			</g>
		</g>
		<g>
			<g>
				<g>
					<g>
						<defs>
							<rect id="SVGID_33_" x="19.995" y="16.715" width="32.333" height="38.244"/>
						</defs>
						<clipPath id="SVGID_34_">
							<use xlink:href="#SVGID_33_"  overflow="visible"/>
						</clipPath>
						<path opacity="0.1" clip-path="url(#SVGID_34_)" fill="#999999" enable-background="new    " d="M22.954,51.586h28.608v0.521
							c0,0.12-0.098,0.218-0.217,0.218H23.169c-0.118,0-0.217-0.098-0.217-0.218v-0.521H22.954z"/>
					</g>
				</g>
			</g>
		</g>
		<g>
			<g>
				<g>
					<g>
						<defs>
							<rect id="SVGID_35_" x="19.995" y="16.715" width="32.333" height="38.244"/>
						</defs>
						<clipPath id="SVGID_36_">
							<use xlink:href="#SVGID_35_"  overflow="visible"/>
						</clipPath>
						<path clip-path="url(#SVGID_36_)" fill="#999999" d="M51.025,53.051H23.486c-0.718,0-1.302-0.555-1.302-1.237V17.956
							c0-0.685,0.584-1.238,1.302-1.238h27.539c0.717,0,1.303,0.555,1.303,1.238v33.862C52.328,52.496,51.742,53.051,51.025,53.051
							 M23.486,17.443c-0.294,0-0.532,0.231-0.532,0.508v33.863c0,0.282,0.238,0.508,0.532,0.508h27.539
							c0.295,0,0.533-0.229,0.533-0.508V17.956c0-0.283-0.238-0.509-0.533-0.509H23.486V17.443z"/>
					</g>
				</g>
			</g>
		</g>
		<g>
			<g>
				<g>
					<g>
						<defs>
							<rect id="SVGID_37_" x="19.995" y="16.715" width="32.333" height="38.244"/>
						</defs>
						<clipPath id="SVGID_38_">
							<use xlink:href="#SVGID_37_"  overflow="visible"/>
						</clipPath>
						<path opacity="0.5" clip-path="url(#SVGID_38_)" fill="#999999" enable-background="new    " d="M26.706,33.51h21.083
							c0.186,0,0.334,0.15,0.334,0.338v5.943c0,0.184-0.148,0.332-0.334,0.332H26.706c-0.185,0-0.337-0.148-0.337-0.332v-5.947
							C26.372,33.66,26.521,33.51,26.706,33.51"/>
					</g>
				</g>
			</g>
		</g>
		<g>
			<g>
				<g>
					<g>
						<defs>
							<rect id="SVGID_39_" x="19.995" y="16.715" width="32.333" height="38.244"/>
						</defs>
						<clipPath id="SVGID_40_">
							<use xlink:href="#SVGID_39_"  overflow="visible"/>
						</clipPath>
						<path clip-path="url(#SVGID_40_)" fill="#999999" d="M47.688,39.61h-20.88c-0.491,0-0.888-0.333-0.888-0.747v-5.469
							c0-0.41,0.397-0.747,0.888-0.747h20.88c0.49,0,0.887,0.337,0.887,0.747v5.469C48.574,39.273,48.18,39.61,47.688,39.61
							 M26.807,33.024c-0.243,0-0.439,0.166-0.439,0.366v5.469c0,0.204,0.196,0.367,0.439,0.367h20.88
							c0.242,0,0.439-0.167,0.439-0.367v-5.465c0-0.205-0.197-0.367-0.439-0.367h-20.88V33.024z"/>
					</g>
				</g>
			</g>
		</g>
		<g>
			<g>
				<g>
					<g>
						<defs>
							<rect id="SVGID_41_" x="19.995" y="16.715" width="32.333" height="38.244"/>
						</defs>
						<clipPath id="SVGID_42_">
							<use xlink:href="#SVGID_41_"  overflow="visible"/>
						</clipPath>
						<path opacity="0.3" clip-path="url(#SVGID_42_)" fill="#999999" enable-background="new    " d="M26.112,43.248H45.74
							c0.105,0,0.191,0.086,0.191,0.192v1.015c0,0.108-0.086,0.193-0.191,0.193H26.112c-0.107,0-0.193-0.085-0.193-0.193v-1.019
							C25.919,43.334,26.005,43.248,26.112,43.248"/>
					</g>
				</g>
			</g>
		</g>
		<g>
			<g>
				<g>
					<g>
						<defs>
							<rect id="SVGID_43_" x="19.995" y="16.715" width="32.333" height="38.244"/>
						</defs>
						<clipPath id="SVGID_44_">
							<use xlink:href="#SVGID_43_"  overflow="visible"/>
						</clipPath>
						<path clip-path="url(#SVGID_44_)" fill="#999999" d="M26.112,42.941H45.74c0.105,0,0.191,0.086,0.191,0.191v1.017
							c0,0.106-0.086,0.192-0.191,0.192H26.112c-0.107,0-0.193-0.086-0.193-0.192v-1.017C25.919,43.026,26.005,42.941,26.112,42.941
							"/>
					</g>
				</g>
			</g>
		</g>
		<g>
			<g>
				<g>
					<g>
						<defs>
							<rect id="SVGID_45_" x="19.995" y="16.715" width="32.333" height="38.244"/>
						</defs>
						<clipPath id="SVGID_46_">
							<use xlink:href="#SVGID_45_"  overflow="visible"/>
						</clipPath>
						<path opacity="0.3" clip-path="url(#SVGID_46_)" fill="#999999" enable-background="new    " d="M26.112,46.971h14.284
							c0.105,0,0.189,0.086,0.189,0.193v1.012c0,0.105-0.084,0.19-0.189,0.19H26.112c-0.107,0-0.193-0.085-0.193-0.19v-1.018
							C25.919,47.057,26.005,46.971,26.112,46.971"/>
					</g>
				</g>
			</g>
		</g>
		<g>
			<g>
				<g>
					<g>
						<defs>
							<rect id="SVGID_47_" x="19.995" y="16.715" width="32.333" height="38.244"/>
						</defs>
						<clipPath id="SVGID_48_">
							<use xlink:href="#SVGID_47_"  overflow="visible"/>
						</clipPath>
						<path clip-path="url(#SVGID_48_)" fill="#999999" d="M26.112,46.664h14.284c0.105,0,0.189,0.086,0.189,0.191v1.016
							c0,0.106-0.084,0.193-0.189,0.193H26.112c-0.107,0-0.193-0.087-0.193-0.193v-1.016C25.919,46.75,26.005,46.664,26.112,46.664"
							/>
					</g>
				</g>
			</g>
		</g>
	</g>
	<text transform="matrix(1 0 0 1 32.6143 27.835)" fill="#999999" font-family="'AdobeSongStd-Light-GBpc-EUC-H'" font-size="9.46">招</text>
</g>
</svg>
