<?xml version="1.0" encoding="utf-8"?>
<!-- Generator: Adobe Illustrator 16.0.0, SVG Export Plug-In . SVG Version: 6.00 Build 0)  -->
<!DOCTYPE svg PUBLIC "-//W3C//DTD SVG 1.1//EN" "http://www.w3.org/Graphics/SVG/1.1/DTD/svg11.dtd">
<svg version="1.1" id="图层_1" xmlns="http://www.w3.org/2000/svg" xmlns:xlink="http://www.w3.org/1999/xlink" x="0px" y="0px"
	 width="72px" height="72px" viewBox="0 0 72 72" enable-background="new 0 0 72 72" xml:space="preserve">
<circle fill="#FFFFFF" stroke="#999999" stroke-miterlimit="10" cx="35.838" cy="36.161" r="34.161"/>
<g>
	<g>
		<g>
			<defs>
				<rect id="SVGID_1_" x="15.241" y="16.146" width="41.195" height="40.029"/>
			</defs>
			<clipPath id="SVGID_2_">
				<use xlink:href="#SVGID_1_"  overflow="visible"/>
			</clipPath>
			<path opacity="0.3" clip-path="url(#SVGID_2_)" fill="#999999" enable-background="new    " d="M34.861,55.969
				c9.471,0,17.186-7.541,17.467-16.941c0.008-0.285-0.221-0.525-0.508-0.533H17.915c-0.284,0-0.52,0.234-0.52,0.52v0.016
				C17.676,48.434,25.391,55.969,34.861,55.969"/>
		</g>
	</g>
	<g>
		<g>
			<defs>
				<rect id="SVGID_3_" x="15.241" y="16.146" width="41.195" height="40.029"/>
			</defs>
			<clipPath id="SVGID_4_">
				<use xlink:href="#SVGID_3_"  overflow="visible"/>
			</clipPath>
			<path clip-path="url(#SVGID_4_)" fill="#999999" d="M34.861,56.176c-9.875,0-17.885-8.01-17.885-17.885
				c0-0.225,0.186-0.409,0.409-0.409h34.95c0.225,0,0.408,0.185,0.408,0.409C52.746,48.17,44.742,56.176,34.861,56.176
				 M18.229,38.705c-0.226,0-0.409,0.184-0.409,0.408v0.021c0.441,9.021,7.917,16.227,17.044,16.227
				c9.125,0,16.604-7.205,17.041-16.227c0.014-0.225-0.16-0.418-0.391-0.432H18.229V38.705z"/>
		</g>
	</g>
	<g>
		<g>
			<defs>
				<rect id="SVGID_5_" x="15.241" y="16.146" width="41.195" height="40.029"/>
			</defs>
			<clipPath id="SVGID_6_">
				<use xlink:href="#SVGID_5_"  overflow="visible"/>
			</clipPath>
			<path opacity="0.8" clip-path="url(#SVGID_6_)" fill="#999999" enable-background="new    " d="M34.902,54.635
				c-9.157,0-16.624-7.23-17.006-16.298h-0.019c0,9.401,7.622,17.024,17.024,17.024c9.4,0,17.006-6.822,17.006-16.227l-0.145-0.055
				C51.385,48.145,44.061,54.635,34.902,54.635"/>
		</g>
	</g>
	<g>
		<g>
			<defs>
				<rect id="SVGID_7_" x="15.241" y="16.146" width="41.195" height="40.029"/>
			</defs>
			<clipPath id="SVGID_8_">
				<use xlink:href="#SVGID_7_"  overflow="visible"/>
			</clipPath>
			<path clip-path="url(#SVGID_8_)" fill="#FFFFFF" d="M34.861,37.175v-18.45c0-0.248-0.201-0.451-0.45-0.451h-0.01
				c-10.376,0.244-18.716,8.735-18.716,19.172c-0.006,3.023,0.712,6.014,2.085,8.707c0.115,0.221,0.388,0.309,0.607,0.197
				c0.004,0,0.004-0.006,0.01-0.006l16.236-8.77C34.773,37.492,34.861,37.34,34.861,37.175"/>
		</g>
	</g>
	<g>
		<g>
			<defs>
				<rect id="SVGID_9_" x="15.241" y="16.146" width="41.195" height="40.029"/>
			</defs>
			<clipPath id="SVGID_10_">
				<use xlink:href="#SVGID_9_"  overflow="visible"/>
			</clipPath>
			<path clip-path="url(#SVGID_10_)" fill="#999999" d="M18.2,46.953c-0.216,0.119-0.491,0.037-0.606-0.184
				c-1.544-2.865-2.353-6.068-2.353-9.328c0-5.243,2.041-10.17,5.746-13.879c3.706-3.711,8.634-5.748,13.879-5.748
				c0.248,0,0.451,0.203,0.451,0.451v19.176c0,0.166-0.092,0.317-0.234,0.396L18.2,46.953z M34.412,19.184
				c0-0.248-0.203-0.449-0.451-0.449h-0.023c-9.897,0.481-17.8,8.688-17.8,18.707c0,2.795,0.625,5.559,1.829,8.082
				c0.106,0.225,0.377,0.316,0.599,0.211c0.005-0.004,0.014-0.004,0.019-0.008l15.594-8.429c0.147-0.078,0.235-0.229,0.235-0.396
				L34.412,19.184L34.412,19.184z"/>
		</g>
	</g>
	<g>
		<g>
			<defs>
				<rect id="SVGID_11_" x="15.241" y="16.146" width="41.195" height="40.029"/>
			</defs>
			<clipPath id="SVGID_12_">
				<use xlink:href="#SVGID_11_"  overflow="visible"/>
			</clipPath>
			<path clip-path="url(#SVGID_12_)" fill="#FFFFFF" d="M51.904,39.201l-18.593-0.414l0.161-0.086h17.999l0.17,0.027
				c0.176,0.072,0.223,0.191,0.26,0.309L51.904,39.201z"/>
		</g>
	</g>
	<g>
		<g>
			<defs>
				<rect id="SVGID_13_" x="15.241" y="16.146" width="41.195" height="40.029"/>
			</defs>
			<clipPath id="SVGID_14_">
				<use xlink:href="#SVGID_13_"  overflow="visible"/>
			</clipPath>
			<path opacity="0.5" clip-path="url(#SVGID_14_)" fill="#999999" enable-background="new    " d="M37.008,35.542h18.529
				c0.248,0,0.445-0.198,0.445-0.446v-0.014c-0.281-10.105-8.441-18.242-18.561-18.48c-0.248-0.005-0.451,0.188-0.455,0.436v18.5
				C36.98,35.537,36.994,35.537,37.008,35.542"/>
		</g>
	</g>
	<g>
		<g>
			<defs>
				<rect id="SVGID_15_" x="15.241" y="16.146" width="41.195" height="40.029"/>
			</defs>
			<clipPath id="SVGID_16_">
				<use xlink:href="#SVGID_15_"  overflow="visible"/>
			</clipPath>
			<path clip-path="url(#SVGID_16_)" fill="#FFFFFF" d="M55.762,35.542h0.027c-0.041-10.315-8.293-18.698-18.561-18.94
				c-0.248-0.005-0.449,0.188-0.455,0.436v0.078c0,0.244,0.193,0.438,0.438,0.447C47.164,17.783,55.232,25.662,55.762,35.542"/>
		</g>
	</g>
	<g>
		<g>
			<defs>
				<rect id="SVGID_17_" x="15.241" y="16.146" width="41.195" height="40.029"/>
			</defs>
			<clipPath id="SVGID_18_">
				<use xlink:href="#SVGID_17_"  overflow="visible"/>
			</clipPath>
			<path clip-path="url(#SVGID_18_)" fill="#999999" d="M56.438,35.542c0,0.243-0.197,0.446-0.441,0.446H36.969
				c-0.244,0-0.447-0.197-0.447-0.446V16.591c0-0.243,0.199-0.446,0.447-0.446h0.008c5.188,0,10.068,2.014,13.742,5.678
				C54.391,25.488,56.414,30.357,56.438,35.542 M37.864,35.091h17.202c0.25,0,0.445-0.203,0.445-0.445v-0.023
				c-0.244-4.598-2.15-8.887-5.438-12.16c-3.287-3.273-7.586-5.172-12.188-5.393c-0.248-0.015-0.455,0.18-0.469,0.422v17.154
				C37.418,34.889,37.615,35.086,37.864,35.091"/>
		</g>
	</g>
	<g>
		<g>
			<defs>
				<rect id="SVGID_19_" x="15.241" y="16.146" width="41.195" height="40.029"/>
			</defs>
			<clipPath id="SVGID_20_">
				<use xlink:href="#SVGID_19_"  overflow="visible"/>
			</clipPath>
			<polygon opacity="0.8" clip-path="url(#SVGID_20_)" fill="#999999" enable-background="new    " points="34.688,38.695 
				20.526,46.723 20.049,45.959 33.473,38.701 			"/>
		</g>
	</g>
	<g>
		<g>
			<defs>
				<rect id="SVGID_21_" x="15.241" y="16.146" width="41.195" height="40.029"/>
			</defs>
			<clipPath id="SVGID_22_">
				<use xlink:href="#SVGID_21_"  overflow="visible"/>
			</clipPath>
			<path opacity="0.5" clip-path="url(#SVGID_22_)" fill="#999999" enable-background="new    " d="M34.412,36.917
				c0,0.179-0.106,0.335-0.271,0.399l-15.529,8.395c-0.189,0.102-0.476,0.129-0.658-0.211l-0.11-0.244l16.574-8.643v0.304H34.412
				L34.412,36.917z"/>
		</g>
	</g>
	<g>
		<g>
			<defs>
				<rect id="SVGID_23_" x="15.241" y="16.146" width="41.195" height="40.029"/>
			</defs>
			<clipPath id="SVGID_24_">
				<use xlink:href="#SVGID_23_"  overflow="visible"/>
			</clipPath>
			
				<rect x="37.418" y="34.512" opacity="0.8" clip-path="url(#SVGID_24_)" fill="#999999" enable-background="new    " width="18.105" height="0.58"/>
		</g>
	</g>
</g>
</svg>
