<?xml version="1.0" encoding="utf-8"?>
<!-- Generator: Adobe Illustrator 22.0.1, SVG Export Plug-In . SVG Version: 6.00 Build 0)  -->
<svg version="1.1" id="图层_1" xmlns="http://www.w3.org/2000/svg" xmlns:xlink="http://www.w3.org/1999/xlink" x="0px" y="0px"
	 viewBox="0 0 128 128" style="enable-background:new 0 0 128 128;" xml:space="preserve">
<style type="text/css">
	.st0{fill:#DDDDDD;}
	.st1{fill:#999999;}
	.st2{fill:#CCCCCC;}
	.st3{fill:#FFFFFF;}
</style>
<path class="st0" d="M61.3,117.8c25.8,0,46.7-20.5,47.5-46.1c0-0.8-0.6-1.4-1.4-1.4H15.3c-0.8,0-1.4,0.6-1.4,1.4v0
	C14.6,97.4,35.6,117.8,61.3,117.8z"/>
<path class="st1" d="M61.3,118.4c-26.8,0-48.6-21.8-48.6-48.6c0-0.6,0.5-1.1,1.1-1.1h95c0.6,0,1.1,0.5,1.1,1.1
	C110,96.6,88.2,118.4,61.3,118.4z M16.1,70.9c-0.6,0-1.1,0.5-1.1,1.1v0.1c1.2,24.5,21.5,44.1,46.3,44.1s45.1-19.6,46.3-44.1
	c0-0.6-0.4-1.1-1.1-1.2H16.1z"/>
<path class="st2" d="M61.5,114.2c-24.9,0-45.2-19.7-46.2-44.3h-0.1c0,25.6,20.7,46.3,46.3,46.3s46.2-18.6,46.2-44.1l-0.4-0.2
	C106.3,96.6,86.4,114.2,61.5,114.2z"/>
<path class="st3" d="M61.3,66.7V16.6c0-0.7-0.5-1.2-1.2-1.2h0C31.9,16,9.2,39.1,9.2,67.5c0,8.2,1.9,16.3,5.7,23.7
	c0.3,0.6,1.1,0.8,1.7,0.5c0,0,0,0,0,0l44.2-23.8C61.1,67.6,61.4,67.2,61.3,66.7z"/>
<path class="st1" d="M16,93.3c-0.6,0.3-1.3,0.1-1.6-0.5C10.2,85,8,76.3,8,67.5c0-14.3,5.6-27.7,15.6-37.7s23.5-15.6,37.7-15.6
	c0.7,0,1.2,0.6,1.2,1.2v52.1c0,0.4-0.2,0.9-0.6,1.1L16,93.3z M60.1,17.8c0-0.7-0.5-1.2-1.2-1.2h-0.1c-26.9,1.3-48.4,23.6-48.4,50.9
	c0,7.6,1.7,15.1,5,22c0.3,0.6,1,0.9,1.6,0.6c0,0,0,0,0,0l42.4-22.9c0.4-0.2,0.6-0.6,0.6-1.1C60.1,66,60.1,17.8,60.1,17.8z"/>
<path class="st3" d="M107.7,72.3l-50.5-1.1l0.4-0.2h48.9L107,71c0.5,0.2,0.6,0.5,0.7,0.8C107.7,71.8,107.7,72.3,107.7,72.3z"/>
<path class="st0" d="M67.2,62.3h50.4c0.7,0,1.2-0.5,1.2-1.2v0c-0.8-27.5-23-49.6-50.5-50.2c-0.7,0-1.2,0.5-1.2,1.2v50.3
	C67.1,62.3,67.1,62.3,67.2,62.3z"/>
<path class="st3" d="M118.2,62.3L118.2,62.3c0-28-22.5-50.8-50.4-51.5c-0.7,0-1.2,0.5-1.2,1.2v0.2c0,0.7,0.5,1.2,1.2,1.2
	C94.8,14,116.7,35.4,118.2,62.3z"/>
<path class="st1" d="M120,62.3c0,0.7-0.5,1.2-1.2,1.2H67.1c-0.7,0-1.2-0.5-1.2-1.2V10.8c0-0.7,0.5-1.2,1.2-1.2h0
	c14.1,0,27.4,5.5,37.4,15.4S119.9,48.2,120,62.3z M69.5,61.1h46.8c0.7,0,1.2-0.5,1.2-1.2v-0.1c-0.7-12.5-5.8-24.2-14.8-33.1
	S82.1,12.7,69.6,12.1c-0.7,0-1.2,0.5-1.3,1.1v46.6C68.3,60.5,68.8,61.1,69.5,61.1z"/>
<path class="st2" d="M60.9,70.9L22.4,92.7l-1.3-2.1l36.5-19.7L60.9,70.9z"/>
<path class="st0" d="M60.1,66c0,0.5-0.3,0.9-0.7,1.1L17.2,90c-0.5,0.3-1.3,0.3-1.8-0.6l-0.3-0.7l45.1-23.5L60.1,66L60.1,66z"/>
<path class="st2" d="M68.3,59.5h49.2v1.6H68.3V59.5z"/>
</svg>
