<?xml version="1.0" encoding="utf-8"?>
<!-- Generator: Adobe Illustrator 22.0.1, SVG Export Plug-In . SVG Version: 6.00 Build 0)  -->
<svg version="1.1" id="图层_1" xmlns="http://www.w3.org/2000/svg" xmlns:xlink="http://www.w3.org/1999/xlink" x="0px" y="0px"
	 viewBox="0 0 50 50" style="enable-background:new 0 0 50 50;" xml:space="preserve">
<style type="text/css">
	.st0{fill:#FFFFFF;}
	.st1{fill:#3F63F6;}
	.st2{fill:#D0D9FB;}
	.st3{fill:#BBC9FA;}
	.st4{fill:#7B96F7;}
</style>
<g>
	<path class="st0" d="M16.1,10.7V8.4c0-1.2,1-2.2,2.2-2.2h20.4c1.2,0,2.2,1,2.2,2.2v28.9c0,1.2-1,2.2-2.2,2.2h-3.1"/>
	<path class="st1" d="M38.6,40h-3.1c-0.2,0-0.4-0.2-0.4-0.4c0-0.2,0.2-0.4,0.4-0.4h3.1c0.9,0,1.7-0.8,1.7-1.7V8.4
		c0-0.9-0.8-1.7-1.7-1.7H18.3c-0.9,0-1.7,0.8-1.7,1.7v2.3c0,0.2-0.2,0.4-0.4,0.4s-0.4-0.2-0.4-0.4V8.4c0-1.4,1.2-2.6,2.6-2.6h20.4
		c1.4,0,2.6,1.2,2.6,2.6v28.9C41.2,38.8,40.1,40,38.6,40z"/>
	<path class="st2" d="M18,7.3h20.9c0.8,0,1.5,0.7,1.5,1.5v28.9c0,0.8-0.7,1.5-1.5,1.5H18.2c-0.9,0-1.7-0.7-1.7-1.7V8.7
		C16.5,7.9,17.2,7.3,18,7.3z"/>
	<path class="st3" d="M34.3,9.5H16.6v29.6H37v-27C37,10.6,35.8,9.5,34.3,9.5z"/>
	<path class="st4" d="M38.9,38.1H18.2c-0.9,0-1.7-0.7-1.7-1.7v1c0,0.9,0.7,1.7,1.7,1.7h20.7c0.8,0,1.5-0.7,1.5-1.5v-1
		C40.4,37.5,39.7,38.1,38.9,38.1z"/>
	<path class="st0" d="M9.2,11.3h26.1v31c0,0.7-0.6,1.3-1.3,1.3H10.7c-0.8,0-1.5-0.7-1.5-1.5V11.3z"/>
	<path class="st4" d="M24.3,19.7c0,0.6-0.8,1.4-1.9,1.4s-1.9-0.9-1.9-1.4"/>
	<path class="st0" d="M33.6,11H11.2c-0.8,0-1.5,0.7-1.5,1.5v0.9c0-0.8,0.7-1.5,1.5-1.5h22.3c0.8,0,1.5,0.7,1.5,1.5v-0.9
		C35.1,11.7,34.4,11,33.6,11z"/>
	<path class="st3" d="M33.9,42.1H10.9c-0.6,0-1.2-0.5-1.2-1.2v1.2c0,0.6,0.5,1.2,1.2,1.2h23.1c0.6,0,1.2-0.5,1.2-1.2v-1.2
		C35.1,41.6,34.5,42.1,33.9,42.1z"/>
	<path class="st0" d="M21,18.5c0,0.8,0.6,1.4,1.4,1.4c0.8,0,1.4-0.6,1.4-1.4c0-0.8-0.6-1.4-1.4-1.4C21.6,17,21,17.7,21,18.5z"/>
	<path class="st1" d="M18.4,36.7h-3.1c-0.4,0-0.8,0.4-0.8,0.8c0,0,0,0.1,0,0.1c0.1,0.4,0.4,0.7,0.8,0.7h3.2c0.4,0,0.8-0.4,0.8-0.8
		c0,0,0-0.1,0-0.1C19.2,37,18.8,36.7,18.4,36.7z M20,33.5h-4.7c-0.4,0-0.8,0.4-0.8,0.8c0,0,0,0.1,0,0.1c0.1,0.4,0.4,0.7,0.8,0.7H20
		c0.4,0,0.8-0.4,0.8-0.8c0,0,0-0.1,0-0.1C20.7,33.8,20.4,33.5,20,33.5z M33.2,10.2h-22c-1.7,0-2.4,0.9-2.4,2.6v28.3
		c0,1.7,1.2,3.1,2.9,3.1H33c1.7,0,3.1-1.4,3.1-3.1V12.6C36,10.9,34.9,10.2,33.2,10.2z M35.1,41.2c0,0.9-1,1.9-1.9,1.9H11.6
		c-0.9,0-1.9-0.9-1.9-1.8V16c2.4,1.7,6.5,2.8,10.4,3.1c0.3,1.1,1.2,1.8,2.3,1.8c1.1,0,2.1-0.7,2.3-1.8c3.9-0.3,8-1.4,10.4-3
		L35.1,41.2z M21,18.3c0.1-0.8,0.8-1.3,1.6-1.2c0.8,0.1,1.3,0.8,1.2,1.6c-0.1,0.6-0.6,1.1-1.2,1.2c-0.8,0.1-1.5-0.4-1.6-1.2
		C21,18.5,21,18.4,21,18.3z M35.1,14.4c-2.1,1.9-6.3,3.1-10.5,3.5c-0.2-1.2-1.2-1.8-2.2-1.8c-1,0-1.9,0.4-2.3,1.9
		c-4.2-0.4-8.3-1.4-10.4-3.3v-1.7c0-0.9,0.7-1.6,1.6-1.6h22c1.3,0,1.8,0.7,1.8,1.9C35.1,13.2,35.1,14.4,35.1,14.4z"/>
</g>
</svg>
