<?xml version="1.0" encoding="utf-8"?>
<!-- Generator: Adobe Illustrator 16.0.0, SVG Export Plug-In . SVG Version: 6.00 Build 0)  -->
<!DOCTYPE svg PUBLIC "-//W3C//DTD SVG 1.1//EN" "http://www.w3.org/Graphics/SVG/1.1/DTD/svg11.dtd">
<svg version="1.1" id="图层_1" xmlns="http://www.w3.org/2000/svg" xmlns:xlink="http://www.w3.org/1999/xlink" x="0px" y="0px"
	 width="72px" height="72px" viewBox="-1 -1 72 72" enable-background="new -1 -1 72 72" xml:space="preserve">
<circle fill="#FFFFFF" stroke="#999999" stroke-miterlimit="10" cx="34.837" cy="35.162" r="34.162"/>
<g>
	<g>
		<g>
			<g>
				<g>
					<defs>
						<rect id="SVGID_1_" x="17.259" y="14.42" width="35.158" height="41.482"/>
					</defs>
					<clipPath id="SVGID_2_">
						<use xlink:href="#SVGID_1_"  overflow="visible"/>
					</clipPath>
					<path clip-path="url(#SVGID_2_)" fill="#FFFFFF" d="M25.218,19.675v-2.443c0-1.287,1.045-2.334,2.332-2.334h22.056
						c1.287,0,2.334,1.047,2.334,2.334v31.319c0,1.286-1.047,2.332-2.334,2.332h-3.311"/>
				</g>
			</g>
		</g>
	</g>
	<g>
		<g>
			<g>
				<g>
					<defs>
						<rect id="SVGID_3_" x="17.259" y="14.42" width="35.158" height="41.482"/>
					</defs>
					<clipPath id="SVGID_4_">
						<use xlink:href="#SVGID_3_"  overflow="visible"/>
					</clipPath>
					<path clip-path="url(#SVGID_4_)" fill="#999999" d="M49.606,51.359h-3.311c-0.264,0-0.477-0.213-0.477-0.477
						c0-0.266,0.213-0.477,0.477-0.477h3.311c1.026,0,1.856-0.834,1.861-1.861V17.229c0-1.028-0.835-1.856-1.861-1.861H27.55
						c-1.027,0-1.857,0.833-1.859,1.861v2.443c0,0.264-0.215,0.479-0.478,0.479c-0.264,0-0.478-0.213-0.478-0.479v-2.443
						c0-1.551,1.259-2.807,2.811-2.811h22.06c1.553,0,2.806,1.26,2.812,2.811v31.319C52.417,50.1,51.156,51.354,49.606,51.359"/>
				</g>
			</g>
		</g>
	</g>
	<g>
		<g>
			<g>
				<g>
					<defs>
						<rect id="SVGID_5_" x="17.259" y="14.42" width="35.158" height="41.482"/>
					</defs>
					<clipPath id="SVGID_6_">
						<use xlink:href="#SVGID_5_"  overflow="visible"/>
					</clipPath>
					<path opacity="0.5" clip-path="url(#SVGID_6_)" fill="#999999" enable-background="new    " d="M27.25,15.979h22.636
						c0.873,0,1.584,0.709,1.584,1.584V48.84c0,0.877-0.711,1.586-1.584,1.586H27.461c-0.989,0-1.795-0.808-1.795-1.797V17.563
						C25.667,16.688,26.374,15.979,27.25,15.979"/>
				</g>
			</g>
		</g>
	</g>
	<g>
		<g>
			<g>
				<g>
					<defs>
						<rect id="SVGID_7_" x="17.259" y="14.42" width="35.158" height="41.482"/>
					</defs>
					<clipPath id="SVGID_8_">
						<use xlink:href="#SVGID_7_"  overflow="visible"/>
					</clipPath>
					<path opacity="0.3" clip-path="url(#SVGID_8_)" fill="#999999" enable-background="new    " d="M44.958,18.347H25.693v32.061
						H47.81V21.198C47.812,19.623,46.534,18.347,44.958,18.347"/>
				</g>
			</g>
		</g>
	</g>
	<g>
		<g>
			<g>
				<g>
					<defs>
						<rect id="SVGID_9_" x="17.259" y="14.42" width="35.158" height="41.482"/>
					</defs>
					<clipPath id="SVGID_10_">
						<use xlink:href="#SVGID_9_"  overflow="visible"/>
					</clipPath>
					<path opacity="0.8" clip-path="url(#SVGID_10_)" fill="#999999" enable-background="new    " d="M49.886,49.378H27.461
						c-0.989,0-1.796-0.805-1.796-1.797v1.042c0,0.992,0.807,1.797,1.796,1.797h22.424c0.872,0,1.582-0.707,1.582-1.583v-1.042
						C51.47,48.669,50.759,49.378,49.886,49.378"/>
				</g>
			</g>
		</g>
	</g>
	<g>
		<g>
			<g>
				<g>
					<defs>
						<rect id="SVGID_11_" x="17.259" y="14.42" width="35.158" height="41.482"/>
					</defs>
					<clipPath id="SVGID_12_">
						<use xlink:href="#SVGID_11_"  overflow="visible"/>
					</clipPath>
					<path clip-path="url(#SVGID_12_)" fill="#FFFFFF" d="M17.764,20.332h28.278v33.607c0,0.775-0.63,1.406-1.408,1.406h-25.25
						c-0.894,0-1.62-0.727-1.62-1.621V20.332z"/>
				</g>
			</g>
		</g>
	</g>
	<g>
		<g>
			<g>
				<g>
					<defs>
						<rect id="SVGID_13_" x="17.259" y="14.42" width="35.158" height="41.482"/>
					</defs>
					<clipPath id="SVGID_14_">
						<use xlink:href="#SVGID_13_"  overflow="visible"/>
					</clipPath>
					<path opacity="0.8" clip-path="url(#SVGID_14_)" fill="#999999" enable-background="new    " d="M34.032,29.387
						c0,0.666-0.904,1.564-2.013,1.564c-1.111,0-2.015-1.006-2.015-1.564"/>
				</g>
			</g>
		</g>
	</g>
	<g>
		<g>
			<g>
				<g>
					<defs>
						<rect id="SVGID_15_" x="17.259" y="14.42" width="35.158" height="41.482"/>
					</defs>
					<clipPath id="SVGID_16_">
						<use xlink:href="#SVGID_15_"  overflow="visible"/>
					</clipPath>
					<path clip-path="url(#SVGID_16_)" fill="#FFFFFF" d="M44.11,19.989H19.921c-0.897,0-1.63,0.73-1.63,1.629v1.027
						c0-0.897,0.73-1.629,1.63-1.629H44.11c0.9,0,1.631,0.73,1.631,1.629v-1.027C45.741,20.716,45.011,19.989,44.11,19.989"/>
				</g>
			</g>
		</g>
	</g>
	<g>
		<g>
			<g>
				<g>
					<defs>
						<rect id="SVGID_17_" x="17.259" y="14.42" width="35.158" height="41.482"/>
					</defs>
					<clipPath id="SVGID_18_">
						<use xlink:href="#SVGID_17_"  overflow="visible"/>
					</clipPath>
					<path opacity="0.5" clip-path="url(#SVGID_18_)" fill="#999999" enable-background="new    " d="M44.481,53.676H19.523
						c-0.695,0-1.26-0.564-1.26-1.262v1.292c0,0.694,0.564,1.261,1.26,1.261h24.958c0.693,0,1.26-0.564,1.26-1.261v-1.292
						C45.741,53.111,45.177,53.676,44.481,53.676"/>
				</g>
			</g>
		</g>
	</g>
	<g>
		<g>
			<g>
				<g>
					<defs>
						<rect id="SVGID_19_" x="17.259" y="14.42" width="35.158" height="41.482"/>
					</defs>
					<clipPath id="SVGID_20_">
						<use xlink:href="#SVGID_19_"  overflow="visible"/>
					</clipPath>
					<path clip-path="url(#SVGID_20_)" fill="#FFFFFF" d="M30.461,28.09c0,0.857,0.695,1.551,1.552,1.551
						c0.857,0,1.55-0.693,1.55-1.551c0-0.855-0.693-1.55-1.55-1.55C31.158,26.54,30.461,27.235,30.461,28.09"/>
				</g>
			</g>
		</g>
	</g>
	<g>
		<g>
			<g>
				<g>
					<defs>
						<rect id="SVGID_21_" x="17.259" y="14.42" width="35.158" height="41.482"/>
					</defs>
					<clipPath id="SVGID_22_">
						<use xlink:href="#SVGID_21_"  overflow="visible"/>
					</clipPath>
					<path clip-path="url(#SVGID_22_)" fill="#999999" d="M27.689,47.823h-3.406c-0.477,0-0.861,0.385-0.861,0.86
						c0,0.041,0.004,0.086,0.008,0.131c0.062,0.426,0.445,0.73,0.877,0.73h3.412c0.477,0,0.86-0.385,0.86-0.861
						c0-0.041-0.004-0.084-0.009-0.125C28.508,48.129,28.125,47.823,27.689,47.823 M29.414,44.387h-5.131
						c-0.477,0-0.861,0.385-0.861,0.859c0,0.044,0.004,0.089,0.008,0.131c0.062,0.426,0.445,0.73,0.877,0.73h5.129
						c0.477,0,0.861-0.383,0.861-0.854c0-0.042-0.005-0.088-0.01-0.132C30.228,44.691,29.841,44.387,29.414,44.387 M43.751,19.138
						H19.898c-1.824,0-2.64,0.93-2.64,2.782v30.629c0,1.854,1.273,3.354,3.099,3.354h23.124c1.824,0,3.308-1.5,3.308-3.354V21.698
						C46.788,19.841,45.574,19.138,43.751,19.138 M45.765,52.654c0,0.951-1.08,2.043-2.029,2.043H20.344
						c-0.949,0-2.08-0.998-2.08-1.948V25.365c2.588,1.81,7.042,2.981,11.292,3.347c0.277,1.163,1.291,1.926,2.453,1.926
						c1.162,0,2.231-0.81,2.453-1.986c4.25-0.365,8.708-1.477,11.292-3.286L45.765,52.654z M30.505,27.864
						c0.104-0.834,0.87-1.422,1.703-1.314c0.833,0.105,1.42,0.87,1.314,1.704c-0.088,0.687-0.629,1.228-1.314,1.313
						c-0.833,0.107-1.6-0.485-1.703-1.318C30.492,28.123,30.492,27.994,30.505,27.864 M45.765,23.66
						c-2.235,2.062-6.82,3.379-11.361,3.782c-0.232-1.293-1.307-1.963-2.384-1.963c-1.08,0-2.084,0.467-2.537,2.004
						c-4.543-0.401-8.982-1.564-11.212-3.625V22.04c0-0.949,0.768-1.719,1.717-1.719h23.821c1.422,0,1.957,0.779,1.957,2.056V23.66
						L45.765,23.66z"/>
				</g>
			</g>
		</g>
	</g>
</g>
</svg>
