<?xml version="1.0" encoding="utf-8"?>
<!-- Generator: Adobe Illustrator 22.0.1, SVG Export Plug-In . SVG Version: 6.00 Build 0)  -->
<svg version="1.1" id="图层_1" xmlns="http://www.w3.org/2000/svg" xmlns:xlink="http://www.w3.org/1999/xlink" x="0px" y="0px"
	 viewBox="0 0 50 50" style="enable-background:new 0 0 50 50;" xml:space="preserve">
<style type="text/css">
	.st0{fill:#FFFFFF;}
	.st1{fill:#999999;}
	.st2{fill:#CCCCCC;}
	.st3{fill:#DDDDDD;}
	.st4{fill:#7B96F7;}
</style>
<g>
	<path class="st0" d="M16.7,11.7V9.6c0-1.1,0.9-2,2-2h18.9c1.1,0,2,0.9,2,2v26.9c0,1.1-0.9,2-2,2h-2.8"/>
	<path class="st1" d="M37.7,38.9h-2.8c-0.2,0-0.4-0.2-0.4-0.4c0-0.2,0.2-0.4,0.4-0.4h2.8c0.9,0,1.6-0.7,1.6-1.6V9.6
		c0-0.9-0.7-1.6-1.6-1.6h-19c-0.9,0-1.6,0.7-1.6,1.6v2.1c0,0.2-0.2,0.4-0.4,0.4s-0.4-0.2-0.4-0.4V9.6c0-1.3,1.1-2.4,2.4-2.4h19
		c1.3,0,2.4,1.1,2.4,2.4v26.9C40.1,37.8,39,38.9,37.7,38.9z"/>
	<path class="st2" d="M18.5,8.5h19.4c0.8,0,1.4,0.6,1.4,1.4v26.9c0,0.8-0.6,1.4-1.4,1.4H18.7c-0.9,0-1.5-0.7-1.5-1.5V9.9
		C17.1,9.1,17.7,8.5,18.5,8.5z"/>
	<path class="st3" d="M33.7,10.6H17.1v27.6h19V13C36.1,11.6,35,10.6,33.7,10.6z"/>
	<path class="st0" d="M10.3,12.3h24.3v28.9c0,0.7-0.5,1.2-1.2,1.2H11.7c-0.8,0-1.4-0.6-1.4-1.4V12.3z"/>
	<path class="st4" d="M24.3,20c0,0.6-0.8,1.3-1.7,1.3s-1.7-0.9-1.7-1.3"/>
	<path class="st0" d="M32.9,12H12.2c-0.8,0-1.4,0.6-1.4,1.4v0.9c0-0.8,0.6-1.4,1.4-1.4h20.8c0.8,0,1.4,0.6,1.4,1.4v-0.9
		C34.3,12.6,33.7,12,32.9,12z"/>
	<path class="st0" d="M21.2,18.9c0,0.7,0.6,1.3,1.3,1.3s1.3-0.6,1.3-1.3s-0.6-1.3-1.3-1.3S21.2,18.2,21.2,18.9z"/>
	<path class="st1" d="M18.8,35.9h-2.9c-0.4,0-0.7,0.3-0.7,0.7c0,0,0,0.1,0,0.1c0.1,0.4,0.4,0.6,0.8,0.6h2.9c0.4,0,0.7-0.3,0.7-0.7
		c0,0,0-0.1,0-0.1C19.5,36.1,19.2,35.9,18.8,35.9z M20.3,32.9h-4.4c-0.4,0-0.7,0.3-0.7,0.7c0,0,0,0.1,0,0.1c0.1,0.4,0.4,0.6,0.8,0.6
		h4.4c0.4,0,0.7-0.3,0.7-0.7c0,0,0-0.1,0-0.1C21,33.2,20.7,32.9,20.3,32.9z M32.7,11.2H12.2c-1.6,0-2.3,0.8-2.3,2.4v26.3
		c0,1.6,1.1,2.9,2.7,2.9h19.9c1.6,0,2.8-1.3,2.8-2.9V13.4C35.3,11.8,34.2,11.2,32.7,11.2z M34.4,40c0,0.8-0.9,1.8-1.8,1.8H12.5
		c-0.8,0-1.8-0.9-1.8-1.7V16.6c2.2,1.6,6,2.5,9.7,2.9c0.3,1,1.1,1.7,2.1,1.7s1.9-0.7,2.1-1.7c3.7-0.3,7.5-1.3,9.7-2.8V40z
		 M21.3,18.7c0.1-0.7,0.7-1.2,1.5-1.1s1.2,0.7,1.1,1.5c-0.1,0.6-0.5,1.1-1.1,1.1c-0.7,0.1-1.4-0.4-1.5-1.1
		C21.3,19,21.3,18.8,21.3,18.7z M34.4,15.1c-1.9,1.8-5.9,2.9-9.8,3.2c-0.2-1.1-1.1-1.7-2-1.7s-1.8,0.4-2.2,1.7
		c-3.9-0.4-7.7-1.3-9.6-3.1v-1.6c0-0.8,0.7-1.5,1.5-1.5h20.5c1.2,0,1.7,0.7,1.7,1.8C34.4,14,34.4,15.1,34.4,15.1z"/>
</g>
</svg>
