<?xml version="1.0" encoding="utf-8"?>
<!-- Generator: Adobe Illustrator 22.0.1, SVG Export Plug-In . SVG Version: 6.00 Build 0)  -->
<svg version="1.1" id="图层_1" xmlns="http://www.w3.org/2000/svg" xmlns:xlink="http://www.w3.org/1999/xlink" x="0px" y="0px"
	 viewBox="0 0 50 50" style="enable-background:new 0 0 50 50;" xml:space="preserve">
<style type="text/css">
	.st0{fill:#FFFFFF;}
	.st1{fill:#BBC9FA;}
	.st2{fill:#3F63F6;}
	.st3{fill:#D0D9FB;}
	.st4{fill:#7B96F7;}
</style>
<g>
	<path class="st0" d="M36.4,22.6c0-6.4-5.2-11.5-11.6-11.4c-6.1,0.1-11.2,5.1-11.3,11.2c-0.1,4.1,2.1,8,5.6,10.1
		c0.5,0.3,0.8,0.8,0.9,1.4l0.7,6.8v0.5c0,1.8,1.9,3.2,4.2,3.2s4.2-1.5,4.2-3.2v-0.5l0.7-6.8c0.1-0.6,0.4-1.1,0.9-1.4
		C34.3,30.4,36.4,26.7,36.4,22.6z"/>
	<path class="st1" d="M20.3,32.6c-0.1-0.6-0.4-1.1-0.9-1.4C16.8,29.6,14.8,27,14,24c0.5,3.4,2.5,6.4,5.5,8.2
		c0.5,0.3,0.8,0.8,0.9,1.4 M29.5,33.6c0.1-0.6,0.4-1.1,0.9-1.4c3-1.7,5-4.7,5.5-8.2c-0.8,3-2.7,5.6-5.4,7.2
		c-0.5,0.3-0.8,0.8-0.9,1.4"/>
	<path class="st2" d="M25,44.8c-2.6,0-4.7-1.7-4.7-3.7v-0.5l-0.7-6.8c0-0.4-0.3-0.8-0.6-1c-3.7-2.2-5.9-6.2-5.9-10.5
		c0.1-3.1,1.3-6,3.5-8.2s5.1-3.4,8.2-3.5c6.6-0.1,12,5.2,12.1,11.7c0,2.2-0.5,4.3-1.6,6.2c-1,1.8-2.5,3.2-4.3,4.3
		c-0.4,0.2-0.6,0.6-0.6,1l-0.7,6.8v0.4C29.7,43.1,27.6,44.8,25,44.8z M25,11.6h-0.2c-2.8,0-5.5,1.2-7.6,3.2s-3.2,4.7-3.2,7.6
		c-0.1,4,2,7.6,5.4,9.7c0.6,0.4,1,1,1.1,1.7l0.7,6.8v0.5c0,1.5,1.7,2.8,3.7,2.8s3.7-1.2,3.7-2.8l0-0.5l0.7-6.8
		c0.1-0.7,0.5-1.4,1.1-1.7c3.3-2,5.4-5.6,5.4-9.5C36,16.5,31.1,11.6,25,11.6L25,11.6z"/>
	<path class="st3" d="M25,43.1c-2,0-3.6-1.2-3.7-2.6h0v0.4c0,1.6,1.7,2.9,3.7,2.9s3.7-1.3,3.7-2.9v-0.4h0C28.6,41.9,27,43.1,25,43.1
		z"/>
	<path class="st1" d="M25,43.6c-2,0-3.6-1.3-3.7-2.8h0c0,0.1,0,0.3,0,0.4c0.2,1.7,1.7,2.9,3.7,2.9c2.1,0,3.6-1.2,3.7-2.9
		c0-0.1,0-0.3,0-0.4h0C28.6,42.2,27,43.6,25,43.6z M28.9,39.3l-7.7,0l-0.5-4.5h8.7L28.9,39.3z"/>
	<path class="st4" d="M28.9,39.3h-7.7l-0.1-0.7h7.9L28.9,39.3z"/>
	<path class="st2" d="M29.6,40.1h-9.2l-0.6-6h10.5L29.6,40.1z M21.1,39.3H29l0.5-4.5h-8.8C20.6,34.8,21.1,39.3,21.1,39.3z M28.2,23
		c-0.5-0.5-1.6-1.1-3.1-1.6c-0.9-0.3-1.4-0.5-1.4-1.2c0-0.9,0.6-1.1,1.3-1.1c0.6,0,1.4,0.7,1.4,1.2l2.3-0.5c0-0.4-0.3-1.1-1-1.7
		c-0.5-0.4-1.2-0.7-2-0.8v-1.2h-1.5v1.2c-0.9,0.1-1.5,0.4-2,0.8c-0.5,0.5-0.9,1.2-0.9,1.9c0,0.9,0.1,1.6,0.6,2.1
		c0.5,0.5,2.2,1.1,3.1,1.3c0.8,0.2,1.6,0.7,1.6,1.4c0,0.9-0.8,1.2-1.5,1.2c-1.1,0-1.9-0.8-1.9-1.6L21,25.2c0.1,0.8,0.4,1.4,1.1,2
		c0.6,0.4,1.2,0.7,2.1,0.8v1.4h1.5V28c0.9-0.1,1.6-0.4,2.2-0.8C28.6,26.6,29,26,29,25C29,24.2,28.7,23.5,28.2,23L28.2,23z"/>
	<path class="st3" d="M39,22.4h3.2c0.3,0,0.5,0.2,0.5,0.5s-0.2,0.5-0.5,0.5H39c-0.3,0-0.5-0.2-0.5-0.5C38.5,22.6,38.7,22.4,39,22.4z
		 M25.5,5.7v3.2c0,0.3-0.2,0.5-0.5,0.5c-0.3,0-0.5-0.2-0.5-0.5V5.7c0-0.3,0.2-0.5,0.5-0.5S25.5,5.4,25.5,5.7z M7.8,22.7H11
		c0.3,0,0.5,0.2,0.5,0.5s-0.2,0.5-0.5,0.5H7.8c-0.3,0-0.5-0.2-0.5-0.5C7.3,22.9,7.5,22.7,7.8,22.7z"/>
	<path class="st2" d="M34.9,32.1l2.3,2.3c0.2,0.2,0.2,0.5,0,0.7c-0.2,0.2-0.5,0.2-0.7,0l-2.3-2.3c-0.2-0.2-0.2-0.5,0-0.7
		C34.4,31.9,34.7,31.9,34.9,32.1z M13.5,11l2.3,2.3c0.2,0.2,0.2,0.5,0,0.7c-0.2,0.2-0.5,0.2-0.7,0l-2.3-2.3c-0.2-0.2-0.2-0.5,0-0.7
		C13,10.8,13.3,10.8,13.5,11z M34.1,13.1l2.3-2.3c0.2-0.2,0.5-0.2,0.7,0c0.2,0.2,0.2,0.5,0,0.7l-2.3,2.3c-0.2,0.2-0.5,0.2-0.7,0
		C33.9,13.6,33.9,13.3,34.1,13.1z M13,34.5l2.3-2.3c0.2-0.2,0.5-0.2,0.7,0c0.2,0.2,0.2,0.5,0,0.7l-2.3,2.3c-0.2,0.2-0.5,0.2-0.7,0
		C12.8,35,12.8,34.7,13,34.5z"/>
</g>
</svg>
