<?xml version="1.0" encoding="utf-8"?>
<!-- Generator: Adobe Illustrator 22.0.1, SVG Export Plug-In . SVG Version: 6.00 Build 0)  -->
<svg version="1.1" id="图层_1" xmlns="http://www.w3.org/2000/svg" xmlns:xlink="http://www.w3.org/1999/xlink" x="0px" y="0px"
	 viewBox="0 0 50 50" style="enable-background:new 0 0 50 50;" xml:space="preserve">
<style type="text/css">
	.st0{fill:#FFFFFF;stroke:#999999;stroke-miterlimit:10;}
	.st1{fill:#FFFFFF;}
	.st2{opacity:0.5;fill:#999999;enable-background:new    ;}
	.st3{fill:#999999;}
	.st4{opacity:0.3;fill:#999999;enable-background:new    ;}
	.st5{opacity:0.8;fill:#999999;enable-background:new    ;}
</style>
<g>
	<circle class="st0" cx="25" cy="25" r="21.8"/>
	<path class="st1" d="M33.3,23.1c0-4.6-3.8-8.4-8.4-8.3c-4.5,0.1-8.1,3.7-8.2,8.2c-0.1,3,1.5,5.8,4.1,7.3c0.4,0.2,0.6,0.6,0.6,1
		l0.5,4.9v0.4c0,1.3,1.4,2.4,3.1,2.4c1.7,0,3.1-1.1,3.1-2.4v-0.3l0.5-4.9c0-0.4,0.3-0.8,0.6-1C31.8,28.8,33.3,26.1,33.3,23.1z"/>
	<path class="st2" d="M21.6,30.4c0-0.4-0.3-0.8-0.6-1c-2-1.2-3.4-3.1-3.9-5.3c0.4,2.5,1.9,4.7,4,5.9c0.4,0.2,0.6,0.6,0.6,1
		 M28.3,31.2c0-0.4,0.3-0.8,0.6-1c2.2-1.3,3.6-3.5,4-5.9c-0.6,2.2-2,4.1-3.9,5.3c-0.4,0.2-0.6,0.6-0.7,1"/>
	<path class="st3" d="M25,39.3c-1.9,0-3.4-1.2-3.4-2.7v-0.3l-0.5-4.9c0-0.3-0.2-0.6-0.5-0.7c-2.7-1.6-4.3-4.5-4.3-7.6
		c0-2.3,0.9-4.4,2.6-6c1.6-1.6,3.7-2.5,6-2.5c4.8-0.1,8.7,3.8,8.8,8.5c0,1.6-0.4,3.1-1.2,4.5c-0.7,1.3-1.8,2.4-3.1,3.1
		c-0.3,0.2-0.4,0.4-0.5,0.7l-0.5,4.9v0.3C28.4,38.1,26.9,39.3,25,39.3z M25,15.2h-0.1c-2.1,0-4,0.9-5.5,2.3C17.9,19,17.1,20.9,17,23
		c0,2.9,1.5,5.6,3.9,7c0.4,0.3,0.7,0.7,0.8,1.3l0.5,5v0.4c0,1.1,1.2,2,2.7,2c1.5,0,2.7-0.9,2.7-2l0-0.4l0.5-4.9
		c0.1-0.5,0.4-1,0.8-1.3c2.4-1.4,3.9-4.1,3.9-6.9C33,18.7,29.4,15.2,25,15.2z"/>
	<path class="st4" d="M25,38c-1.4,0-2.6-0.8-2.7-1.9h0v0.3c0,1.2,1.2,2.1,2.7,2.1c1.5,0,2.7-0.9,2.7-2.1v-0.3h0
		C27.6,37.2,26.4,38,25,38z"/>
	<path class="st2" d="M25,38.4c-1.4,0-2.6-1-2.7-2.1h0c0,0.1,0,0.2,0,0.3c0.2,1.2,1.2,2.1,2.7,2.1c1.5,0,2.6-0.9,2.7-2.1
		c0-0.1,0-0.2,0-0.3h0C27.6,37.4,26.4,38.4,25,38.4z M27.8,35.3l-5.6,0L21.8,32h6.3L27.8,35.3z"/>
	<path class="st5" d="M27.8,35.3h-5.6l-0.1-0.5h5.7L27.8,35.3z"/>
	<path class="st3" d="M28.4,35.9h-6.7l-0.5-4.4h7.6L28.4,35.9z M22.1,35.3h5.7l0.3-3.3h-6.4L22.1,35.3z M27.3,23.4
		c-0.4-0.4-1.2-0.8-2.2-1.2c-0.6-0.2-1-0.4-1-0.8c0-0.7,0.4-0.8,1-0.8c0.4,0,1,0.5,1,0.9l1.6-0.4c0-0.3-0.2-0.8-0.7-1.2
		c-0.4-0.3-0.9-0.5-1.5-0.6v-0.9h-1.1v0.9c-0.6,0.1-1.1,0.3-1.5,0.6c-0.4,0.3-0.6,0.9-0.6,1.4c0,0.6,0.1,1.2,0.4,1.5
		c0.3,0.4,1.6,0.8,2.2,0.9c0.6,0.1,1.2,0.5,1.2,1c0,0.6-0.6,0.9-1.1,0.9c-0.8,0-1.4-0.6-1.4-1.2L22.1,25c0.1,0.6,0.3,1,0.8,1.5
		c0.4,0.3,0.9,0.5,1.6,0.6v1h1.1v-1c0.6,0,1.1-0.3,1.6-0.6c0.5-0.4,0.8-0.9,0.8-1.6C27.9,24.3,27.7,23.8,27.3,23.4z"/>
	<path class="st4" d="M35.2,23h2.3c0.2,0,0.3,0.2,0.3,0.3s-0.2,0.3-0.3,0.3h-2.3c-0.2,0-0.3-0.2-0.3-0.3S35,23,35.2,23z M25.3,10.8
		v2.3c0,0.2-0.2,0.3-0.3,0.3c-0.2,0-0.3-0.2-0.3-0.3v-2.3c0-0.2,0.2-0.3,0.3-0.3C25.2,10.5,25.3,10.6,25.3,10.8z M12.5,23.2h2.3
		c0.2,0,0.3,0.2,0.3,0.3s-0.2,0.3-0.3,0.3h-2.3c-0.2,0-0.3-0.2-0.3-0.3S12.3,23.2,12.5,23.2z"/>
	<path class="st3" d="M32.2,30l1.7,1.7c0.1,0.1,0.1,0.4,0,0.5c-0.1,0.1-0.4,0.1-0.5,0l-1.7-1.7c-0.1-0.1-0.1-0.3,0-0.5
		C31.9,29.9,32.1,29.9,32.2,30z M16.6,14.7l1.7,1.7c0.1,0.1,0.1,0.4,0,0.5s-0.3,0.1-0.5,0l-1.7-1.7c-0.1-0.1-0.1-0.4,0-0.5
		C16.3,14.6,16.5,14.6,16.6,14.7z M31.6,16.2l1.7-1.7c0.1-0.1,0.4-0.1,0.5,0c0.1,0.1,0.1,0.3,0,0.5l-1.7,1.7c-0.1,0.1-0.4,0.1-0.5,0
		C31.5,16.6,31.5,16.4,31.6,16.2z M16.3,31.8l1.7-1.7c0.1-0.1,0.4-0.1,0.5,0c0.1,0.1,0.1,0.4,0,0.5l-1.7,1.7c-0.1,0.1-0.4,0.1-0.5,0
		C16.1,32.2,16.1,32,16.3,31.8z"/>
</g>
</svg>
