<?xml version="1.0" encoding="utf-8"?>
<!-- Generator: Adobe Illustrator 16.0.0, SVG Export Plug-In . SVG Version: 6.00 Build 0)  -->
<!DOCTYPE svg PUBLIC "-//W3C//DTD SVG 1.1//EN" "http://www.w3.org/Graphics/SVG/1.1/DTD/svg11.dtd">
<svg version="1.1" id="图层_1" xmlns="http://www.w3.org/2000/svg" xmlns:xlink="http://www.w3.org/1999/xlink" x="0px" y="0px"
	 width="72px" height="72px" viewBox="0 0 72 72" enable-background="new 0 0 72 72" xml:space="preserve">
<circle fill="#FFFFFF" stroke="#999999" stroke-miterlimit="10" cx="35.838" cy="36.385" r="34.161"/>
<g>
	<g>
		<g>
			<g>
				<g>
					<defs>
						<rect id="SVGID_1_" x="18.86" y="15.143" width="39.228" height="42.481"/>
					</defs>
					<clipPath id="SVGID_2_">
						<use xlink:href="#SVGID_1_"  overflow="visible"/>
					</clipPath>
					<path clip-path="url(#SVGID_2_)" fill="#FFFFFF" d="M19.856,15.586h32.498c0.313,0,0.568,0.256,0.568,0.568v39.637
						c0,0.313-0.256,0.568-0.568,0.568H19.856c-0.311,0-0.566-0.257-0.566-0.568V16.154C19.29,15.842,19.545,15.586,19.856,15.586"
						/>
				</g>
			</g>
		</g>
	</g>
	<g>
		<g>
			<g>
				<g>
					<defs>
						<rect id="SVGID_3_" x="18.86" y="15.143" width="39.228" height="42.481"/>
					</defs>
					<clipPath id="SVGID_4_">
						<use xlink:href="#SVGID_3_"  overflow="visible"/>
					</clipPath>
					<path clip-path="url(#SVGID_4_)" fill="#999999" d="M51.875,56.774h-31.53c-0.824,0-1.492-0.635-1.492-1.416V16.59
						c0-0.781,0.667-1.416,1.492-1.416h31.53c0.819,0,1.492,0.634,1.492,1.416v38.769C53.362,56.14,52.694,56.774,51.875,56.774
						 M20.338,16.002c-0.334,0-0.613,0.26-0.613,0.582v38.769c0,0.324,0.273,0.584,0.613,0.584h31.533
						c0.336,0,0.615-0.26,0.615-0.584V16.59c0-0.322-0.273-0.582-0.615-0.582H20.338V16.002z"/>
				</g>
			</g>
		</g>
	</g>
</g>
<g>
	<g>
		<g>
			<g>
				<g>
					<defs>
						<rect id="SVGID_5_" x="17.221" y="15.143" width="39.236" height="42.481"/>
					</defs>
					<clipPath id="SVGID_6_">
						<use xlink:href="#SVGID_5_"  overflow="visible"/>
					</clipPath>
					<path opacity="0.5" clip-path="url(#SVGID_6_)" fill="#999999" enable-background="new    " d="M22.888,21.432h2.163
						c0.175,0,0.318,0.144,0.318,0.317v2.169c0,0.176-0.144,0.316-0.318,0.316h-2.163c-0.175,0-0.318-0.143-0.318-0.316v-2.164
						C22.57,21.575,22.713,21.432,22.888,21.432 M28.181,22.034h17.987c0.117,0,0.211,0.095,0.211,0.208v1.175
						c0,0.118-0.094,0.208-0.211,0.208H28.181c-0.119,0-0.208-0.096-0.208-0.208v-1.175C27.972,22.129,28.066,22.034,28.181,22.034"
						/>
				</g>
			</g>
		</g>
	</g>
	<g>
		<g>
			<g>
				<g>
					<defs>
						<rect id="SVGID_7_" x="17.221" y="15.143" width="39.236" height="42.481"/>
					</defs>
					<clipPath id="SVGID_8_">
						<use xlink:href="#SVGID_7_"  overflow="visible"/>
					</clipPath>
					<path clip-path="url(#SVGID_8_)" fill="#999999" d="M22.888,21.082h2.163c0.175,0,0.318,0.143,0.318,0.316v2.162
						c0,0.177-0.144,0.318-0.318,0.318h-2.163c-0.175,0-0.318-0.143-0.318-0.318v-2.162C22.57,21.225,22.713,21.082,22.888,21.082
						 M28.181,21.684h17.987c0.117,0,0.211,0.095,0.211,0.207v1.176c0,0.117-0.094,0.207-0.211,0.207H28.181
						c-0.119,0-0.208-0.094-0.208-0.207v-1.176C27.972,21.779,28.066,21.684,28.181,21.684"/>
				</g>
			</g>
		</g>
	</g>
	<g>
		<g>
			<g>
				<g>
					<defs>
						<rect id="SVGID_9_" x="17.221" y="15.143" width="39.236" height="42.481"/>
					</defs>
					<clipPath id="SVGID_10_">
						<use xlink:href="#SVGID_9_"  overflow="visible"/>
					</clipPath>
					<path opacity="0.5" clip-path="url(#SVGID_10_)" fill="#999999" enable-background="new    " d="M22.888,28.449h2.163
						c0.175,0,0.318,0.143,0.318,0.316v2.164c0,0.174-0.144,0.316-0.318,0.316h-2.163c-0.175,0-0.318-0.143-0.318-0.316v-2.164
						C22.57,28.589,22.713,28.449,22.888,28.449 M28.181,29.054h17.987c0.117,0,0.211,0.094,0.211,0.213v1.175
						c0,0.118-0.094,0.212-0.211,0.212H28.181c-0.119,0-0.208-0.094-0.208-0.212v-1.175C27.972,29.144,28.066,29.054,28.181,29.054"
						/>
				</g>
			</g>
		</g>
	</g>
	<g>
		<g>
			<g>
				<g>
					<defs>
						<rect id="SVGID_11_" x="17.221" y="15.143" width="39.236" height="42.481"/>
					</defs>
					<clipPath id="SVGID_12_">
						<use xlink:href="#SVGID_11_"  overflow="visible"/>
					</clipPath>
					<path clip-path="url(#SVGID_12_)" fill="#999999" d="M22.888,28.097h2.163c0.175,0,0.318,0.144,0.318,0.317v2.163
						c0,0.176-0.144,0.316-0.318,0.316h-2.163c-0.175,0-0.318-0.141-0.318-0.316v-2.162C22.57,28.241,22.713,28.097,22.888,28.097
						 M28.181,28.704h17.987c0.117,0,0.211,0.095,0.211,0.213v1.175c0,0.117-0.094,0.213-0.211,0.213H28.181
						c-0.119,0-0.208-0.096-0.208-0.213v-1.175C27.972,28.794,28.066,28.704,28.181,28.704"/>
				</g>
			</g>
		</g>
	</g>
	<g>
		<g>
			<g>
				<g>
					<defs>
						<rect id="SVGID_13_" x="17.221" y="15.143" width="39.236" height="42.481"/>
					</defs>
					<clipPath id="SVGID_14_">
						<use xlink:href="#SVGID_13_"  overflow="visible"/>
					</clipPath>
					<path opacity="0.5" clip-path="url(#SVGID_14_)" fill="#999999" enable-background="new    " d="M22.888,35.214h2.163
						c0.175,0,0.318,0.141,0.318,0.315v2.164c0,0.176-0.144,0.317-0.318,0.317h-2.163c-0.175,0-0.318-0.143-0.318-0.317v-2.164
						C22.57,35.361,22.713,35.214,22.888,35.214 M28.181,35.819h17.987c0.117,0,0.211,0.095,0.211,0.213v1.175
						c0,0.117-0.094,0.212-0.211,0.212H28.181c-0.119,0-0.208-0.095-0.208-0.212v-1.175C27.972,35.913,28.066,35.819,28.181,35.819"
						/>
				</g>
			</g>
		</g>
	</g>
	<g>
		<g>
			<g>
				<g>
					<defs>
						<rect id="SVGID_15_" x="17.221" y="15.143" width="39.236" height="42.481"/>
					</defs>
					<clipPath id="SVGID_16_">
						<use xlink:href="#SVGID_15_"  overflow="visible"/>
					</clipPath>
					<path clip-path="url(#SVGID_16_)" fill="#999999" d="M22.888,34.864h2.163c0.175,0,0.318,0.142,0.318,0.315v2.164
						c0,0.176-0.144,0.317-0.318,0.317h-2.163c-0.175,0-0.318-0.142-0.318-0.317v-2.158C22.57,35.009,22.713,34.864,22.888,34.864
						 M28.181,35.47h17.987c0.117,0,0.211,0.093,0.211,0.21v1.176c0,0.117-0.094,0.213-0.211,0.213H28.181
						c-0.119,0-0.208-0.096-0.208-0.213v-1.176C27.972,35.563,28.066,35.47,28.181,35.47"/>
				</g>
			</g>
		</g>
	</g>
	<g>
		<g>
			<g>
				<g>
					<defs>
						<rect id="SVGID_17_" x="17.221" y="15.143" width="39.236" height="42.481"/>
					</defs>
					<clipPath id="SVGID_18_">
						<use xlink:href="#SVGID_17_"  overflow="visible"/>
					</clipPath>
					<path clip-path="url(#SVGID_18_)" fill="#999999" d="M22.891,42.152h2.163c0.175,0,0.317,0.144,0.317,0.317v2.164
						c0,0.174-0.143,0.315-0.317,0.315h-2.163c-0.176,0-0.318-0.144-0.318-0.315v-2.16C22.572,42.3,22.715,42.152,22.891,42.152
						 M28.183,42.759h17.985c0.119,0,0.213,0.094,0.213,0.213v1.174c0,0.119-0.094,0.214-0.213,0.214H28.183
						c-0.119,0-0.208-0.095-0.208-0.214V42.97C27.975,42.853,28.068,42.759,28.183,42.759"/>
				</g>
			</g>
		</g>
	</g>
	<g>
		<g>
			<g>
				<g>
					<defs>
						<rect id="SVGID_19_" x="17.221" y="15.143" width="39.236" height="42.481"/>
					</defs>
					<clipPath id="SVGID_20_">
						<use xlink:href="#SVGID_19_"  overflow="visible"/>
					</clipPath>
					<path opacity="0.3" clip-path="url(#SVGID_20_)" fill="#999999" enable-background="new    " d="M18.357,55.089h32.241
						c0.142,0,0.26,0.118,0.26,0.26v0.086c0,0.273-0.223,0.502-0.501,0.502H18.598c-0.274,0-0.501-0.223-0.501-0.502v-0.086
						C18.097,55.207,18.209,55.089,18.357,55.089"/>
				</g>
			</g>
		</g>
	</g>
</g>
</svg>
