<?xml version="1.0" encoding="utf-8"?>
<!-- Generator: Adobe Illustrator 16.0.0, SVG Export Plug-In . SVG Version: 6.00 Build 0)  -->
<!DOCTYPE svg PUBLIC "-//W3C//DTD SVG 1.1//EN" "http://www.w3.org/Graphics/SVG/1.1/DTD/svg11.dtd">
<svg version="1.1" id="图层_1" xmlns="http://www.w3.org/2000/svg" xmlns:xlink="http://www.w3.org/1999/xlink" x="0px" y="0px"
	 width="200px" height="200px" viewBox="0 0 200 200" enable-background="new 0 0 200 200" xml:space="preserve">
<path fill="#FFFFFF" d="M175.84,37.656H67.344c-4.316,0-7.832,3.496-7.832,7.832v3.652c0-4.316,3.496-7.832,7.832-7.832H175.82
	c4.316,0,7.832,3.496,7.832,7.832v-3.652C183.652,41.152,180.156,37.656,175.84,37.656z"/>
<path fill="#FFFFFF" d="M135.527,60.859H24.199c-4.316,0-7.832,3.496-7.832,7.832v88.359c0,5.02,6.348,7.207,9.453,3.242
	l10.859-13.906c3.438-4.414,8.73-3.73,14.316-3.73h84.531c4.316,0,7.813-3.516,7.813-7.832V68.672
	C143.34,64.355,139.844,60.859,135.527,60.859z"/>
<path fill="#3F63F6" d="M135.527,60.859c4.316,0,7.813,3.516,7.813,7.832v66.152c0,4.316-3.496,7.813-7.813,7.832H50.996
	c-1.328,0-2.637-0.039-3.906-0.039c-4.082,0-7.793,0.391-10.41,3.77l-10.84,13.906c-0.977,1.289-2.5,2.051-4.121,2.051
	c-2.695,0-5.332-2.051-5.332-5.293V68.672c0-4.316,3.496-7.832,7.832-7.832h111.309 M135.527,56.973H24.199
	c-6.465,0-11.719,5.254-11.719,11.719v88.34c-0.02,2.559,1.035,4.98,2.91,6.719c1.719,1.582,3.984,2.461,6.309,2.461
	c2.813,0,5.469-1.309,7.188-3.555l10.859-13.906c1.348-1.719,3.125-2.266,7.344-2.266c0.605,0,1.211,0,1.855,0.02
	s1.348,0.02,2.051,0.02h84.531c6.465,0,11.719-5.254,11.719-11.719V68.672C147.246,62.207,141.992,56.953,135.527,56.973z"/>
<path fill="#D0D9FB" d="M35.527,79.941h90.996c0.488,0,0.879,0.391,0.879,0.859v4.707c0,0.488-0.391,0.879-0.879,0.879H35.527
	c-0.488,0-0.859-0.391-0.859-0.879v-4.707C34.668,80.332,35.039,79.941,35.527,79.941z"/>
<path fill="#3F63F6" d="M35.527,78.535h90.996c0.488,0,0.879,0.391,0.879,0.859v4.707c0,0.488-0.391,0.879-0.879,0.879H35.527
	c-0.488,0-0.859-0.391-0.859-0.879v-4.707C34.668,78.926,35.039,78.535,35.527,78.535z"/>
<path fill="#D0D9FB" d="M35.938,97.305h64.434c0.488,0,0.879,0.391,0.879,0.879v4.707c0,0.488-0.391,0.879-0.879,0.879H35.938
	c-0.488,0-0.859-0.391-0.859-0.879v-4.707C35.078,97.676,35.469,97.305,35.938,97.305z"/>
<path fill="#3F63F6" d="M35.938,95.879h64.434c0.488,0,0.879,0.391,0.879,0.879v4.707c0,0.488-0.391,0.879-0.879,0.879H35.938
	c-0.488,0-0.859-0.391-0.859-0.879v-4.707C35.078,96.27,35.469,95.879,35.938,95.879z"/>
<path fill="#D0D9FB" d="M75.547,114.082h5.332c0.488,0,0.879,0.391,0.879,0.879v4.707c0,0.488-0.391,0.859-0.879,0.859h-5.332
	c-0.488,0-0.879-0.391-0.879-0.859v-4.707C74.688,114.473,75.059,114.082,75.547,114.082z"/>
<path fill="#3F63F6" d="M75.547,112.676h5.332c0.488,0,0.879,0.391,0.879,0.879v4.707c0,0.488-0.391,0.879-0.879,0.879h-5.332
	c-0.488,0-0.879-0.391-0.879-0.879v-4.707C74.688,113.066,75.059,112.676,75.547,112.676z"/>
<path fill="#D0D9FB" d="M88.633,114.082h5.332c0.488,0,0.879,0.391,0.879,0.879v4.707c0,0.488-0.391,0.859-0.879,0.859h-5.332
	c-0.488,0-0.879-0.391-0.879-0.859v-4.707C87.773,114.473,88.164,114.082,88.633,114.082z"/>
<path fill="#3F63F6" d="M88.633,112.676h5.332c0.488,0,0.879,0.391,0.879,0.879v4.707c0,0.488-0.391,0.879-0.879,0.879h-5.332
	c-0.488,0-0.879-0.391-0.879-0.879v-4.707C87.773,113.066,88.164,112.676,88.633,112.676z"/>
<path fill="#D0D9FB" d="M48.867,114.082h5.332c0.488,0,0.879,0.391,0.879,0.879v4.707c0,0.488-0.391,0.859-0.879,0.859h-5.332
	c-0.488,0-0.879-0.391-0.879-0.859v-4.707C47.988,114.473,48.379,114.082,48.867,114.082z"/>
<path fill="#3F63F6" d="M48.867,112.676h5.332c0.488,0,0.879,0.391,0.879,0.879v4.707c0,0.488-0.391,0.879-0.879,0.879h-5.332
	c-0.488,0-0.879-0.391-0.879-0.879v-4.707C47.988,113.066,48.379,112.676,48.867,112.676z"/>
<path fill="#D0D9FB" d="M35.938,114.082h5.332c0.488,0,0.859,0.391,0.859,0.879v4.707c0,0.488-0.391,0.859-0.859,0.859h-5.332
	c-0.488,0-0.859-0.391-0.859-0.859v-4.707C35.078,114.473,35.469,114.082,35.938,114.082z"/>
<path fill="#3F63F6" d="M35.938,112.676h5.332c0.488,0,0.859,0.391,0.859,0.879v4.707c0,0.488-0.391,0.879-0.859,0.879h-5.332
	c-0.488,0-0.859-0.391-0.859-0.879v-4.707C35.078,113.066,35.469,112.676,35.938,112.676z"/>
<path fill="#D0D9FB" d="M61.953,114.082h5.332c0.488,0,0.879,0.391,0.879,0.879v4.707c0,0.488-0.391,0.859-0.879,0.859h-5.332
	c-0.488,0-0.879-0.391-0.879-0.859v-4.707C61.094,114.473,61.465,114.082,61.953,114.082z"/>
<path fill="#3F63F6" d="M61.953,112.676h5.332c0.488,0,0.879,0.391,0.879,0.879v4.707c0,0.488-0.391,0.879-0.879,0.879h-5.332
	c-0.488,0-0.879-0.391-0.879-0.879v-4.707C61.094,113.066,61.465,112.676,61.953,112.676z"/>
<text transform="matrix(1.0919 0 0 1 108.25 117.3047)" fill="#3F63F6" font-family="'AdobeSongStd-Light-GBpc-EUC-H'" font-size="26.3295">磋</text>
</svg>
