<?xml version="1.0" encoding="utf-8"?>
<!-- Generator: Adobe Illustrator 22.0.1, SVG Export Plug-In . SVG Version: 6.00 Build 0)  -->
<svg version="1.1" id="图层_1" xmlns="http://www.w3.org/2000/svg" xmlns:xlink="http://www.w3.org/1999/xlink" x="0px" y="0px"
	 viewBox="0 0 72 72" style="enable-background:new 0 0 72 72;" xml:space="preserve">
<style type="text/css">
	.st0{opacity:0.5;clip-path:url(#SVGID_2_);fill:#999999;enable-background:new    ;}
	.st1{opacity:0.8;clip-path:url(#SVGID_4_);fill:#999999;enable-background:new    ;}
	.st2{clip-path:url(#SVGID_6_);fill:#999999;}
	.st3{clip-path:url(#SVGID_8_);fill:#FFFFFF;}
	.st4{clip-path:url(#SVGID_10_);fill:#999999;}
	.st5{opacity:0.1;clip-path:url(#SVGID_12_);fill:#999999;enable-background:new    ;}
	.st6{clip-path:url(#SVGID_14_);fill:#A5BBF9;}
	.st7{fill:none;stroke:#999999;stroke-width:0.75;stroke-miterlimit:10;}
</style>
<g>
	<g>
		<g>
			<g>
				<g>
					<defs>
						<rect id="SVGID_1_" x="15.3" y="15.2" width="41.5" height="41.5"/>
					</defs>
					<clipPath id="SVGID_2_">
						<use xlink:href="#SVGID_1_"  style="overflow:visible;"/>
					</clipPath>
					<path class="st0" d="M15.5,36.6c0,7.1,3.9,13.6,10.3,17.1s14.2,3.5,20.5,0s10.3-10,10.3-17.1S52.7,23,46.3,19.5
						s-14.2-3.5-20.5,0C19.4,23,15.5,29.5,15.5,36.6"/>
				</g>
			</g>
		</g>
	</g>
	<g>
		<g>
			<g>
				<g>
					<defs>
						<rect id="SVGID_3_" x="15.3" y="15.2" width="41.5" height="41.5"/>
					</defs>
					<clipPath id="SVGID_4_">
						<use xlink:href="#SVGID_3_"  style="overflow:visible;"/>
					</clipPath>
					<path class="st1" d="M36,55.1c-11.2,0-20.3-8.6-20.5-19.3c0,0.2,0,0.3,0,0.5C15.5,47.2,24.7,56,36,56s20.5-8.8,20.5-19.7
						c0-0.2,0-0.3,0-0.5C56.2,46.6,47.2,55.1,36,55.1"/>
				</g>
			</g>
		</g>
	</g>
	<g>
		<g>
			<g>
				<g>
					<defs>
						<rect id="SVGID_5_" x="15.3" y="15.2" width="41.5" height="41.5"/>
					</defs>
					<clipPath id="SVGID_6_">
						<use xlink:href="#SVGID_5_"  style="overflow:visible;"/>
					</clipPath>
					<path class="st2" d="M36,56.7c-5.5,0-10.7-2.2-14.7-6.1c-3.9-3.9-6.1-9.1-6.1-14.7c0-5.5,2.2-10.7,6.1-14.7
						c3.9-3.9,9.1-6.1,14.7-6.1c5.5,0,10.7,2.2,14.7,6.1c3.9,3.9,6.1,9.1,6.1,14.7c0,5.5-2.2,10.7-6.1,14.7
						C46.7,54.6,41.5,56.7,36,56.7 M36,16.1c-5.3,0-10.3,2.1-14.1,5.8s-5.8,8.8-5.8,14.1s2.1,10.3,5.8,14.1
						c3.8,3.8,8.8,5.8,14.1,5.8s10.3-2.1,14.1-5.8c3.8-3.8,5.8-8.8,5.8-14.1s-2.1-10.3-5.8-14.1C46.3,18.2,41.3,16.1,36,16.1
						L36,16.1L36,16.1z"/>
				</g>
			</g>
		</g>
	</g>
</g>
<g>
	<g>
		<g>
			<g>
				<g>
					<defs>
						<rect id="SVGID_7_" x="15.3" y="15.2" width="41.5" height="41.5"/>
					</defs>
					<clipPath id="SVGID_8_">
						<use xlink:href="#SVGID_7_"  style="overflow:visible;"/>
					</clipPath>
					<path class="st3" d="M23.5,36c0,6.9,5.6,12.5,12.5,12.5S48.5,42.9,48.5,36S42.9,23.5,36,23.5S23.5,29.1,23.5,36"/>
				</g>
			</g>
		</g>
	</g>
	<g>
		<g>
			<g>
				<g>
					<defs>
						<rect id="SVGID_9_" x="15.3" y="15.2" width="41.5" height="41.5"/>
					</defs>
					<clipPath id="SVGID_10_">
						<use xlink:href="#SVGID_9_"  style="overflow:visible;"/>
					</clipPath>
					<path class="st4" d="M36,48.9c-7.1,0-12.9-5.8-12.9-12.9S28.9,23.1,36,23.1S48.9,28.9,48.9,36S43.1,48.9,36,48.9 M36,23.9
						c-6.7,0-12.1,5.4-12.1,12.1S29.3,48.1,36,48.1S48,42.6,48,36S42.6,23.9,36,23.9L36,23.9L36,23.9z"/>
				</g>
			</g>
		</g>
	</g>
	<g>
		<g>
			<g>
				<g>
					<defs>
						<rect id="SVGID_11_" x="15.3" y="15.2" width="41.5" height="41.5"/>
					</defs>
					<clipPath id="SVGID_12_">
						<use xlink:href="#SVGID_11_"  style="overflow:visible;"/>
					</clipPath>
					<path class="st5" d="M36,47.1c-6.5,0-11.8-5.2-12.1-11.6c0,0.2,0,0.3,0,0.5c0,6.7,5.4,12.1,12.1,12.1c6.6,0,12-5.4,12-12.1
						c0-0.2,0-0.3,0-0.5C47.8,42,42.5,47.1,36,47.1"/>
				</g>
			</g>
		</g>
	</g>
	<g>
		<g>
			<g>
				<g>
					<defs>
						<rect id="SVGID_13_" x="15.3" y="15.2" width="41.5" height="41.5"/>
					</defs>
					<clipPath id="SVGID_14_">
						<use xlink:href="#SVGID_13_"  style="overflow:visible;"/>
					</clipPath>
					<path class="st6" d="M41.2,35.2L41.2,35.2c0.1,0.3,0.1,0.6,0.1,0.8l0,0C41.3,35.7,41.3,35.5,41.2,35.2"/>
				</g>
			</g>
		</g>
	</g>
</g>
<g>
	<circle class="st7" cx="30.7" cy="36" r="1.6"/>
	<circle class="st7" cx="36" cy="36" r="1.6"/>
	<circle class="st7" cx="41.4" cy="36" r="1.6"/>
</g>
</svg>
