<?xml version="1.0" encoding="utf-8"?>
<!-- Generator: Adobe Illustrator 22.0.1, SVG Export Plug-In . SVG Version: 6.00 Build 0)  -->
<svg version="1.1" id="图层_1" xmlns="http://www.w3.org/2000/svg" xmlns:xlink="http://www.w3.org/1999/xlink" x="0px" y="0px"
	 viewBox="0 0 72 72" style="enable-background:new 0 0 72 72;" xml:space="preserve">
<style type="text/css">
	.st0{opacity:0.3;clip-path:url(#SVGID_2_);fill:#3F63F6;enable-background:new    ;}
	.st1{opacity:0.5;clip-path:url(#SVGID_4_);fill:#3F63F6;enable-background:new    ;}
	.st2{clip-path:url(#SVGID_6_);fill:#3F63F6;}
	.st3{clip-path:url(#SVGID_8_);fill:#FFFFFF;}
	.st4{clip-path:url(#SVGID_10_);fill:#3F63F6;}
	.st5{opacity:0.5;clip-path:url(#SVGID_12_);fill:#3F63F6;enable-background:new    ;}
	.st6{clip-path:url(#SVGID_14_);}
	.st7{fill:none;}
	.st8{fill:none;stroke:#3F63F6;stroke-width:0.75;stroke-miterlimit:10;}
</style>
<g>
	<g>
		<g>
			<g>
				<g>
					<g>
						<g>
							<defs>
								<rect id="SVGID_1_" x="14.7" y="17" width="41.5" height="41.5"/>
							</defs>
							<clipPath id="SVGID_2_">
								<use xlink:href="#SVGID_1_"  style="overflow:visible;"/>
							</clipPath>
							<path class="st0" d="M14.9,38.3c0,7.1,3.9,13.6,10.3,17.1s14.2,3.5,20.5,0S56,45.4,56,38.3s-3.9-13.6-10.3-17.1
								c-6.3-3.5-14.2-3.5-20.5,0C18.8,24.7,14.9,31.2,14.9,38.3"/>
						</g>
					</g>
				</g>
			</g>
		</g>
	</g>
	<g>
		<g>
			<g>
				<g>
					<g>
						<g>
							<defs>
								<rect id="SVGID_3_" x="14.7" y="17" width="41.5" height="41.5"/>
							</defs>
							<clipPath id="SVGID_4_">
								<use xlink:href="#SVGID_3_"  style="overflow:visible;"/>
							</clipPath>
							<path class="st1" d="M35.4,56.9c-11.2,0-20.3-8.6-20.5-19.3c0,0.2,0,0.3,0,0.5c0,10.9,9.2,19.7,20.5,19.7S55.9,49,55.9,38.1
								c0-0.2,0-0.3,0-0.5C55.6,48.3,46.6,56.9,35.4,56.9"/>
						</g>
					</g>
				</g>
			</g>
		</g>
	</g>
	<g>
		<g>
			<g>
				<g>
					<g>
						<g>
							<defs>
								<rect id="SVGID_5_" x="14.7" y="17" width="41.5" height="41.5"/>
							</defs>
							<clipPath id="SVGID_6_">
								<use xlink:href="#SVGID_5_"  style="overflow:visible;"/>
							</clipPath>
							<path class="st2" d="M35.4,58.5c-5.5,0-10.7-2.2-14.7-6.1c-3.9-3.9-6.1-9.1-6.1-14.7S16.8,27,20.7,23
								c3.9-3.9,9.1-6.1,14.7-6.1s10.7,2.2,14.7,6.1c3.9,3.9,6.1,9.1,6.1,14.7S54,48.4,50.1,52.4C46.1,56.3,40.9,58.5,35.4,58.5
								 M35.4,17.8c-5.3,0-10.3,2.1-14.1,5.8c-3.8,3.8-5.8,8.8-5.8,14.1s2.1,10.3,5.8,14.1c3.8,3.8,8.8,5.8,14.1,5.8
								s10.3-2.1,14.1-5.8c3.8-3.8,5.8-8.8,5.8-14.1s-2.1-10.3-5.9-14S40.7,17.8,35.4,17.8L35.4,17.8L35.4,17.8z"/>
						</g>
					</g>
				</g>
			</g>
		</g>
	</g>
</g>
<g>
	<g>
		<g>
			<g>
				<g>
					<defs>
						<rect id="SVGID_7_" x="14.7" y="17" width="41.5" height="41.5"/>
					</defs>
					<clipPath id="SVGID_8_">
						<use xlink:href="#SVGID_7_"  style="overflow:visible;"/>
					</clipPath>
					<path class="st3" d="M22.9,37.7c0,6.9,5.6,12.5,12.5,12.5s12.5-5.6,12.5-12.5s-5.6-12.5-12.5-12.5
						C28.5,25.2,22.9,30.8,22.9,37.7"/>
				</g>
			</g>
		</g>
	</g>
</g>
<g>
	<g>
		<g>
			<g>
				<g>
					<g>
						<defs>
							<rect id="SVGID_9_" x="14.7" y="17" width="41.5" height="41.5"/>
						</defs>
						<clipPath id="SVGID_10_">
							<use xlink:href="#SVGID_9_"  style="overflow:visible;"/>
						</clipPath>
						<path class="st4" d="M35.4,50.6c-7.1,0-12.9-5.8-12.9-12.9s5.8-12.9,12.9-12.9s12.9,5.8,12.9,12.9S42.5,50.6,35.4,50.6
							 M35.4,25.7c-6.7,0-12.1,5.4-12.1,12.1s5.4,12.1,12.1,12.1s12.1-5.4,12.1-12.1C47.4,31.1,42,25.7,35.4,25.7L35.4,25.7
							L35.4,25.7z"/>
					</g>
				</g>
			</g>
		</g>
	</g>
</g>
<g>
	<g>
		<g>
			<g>
				<g>
					<defs>
						<rect id="SVGID_11_" x="14.7" y="17" width="41.5" height="41.5"/>
					</defs>
					<clipPath id="SVGID_12_">
						<use xlink:href="#SVGID_11_"  style="overflow:visible;"/>
					</clipPath>
					<path class="st5" d="M35.4,48.9c-6.5,0-11.8-5.2-12.1-11.6c0,0.2,0,0.3,0,0.5c0,6.7,5.4,12.1,12.1,12.1s12.1-5.4,12.1-12.1
						c0-0.2,0-0.3,0-0.5C47.2,43.7,41.9,48.9,35.4,48.9"/>
				</g>
			</g>
		</g>
	</g>
</g>
<g>
	<g>
		<g>
			<g>
				<g>
					<g>
						<defs>
							<rect id="SVGID_13_" x="14.7" y="17" width="41.5" height="41.5"/>
						</defs>
						<clipPath id="SVGID_14_">
							<use xlink:href="#SVGID_13_"  style="overflow:visible;"/>
						</clipPath>
						<g class="st6">
							<path class="st7" d="M40.6,36.9L40.6,36.9c0.1,0.3,0.1,0.6,0.1,0.8l0,0C40.7,37.5,40.7,37.2,40.6,36.9"/>
						</g>
					</g>
				</g>
			</g>
		</g>
	</g>
</g>
<g>
	<circle class="st8" cx="30.1" cy="37.8" r="1.6"/>
	<circle class="st8" cx="35.4" cy="37.8" r="1.6"/>
	<circle class="st8" cx="40.8" cy="37.8" r="1.6"/>
</g>
</svg>
