<?xml version="1.0" encoding="utf-8"?>
<!-- Generator: Adobe Illustrator 16.0.0, SVG Export Plug-In . SVG Version: 6.00 Build 0)  -->
<!DOCTYPE svg PUBLIC "-//W3C//DTD SVG 1.1//EN" "http://www.w3.org/Graphics/SVG/1.1/DTD/svg11.dtd">
<svg version="1.1" id="图层_1" xmlns="http://www.w3.org/2000/svg" xmlns:xlink="http://www.w3.org/1999/xlink" x="0px" y="0px"
	 width="72px" height="72px" viewBox="0 0 72 72" enable-background="new 0 0 72 72" xml:space="preserve">
<circle fill="#FFFFFF" stroke="#999999" stroke-miterlimit="10" cx="36.001" cy="36" r="34.162"/>
<g>
	<g>
		<g>
			<g>
				<g>
					<defs>
						<rect id="SVGID_1_" x="15.261" y="15.236" width="41.484" height="41.532"/>
					</defs>
					<clipPath id="SVGID_2_">
						<use xlink:href="#SVGID_1_"  overflow="visible"/>
					</clipPath>
					<path opacity="0.5" clip-path="url(#SVGID_2_)" fill="#999999" enable-background="new    " d="M15.501,36.563
						c-0.002,7.054,3.91,13.566,10.26,17.094c6.351,3.525,14.172,3.525,20.523,0c6.35-3.524,10.262-10.041,10.261-17.094
						c0.001-7.05-3.91-13.565-10.261-17.091c-6.351-3.526-14.173-3.525-20.523,0C19.411,22.996,15.501,29.512,15.501,36.563"/>
				</g>
			</g>
		</g>
		<g>
			<g>
				<g>
					<defs>
						<rect id="SVGID_3_" x="15.261" y="15.236" width="41.484" height="41.532"/>
					</defs>
					<clipPath id="SVGID_4_">
						<use xlink:href="#SVGID_3_"  overflow="visible"/>
					</clipPath>
					<path opacity="0.8" clip-path="url(#SVGID_4_)" fill="#999999" enable-background="new    " d="M35.981,55.133
						c-11.171,0-20.257-8.582-20.517-19.268c-0.003,0.155-0.005,0.313-0.005,0.467c0,10.902,9.188,19.738,20.521,19.738
						c11.333,0,20.521-8.836,20.521-19.736c0-0.156-0.004-0.313-0.006-0.469C56.236,46.551,47.15,55.133,35.981,55.133"/>
				</g>
			</g>
		</g>
		<g>
			<g>
				<g>
					<defs>
						<rect id="SVGID_5_" x="15.261" y="15.236" width="41.484" height="41.532"/>
					</defs>
					<clipPath id="SVGID_6_">
						<use xlink:href="#SVGID_5_"  overflow="visible"/>
					</clipPath>
					<path clip-path="url(#SVGID_6_)" fill="#999999" d="M35.981,56.715c-5.537,0-10.742-2.154-14.656-6.07
						c-3.916-3.914-6.069-9.119-6.069-14.653c0-5.537,2.154-10.742,6.069-14.656c3.914-3.916,9.119-6.071,14.656-6.071
						c5.537,0,10.742,2.155,14.656,6.071c3.915,3.914,6.069,9.117,6.069,14.656c0,5.536-2.156,10.739-6.069,14.653
						C46.725,54.561,41.518,56.715,35.981,56.715 M35.981,16.095c-5.314,0-10.31,2.069-14.067,5.827
						c-3.757,3.758-5.826,8.753-5.826,14.066c0,5.315,2.067,10.311,5.826,14.069c3.758,3.758,8.753,5.825,14.067,5.825
						s10.309-2.069,14.067-5.825c3.759-3.76,5.825-8.754,5.825-14.069c0-5.313-2.066-10.31-5.825-14.066
						C46.29,18.164,41.296,16.095,35.981,16.095L35.981,16.095L35.981,16.095z"/>
				</g>
			</g>
		</g>
	</g>
	<g>
		<g>
			<g>
				<g>
					<defs>
						<rect id="SVGID_7_" x="15.255" y="15.236" width="41.49" height="41.532"/>
					</defs>
					<clipPath id="SVGID_8_">
						<use xlink:href="#SVGID_7_"  overflow="visible"/>
					</clipPath>
					<path clip-path="url(#SVGID_8_)" fill="#FFFFFF" d="M23.495,35.988c0,6.896,5.591,12.487,12.485,12.487
						s12.485-5.592,12.485-12.487c0-6.895-5.59-12.485-12.485-12.485S23.495,29.093,23.495,35.988"/>
				</g>
			</g>
		</g>
		<g>
			<g>
				<g>
					<defs>
						<rect id="SVGID_9_" x="15.255" y="15.236" width="41.49" height="41.532"/>
					</defs>
					<clipPath id="SVGID_10_">
						<use xlink:href="#SVGID_9_"  overflow="visible"/>
					</clipPath>
					<path clip-path="url(#SVGID_10_)" fill="#999999" d="M35.981,48.893c-7.115,0-12.902-5.787-12.902-12.901
						c0-7.117,5.785-12.902,12.902-12.902c7.117,0,12.901,5.785,12.901,12.902C48.883,43.105,43.096,48.893,35.981,48.893
						 M35.981,23.919c-6.657-0.001-12.072,5.413-12.072,12.069c0,6.657,5.416,12.071,12.072,12.071S48.05,42.643,48.05,35.988
						C48.05,29.334,42.637,23.918,35.981,23.919L35.981,23.919L35.981,23.919z"/>
				</g>
			</g>
		</g>
		<g>
			<g>
				<g>
					<defs>
						<rect id="SVGID_11_" x="15.255" y="15.236" width="41.49" height="41.532"/>
					</defs>
					<clipPath id="SVGID_12_">
						<use xlink:href="#SVGID_11_"  overflow="visible"/>
					</clipPath>
					<path opacity="0.1" clip-path="url(#SVGID_12_)" fill="#999999" enable-background="new    " d="M35.981,47.143
						c-6.513,0-11.82-5.158-12.061-11.611c-0.006,0.151-0.011,0.305-0.011,0.457c0,6.666,5.404,12.07,12.07,12.07
						c6.666,0,12.069-5.402,12.069-12.067c0-0.153-0.003-0.308-0.011-0.459C47.801,41.984,42.493,47.143,35.981,47.143"/>
				</g>
			</g>
		</g>
		<g>
			<g>
				<g>
					<defs>
						<rect id="SVGID_13_" x="15.255" y="15.236" width="41.49" height="41.532"/>
					</defs>
					<clipPath id="SVGID_14_">
						<use xlink:href="#SVGID_13_"  overflow="visible"/>
					</clipPath>
					<path clip-path="url(#SVGID_14_)" fill="#A5BBF9" d="M41.241,35.188h0.106c0.025,0.279,0.037,0.561,0.033,0.842h-0.047
						C41.336,35.746,41.303,35.465,41.241,35.188"/>
				</g>
			</g>
		</g>
	</g>
	<text transform="matrix(1 0 0 1 30.0908 39.0732)" fill="#999999" font-family="'FZZCHJW--GB1-0'" font-size="11.7802">评</text>
</g>
</svg>
