<?xml version="1.0" standalone="no"?><!DOCTYPE svg PUBLIC "-//W3C//DTD SVG 1.1//EN" "http://www.w3.org/Graphics/SVG/1.1/DTD/svg11.dtd"><svg class="icon" width="200px" height="200.00px" viewBox="0 0 1024 1024" version="1.1" xmlns="http://www.w3.org/2000/svg"><path d="M93.5 169.3h734.9c10.6 0 19.2 8.6 19.2 19.2v507.9c0 10.6-8.6 19.2-19.2 19.2H93.5c-10.6 0-19.2-8.6-19.2-19.2V188.5c0-10.6 8.6-19.2 19.2-19.2z" fill="#ffffff" /><path d="M807.5 726.6H114.4c-27.9 0-50.5-23.8-50.5-53.1V211.4c0-29.3 22.7-53.1 50.5-53.1h693.2c27.9 0 50.5 23.8 50.5 53.1v462.2c-0.1 29.2-22.7 53-50.6 53zM114.4 180.2c-16.4 0-29.7 14-29.7 31.2v462.2c0 17.2 13.3 31.2 29.7 31.2h693.2c16.4 0 29.7-14 29.7-31.2V211.4c0-17.2-13.3-31.2-29.7-31.2H114.4z" fill="#3f63f6" /><path d="M84.7 602.9h590.1v24.4H84.7z" fill="#d0d9fb" /><path d="M529.3 812.3H392.4l13.7-83.4h110.7z" fill="#ffffff" /><path d="M63.9 627.4h794.2v21.4H63.9zM553.3 832.8H368.6l19-124.4h146.7l19 124.4z m-160-20.5h135.2l-12.7-83.4H406.1l-12.8 83.4z" fill="#3f63f6" /><path d="M318.7 815.8h284.4v39.2H318.7z" fill="#ffffff" /><path d="M613.3 865.7H308.6V805.1h304.6l0.1 60.6z m-284.4-21.4h264.2v-17.8H328.9v17.8z" fill="#3f63f6" /><path d="M463.8 437.7m-133.1 0a133.1 133.1 0 1 0 266.2 0 133.1 133.1 0 1 0-266.2 0Z" fill="#d0d9fb" /><path d="M463.8 289.1c69.3 0 125.5 56.2 125.5 125.5S533.1 540.1 463.8 540.1s-125.5-56.2-125.5-125.5S394.5 289.1 463.8 289.1m0-19.3c-80 0-144.8 64.8-144.8 144.8s64.8 144.8 144.8 144.8 144.8-64.8 144.8-144.8-64.9-144.8-144.8-144.8z" fill="#3f63f6" /><path d="M505 417.3c-6.5-6.7-20.7-14.5-39.4-20.4-11.1-3.6-17.5-6.3-17.5-14.8 0-11.8 7.4-14.4 16.8-14.4 7.2 0 17.9 8.8 17.9 15.8l28.7-6.8c0-5.5-4.2-14.6-12.5-21.6-6.6-5.7-15.3-8.9-25.8-10.1v-15.2h-19.1v15.2c-11.1 1.4-18.9 5-25.6 10.6-6.9 5.8-11.1 15.4-11.1 24.9 0 11 1.7 20.5 7.8 27.2s28.2 14.2 39.1 16.7c10.6 2.4 20.3 9 20.4 18.3 0.1 11.3-10.3 15.5-18.9 15.5-14.6 0-24.3-10.8-24.3-20.3l-28.7 7c1.9 10 4.7 18 14.1 25.5 7.1 5.7 15.5 9.2 27.2 10.6v18.2h19.1v-17.9c10.1-0.9 19.7-4.6 27.8-10.7 9-6.7 13.7-15.3 13.7-27.9 0-10.2-3.2-18.6-9.7-25.4zM201.2 414.6h91.5c2.6 0 4.7 2.1 4.7 4.7v10.7c0 2.6-2.1 4.7-4.7 4.7h-91.5c-2.6 0-4.7-2.1-4.7-4.7v-10.7c0-2.6 2.1-4.7 4.7-4.7zM171.1 414.6h10.7c2.6 0 4.7 2.1 4.7 4.7v10.7c0 2.6-2.1 4.7-4.7 4.7h-10.7c-2.6 0-4.7-2.1-4.7-4.7v-10.7c-0.1-2.6 2-4.7 4.7-4.7z" fill="#3f63f6" /><path d="M718.6 401.6h199c18.8 0 34 15.2 34 34v387.3c0 18.8-15.2 34-34 34h-199c-18.8 0-34-15.2-34-34V435.6c0.1-18.8 15.3-34 34-34z" fill="#ffffff" /><path d="M910.5 865.4H725.8c-27.4 0-49.6-22.3-49.7-49.7v-373c0-27.4 22.3-49.6 49.7-49.7h184.7c27.4 0 49.6 22.3 49.7 49.7v373c-0.1 27.4-22.3 49.7-49.7 49.7zM725.8 410.1c-18 0-32.5 14.6-32.6 32.6v373c0 18 14.6 32.6 32.6 32.6h184.7c18 0 32.5-14.6 32.6-32.6v-373c0-18-14.6-32.5-32.6-32.6H725.8z" fill="#3f63f6" /><path d="M751.1 405.6v10c0 5.3 4.3 9.6 9.6 9.6h119.5c5.3 0 9.6-4.3 9.6-9.6v-10H751.1z" fill="#3f63f6" /><path d="M821 634.3m-73.1 0a73.1 73.1 0 1 0 146.2 0 73.1 73.1 0 1 0-146.2 0Z" fill="#d0d9fb" /><path d="M821 552.7c38.1 0 68.9 30.9 68.9 68.9 0 38.1-30.9 68.9-68.9 68.9s-68.9-30.9-68.9-68.9c0-38 30.8-68.8 68.9-68.9m0-10.6c-43.9 0-79.5 35.6-79.5 79.5S777.1 701.1 821 701.1s79.5-35.6 79.5-79.5-35.6-79.5-79.5-79.5z" fill="#3f63f6" /><path d="M843.6 623.2c-3.6-3.7-11.4-7.9-21.6-11.2-6.1-1.9-9.6-3.5-9.6-8.1 0-6.5 4.1-7.9 9.2-7.9 4 0 9.8 4.8 9.8 8.7l15.8-3.7c0-3-2.3-8-6.8-11.9-3.6-3.1-8.4-4.9-14.2-5.5v-8.4h-10.5v8.4c-5.2 0.5-10 2.5-14 5.8-3.9 3.5-6.1 8.4-6.1 13.6 0 6 0.9 11.3 4.3 14.9s15.5 7.8 21.5 9.2c5.8 1.3 11.2 5 11.2 10 0.1 6.2-5.6 8.5-10.4 8.5-8 0-13.4-5.9-13.4-11.1l-15.8 3.9c1 5.5 2.6 9.9 7.8 14 3.9 3.1 8.5 5 14.9 5.8v10h10.5v-9.9c5.5-0.5 10.8-2.5 15.2-5.9 4.9-3.7 7.5-8.4 7.5-15.3 0.3-5.2-1.7-10.2-5.3-13.9zM826.9 486.9V524.1c0 1.4-1.2 2.6-2.6 2.6h-5.9c-1.4 0-2.6-1.2-2.6-2.6v-37.2c0-1.4 1.2-2.6 2.6-2.6h5.9c1.4 0 2.6 1.1 2.6 2.6zM826.9 470.3v5.9c0 1.4-1.2 2.6-2.6 2.6h-5.9c-1.4 0-2.6-1.2-2.6-2.6v-5.9c0-1.4 1.2-2.6 2.6-2.6h5.9c1.4 0 2.6 1.2 2.6 2.6z" fill="#3f63f6" /><path d="M780 833.2h80c1.8 0 3.3 1.5 3.3 3.3 0 1.8-1.5 3.3-3.3 3.3h-80c-1.8 0-3.3-1.5-3.3-3.3 0-1.8 1.5-3.3 3.3-3.3z" fill="#7b96f7" /></svg>