<?xml version="1.0" encoding="utf-8"?>
<!-- Generator: Adobe Illustrator 16.0.0, SVG Export Plug-In . SVG Version: 6.00 Build 0)  -->
<!DOCTYPE svg PUBLIC "-//W3C//DTD SVG 1.1//EN" "http://www.w3.org/Graphics/SVG/1.1/DTD/svg11.dtd">
<svg version="1.1" id="图层_1" xmlns="http://www.w3.org/2000/svg" xmlns:xlink="http://www.w3.org/1999/xlink" x="0px" y="0px"
	 width="72px" height="72px" viewBox="0 0 72 72" enable-background="new 0 0 72 72" xml:space="preserve">
<circle fill="#FFFFFF" stroke="#999999" stroke-miterlimit="10" cx="35.838" cy="35.838" r="34.162"/>
<g>
	<path fill="#FFFFFF" d="M16.858,20.296h33.327c0.48,0,0.871,0.39,0.871,0.871v23.032c0,0.482-0.391,0.873-0.871,0.873H16.858
		c-0.48,0-0.869-0.391-0.869-0.873V21.167C15.987,20.686,16.377,20.296,16.858,20.296z"/>
	<path fill="#999999" d="M49.236,45.57H17.806c-1.265,0-2.29-1.08-2.29-2.407V22.207c0-1.329,1.03-2.408,2.29-2.408h31.437
		c1.266,0,2.291,1.079,2.291,2.408v20.96C51.527,44.49,50.502,45.57,49.236,45.57z M17.806,20.792c-0.744,0-1.347,0.635-1.347,1.415
		v20.96c0,0.778,0.604,1.414,1.347,1.414h31.437c0.744,0,1.348-0.636,1.348-1.414v-20.96c0-0.78-0.604-1.415-1.348-1.415H17.806z"/>
	<path opacity="0.5" fill="#999999" enable-background="new    " d="M16.459,39.961h26.76v1.105h-26.76V39.961z"/>
	<path fill="#FFFFFF" d="M36.62,49.457h-6.208l0.621-3.782h5.02L36.62,49.457z"/>
	<path fill="#999999" d="M15.516,41.072h36.018v0.97H15.516V41.072z M37.709,50.387h-8.375l0.86-5.643h6.652L37.709,50.387z
		 M30.454,49.457h6.13l-0.575-3.782h-4.975L30.454,49.457z"/>
	<path fill="#FFFFFF" d="M27.069,49.615h12.897v1.777H27.069V49.615z"/>
	<path fill="#999999" d="M40.43,51.879H26.612v-2.748h13.813L40.43,51.879z M27.532,50.908h11.981v-0.807H27.532V50.908z"/>
	<path opacity="0.5" fill="#999999" enable-background="new    " d="M27.614,32.468c0,3.333,2.703,6.036,6.037,6.036
		c3.334,0,6.035-2.703,6.035-6.036s-2.701-6.036-6.035-6.036C30.317,26.432,27.614,29.135,27.614,32.468L27.614,32.468z"/>
	<path fill="#999999" d="M33.65,25.729c3.144,0,5.69,2.549,5.69,5.692c0,3.144-2.548,5.692-5.69,5.692
		c-3.141,0-5.691-2.549-5.691-5.692C27.959,28.278,30.508,25.729,33.65,25.729 M33.65,24.854c-3.628,0-6.566,2.938-6.566,6.567
		c0,3.628,2.938,6.565,6.566,6.565c3.629,0,6.567-2.938,6.567-6.565C40.218,27.793,37.273,24.854,33.65,24.854z"/>
	<path fill="#999999" d="M35.52,31.544c-0.295-0.304-0.938-0.658-1.787-0.925c-0.504-0.163-0.793-0.286-0.793-0.672
		c0-0.534,0.334-0.652,0.76-0.652c0.328,0,0.813,0.398,0.813,0.716l1.302-0.308c0-0.25-0.19-0.663-0.566-0.979
		c-0.301-0.26-0.694-0.404-1.17-0.458v-0.689h-0.865v0.689c-0.504,0.064-0.857,0.226-1.162,0.48
		c-0.313,0.264-0.504,0.699-0.504,1.129c0,0.499,0.078,0.93,0.354,1.232c0.276,0.305,1.278,0.645,1.772,0.758
		c0.481,0.109,0.922,0.408,0.927,0.83c0.004,0.513-0.469,0.703-0.857,0.703c-0.662,0-1.103-0.49-1.103-0.922l-1.301,0.318
		c0.086,0.453,0.212,0.816,0.639,1.156c0.321,0.26,0.703,0.418,1.234,0.48v0.826h0.865v-0.813c0.459-0.041,0.894-0.207,1.261-0.484
		c0.408-0.305,0.621-0.693,0.621-1.266C35.959,32.232,35.814,31.852,35.52,31.544z M21.741,31.421h4.149
		c0.118,0,0.214,0.095,0.214,0.213v0.485c0,0.117-0.096,0.213-0.214,0.213h-4.149c-0.117,0-0.213-0.096-0.213-0.213v-0.485
		C21.528,31.516,21.624,31.421,21.741,31.421z M20.377,31.421h0.485c0.117,0,0.213,0.095,0.213,0.213v0.485
		c0,0.117-0.096,0.213-0.213,0.213h-0.485c-0.117,0-0.213-0.096-0.213-0.213v-0.485C20.159,31.516,20.255,31.421,20.377,31.421z"/>
	<path fill="#FFFFFF" d="M45.206,30.831h9.024c0.854,0,1.541,0.688,1.541,1.542v17.563c0,0.854-0.688,1.543-1.541,1.543h-9.024
		c-0.854,0-1.542-0.688-1.542-1.543V32.373C43.668,31.521,44.357,30.831,45.206,30.831z"/>
	<path fill="#999999" d="M53.906,51.865h-8.375c-1.242,0-2.248-1.012-2.254-2.254V32.695c0-1.244,1.012-2.25,2.254-2.254h8.375
		c1.244,0,2.25,1.012,2.256,2.254v16.916C56.156,50.855,55.15,51.865,53.906,51.865z M45.531,31.217
		c-0.815,0-1.473,0.662-1.479,1.479v16.916c0,0.816,0.662,1.479,1.479,1.479h8.375c0.818,0,1.477-0.661,1.479-1.479V32.695
		c0-0.816-0.661-1.475-1.479-1.479L45.531,31.217L45.531,31.217z"/>
	<path fill="#999999" d="M46.68,31.012v0.454c0,0.24,0.195,0.435,0.436,0.435h5.421c0.237,0,0.435-0.194,0.435-0.435v-0.454H46.68z"
		/>
	<path opacity="0.5" fill="#999999" enable-background="new    " d="M46.533,41.384c0,1.832,1.484,3.315,3.316,3.315
		c1.831,0,3.313-1.483,3.313-3.315l0,0c0-1.83-1.482-3.313-3.313-3.313C48.02,38.068,46.533,39.554,46.533,41.384z"/>
	<path fill="#999999" d="M49.85,37.686c1.729,0,3.125,1.399,3.125,3.123c0,1.729-1.402,3.125-3.125,3.125
		c-1.724,0-3.125-1.4-3.125-3.125C46.725,39.085,48.121,37.689,49.85,37.686 M49.85,37.203c-1.99,0-3.604,1.615-3.604,3.605
		s1.614,3.605,3.604,3.605s3.605-1.615,3.605-3.605S51.84,37.203,49.85,37.203z"/>
	<path fill="#999999" d="M50.875,40.882c-0.164-0.168-0.518-0.358-0.98-0.509c-0.277-0.085-0.435-0.158-0.435-0.368
		c0-0.294,0.187-0.356,0.417-0.356c0.182,0,0.443,0.217,0.443,0.395l0.717-0.168c0-0.137-0.104-0.362-0.309-0.539
		c-0.164-0.141-0.381-0.223-0.645-0.25v-0.381h-0.477v0.381c-0.235,0.023-0.453,0.113-0.636,0.264
		c-0.177,0.158-0.276,0.381-0.276,0.616c0,0.272,0.041,0.513,0.195,0.677s0.703,0.354,0.975,0.416
		c0.265,0.059,0.51,0.227,0.51,0.453c0.005,0.281-0.255,0.387-0.473,0.387c-0.362,0-0.607-0.269-0.607-0.504l-0.716,0.178
		c0.045,0.25,0.116,0.449,0.353,0.635c0.18,0.141,0.387,0.229,0.678,0.264v0.453h0.476v-0.447c0.25-0.023,0.489-0.115,0.69-0.27
		c0.221-0.167,0.34-0.381,0.34-0.693C51.128,41.275,51.037,41.048,50.875,40.882z M50.115,34.699v1.688
		c0,0.063-0.053,0.118-0.116,0.118H49.73c-0.063,0-0.117-0.056-0.117-0.118v-1.688c0-0.063,0.055-0.118,0.117-0.118h0.269
		C50.064,34.582,50.115,34.631,50.115,34.699z M50.115,33.947v0.267c0,0.063-0.053,0.118-0.116,0.118H49.73
		c-0.063,0-0.117-0.055-0.117-0.118v-0.267c0-0.063,0.055-0.118,0.117-0.118h0.269C50.064,33.829,50.115,33.883,50.115,33.947z"/>
	<path opacity="0.5" fill="#999999" enable-background="new    " d="M47.99,50.404h3.627c0.082,0,0.15,0.068,0.15,0.148
		c0,0.082-0.068,0.15-0.15,0.15H47.99c-0.082,0-0.149-0.068-0.149-0.15C47.841,50.473,47.908,50.404,47.99,50.404z"/>
</g>
</svg>
