<?xml version="1.0" encoding="utf-8"?>
<!-- Generator: Adobe Illustrator 16.0.0, SVG Export Plug-In . SVG Version: 6.00 Build 0)  -->
<!DOCTYPE svg PUBLIC "-//W3C//DTD SVG 1.1//EN" "http://www.w3.org/Graphics/SVG/1.1/DTD/svg11.dtd">
<svg version="1.1" id="图层_1" xmlns="http://www.w3.org/2000/svg" xmlns:xlink="http://www.w3.org/1999/xlink" x="0px" y="0px"
	 width="716.961px" height="707.76px" viewBox="0 0 716.961 707.76" enable-background="new 0 0 716.961 707.76"
	 xml:space="preserve">
<g>
	<defs>
		<rect id="SVGID_1_" width="716.961" height="707.76"/>
	</defs>
	<clipPath id="SVGID_2_">
		<use xlink:href="#SVGID_1_"  overflow="visible"/>
	</clipPath>
	<path opacity="0.5" clip-path="url(#SVGID_2_)" fill="#999999" d="M22.32,187.281h621.122c8.32,0,15.117,6.801,15.117,15.117
		v420.159c0,8.322-6.797,15.121-15.117,15.121H22.32c-8.32,0-15.121-6.799-15.121-15.121V202.398
		C7.199,194.082,14,187.281,22.32,187.281"/>
	<path clip-path="url(#SVGID_2_)" fill="#999999" d="M631.441,644.879H34.32c-18.961,0-34.242-15.359-34.32-34.321v-396.16
		c0.078-18.957,15.359-34.238,34.32-34.316h597.122c18.957,0.078,34.238,15.359,34.32,34.316v396.16
		C665.68,629.52,650.319,644.879,631.441,644.879 M34.32,194.479c-10.961,0.078-19.922,8.961-19.922,20v396.16
		c0,10.961,8.961,19.918,19.922,19.918h597.122c11.039,0,19.918-8.957,19.918-20v-396.16c0-11.039-8.961-19.918-19.918-20H34.32
		V194.479z"/>
</g>
<g>
	<defs>
		<rect id="SVGID_3_" width="716.88" height="707.76"/>
	</defs>
	<clipPath id="SVGID_4_">
		<use xlink:href="#SVGID_3_"  overflow="visible"/>
	</clipPath>
	<path clip-path="url(#SVGID_4_)" fill="#FFFFFF" d="M12.559,259.921L454.238,4.878c7.684-4.481,17.523-1.84,22,5.921
		l175.84,304.559c4.48,7.68,1.844,17.52-5.918,22L204.48,592.319c-7.679,4.48-17.519,1.84-22-5.921L6.641,281.921
		C2.16,274.242,4.801,264.319,12.559,259.921"/>
	<path clip-path="url(#SVGID_4_)" fill="#999999" d="M201.122,596.961c-3.2,0-6.321-0.403-9.441-1.282
		c-9.283-2.479-17.121-8.479-21.918-16.8L6.8,296.558C-3.122,279.281,2.72,257.281,20,247.281L439.52,5.039
		c17.281-9.918,39.281-4,49.281,13.203L651.84,300.558c9.922,17.282,4,39.282-13.199,49.282L219.122,592.16
		C213.681,595.359,207.44,596.961,201.122,596.961 M457.52,14.558c-3.84,0-7.521,1.043-10.801,2.883L27.2,259.761
		c-10.399,6-13.918,19.278-7.918,29.68l163.038,282.32c6,10.399,19.283,13.918,29.68,7.918l419.442-242.16
		c10.398-6,13.918-19.277,7.918-29.679L476.398,25.519C472.48,18.718,465.281,14.64,457.52,14.558"/>
</g>
<g>
	<defs>
		<rect id="SVGID_5_" width="716.961" height="707.76"/>
	</defs>
	<clipPath id="SVGID_6_">
		<use xlink:href="#SVGID_5_"  overflow="visible"/>
	</clipPath>
	<polygon opacity="0.1" clip-path="url(#SVGID_6_)" fill="#999999" points="606.48,250.16 43.763,250.16 79.839,229.359 
		594.16,229.359 	"/>
	<polygon opacity="0.3" clip-path="url(#SVGID_6_)" fill="#999999" points="110.109,329.914 516.574,95.234 581.137,207.05 
		174.672,441.729 	"/>
	<path clip-path="url(#SVGID_6_)" fill="#FFFFFF" d="M22.32,249.199h621.122c8.32,0,15.117,6.801,15.117,15.121V684.48
		c0,8.319-6.797,15.119-15.117,15.119H22.32c-8.32,0-15.121-6.8-15.121-15.119V264.32C7.199,255.922,14,249.199,22.32,249.199"/>
	<path clip-path="url(#SVGID_6_)" fill="#999999" d="M631.441,242H34.319C15.359,242.082,0.078,257.358,0,276.319V672.48
		c0.078,18.961,15.359,34.236,34.319,34.318h597.122c18.957-0.082,34.238-15.357,34.32-34.318V276.319
		C665.68,257.358,650.32,242.082,631.441,242 M651.359,672.48c0,11.039-8.961,19.918-19.918,20H34.319
		c-10.96-0.082-19.921-8.961-19.921-20V276.319c0-10.961,8.961-19.922,19.921-20h597.122c11.039,0,19.918,8.962,19.918,20V672.48z"
		/>
</g>
<g>
	<defs>
		<rect id="SVGID_7_" width="716.88" height="707.76"/>
	</defs>
	<clipPath id="SVGID_8_">
		<use xlink:href="#SVGID_7_"  overflow="visible"/>
	</clipPath>
	<path clip-path="url(#SVGID_8_)" fill="#FFFFFF" d="M559.039,412.48h136.32c7.922,0,14.402,6.479,14.402,14.397v95.043
		c0,7.918-6.48,14.399-14.402,14.399h-136.32c-7.918,0-14.398-6.481-14.398-14.399v-95.043
		C544.641,418.96,551.039,412.48,559.039,412.48"/>
	<path clip-path="url(#SVGID_8_)" fill="#999999" d="M683.922,543.441H570.48c-18.242,0-33.039-14.802-33.039-33.043V438.32
		c0-18.239,14.797-33.039,33.039-33.039h113.441c18.238,0,33.039,14.8,33.039,33.039v72.078
		C716.961,528.64,702.16,543.441,683.922,543.441 M570.48,419.679c-10.32,0-18.641,8.402-18.641,18.642v72.078
		c0,10.319,8.398,18.64,18.641,18.64h113.441c10.316,0,18.637-8.398,18.637-18.64V438.32c0-10.321-8.398-18.642-18.637-18.642
		H570.48z"/>
</g>
<g>
	<defs>
		<rect id="SVGID_9_" width="716.961" height="707.76"/>
	</defs>
	<clipPath id="SVGID_10_">
		<use xlink:href="#SVGID_9_"  overflow="visible"/>
	</clipPath>
	<path opacity="0.1" clip-path="url(#SVGID_10_)" fill="#999999" d="M679.039,517.519H575.441
		c-13.043,0-23.602-10.559-23.602-23.598v16.239c0,10.639,8.559,19.199,19.199,19.199h112.48c10.641,0,19.199-8.561,19.199-19.199
		v-16.239C702.641,506.96,692.078,517.519,679.039,517.519"/>
	<path clip-path="url(#SVGID_10_)" fill="#FFFFFF" d="M574.48,474.398c0,10.516,8.523,19.043,19.039,19.043
		s19.039-8.527,19.039-19.043c0-10.514-8.523-19.039-19.039-19.039S574.48,463.885,574.48,474.398"/>
	<path clip-path="url(#SVGID_10_)" fill="#999999" d="M593.52,497.679c-12.879,0-23.281-10.479-23.281-23.358
		s10.48-23.282,23.363-23.282c12.879,0,23.277,10.48,23.277,23.282C616.879,487.281,606.398,497.679,593.52,497.679 M593.52,459.679
		c-8.078,0-14.719,6.563-14.719,14.72c0,8.159,6.559,14.722,14.719,14.722s14.719-6.563,14.719-14.722
		C608.238,466.241,601.68,459.679,593.52,459.679"/>
	<path opacity="0.5" clip-path="url(#SVGID_10_)" fill="#999999" d="M68.719,311.281h53.359c3.204,0,5.762,2.559,5.762,5.758v9.121
		c0,3.199-2.558,5.762-5.762,5.762H68.719c-3.199,0-5.758-2.563-5.758-5.762v-9.121C62.961,313.84,65.52,311.281,68.719,311.281
		 M163.44,311.281h53.36c3.199,0,5.758,2.559,5.758,5.758v9.121c0,3.199-2.559,5.762-5.758,5.762h-53.36
		c-3.203,0-5.761-2.563-5.761-5.762v-9.121C157.68,313.84,160.32,311.281,163.44,311.281 M259.68,311.281h53.359
		c3.2,0,5.762,2.559,5.762,5.758v9.121c0,3.199-2.562,5.762-5.762,5.762H259.68c-3.2,0-5.758-2.563-5.758-5.762v-9.121
		C253.922,313.84,256.479,311.281,259.68,311.281 M354.479,311.281h53.36c3.199,0,5.762,2.559,5.762,5.758v9.121
		c0,3.199-2.563,5.762-5.762,5.762h-53.36c-3.198,0-5.761-2.563-5.761-5.762v-9.121C348.719,313.84,351.282,311.281,354.479,311.281
		 M448.879,311.281h53.359c3.203,0,5.762,2.559,5.762,5.758v9.121c0,3.199-2.559,5.762-5.762,5.762h-53.359
		c-3.199,0-5.758-2.563-5.758-5.762v-9.121C443.121,313.84,445.762,311.281,448.879,311.281 M543.68,311.281h53.359
		c3.199,0,5.762,2.559,5.762,5.758v9.121c0,3.199-2.563,5.762-5.762,5.762H543.68c-3.199,0-5.758-2.563-5.758-5.762v-9.121
		C537.922,313.84,540.48,311.281,543.68,311.281"/>
	<path clip-path="url(#SVGID_10_)" fill="#999999" d="M68.719,305.519h53.359c3.204,0,5.762,2.563,5.762,5.762v9.117
		c0,3.203-2.558,5.762-5.762,5.762H68.719c-3.199,0-5.758-2.559-5.758-5.762v-9.117C62.961,308.082,65.52,305.519,68.719,305.519
		 M163.44,305.519h53.36c3.199,0,5.758,2.563,5.758,5.762v9.117c0,3.203-2.559,5.762-5.758,5.762h-53.36
		c-3.203,0-5.761-2.559-5.761-5.762v-9.117C157.68,308.082,160.32,305.519,163.44,305.519 M259.68,305.519h53.359
		c3.2,0,5.762,2.563,5.762,5.762v9.117c0,3.203-2.562,5.762-5.762,5.762H259.68c-3.2,0-5.758-2.559-5.758-5.762v-9.117
		C253.922,308.082,256.479,305.519,259.68,305.519 M354.479,305.519h53.36c3.199,0,5.762,2.563,5.762,5.762v9.117
		c0,3.203-2.563,5.762-5.762,5.762h-53.36c-3.198,0-5.761-2.559-5.761-5.762v-9.117
		C348.719,308.082,351.282,305.519,354.479,305.519 M448.879,305.519h53.359c3.203,0,5.762,2.563,5.762,5.762v9.117
		c0,3.203-2.559,5.762-5.762,5.762h-53.359c-3.199,0-5.758-2.559-5.758-5.762v-9.117
		C443.121,308.082,445.762,305.519,448.879,305.519 M543.68,305.519h53.359c3.199,0,5.762,2.563,5.762,5.762v9.117
		c0,3.203-2.563,5.762-5.762,5.762H543.68c-3.199,0-5.758-2.559-5.758-5.762v-9.117C537.922,308.082,540.48,305.519,543.68,305.519"
		/>
	<path opacity="0.5" clip-path="url(#SVGID_10_)" fill="#999999" d="M68.719,624.558h53.359c3.204,0,5.762,2.563,5.762,5.763v9.121
		c0,3.198-2.558,5.758-5.762,5.758H68.719c-3.199,0-5.758-2.56-5.758-5.758v-9.121C62.961,627.12,65.52,624.558,68.719,624.558
		 M163.44,624.558h53.36c3.199,0,5.758,2.563,5.758,5.763v9.121c0,3.198-2.559,5.758-5.758,5.758h-53.36
		c-3.203,0-5.761-2.56-5.761-5.758v-9.121C157.68,627.12,160.32,624.558,163.44,624.558 M259.68,624.558h53.359
		c3.2,0,5.762,2.563,5.762,5.763v9.121c0,3.198-2.562,5.758-5.762,5.758H259.68c-3.2,0-5.758-2.56-5.758-5.758v-9.121
		C253.922,627.12,256.479,624.558,259.68,624.558 M354.479,624.558h53.36c3.199,0,5.762,2.563,5.762,5.763v9.121
		c0,3.198-2.563,5.758-5.762,5.758h-53.36c-3.198,0-5.761-2.56-5.761-5.758v-9.121C348.719,627.12,351.282,624.558,354.479,624.558
		 M448.879,624.558h53.359c3.203,0,5.762,2.563,5.762,5.763v9.121c0,3.198-2.559,5.758-5.762,5.758h-53.359
		c-3.199,0-5.758-2.56-5.758-5.758v-9.121C443.121,627.12,445.762,624.558,448.879,624.558 M543.68,624.558h53.359
		c3.199,0,5.762,2.563,5.762,5.763v9.121c0,3.198-2.563,5.758-5.762,5.758H543.68c-3.199,0-5.758-2.56-5.758-5.758v-9.121
		C537.922,627.12,540.48,624.558,543.68,624.558"/>
	<path clip-path="url(#SVGID_10_)" fill="#999999" d="M68.719,618.8h53.359c3.204,0,5.762,2.56,5.762,5.758v9.121
		c0,3.2-2.558,5.763-5.762,5.763H68.719c-3.199,0-5.758-2.563-5.758-5.763v-9.121C62.961,621.359,65.52,618.8,68.719,618.8
		 M163.44,618.8h53.36c3.199,0,5.758,2.56,5.758,5.758v9.121c0,3.2-2.559,5.763-5.758,5.763h-53.36
		c-3.203,0-5.761-2.563-5.761-5.763v-9.121C157.68,621.359,160.32,618.8,163.44,618.8 M259.68,618.8h53.359
		c3.2,0,5.762,2.56,5.762,5.758v9.121c0,3.2-2.562,5.763-5.762,5.763H259.68c-3.2,0-5.758-2.563-5.758-5.763v-9.121
		C253.922,621.359,256.479,618.8,259.68,618.8 M354.479,618.8h53.36c3.199,0,5.762,2.56,5.762,5.758v9.121
		c0,3.2-2.563,5.763-5.762,5.763h-53.36c-3.198,0-5.761-2.563-5.761-5.763v-9.121C348.719,621.359,351.282,618.8,354.479,618.8
		 M448.879,618.8h53.359c3.203,0,5.762,2.56,5.762,5.758v9.121c0,3.2-2.559,5.763-5.762,5.763h-53.359
		c-3.199,0-5.758-2.563-5.758-5.763v-9.121C443.121,621.359,445.762,618.8,448.879,618.8 M543.68,618.8h53.359
		c3.199,0,5.762,2.56,5.762,5.758v9.121c0,3.2-2.563,5.763-5.762,5.763H543.68c-3.199,0-5.758-2.563-5.758-5.763v-9.121
		C537.922,621.359,540.48,618.8,543.68,618.8"/>
	<path opacity="0.1" clip-path="url(#SVGID_10_)" fill="#999999" d="M624.801,682.082H40.879c-14.641,0-26.559-11.922-26.559-26.563
		v16.96c0,11.199,9.121,20.32,20.321,20.32h596.398c11.198,0,20.32-9.121,20.32-20.32v-16.96
		C651.359,670.16,639.441,682.082,624.801,682.082"/>
	<polygon opacity="0.8" clip-path="url(#SVGID_10_)" fill="#999999" points="284.32,229.358 262.559,241.921 520.078,241.921 
		542.559,229.358 	"/>
</g>
</svg>
