<?xml version="1.0" encoding="utf-8"?>
<!-- Generator: Adobe Illustrator 22.0.1, SVG Export Plug-In . SVG Version: 6.00 Build 0)  -->
<svg version="1.1" id="图层_1" xmlns="http://www.w3.org/2000/svg" xmlns:xlink="http://www.w3.org/1999/xlink" x="0px" y="0px"
	 viewBox="0 0 72 72" style="enable-background:new 0 0 72 72;" xml:space="preserve">
<style type="text/css">
	.st0{fill:#BBC9FA;}
	.st1{fill:#3F63F6;}
	.st2{fill:#FFFFFF;}
	.st3{fill:#D0D9FB;}
	.st4{fill:#7B96F7;}
</style>
<g>
	<path class="st0" d="M16.4,24.5h37.4c0.5,0,0.9,0.4,0.9,0.9v25.3c0,0.5-0.4,0.9-0.9,0.9H16.4c-0.5,0-0.9-0.4-0.9-0.9V25.4
		C15.5,24.9,15.9,24.5,16.4,24.5z"/>
	<path class="st1" d="M53.2,52.1h-36c-1.1,0-2.1-0.9-2.1-2.1V26.1c0-1.1,0.9-2.1,2.1-2.1h36c1.1,0,2.1,0.9,2.1,2.1V50
		C55.2,51.2,54.3,52.1,53.2,52.1z M17.2,24.9c-0.7,0-1.2,0.5-1.2,1.2V50c0,0.7,0.5,1.2,1.2,1.2h36c0.7,0,1.2-0.5,1.2-1.2V26.1
		c0-0.7-0.5-1.2-1.2-1.2L17.2,24.9L17.2,24.9z"/>
	<path class="st2" d="M15.9,28.9l26.6-15.4c0.5-0.3,1.1-0.1,1.3,0.4l10.6,18.4c0.3,0.5,0.1,1.1-0.4,1.3L27.4,48.9
		c-0.5,0.3-1.1,0.1-1.3-0.4L15.5,30.2C15.2,29.7,15.4,29.1,15.9,28.9z"/>
	<path class="st1" d="M27.2,49.2c-0.2,0-0.4,0-0.6-0.1c-0.6-0.1-1-0.5-1.3-1l-9.8-17c-0.6-1-0.2-2.4,0.8-3l25.3-14.6
		c1-0.6,2.4-0.2,3,0.8l9.8,17c0.6,1,0.2,2.4-0.8,3L28.3,48.9C28,49.1,27.6,49.2,27.2,49.2z M42.7,14.1c-0.2,0-0.5,0.1-0.7,0.2
		L16.7,28.9c-0.6,0.4-0.8,1.2-0.5,1.8l9.8,17c0.4,0.6,1.2,0.8,1.8,0.5l25.3-14.6c0.6-0.4,0.8-1.2,0.5-1.8l-9.8-17
		C43.6,14.3,43.1,14.1,42.7,14.1z"/>
	<path class="st3" d="M51.7,28.3H17.7l2.2-1.3h31L51.7,28.3z"/>
	<path class="st0" d="M21.7,33.1L46.2,19l3.9,6.7L25.6,39.8L21.7,33.1z"/>
	<path class="st2" d="M16.4,28.2h37.4c0.5,0,0.9,0.4,0.9,0.9v25.3c0,0.5-0.4,0.9-0.9,0.9H16.4c-0.5,0-0.9-0.4-0.9-0.9V29.1
		C15.5,28.6,15.9,28.2,16.4,28.2z"/>
	<path class="st1" d="M53.2,27.8h-36c-1.1,0-2.1,0.9-2.1,2.1v23.9c0,1.1,0.9,2.1,2.1,2.1h36c1.1,0,2.1-0.9,2.1-2.1V29.9
		C55.2,28.7,54.3,27.8,53.2,27.8z M54.4,53.8c0,0.7-0.5,1.2-1.2,1.2h-36c-0.7,0-1.2-0.5-1.2-1.2V29.9c0-0.7,0.5-1.2,1.2-1.2h36
		c0.7,0,1.2,0.5,1.2,1.2L54.4,53.8L54.4,53.8z"/>
	<path class="st2" d="M48.8,38.1H57c0.5,0,0.9,0.4,0.9,0.9v5.7c0,0.5-0.4,0.9-0.9,0.9h-8.2c-0.5,0-0.9-0.4-0.9-0.9v-5.7
		C47.9,38.5,48.3,38.1,48.8,38.1z"/>
	<path class="st1" d="M56.3,46h-6.8c-1.1,0-2-0.9-2-2v-4.3c0-1.1,0.9-2,2-2h6.8c1.1,0,2,0.9,2,2V44C58.3,45.1,57.4,46,56.3,46z
		 M49.5,38.5c-0.6,0-1.1,0.5-1.1,1.1V44c0,0.6,0.5,1.1,1.1,1.1h6.8c0.6,0,1.1-0.5,1.1-1.1v-4.3c0-0.6-0.5-1.1-1.1-1.1H49.5z"/>
	<path class="st3" d="M56,44.4h-6.2c-0.8,0-1.4-0.6-1.4-1.4v1c0,0.6,0.5,1.2,1.2,1.2h6.8c0.6,0,1.2-0.5,1.2-1.2v-1
		C57.5,43.8,56.8,44.4,56,44.4L56,44.4z"/>
	<path class="st2" d="M49.7,41.8c0,0.6,0.5,1.1,1.1,1.2c0.6,0,1.1-0.5,1.1-1.1v0c0-0.6-0.5-1.1-1.1-1.1
		C50.2,40.7,49.7,41.2,49.7,41.8L49.7,41.8L49.7,41.8z"/>
	<path class="st1" d="M50.9,43.2c-0.8,0-1.4-0.6-1.4-1.4s0.6-1.4,1.4-1.4c0.8,0,1.4,0.6,1.4,1.4C52.3,42.6,51.7,43.2,50.9,43.2z
		 M50.9,40.9c-0.5,0-0.9,0.4-0.9,0.9c0,0.5,0.4,0.9,0.9,0.9c0.5,0,0.9-0.4,0.9-0.9C51.8,41.3,51.4,40.9,50.9,40.9z"/>
	<path class="st3" d="M19.2,32h3.2c0.2,0,0.3,0.2,0.3,0.3v0.5c0,0.2-0.2,0.3-0.3,0.3h-3.2c-0.2,0-0.3-0.2-0.3-0.3v-0.5
		C18.9,32.1,19,32,19.2,32z M24.9,32h3.2c0.2,0,0.3,0.2,0.3,0.3v0.5c0,0.2-0.2,0.3-0.3,0.3h-3.2c-0.2,0-0.3-0.2-0.3-0.3v-0.5
		C24.6,32.1,24.8,32,24.9,32z M30.8,32H34c0.2,0,0.3,0.2,0.3,0.3v0.5c0,0.2-0.2,0.3-0.3,0.3h-3.2c-0.2,0-0.3-0.2-0.3-0.3v-0.5
		C30.4,32.1,30.6,32,30.8,32z M36.5,32h3.2c0.2,0,0.3,0.2,0.3,0.3v0.5c0,0.2-0.2,0.3-0.3,0.3h-3.2c-0.2,0-0.3-0.2-0.3-0.3v-0.5
		C36.1,32.1,36.3,32,36.5,32z M42.2,32h3.2c0.2,0,0.3,0.2,0.3,0.3v0.5c0,0.2-0.2,0.3-0.3,0.3h-3.2c-0.2,0-0.3-0.2-0.3-0.3v-0.5
		C41.8,32.1,42,32,42.2,32z M47.9,32h3.2c0.2,0,0.3,0.2,0.3,0.3v0.5c0,0.2-0.2,0.3-0.3,0.3h-3.2c-0.2,0-0.3-0.2-0.3-0.3v-0.5
		C47.5,32.1,47.7,32,47.9,32z"/>
	<path class="st1" d="M19.2,31.6h3.2c0.2,0,0.3,0.2,0.3,0.3v0.5c0,0.2-0.2,0.3-0.3,0.3h-3.2c-0.2,0-0.3-0.2-0.3-0.3V32
		C18.9,31.8,19,31.6,19.2,31.6z M24.9,31.6h3.2c0.2,0,0.3,0.2,0.3,0.3v0.5c0,0.2-0.2,0.3-0.3,0.3h-3.2c-0.2,0-0.3-0.2-0.3-0.3V32
		C24.6,31.8,24.8,31.6,24.9,31.6z M30.8,31.6H34c0.2,0,0.3,0.2,0.3,0.3v0.5c0,0.2-0.2,0.3-0.3,0.3h-3.2c-0.2,0-0.3-0.2-0.3-0.3V32
		C30.4,31.8,30.6,31.6,30.8,31.6z M36.5,31.6h3.2c0.2,0,0.3,0.2,0.3,0.3v0.5c0,0.2-0.2,0.3-0.3,0.3h-3.2c-0.2,0-0.3-0.2-0.3-0.3V32
		C36.1,31.8,36.3,31.6,36.5,31.6z M42.2,31.6h3.2c0.2,0,0.3,0.2,0.3,0.3v0.5c0,0.2-0.2,0.3-0.3,0.3h-3.2c-0.2,0-0.3-0.2-0.3-0.3V32
		C41.8,31.8,42,31.6,42.2,31.6z M47.9,31.6h3.2c0.2,0,0.3,0.2,0.3,0.3v0.5c0,0.2-0.2,0.3-0.3,0.3h-3.2c-0.2,0-0.3-0.2-0.3-0.3V32
		C47.5,31.8,47.7,31.6,47.9,31.6z"/>
	<path class="st3" d="M19.2,50.9h3.2c0.2,0,0.3,0.2,0.3,0.3v0.6c0,0.2-0.2,0.3-0.3,0.3h-3.2c-0.2,0-0.3-0.2-0.3-0.3v-0.6
		C18.9,51,19,50.9,19.2,50.9z M24.9,50.9h3.2c0.2,0,0.3,0.2,0.3,0.3v0.6c0,0.2-0.2,0.3-0.3,0.3h-3.2c-0.2,0-0.3-0.2-0.3-0.3v-0.6
		C24.6,51,24.8,50.9,24.9,50.9z M30.8,50.9H34c0.2,0,0.3,0.2,0.3,0.3v0.6c0,0.2-0.2,0.3-0.3,0.3h-3.2c-0.2,0-0.3-0.2-0.3-0.3v-0.6
		C30.4,51,30.6,50.9,30.8,50.9z M36.5,50.9h3.2c0.2,0,0.3,0.2,0.3,0.3v0.6c0,0.2-0.2,0.3-0.3,0.3h-3.2c-0.2,0-0.3-0.2-0.3-0.3v-0.6
		C36.1,51,36.3,50.9,36.5,50.9z M42.2,50.9h3.2c0.2,0,0.3,0.2,0.3,0.3v0.6c0,0.2-0.2,0.3-0.3,0.3h-3.2c-0.2,0-0.3-0.2-0.3-0.3v-0.6
		C41.8,51,42,50.9,42.2,50.9z M47.9,50.9h3.2c0.2,0,0.3,0.2,0.3,0.3v0.6c0,0.2-0.2,0.3-0.3,0.3h-3.2c-0.2,0-0.3-0.2-0.3-0.3v-0.6
		C47.5,51,47.7,50.9,47.9,50.9z"/>
	<path class="st1" d="M19.2,50.5h3.2c0.2,0,0.3,0.2,0.3,0.3v0.5c0,0.2-0.2,0.3-0.3,0.3h-3.2c-0.2,0-0.3-0.2-0.3-0.3v-0.5
		C18.9,50.7,19,50.5,19.2,50.5z M24.9,50.5h3.2c0.2,0,0.3,0.2,0.3,0.3v0.5c0,0.2-0.2,0.3-0.3,0.3h-3.2c-0.2,0-0.3-0.2-0.3-0.3v-0.5
		C24.6,50.7,24.8,50.5,24.9,50.5z M30.8,50.5H34c0.2,0,0.3,0.2,0.3,0.3v0.5c0,0.2-0.2,0.3-0.3,0.3h-3.2c-0.2,0-0.3-0.2-0.3-0.3v-0.5
		C30.4,50.7,30.6,50.5,30.8,50.5z M36.5,50.5h3.2c0.2,0,0.3,0.2,0.3,0.3v0.5c0,0.2-0.2,0.3-0.3,0.3h-3.2c-0.2,0-0.3-0.2-0.3-0.3
		v-0.5C36.1,50.7,36.3,50.5,36.5,50.5z M42.2,50.5h3.2c0.2,0,0.3,0.2,0.3,0.3v0.5c0,0.2-0.2,0.3-0.3,0.3h-3.2
		c-0.2,0-0.3-0.2-0.3-0.3v-0.5C41.8,50.7,42,50.5,42.2,50.5z M47.9,50.5h3.2c0.2,0,0.3,0.2,0.3,0.3v0.5c0,0.2-0.2,0.3-0.3,0.3h-3.2
		c-0.2,0-0.3-0.2-0.3-0.3v-0.5C47.5,50.7,47.7,50.5,47.9,50.5z"/>
	<path class="st0" d="M52.8,54.3H17.6c-0.9,0-1.6-0.7-1.6-1.6v1c0,0.7,0.5,1.2,1.2,1.2h36c0.7,0,1.2-0.5,1.2-1.2v-1
		C54.4,53.6,53.6,54.3,52.8,54.3z"/>
	<path class="st4" d="M32.2,27l-1.3,0.8h15.5l1.4-0.8H32.2z"/>
</g>
</svg>
