<?xml version="1.0" encoding="utf-8"?>
<!-- Generator: Adobe Illustrator 22.0.1, SVG Export Plug-In . SVG Version: 6.00 Build 0)  -->
<svg version="1.1" id="图层_1" xmlns="http://www.w3.org/2000/svg" xmlns:xlink="http://www.w3.org/1999/xlink" x="0px" y="0px"
	 viewBox="0 0 50 50" style="enable-background:new 0 0 50 50;" xml:space="preserve">
<style type="text/css">
	.st0{fill:#BBC9FA;}
	.st1{fill:#3F63F6;}
	.st2{fill:#FFFFFF;}
	.st3{fill:#D0D9FB;}
	.st4{fill:#7B96F7;}
</style>
<g>
	<path class="st0" d="M11.1,17.5h27.9c0.4,0,0.7,0.3,0.7,0.7v18.9c0,0.4-0.3,0.7-0.7,0.7H11.1c-0.4,0-0.7-0.3-0.7-0.7V18.2
		C10.4,17.8,10.7,17.5,11.1,17.5z"/>
	<path class="st1" d="M38.4,38.1H11.6c-0.9,0-1.5-0.7-1.5-1.5V18.8c0-0.9,0.7-1.5,1.5-1.5h26.8c0.9,0,1.5,0.7,1.5,1.5v17.8
		C39.9,37.4,39.2,38.1,38.4,38.1L38.4,38.1z M11.6,17.9c-0.5,0-0.9,0.4-0.9,0.9v17.8c0,0.5,0.4,0.9,0.9,0.9h26.8
		c0.5,0,0.9-0.4,0.9-0.9V18.8c0-0.5-0.4-0.9-0.9-0.9L11.6,17.9C11.6,17.9,11.6,17.9,11.6,17.9z"/>
	<path class="st2" d="M10.8,20.8L30.6,9.4c0.3-0.2,0.8-0.1,1,0.3l7.9,13.7c0.2,0.3,0.1,0.8-0.3,1L19.4,35.7c-0.3,0.2-0.8,0.1-1-0.3
		l-7.9-13.7C10.3,21.4,10.4,21,10.8,20.8z"/>
	<path class="st1" d="M19.2,35.9c-0.1,0-0.3,0-0.4-0.1c-0.4-0.1-0.8-0.4-1-0.8l-7.3-12.7c-0.4-0.8-0.2-1.8,0.6-2.2L29.9,9.4
		c0.8-0.4,1.8-0.2,2.2,0.6l7.3,12.7c0.4,0.8,0.2,1.8-0.6,2.2L20.1,35.7C19.8,35.9,19.5,35.9,19.2,35.9z M30.8,9.8
		c-0.2,0-0.3,0-0.5,0.1L11.4,20.8c-0.5,0.3-0.6,0.9-0.4,1.3l7.3,12.7c0.3,0.5,0.9,0.6,1.3,0.4l18.8-10.9c0.5-0.3,0.6-0.9,0.4-1.3
		l-7.3-12.7C31.4,10,31.1,9.8,30.8,9.8L30.8,9.8z"/>
	<path class="st3" d="M37.6,20.4H12.4l1.6-0.9h23.1L37.6,20.4z"/>
	<path class="st0" d="M14.4,23.9l18.2-10.5l2.9,5L17.3,29L14.4,23.9z"/>
	<path class="st2" d="M11.1,20.3h27.9c0.4,0,0.7,0.3,0.7,0.7v18.9c0,0.4-0.3,0.7-0.7,0.7H11.1c-0.4,0-0.7-0.3-0.7-0.7V21
		C10.4,20.6,10.7,20.3,11.1,20.3z"/>
	<path class="st1" d="M38.4,20H11.6c-0.9,0-1.5,0.7-1.5,1.5v17.8c0,0.9,0.7,1.5,1.5,1.5h26.8c0.9,0,1.5-0.7,1.5-1.5V21.5
		C39.9,20.7,39.2,20,38.4,20z M39.3,39.3c0,0.5-0.4,0.9-0.9,0.9H11.6c-0.5,0-0.9-0.4-0.9-0.9V21.5c0-0.5,0.4-0.9,0.9-0.9h26.8
		c0.5,0,0.9,0.4,0.9,0.9V39.3L39.3,39.3z"/>
	<path class="st2" d="M21.9,27.6h6.1c0.4,0,0.6,0.3,0.6,0.6v4.3c0,0.4-0.3,0.6-0.6,0.6h-6.1c-0.4,0-0.6-0.3-0.6-0.6v-4.3
		C21.3,27.9,21.6,27.6,21.9,27.6z"/>
	<path class="st1" d="M27.5,33.5h-5.1c-0.8,0-1.5-0.7-1.5-1.5v-3.2c0-0.8,0.7-1.5,1.5-1.5h5.1c0.8,0,1.5,0.7,1.5,1.5V32
		C29,32.9,28.4,33.5,27.5,33.5L27.5,33.5z M22.5,28c-0.5,0-0.8,0.4-0.8,0.8V32c0,0.5,0.4,0.8,0.8,0.8h5.1c0.5,0,0.8-0.4,0.8-0.8
		v-3.2c0-0.5-0.4-0.8-0.8-0.8H22.5z"/>
	<path class="st3" d="M27.3,32.4h-4.6c-0.6,0-1.1-0.5-1.1-1.1V32c0,0.5,0.4,0.9,0.9,0.9h5c0.5,0,0.9-0.4,0.9-0.9v-0.7
		C28.4,31.9,27.9,32.4,27.3,32.4L27.3,32.4z"/>
	<path class="st2" d="M24.1,30.4c0,0.5,0.4,0.9,0.9,0.9c0.5,0,0.9-0.4,0.9-0.9c0,0,0,0,0,0c0-0.5-0.4-0.9-0.9-0.9
		C24.5,29.6,24.1,30,24.1,30.4C24.1,30.4,24.1,30.4,24.1,30.4z"/>
	<path class="st1" d="M25,31.5c-0.6,0-1-0.5-1-1s0.5-1,1-1c0.6,0,1,0.5,1,1C26,31,25.6,31.5,25,31.5z M25,29.8
		c-0.4,0-0.7,0.3-0.7,0.7s0.3,0.7,0.7,0.7s0.7-0.3,0.7-0.7S25.4,29.8,25,29.8z"/>
	<path class="st3" d="M13.1,23.1h2.4c0.1,0,0.3,0.1,0.3,0.3v0.4c0,0.1-0.1,0.3-0.3,0.3h-2.4c-0.1,0-0.3-0.1-0.3-0.3v-0.4
		C12.9,23.2,13,23.1,13.1,23.1z M17.4,23.1h2.4c0.1,0,0.3,0.1,0.3,0.3v0.4c0,0.1-0.1,0.3-0.3,0.3h-2.4c-0.1,0-0.3-0.1-0.3-0.3v-0.4
		C17.1,23.2,17.3,23.1,17.4,23.1z M21.7,23.1h2.4c0.1,0,0.3,0.1,0.3,0.3v0.4c0,0.1-0.1,0.3-0.3,0.3h-2.4c-0.1,0-0.3-0.1-0.3-0.3
		v-0.4C21.5,23.2,21.6,23.1,21.7,23.1z M26,23.1h2.4c0.1,0,0.3,0.1,0.3,0.3v0.4c0,0.1-0.1,0.3-0.3,0.3H26c-0.1,0-0.3-0.1-0.3-0.3
		v-0.4C25.7,23.2,25.8,23.1,26,23.1z M30.2,23.1h2.4c0.1,0,0.3,0.1,0.3,0.3v0.4c0,0.1-0.1,0.3-0.3,0.3h-2.4c-0.1,0-0.3-0.1-0.3-0.3
		v-0.4C29.9,23.2,30.1,23.1,30.2,23.1z M34.5,23.1h2.4c0.1,0,0.3,0.1,0.3,0.3v0.4c0,0.1-0.1,0.3-0.3,0.3h-2.4
		c-0.1,0-0.3-0.1-0.3-0.3v-0.4C34.2,23.2,34.3,23.1,34.5,23.1z"/>
	<path class="st1" d="M13.1,22.8h2.4c0.1,0,0.3,0.1,0.3,0.3v0.4c0,0.1-0.1,0.3-0.3,0.3h-2.4c-0.1,0-0.3-0.1-0.3-0.3v-0.4
		C12.9,23,13,22.8,13.1,22.8z M17.4,22.8h2.4c0.1,0,0.3,0.1,0.3,0.3v0.4c0,0.1-0.1,0.3-0.3,0.3h-2.4c-0.1,0-0.3-0.1-0.3-0.3v-0.4
		C17.1,23,17.3,22.8,17.4,22.8z M21.7,22.8h2.4c0.1,0,0.3,0.1,0.3,0.3v0.4c0,0.1-0.1,0.3-0.3,0.3h-2.4c-0.1,0-0.3-0.1-0.3-0.3v-0.4
		C21.5,23,21.6,22.8,21.7,22.8z M26,22.8h2.4c0.1,0,0.3,0.1,0.3,0.3v0.4c0,0.1-0.1,0.3-0.3,0.3H26c-0.1,0-0.3-0.1-0.3-0.3v-0.4
		C25.7,23,25.8,22.8,26,22.8z M30.2,22.8h2.4c0.1,0,0.3,0.1,0.3,0.3v0.4c0,0.1-0.1,0.3-0.3,0.3h-2.4c-0.1,0-0.3-0.1-0.3-0.3v-0.4
		C29.9,23,30.1,22.8,30.2,22.8z M34.5,22.8h2.4c0.1,0,0.3,0.1,0.3,0.3v0.4c0,0.1-0.1,0.3-0.3,0.3h-2.4c-0.1,0-0.3-0.1-0.3-0.3v-0.4
		C34.2,23,34.3,22.8,34.5,22.8z"/>
	<path class="st3" d="M13.1,37.2h2.4c0.1,0,0.3,0.1,0.3,0.3v0.4c0,0.1-0.1,0.3-0.3,0.3h-2.4c-0.1,0-0.3-0.1-0.3-0.3v-0.4
		C12.9,37.3,13,37.2,13.1,37.2z M17.4,37.2h2.4c0.1,0,0.3,0.1,0.3,0.3v0.4c0,0.1-0.1,0.3-0.3,0.3h-2.4c-0.1,0-0.3-0.1-0.3-0.3v-0.4
		C17.1,37.3,17.3,37.2,17.4,37.2z M21.7,37.2h2.4c0.1,0,0.3,0.1,0.3,0.3v0.4c0,0.1-0.1,0.3-0.3,0.3h-2.4c-0.1,0-0.3-0.1-0.3-0.3
		v-0.4C21.5,37.3,21.6,37.2,21.7,37.2z M26,37.2h2.4c0.1,0,0.3,0.1,0.3,0.3v0.4c0,0.1-0.1,0.3-0.3,0.3H26c-0.1,0-0.3-0.1-0.3-0.3
		v-0.4C25.7,37.3,25.8,37.2,26,37.2z M30.2,37.2h2.4c0.1,0,0.3,0.1,0.3,0.3v0.4c0,0.1-0.1,0.3-0.3,0.3h-2.4c-0.1,0-0.3-0.1-0.3-0.3
		v-0.4C29.9,37.3,30.1,37.2,30.2,37.2z M34.5,37.2h2.4c0.1,0,0.3,0.1,0.3,0.3v0.4c0,0.1-0.1,0.3-0.3,0.3h-2.4
		c-0.1,0-0.3-0.1-0.3-0.3v-0.4C34.2,37.3,34.3,37.2,34.5,37.2z"/>
	<path class="st1" d="M13.1,36.9h2.4c0.1,0,0.3,0.1,0.3,0.3v0.4c0,0.1-0.1,0.3-0.3,0.3h-2.4c-0.1,0-0.3-0.1-0.3-0.3v-0.4
		C12.9,37,13,36.9,13.1,36.9z M17.4,36.9h2.4c0.1,0,0.3,0.1,0.3,0.3v0.4c0,0.1-0.1,0.3-0.3,0.3h-2.4c-0.1,0-0.3-0.1-0.3-0.3v-0.4
		C17.1,37,17.3,36.9,17.4,36.9z M21.7,36.9h2.4c0.1,0,0.3,0.1,0.3,0.3v0.4c0,0.1-0.1,0.3-0.3,0.3h-2.4c-0.1,0-0.3-0.1-0.3-0.3v-0.4
		C21.5,37,21.6,36.9,21.7,36.9z M26,36.9h2.4c0.1,0,0.3,0.1,0.3,0.3v0.4c0,0.1-0.1,0.3-0.3,0.3H26c-0.1,0-0.3-0.1-0.3-0.3v-0.4
		C25.7,37,25.8,36.9,26,36.9z M30.2,36.9h2.4c0.1,0,0.3,0.1,0.3,0.3v0.4c0,0.1-0.1,0.3-0.3,0.3h-2.4c-0.1,0-0.3-0.1-0.3-0.3v-0.4
		C29.9,37,30.1,36.9,30.2,36.9z M34.5,36.9h2.4c0.1,0,0.3,0.1,0.3,0.3v0.4c0,0.1-0.1,0.3-0.3,0.3h-2.4c-0.1,0-0.3-0.1-0.3-0.3v-0.4
		C34.2,37,34.3,36.9,34.5,36.9z"/>
	<path class="st0" d="M38.1,39.7H11.9c-0.7,0-1.2-0.5-1.2-1.2v0.8c0,0.5,0.4,0.9,0.9,0.9h26.8c0.5,0,0.9-0.4,0.9-0.9v-0.8
		C39.3,39.2,38.8,39.7,38.1,39.7z"/>
	<path class="st4" d="M19.7,19.4l-1,0.6h11.6l1-0.6H19.7z"/>
</g>
</svg>
