<?xml version="1.0" encoding="utf-8"?>
<!-- Generator: Adobe Illustrator 22.0.1, SVG Export Plug-In . SVG Version: 6.00 Build 0)  -->
<svg version="1.1" id="图层_1" xmlns="http://www.w3.org/2000/svg" xmlns:xlink="http://www.w3.org/1999/xlink" x="0px" y="0px"
	 viewBox="0 0 72 72" style="enable-background:new 0 0 72 72;" xml:space="preserve">
<style type="text/css">
	.st0{opacity:0.5;clip-path:url(#SVGID_2_);fill:#999999;enable-background:new    ;}
	.st1{clip-path:url(#SVGID_4_);fill:#999999;}
	.st2{clip-path:url(#SVGID_6_);fill:#FFFFFF;}
	.st3{clip-path:url(#SVGID_8_);fill:#999999;}
	.st4{opacity:0.1;clip-path:url(#SVGID_10_);fill:#999999;enable-background:new    ;}
	.st5{opacity:0.3;clip-path:url(#SVGID_12_);fill:#999999;enable-background:new    ;}
	.st6{clip-path:url(#SVGID_14_);fill:#FFFFFF;}
	.st7{clip-path:url(#SVGID_16_);fill:#999999;}
	.st8{clip-path:url(#SVGID_18_);fill:#FFFFFF;}
	.st9{clip-path:url(#SVGID_20_);fill:#999999;}
	.st10{opacity:0.1;clip-path:url(#SVGID_22_);fill:#999999;enable-background:new    ;}
	.st11{clip-path:url(#SVGID_24_);fill:#FFFFFF;}
	.st12{clip-path:url(#SVGID_26_);fill:#999999;}
	.st13{opacity:0.5;clip-path:url(#SVGID_28_);fill:#999999;enable-background:new    ;}
	.st14{clip-path:url(#SVGID_30_);fill:#999999;}
	.st15{opacity:0.5;clip-path:url(#SVGID_32_);fill:#999999;enable-background:new    ;}
	.st16{clip-path:url(#SVGID_34_);fill:#999999;}
	.st17{opacity:0.1;clip-path:url(#SVGID_36_);fill:#999999;enable-background:new    ;}
	.st18{opacity:0.8;clip-path:url(#SVGID_38_);fill:#999999;enable-background:new    ;}
</style>
<g>
	<g>
		<g>
			<g>
				<g>
					<g>
						<g>
							<defs>
								<rect id="SVGID_1_" x="15.7" y="13.9" width="42.3" height="41.8"/>
							</defs>
							<clipPath id="SVGID_2_">
								<use xlink:href="#SVGID_1_"  style="overflow:visible;"/>
							</clipPath>
							<path class="st0" d="M17,25h36.7c0.5,0,0.9,0.4,0.9,0.9v24.8c0,0.5-0.4,0.9-0.9,0.9H17c-0.5,0-0.9-0.4-0.9-0.9V25.9
								C16.1,25.4,16.5,25,17,25"/>
						</g>
					</g>
				</g>
			</g>
		</g>
		<g>
			<g>
				<g>
					<g>
						<g>
							<defs>
								<rect id="SVGID_3_" x="15.7" y="13.9" width="42.3" height="41.8"/>
							</defs>
							<clipPath id="SVGID_4_">
								<use xlink:href="#SVGID_3_"  style="overflow:visible;"/>
							</clipPath>
							<path class="st1" d="M53,52H17.7c-1.1,0-2-0.9-2-2V26.6c0-1.1,0.9-2,2-2H53c1.1,0,2,0.9,2,2V50C55,51.1,54.1,52,53,52
								 M17.7,25.4c-0.6,0-1.2,0.5-1.2,1.2V50c0,0.6,0.5,1.2,1.2,1.2H53c0.7,0,1.2-0.5,1.2-1.2V26.6c0-0.7-0.5-1.2-1.2-1.2
								L17.7,25.4C17.7,25.4,17.7,25.4,17.7,25.4z"/>
						</g>
					</g>
				</g>
			</g>
		</g>
	</g>
	<g>
		<g>
			<g>
				<g>
					<g>
						<g>
							<defs>
								<rect id="SVGID_5_" x="15.7" y="13.9" width="42.3" height="41.8"/>
							</defs>
							<clipPath id="SVGID_6_">
								<use xlink:href="#SVGID_5_"  style="overflow:visible;"/>
							</clipPath>
							<path class="st2" d="M16.4,29.3l26.1-15.1c0.5-0.3,1-0.1,1.3,0.4l10.4,18c0.3,0.5,0.1,1-0.3,1.3L27.7,48.9
								c-0.5,0.3-1,0.1-1.3-0.4l-10.4-18C15.8,30.1,16,29.5,16.4,29.3"/>
						</g>
					</g>
				</g>
			</g>
		</g>
		<g>
			<g>
				<g>
					<g>
						<g>
							<defs>
								<rect id="SVGID_7_" x="15.7" y="13.9" width="42.3" height="41.8"/>
							</defs>
							<clipPath id="SVGID_8_">
								<use xlink:href="#SVGID_7_"  style="overflow:visible;"/>
							</clipPath>
							<path class="st3" d="M27.5,49.2c-0.2,0-0.4,0-0.6-0.1c-0.5-0.1-1-0.5-1.3-1l-9.6-16.7c-0.6-1-0.2-2.3,0.8-2.9l24.8-14.3
								c1-0.6,2.3-0.2,2.9,0.8l9.6,16.7c0.6,1,0.2,2.3-0.8,2.9L28.6,48.9C28.3,49.1,27.9,49.2,27.5,49.2 M42.7,14.8
								c-0.2,0-0.4,0.1-0.6,0.2L17.3,29.3c-0.6,0.4-0.8,1.1-0.5,1.8l9.6,16.7c0.4,0.6,1.1,0.8,1.8,0.5L53,33.9
								c0.6-0.4,0.8-1.1,0.5-1.8l-9.6-16.7C43.6,15,43.1,14.8,42.7,14.8"/>
						</g>
					</g>
				</g>
			</g>
		</g>
	</g>
	<g>
		<g>
			<g>
				<g>
					<g>
						<g>
							<defs>
								<rect id="SVGID_9_" x="15.7" y="13.9" width="42.3" height="41.8"/>
							</defs>
							<clipPath id="SVGID_10_">
								<use xlink:href="#SVGID_9_"  style="overflow:visible;"/>
							</clipPath>
							<polygon class="st4" points="51.5,28.7 18.3,28.7 20.4,27.5 50.8,27.5 							"/>
						</g>
					</g>
				</g>
			</g>
		</g>
		<g>
			<g>
				<g>
					<g>
						<g>
							<defs>
								<rect id="SVGID_11_" x="15.7" y="13.9" width="42.3" height="41.8"/>
							</defs>
							<clipPath id="SVGID_12_">
								<use xlink:href="#SVGID_11_"  style="overflow:visible;"/>
							</clipPath>
							<polygon class="st5" points="22.2,33.4 46.2,19.6 50,26.2 26,40 							"/>
						</g>
					</g>
				</g>
			</g>
		</g>
		<g>
			<g>
				<g>
					<g>
						<g>
							<defs>
								<rect id="SVGID_13_" x="15.7" y="13.9" width="42.3" height="41.8"/>
							</defs>
							<clipPath id="SVGID_14_">
								<use xlink:href="#SVGID_13_"  style="overflow:visible;"/>
							</clipPath>
							<path class="st6" d="M17,28.7h36.7c0.5,0,0.9,0.4,0.9,0.9v24.8c0,0.5-0.4,0.9-0.9,0.9H17c-0.5,0-0.9-0.4-0.9-0.9V29.5
								C16.1,29.1,16.5,28.7,17,28.7"/>
						</g>
					</g>
				</g>
			</g>
		</g>
		<g>
			<g>
				<g>
					<g>
						<g>
							<defs>
								<rect id="SVGID_15_" x="15.7" y="13.9" width="42.3" height="41.8"/>
							</defs>
							<clipPath id="SVGID_16_">
								<use xlink:href="#SVGID_15_"  style="overflow:visible;"/>
							</clipPath>
							<path class="st7" d="M53,28.2H17.7c-1.1,0-2,0.9-2,2v23.4c0,1.1,0.9,2,2,2H53c1.1,0,2-0.9,2-2V30.3
								C55,29.1,54.1,28.2,53,28.2 M54.1,53.7c0,0.7-0.5,1.2-1.2,1.2H17.7c-0.6,0-1.2-0.5-1.2-1.2V30.3c0-0.6,0.5-1.2,1.2-1.2H53
								c0.7,0,1.2,0.5,1.2,1.2L54.1,53.7L54.1,53.7L54.1,53.7z"/>
						</g>
					</g>
				</g>
			</g>
		</g>
	</g>
	<g>
		<g>
			<g>
				<g>
					<g>
						<g>
							<defs>
								<rect id="SVGID_17_" x="15.7" y="13.9" width="42.3" height="41.8"/>
							</defs>
							<clipPath id="SVGID_18_">
								<use xlink:href="#SVGID_17_"  style="overflow:visible;"/>
							</clipPath>
							<path class="st8" d="M48.7,38.3h8.1c0.5,0,0.8,0.4,0.8,0.8v5.6c0,0.5-0.4,0.9-0.8,0.9h-8.1c-0.5,0-0.9-0.4-0.9-0.9v-5.6
								C47.8,38.7,48.2,38.3,48.7,38.3"/>
						</g>
					</g>
				</g>
			</g>
		</g>
		<g>
			<g>
				<g>
					<g>
						<g>
							<defs>
								<rect id="SVGID_19_" x="15.7" y="13.9" width="42.3" height="41.8"/>
							</defs>
							<clipPath id="SVGID_20_">
								<use xlink:href="#SVGID_19_"  style="overflow:visible;"/>
							</clipPath>
							<path class="st9" d="M56.1,46h-6.7c-1.1,0-2-0.9-2-2v-4.3c0-1.1,0.9-2,2-2h6.7c1.1,0,2,0.9,2,2v4.3C58,45.2,57.1,46,56.1,46
								 M49.4,38.7c-0.6,0-1.1,0.5-1.1,1.1v4.3c0,0.6,0.5,1.1,1.1,1.1h6.7c0.6,0,1.1-0.5,1.1-1.1v-4.3c0-0.6-0.5-1.1-1.1-1.1H49.4
								L49.4,38.7z"/>
						</g>
					</g>
				</g>
			</g>
		</g>
	</g>
	<g>
		<g>
			<g>
				<g>
					<g>
						<g>
							<defs>
								<rect id="SVGID_21_" x="15.7" y="13.9" width="42.3" height="41.8"/>
							</defs>
							<clipPath id="SVGID_22_">
								<use xlink:href="#SVGID_21_"  style="overflow:visible;"/>
							</clipPath>
							<path class="st10" d="M55.8,44.5h-6.1c-0.8,0-1.4-0.6-1.4-1.4v1c0,0.6,0.5,1.1,1.1,1.1H56c0.6,0,1.1-0.5,1.1-1.1v-1
								C57.2,43.9,56.5,44.5,55.8,44.5"/>
						</g>
					</g>
				</g>
			</g>
		</g>
		<g>
			<g>
				<g>
					<g>
						<g>
							<defs>
								<rect id="SVGID_23_" x="15.7" y="13.9" width="42.3" height="41.8"/>
							</defs>
							<clipPath id="SVGID_24_">
								<use xlink:href="#SVGID_23_"  style="overflow:visible;"/>
							</clipPath>
							<path class="st11" d="M49.6,42c0,0.6,0.5,1.1,1.1,1.1c0.6,0,1.1-0.5,1.1-1.1c0-0.6-0.5-1.1-1.1-1.1
								C50.1,40.8,49.6,41.3,49.6,42"/>
						</g>
					</g>
				</g>
			</g>
		</g>
		<g>
			<g>
				<g>
					<g>
						<g>
							<defs>
								<rect id="SVGID_25_" x="15.7" y="13.9" width="42.3" height="41.8"/>
							</defs>
							<clipPath id="SVGID_26_">
								<use xlink:href="#SVGID_25_"  style="overflow:visible;"/>
							</clipPath>
							<path class="st12" d="M50.7,43.3c-0.8,0-1.4-0.6-1.4-1.4s0.6-1.4,1.4-1.4c0.8,0,1.4,0.6,1.4,1.4
								C52.1,42.7,51.5,43.3,50.7,43.3 M50.7,41.1c-0.5,0-0.9,0.4-0.9,0.9s0.4,0.9,0.9,0.9c0.5,0,0.9-0.4,0.9-0.9
								S51.2,41.1,50.7,41.1"/>
						</g>
					</g>
				</g>
			</g>
		</g>
		<g>
			<g>
				<g>
					<g>
						<g>
							<defs>
								<rect id="SVGID_27_" x="15.7" y="13.9" width="42.3" height="41.8"/>
							</defs>
							<clipPath id="SVGID_28_">
								<use xlink:href="#SVGID_27_"  style="overflow:visible;"/>
							</clipPath>
							<path class="st13" d="M19.7,32.3h3.1c0.2,0,0.3,0.2,0.3,0.3v0.5c0,0.2-0.1,0.3-0.3,0.3h-3.1c-0.2,0-0.3-0.2-0.3-0.3v-0.5
								C19.4,32.5,19.5,32.3,19.7,32.3 M25.3,32.3h3.1c0.2,0,0.3,0.2,0.3,0.3v0.5c0,0.2-0.1,0.3-0.3,0.3h-3.1
								c-0.2,0-0.3-0.2-0.3-0.3v-0.5C25,32.5,25.1,32.3,25.3,32.3 M31,32.3h3.2c0.2,0,0.3,0.2,0.3,0.3v0.5c0,0.2-0.2,0.3-0.3,0.3H31
								c-0.2,0-0.3-0.2-0.3-0.3v-0.5C30.7,32.5,30.8,32.3,31,32.3 M36.6,32.3h3.2c0.2,0,0.3,0.2,0.3,0.3v0.5c0,0.2-0.2,0.3-0.3,0.3
								h-3.2c-0.2,0-0.3-0.2-0.3-0.3v-0.5C36.3,32.5,36.4,32.3,36.6,32.3 M42.2,32.3h3.2c0.2,0,0.3,0.2,0.3,0.3v0.5
								c0,0.2-0.2,0.3-0.3,0.3h-3.2c-0.2,0-0.3-0.2-0.3-0.3v-0.5C41.8,32.5,42,32.3,42.2,32.3 M47.8,32.3h3.2c0.2,0,0.3,0.2,0.3,0.3
								v0.5c0,0.2-0.1,0.3-0.3,0.3h-3.2c-0.2,0-0.3-0.2-0.3-0.3v-0.5C47.4,32.5,47.6,32.3,47.8,32.3"/>
						</g>
					</g>
				</g>
			</g>
		</g>
		<g>
			<g>
				<g>
					<g>
						<g>
							<defs>
								<rect id="SVGID_29_" x="15.7" y="13.9" width="42.3" height="41.8"/>
							</defs>
							<clipPath id="SVGID_30_">
								<use xlink:href="#SVGID_29_"  style="overflow:visible;"/>
							</clipPath>
							<path class="st14" d="M19.7,32h3.1c0.2,0,0.3,0.2,0.3,0.3v0.5c0,0.2-0.1,0.3-0.3,0.3h-3.1c-0.2,0-0.3-0.2-0.3-0.3v-0.5
								C19.4,32.1,19.5,32,19.7,32 M25.3,32h3.1c0.2,0,0.3,0.2,0.3,0.3v0.5c0,0.2-0.1,0.3-0.3,0.3h-3.1c-0.2,0-0.3-0.2-0.3-0.3v-0.5
								C25,32.1,25.1,32,25.3,32 M31,32h3.2c0.2,0,0.3,0.2,0.3,0.3v0.5c0,0.2-0.2,0.3-0.3,0.3H31c-0.2,0-0.3-0.2-0.3-0.3v-0.5
								C30.7,32.1,30.8,32,31,32 M36.6,32h3.2c0.2,0,0.3,0.2,0.3,0.3v0.5c0,0.2-0.2,0.3-0.3,0.3h-3.2c-0.2,0-0.3-0.2-0.3-0.3v-0.5
								C36.3,32.1,36.4,32,36.6,32 M42.2,32h3.2c0.2,0,0.3,0.2,0.3,0.3v0.5c0,0.2-0.2,0.3-0.3,0.3h-3.2c-0.2,0-0.3-0.2-0.3-0.3v-0.5
								C41.8,32.1,42,32,42.2,32 M47.8,32h3.2c0.2,0,0.3,0.2,0.3,0.3v0.5c0,0.2-0.1,0.3-0.3,0.3h-3.2c-0.2,0-0.3-0.2-0.3-0.3v-0.5
								C47.4,32.1,47.6,32,47.8,32"/>
						</g>
					</g>
				</g>
			</g>
		</g>
		<g>
			<g>
				<g>
					<g>
						<g>
							<defs>
								<rect id="SVGID_31_" x="15.7" y="13.9" width="42.3" height="41.8"/>
							</defs>
							<clipPath id="SVGID_32_">
								<use xlink:href="#SVGID_31_"  style="overflow:visible;"/>
							</clipPath>
							<path class="st15" d="M19.7,50.8h3.1c0.2,0,0.3,0.2,0.3,0.3v0.5c0,0.2-0.1,0.3-0.3,0.3h-3.1c-0.2,0-0.3-0.1-0.3-0.3v-0.5
								C19.4,51,19.5,50.8,19.7,50.8 M25.3,50.8h3.1c0.2,0,0.3,0.2,0.3,0.3v0.5c0,0.2-0.1,0.3-0.3,0.3h-3.1c-0.2,0-0.3-0.1-0.3-0.3
								v-0.5C25,51,25.1,50.8,25.3,50.8 M31,50.8h3.2c0.2,0,0.3,0.2,0.3,0.3v0.5c0,0.2-0.2,0.3-0.3,0.3H31c-0.2,0-0.3-0.1-0.3-0.3
								v-0.5C30.7,51,30.8,50.8,31,50.8 M36.6,50.8h3.2c0.2,0,0.3,0.2,0.3,0.3v0.5c0,0.2-0.2,0.3-0.3,0.3h-3.2
								c-0.2,0-0.3-0.1-0.3-0.3v-0.5C36.3,51,36.4,50.8,36.6,50.8 M42.2,50.8h3.2c0.2,0,0.3,0.2,0.3,0.3v0.5c0,0.2-0.2,0.3-0.3,0.3
								h-3.2c-0.2,0-0.3-0.1-0.3-0.3v-0.5C41.8,51,42,50.8,42.2,50.8 M47.8,50.8h3.2c0.2,0,0.3,0.2,0.3,0.3v0.5
								c0,0.2-0.1,0.3-0.3,0.3h-3.2c-0.2,0-0.3-0.1-0.3-0.3v-0.5C47.4,51,47.6,50.8,47.8,50.8"/>
						</g>
					</g>
				</g>
			</g>
		</g>
		<g>
			<g>
				<g>
					<g>
						<g>
							<defs>
								<rect id="SVGID_33_" x="15.7" y="13.9" width="42.3" height="41.8"/>
							</defs>
							<clipPath id="SVGID_34_">
								<use xlink:href="#SVGID_33_"  style="overflow:visible;"/>
							</clipPath>
							<path class="st16" d="M19.7,50.5h3.1c0.2,0,0.3,0.2,0.3,0.3v0.5c0,0.2-0.1,0.3-0.3,0.3h-3.1c-0.2,0-0.3-0.2-0.3-0.3v-0.5
								C19.4,50.6,19.5,50.5,19.7,50.5 M25.3,50.5h3.1c0.2,0,0.3,0.2,0.3,0.3v0.5c0,0.2-0.1,0.3-0.3,0.3h-3.1
								c-0.2,0-0.3-0.2-0.3-0.3v-0.5C25,50.6,25.1,50.5,25.3,50.5 M31,50.5h3.2c0.2,0,0.3,0.2,0.3,0.3v0.5c0,0.2-0.2,0.3-0.3,0.3H31
								c-0.2,0-0.3-0.2-0.3-0.3v-0.5C30.7,50.6,30.8,50.5,31,50.5 M36.6,50.5h3.2c0.2,0,0.3,0.2,0.3,0.3v0.5c0,0.2-0.2,0.3-0.3,0.3
								h-3.2c-0.2,0-0.3-0.2-0.3-0.3v-0.5C36.3,50.6,36.4,50.5,36.6,50.5 M42.2,50.5h3.2c0.2,0,0.3,0.2,0.3,0.3v0.5
								c0,0.2-0.2,0.3-0.3,0.3h-3.2c-0.2,0-0.3-0.2-0.3-0.3v-0.5C41.8,50.6,42,50.5,42.2,50.5 M47.8,50.5h3.2c0.2,0,0.3,0.2,0.3,0.3
								v0.5c0,0.2-0.1,0.3-0.3,0.3h-3.2c-0.2,0-0.3-0.2-0.3-0.3v-0.5C47.4,50.6,47.6,50.5,47.8,50.5"/>
						</g>
					</g>
				</g>
			</g>
		</g>
		<g>
			<g>
				<g>
					<g>
						<g>
							<defs>
								<rect id="SVGID_35_" x="15.7" y="13.9" width="42.3" height="41.8"/>
							</defs>
							<clipPath id="SVGID_36_">
								<use xlink:href="#SVGID_35_"  style="overflow:visible;"/>
							</clipPath>
							<path class="st17" d="M52.6,54.2H18.1c-0.9,0-1.6-0.7-1.6-1.6v1c0,0.7,0.5,1.2,1.2,1.2h35.2c0.7,0,1.2-0.5,1.2-1.2v-1
								C54.1,53.5,53.4,54.2,52.6,54.2"/>
						</g>
					</g>
				</g>
			</g>
		</g>
		<g>
			<g>
				<g>
					<g>
						<g>
							<defs>
								<rect id="SVGID_37_" x="15.7" y="13.9" width="42.3" height="41.8"/>
							</defs>
							<clipPath id="SVGID_38_">
								<use xlink:href="#SVGID_37_"  style="overflow:visible;"/>
							</clipPath>
							<polygon class="st18" points="32.5,27.5 31.2,28.2 46.4,28.2 47.7,27.5 							"/>
						</g>
					</g>
				</g>
			</g>
		</g>
	</g>
</g>
</svg>
