<?xml version="1.0" standalone="no"?><!DOCTYPE svg PUBLIC "-//W3C//DTD SVG 1.1//EN" "http://www.w3.org/Graphics/SVG/1.1/DTD/svg11.dtd"><svg class="icon" width="200px" height="200.00px" viewBox="0 0 1024 1024" version="1.1" xmlns="http://www.w3.org/2000/svg"><path d="M6.082648 526.183316a506.952089 487.537924 0 1 0 1013.904177 0 506.952089 487.537924 0 1 0-1013.904177 0Z" fill="#d0d9fb" /><path d="M512.005717 984.920133C236.0456 984.920133 11.605051 772.907851 5.202264 508.952959c-0.091468 3.853106-0.148636 7.706211-0.148636 11.570751 0 269.260057 226.967363 487.537924 506.952089 487.537924s506.940655-218.266433 506.940655-487.52649c0-3.864539-0.057168-7.729079-0.148636-11.570751-6.391353 263.943458-230.843336 475.95574-506.792019 475.95574z" fill="#7b96f7" /><path d="M512.005717 1024c-136.756669 0-265.33835-53.257467-362.0433-149.962417S0 648.762385 0 512.005717s53.257467-265.33835 149.962417-362.0433S375.237615 0 512.005717 0s265.326917 53.257467 362.031866 149.962417 149.962417 225.240897 149.962417 362.0433S970.708232 777.332634 874.037583 874.037583 648.762385 1024 512.005717 1024z m0-1003.442481C380.737151 20.580387 257.323433 71.676913 164.50589 164.50589S20.580387 380.737151 20.580387 512.005717s51.096526 254.67085 143.925503 347.499827S380.737151 1003.442481 512.005717 1003.442481s254.682284-51.119393 347.499827-143.936937 143.936937-216.231261 143.936937-347.499827-51.119393-254.682284-143.936937-347.499827S643.274282 20.580387 512.005717 20.580387z" fill="#3f63f6" /><path d="M512.005717 512.005717m-308.431393 0a308.431393 308.431393 0 1 0 616.862786 0 308.431393 308.431393 0 1 0-616.862786 0Z" fill="#ffffff" /><path d="M512.005717 830.71587c-175.745068 0-318.710153-142.919351-318.710153-318.710153s142.919351-318.710153 318.710153-318.710153 318.710153 142.919351 318.710153 318.710153-142.976519 318.710153-318.710153 318.710153z m0-616.87422C347.579862 213.807349 213.807349 347.579862 213.807349 512.005717s133.772513 298.152633 298.198368 298.152633 298.152633-133.772513 298.152633-298.152633S676.408705 213.807349 512.005717 213.807349z" fill="#3f63f6" /><path d="M512.005717 787.531359c-160.881455 0-291.967084-127.426893-297.923963-286.844855-0.137203 3.750204-0.240105 7.523275-0.240104 11.307779 0 164.643092 133.486674 298.152633 298.152633 298.152634s298.164067-133.47524 298.164067-298.1412c0-3.784504-0.091468-7.557575-0.240104-11.307779-5.945445 159.417961-137.042507 286.833421-297.912529 286.833421z" fill="#d0d9fb" /><path d="M512.005717 512.005717m-143.696833 0a143.696832 143.696832 0 1 0 287.393665 0 143.696832 143.696832 0 1 0-287.393665 0Z" fill="#d0d9fb" /><path d="M512.005717 665.981309c-84.905528 0-153.975592-69.070064-153.975592-153.975592s69.070064-153.975592 153.975592-153.975592 153.975592 69.070064 153.975592 153.975592-69.081498 153.975592-153.975592 153.975592z m0-287.393665a133.418073 133.418073 0 1 0 133.406639 133.418073 133.566709 133.566709 0 0 0-133.406639-133.418073z" fill="#3f63f6" /><path d="M512.005717 629.382521a133.303737 133.303737 0 0 1-133.063633-125.345987c-0.16007 2.64115-0.262972 5.293733-0.262971 8.003483a133.315171 133.315171 0 1 0 266.618907 0c0-2.67545-0.102902-5.328033-0.262971-8.003483a133.303737 133.303737 0 0 1-133.029332 125.345987z" fill="#7b96f7" /><path d="M512.005717 390.684338c70.956599 0 128.947555 55.830015 133.052199 122.338965 0.148636-2.503947 0.251538-5.007894 0.251538-7.546142 0-70.030482-59.683121-126.798048-133.315171-126.798048s-133.315171 56.767566-133.31517 126.798048c0 2.538248 0.102902 5.042195 0.251538 7.546142 4.09321-66.508949 62.107033-122.338965 133.075066-122.338965z" fill="#ffffff" /><path d="M644.326169 513.034736H513.892252l-10.6675-20.877659 138.723239 0.091469 1.223389 6.014046c0.766048 4.973593 1.051886 7.694778 1.074754 8.003484a35.020958 35.020958 0 0 1 0.080035 6.76866z" fill="#7b96f7" /><path d="M495.4394 499.302096l396.936449-396.93645 19.41146 19.41146-396.93645 396.936449-19.411459-19.411459Z" fill="#3f63f6" /><path d="M886.454417 122.922075l-110.025034 106.560669a6.231284 6.231284 0 0 1-10.290193-2.686884l-15.412423-51.313764A6.231284 6.231284 0 0 1 752.327464 169.216512l110.025033-106.560668a6.231284 6.231284 0 0 1 10.290193 2.686883L888.089414 116.62219a6.231284 6.231284 0 0 1-1.634997 6.299885z" fill="#d0d9fb" /><path d="M866.662945 60.906511a6.208417 6.208417 0 0 1 5.991179 4.436216l15.43529 51.279463a6.231284 6.231284 0 0 1-1.634997 6.265585l-110.025034 106.560668a6.151249 6.151249 0 0 1-4.310447 1.760766 6.208417 6.208417 0 0 1-5.991179-4.436216l-15.40099-51.290897A6.231284 6.231284 0 0 1 752.327464 169.216512l110.025033-106.560668a6.151249 6.151249 0 0 1 4.310448-1.749333m0-4.116078a10.290193 10.290193 0 0 0-7.168835 2.915555l-110.025033 106.560668a10.290193 10.290193 0 0 0-2.709751 10.393095l15.400989 51.325198a10.290193 10.290193 0 0 0 17.150322 4.459084l110.025034-106.560669a10.290193 10.290193 0 0 0 2.709751-10.393095l-15.423857-51.325197a10.290193 10.290193 0 0 0-9.95862-7.374639z" fill="#3f63f6" /><path d="M891.313674 123.939661l-117.433972 113.740937a5.716774 5.716774 0 0 1-9.512712-2.48108l-18.373712-61.215217a5.716774 5.716774 0 0 1 1.509229-5.785375l117.433972-113.740936a5.716774 5.716774 0 0 1 9.512712 2.481079l18.373712 61.215217a5.716774 5.716774 0 0 1-1.509229 5.785375z m-113.455097 98.431416l104.136756-100.855328a5.716774 5.716774 0 0 0 1.509228-5.785375l-13.628789-45.43692a4.504818 4.504818 0 0 0-7.454674-1.943704l-102.158752 98.945926a13.651656 13.651656 0 0 0-3.5787 13.720257l11.662219 38.874064a5.716774 5.716774 0 0 0 9.524145 2.48108z" fill="#3f63f6" /><path d="M868.949654 52.834426a5.716774 5.716774 0 0 1 5.533838 4.104643l18.373711 61.215217a5.716774 5.716774 0 0 1-1.509228 5.785375l-117.468273 113.740937a5.716774 5.716774 0 0 1-3.978875 1.623563 5.716774 5.716774 0 0 1-5.533837-4.104643l-18.373712-61.215217a5.716774 5.716774 0 0 1 1.509229-5.785375l117.433972-113.740936a5.716774 5.716774 0 0 1 4.013175-1.623564m-95.047085 171.160215a5.716774 5.716774 0 0 0 3.978875-1.623564l104.136756-100.855328a5.716774 5.716774 0 0 0 1.509228-5.785375l-13.651656-45.43692a4.493384 4.493384 0 0 0-4.356182-3.212827 4.44765 4.44765 0 0 0-3.121359 1.269123l-102.158752 98.945926a13.651656 13.651656 0 0 0-3.5787 13.720257l11.662219 38.874064a5.716774 5.716774 0 0 0 5.533837 4.104644M868.949654 48.729782a9.798551 9.798551 0 0 0-6.860128 2.721184l-117.45684 113.798104a9.832851 9.832851 0 0 0-2.583982 9.92432l18.373712 61.215217a9.867152 9.867152 0 0 0 16.315673 4.25328L894.183495 126.912384a9.832851 9.832851 0 0 0 2.583982-9.92432l-18.373712-61.22665a9.821418 9.821418 0 0 0-9.444111-7.031632z m-95.047085 171.160215a1.634997 1.634997 0 0 1-1.589263-1.143355l-11.662219-38.874064a9.512712 9.512712 0 0 1 2.503947-9.592746l102.158752-98.945926a0.343006 0.343006 0 0 1 0.262972-0.114335 0.388741 0.388741 0 0 1 0.38874 0.285839l13.62879 45.43692a1.634997 1.634997 0 0 1-0.434475 1.646431l-104.159623 100.821027a1.566396 1.566396 0 0 1-1.143355 0.468775z" fill="#3f63f6" /><path d="M891.633814 132.343319l-96.201874 96.201874a13.834593 13.834593 0 0 0 5.591005 22.992865l34.76942 11.010507a13.834593 13.834593 0 0 0 13.971796-3.430065l96.201873-96.201873a13.834593 13.834593 0 0 0-5.591005-22.958565l-34.746552-11.033374a13.834593 13.834593 0 0 0-13.994663 3.418631z" fill="#d0d9fb" /><path d="M839.988477 267.316354a18.007838 18.007838 0 0 1-5.453802-0.846082l-34.757986-11.044808a17.939237 17.939237 0 0 1-7.260304-29.784393l96.201874-96.201873a17.882069 17.882069 0 0 1 18.122174-4.41335l34.746552 11.033374a17.939237 17.939237 0 0 1 7.260303 29.784393l-96.201873 96.201874a17.870636 17.870636 0 0 1-12.656938 5.270865z m61.42102-134.915867a9.695649 9.695649 0 0 0-6.860128 2.846953l-96.201874 96.201874a9.718516 9.718516 0 0 0 3.933141 16.132736l34.746552 11.033374a9.672782 9.672782 0 0 0 9.809984-2.389611l96.19044-96.15614a9.718516 9.718516 0 0 0-3.93314-16.132736L904.393653 132.869262a9.752817 9.752817 0 0 0-2.995589-0.468775z" fill="#3f63f6" /><path d="M960.086466 154.615871L847.225913 267.476424a5.339467 5.339467 0 0 1-5.385201 1.314858l-61.809761-19.631402a5.339467 5.339467 0 0 1-2.160941-8.861L894.10346 124.019696a5.339467 5.339467 0 0 1 5.385201-1.314858l57.167741 18.167908a8.277889 8.277889 0 0 1 3.430064 13.743125zM844.939203 258.112348l103.176338-103.176338a5.339467 5.339467 0 0 0-2.16094-8.861l-44.144929-14.01753a5.339467 5.339467 0 0 0-5.385202 1.314858l-103.176337 103.176338a5.339467 5.339467 0 0 0 2.16094 8.861l44.144929 14.01753a5.339467 5.339467 0 0 0 5.385201-1.314858z" fill="#3f63f6" /><path d="M843.464276 273.147464a9.512712 9.512712 0 0 1-2.869821-0.445909l-61.809761-19.631402a9.444111 9.444111 0 0 1-3.818805-15.686828l116.279184-116.279184a9.432677 9.432677 0 0 1 9.535579-2.286709l57.167741 18.167908a12.393966 12.393966 0 0 1 5.007894 20.580386l-112.860553 112.860553a9.40981 9.40981 0 0 1-6.631458 2.721185z m-53.154565-39.480042l-9.524146 9.524146a1.22339 1.22339 0 0 0 0.491643 2.035171l61.809761 19.631402a1.211956 1.211956 0 0 0 1.234823-0.297272l3.498666-3.498666a9.40981 9.40981 0 0 1-9.501279 2.28671l-44.156363-14.01753a9.444111 9.444111 0 0 1-3.853105-15.652527zM844.939203 258.123782l2.904122 2.904121z m55.246905-122.201762a1.22339 1.22339 0 0 0-0.86895 0.365873l-103.176338 103.176338a1.22339 1.22339 0 0 0 0.491643 2.035172l44.156362 14.01753a1.211956 1.211956 0 0 0 1.234824-0.297273L945.21142 152.06619a1.22339 1.22339 0 0 0-0.491642-2.035172l-44.156363-14.01753a1.211956 1.211956 0 0 0-0.365874-0.091468z m0-8.232155a9.478411 9.478411 0 0 1 2.86982 0.445908l44.14493 14.01753a9.444111 9.444111 0 0 1 3.921707 15.629661l6.048346-6.048347a4.161812 4.161812 0 0 0-1.680731-6.860129l-57.167741-18.167908a1.22339 1.22339 0 0 0-1.234823 0.297272l-3.498665 3.498666a9.421244 9.421244 0 0 1 6.597157-2.812653z" fill="#3f63f6" /><path d="M761.062695 177.757372L865.51959 71.231005a0.70888 0.70888 0 0 0 0.182937-0.70888L865.51959 69.744643a2.149507 2.149507 0 0 0-3.555833-0.948984l-100.615224 103.336407a5.293733 5.293733 0 0 0-1.406326 5.270866 0.697446 0.697446 0 0 0 1.120488 0.35444z" fill="#ffffff" /><path d="M795.774947 236.674445l97.185158-99.826308a5.716774 5.716774 0 0 1 5.716774-1.406326l2.652584 0.834649-99.73484 106.194794H799.205011c-3.361463-0.731747-5.545271-2.572548-3.430064-5.796809z" fill="#98b1ed" /><path d="M641.947991 492.237112h2.652583a192.632418 192.632418 0 0 1 0.834649 20.786191h-1.143355a97.665368 97.665368 0 0 0-2.343877-20.786191z" fill="#a5bbf9" /></svg>