<?xml version="1.0" standalone="no"?><!DOCTYPE svg PUBLIC "-//W3C//DTD SVG 1.1//EN" "http://www.w3.org/Graphics/SVG/1.1/DTD/svg11.dtd"><svg t="1528251129737" class="icon" style="" viewBox="0 0 1024 1024" version="1.1" xmlns="http://www.w3.org/2000/svg" p-id="5262" xmlns:xlink="http://www.w3.org/1999/xlink" width="128" height="128"><defs><style type="text/css"></style></defs><path d="M512.005103-0.005103C229.239756-0.005103 0.007654 229.221896 0.007654 511.992346c0 282.77045 229.232102 512.012757 511.997449 512.012757C794.77045 1024.005103 1023.992346 794.757693 1023.992346 511.992346 1023.992346 229.226999 794.77045-0.005103 512.005103-0.005103zM462.18668 204.493833c11.60882-11.067926 29.912485-10.613778 40.914075 1.01035l149.848182 158.60455c10.986281 11.624129 10.486209 30.024746-1.122611 41.097775-11.60882 11.05772-29.912485 10.613778-40.914075-1.025658L461.064069 245.591608C450.08289 233.96748 450.57786 215.561759 462.18668 204.493833zM403.841515 641.69476c-11.60882 11.067926-29.927794 10.613778-40.914075-1.01035L213.063949 482.095169c-10.986281-11.639437-10.470901-30.024746 1.122611-41.097775 11.60882-11.067926 29.927794-10.613778 40.914075 1.01035l149.863491 158.589241C415.945305 612.221114 415.450335 630.621732 403.841515 641.69476zM804.373878 814.689144c-18.558804 17.721948-47.874264 16.997354-65.453335-1.607375L485.480862 521.14673l-56.630632 53.997598-147.204943-155.787816 155.517369-148.312246 147.204943 155.787816-53.900645 51.415592 275.713308 270.707482C823.759332 767.554783 822.947991 796.987607 804.373878 814.689144z" p-id="5263" data-spm-anchor-id="a313x.7781069.0.i16" fill="#ffffff" class="selected"></path></svg>