<?xml version="1.0" encoding="utf-8"?>
<!-- Generator: Adobe Illustrator 16.0.0, SVG Export Plug-In . SVG Version: 6.00 Build 0)  -->
<!DOCTYPE svg PUBLIC "-//W3C//DTD SVG 1.1//EN" "http://www.w3.org/Graphics/SVG/1.1/DTD/svg11.dtd">
<svg version="1.1" id="图层_1" xmlns="http://www.w3.org/2000/svg" xmlns:xlink="http://www.w3.org/1999/xlink" x="0px" y="0px"
	 width="605.922px" height="716.641px" viewBox="0 0 605.922 716.641" enable-background="new 0 0 605.922 716.641"
	 xml:space="preserve">
<g>
	<defs>
		<rect id="SVGID_1_" width="605.922" height="716.641"/>
	</defs>
	<clipPath id="SVGID_2_">
		<use xlink:href="#SVGID_1_"  overflow="visible"/>
	</clipPath>
	<path clip-path="url(#SVGID_2_)" fill="#D0D9FB" d="M16.801,42.559h531.277c5.281,0,9.602,4.32,9.602,9.601v648.078
		c0,5.281-4.32,9.603-9.602,9.603H16.801c-5.281,0-9.602-4.321-9.602-9.603V52.16C7.199,46.879,11.441,42.559,16.801,42.559"/>
	<path clip-path="url(#SVGID_2_)" fill="#3F63F6" d="M540.397,716.641h-516C10.961,716.641,0,706.238,0,693.442V58.961
		C0,46.16,10.961,35.762,24.398,35.762H540.48c13.441,0,24.398,10.398,24.398,23.199V693.52
		C564.801,706.238,553.84,716.641,540.397,716.641 M24.398,49.359c-5.519,0-10,4.321-10,9.52v634.563c0,5.277,4.481,9.52,10,9.52
		H540.48c5.52,0,10-4.32,10-9.52V58.961c0-5.281-4.48-9.52-10-9.52H24.398V49.359z"/>
	<path clip-path="url(#SVGID_2_)" fill="#BBC9FA" d="M54.398,691.922h495.84V48.48l-520.16,0.879v618.243
		C30.078,681.039,40.961,691.922,54.398,691.922"/>
	<path clip-path="url(#SVGID_2_)" fill="#FFFFFF" d="M57.84,6.801h531.281c5.277,0,9.598,4.32,9.598,9.597v648.083
		c0,5.281-4.32,9.597-9.598,9.597H57.84c-5.281,0-9.602-4.315-9.602-9.597V16.398C48.238,11.121,52.559,6.801,57.84,6.801"/>
	<path clip-path="url(#SVGID_2_)" fill="#BBC9FA" d="M55.441,653.442h536.161v9.758c0,2.242-1.84,4.082-4.082,4.082h-528
		c-2.239,0-4.079-1.84-4.079-4.082V653.442z"/>
	<path clip-path="url(#SVGID_2_)" fill="#3F63F6" d="M581.52,680.879H65.441c-13.441,0-24.402-10.399-24.402-23.199V23.199
		C41.039,10.398,52,0,65.441,0H581.52c13.441,0,24.402,10.398,24.402,23.199v634.563C605.922,670.48,594.961,680.879,581.52,680.879
		 M65.441,13.602c-5.519,0-10,4.32-10,9.519V657.68c0,5.281,4.481,9.52,10,9.52H581.52c5.52,0,10-4.32,10-9.52V23.199
		c0-5.277-4.48-9.519-10-9.519H65.441V13.602z"/>
	<path clip-path="url(#SVGID_2_)" fill="#D0D9FB" d="M125.762,314.719h395.117c3.441,0,6.242,2.801,6.242,6.32v111.36
		c0,3.441-2.801,6.242-6.242,6.242H125.762c-3.442,0-6.321-2.801-6.321-6.242V320.961C119.52,317.52,122.32,314.719,125.762,314.719
		"/>
	<path clip-path="url(#SVGID_2_)" fill="#3F63F6" d="M518.961,429.04H127.68c-9.2,0-16.641-6.238-16.641-14v-102.48
		c0-7.68,7.441-14,16.641-14h391.281c9.199,0,16.641,6.32,16.641,14v102.48C535.602,422.719,528.16,429.04,518.961,429.04
		 M127.68,305.602c-4.559,0-8.239,3.117-8.239,6.878v102.481c0,3.84,3.68,6.879,8.239,6.879h391.281
		c4.559,0,8.238-3.121,8.238-6.879V312.559c0-3.84-3.68-6.879-8.238-6.879H127.68V305.602z"/>
	<path clip-path="url(#SVGID_2_)" fill="#D0D9FB" d="M114.641,497.2H482.48c2,0,3.598,1.602,3.598,3.602v19.039
		c0,2-1.598,3.601-3.598,3.601H114.641c-2,0-3.602-1.601-3.602-3.601v-19.121C111.039,498.801,112.641,497.2,114.641,497.2"/>
	<path clip-path="url(#SVGID_2_)" fill="#3F63F6" d="M114.641,491.442H482.48c2,0,3.598,1.598,3.598,3.598v19.039
		c0,2-1.598,3.601-3.598,3.601H114.641c-2,0-3.602-1.601-3.602-3.601V495.04C111.039,493.04,112.641,491.442,114.641,491.442"/>
	<path clip-path="url(#SVGID_2_)" fill="#D0D9FB" d="M114.641,566.961H382.32c2,0,3.602,1.598,3.602,3.598v18.961
		c0,2-1.602,3.601-3.602,3.601H114.641c-2,0-3.602-1.601-3.602-3.601v-19.039C111.039,568.559,112.641,566.961,114.641,566.961"/>
	<path clip-path="url(#SVGID_2_)" fill="#3F63F6" d="M114.641,561.2H382.32c2,0,3.602,1.602,3.602,3.602v19.039
		c0,2-1.602,3.601-3.602,3.601H114.641c-2,0-3.602-1.601-3.602-3.601v-19.039C111.039,562.801,112.641,561.2,114.641,561.2"/>
</g>
<text transform="matrix(1 0 0 1 234.8447 208.2964)" fill="#3F63F6" font-family="'FZLTDHK--GBK1-0'" font-size="177.2673">招</text>
<g>
	<defs>
		<rect id="SVGID_3_" width="605.922" height="716.641"/>
	</defs>
	<clipPath id="SVGID_4_">
		<use xlink:href="#SVGID_3_"  overflow="visible"/>
	</clipPath>
	<path opacity="0.1" clip-path="url(#SVGID_4_)" fill="#999999" d="M16.801,42.559h531.277c5.281,0,9.602,4.32,9.602,9.601v648.078
		c0,5.281-4.32,9.603-9.602,9.603H16.801c-5.281,0-9.602-4.321-9.602-9.603V52.16C7.199,46.879,11.441,42.559,16.801,42.559"/>
	<path clip-path="url(#SVGID_4_)" fill="#999999" d="M540.397,716.641h-516C10.961,716.641,0,706.238,0,693.442V58.961
		C0,46.16,10.961,35.762,24.398,35.762H540.48c13.441,0,24.398,10.398,24.398,23.199V693.52
		C564.801,706.238,553.84,716.641,540.397,716.641 M24.398,49.359c-5.519,0-10,4.321-10,9.52v634.563c0,5.277,4.481,9.52,10,9.52
		H540.48c5.52,0,10-4.32,10-9.52V58.961c0-5.281-4.48-9.52-10-9.52H24.398V49.359z"/>
	<path opacity="0.5" clip-path="url(#SVGID_4_)" fill="#999999" d="M54.398,691.922h495.84V48.48l-520.16,0.879v618.243
		C30.078,681.039,40.961,691.922,54.398,691.922"/>
	<path clip-path="url(#SVGID_4_)" fill="#FFFFFF" d="M57.84,6.801h531.281c5.277,0,9.598,4.32,9.598,9.597v648.083
		c0,5.281-4.32,9.597-9.598,9.597H57.84c-5.281,0-9.602-4.315-9.602-9.597V16.398C48.238,11.121,52.559,6.801,57.84,6.801"/>
	<path opacity="0.1" clip-path="url(#SVGID_4_)" fill="#999999" d="M55.441,653.442h536.161v9.758c0,2.242-1.84,4.082-4.082,4.082
		h-528c-2.239,0-4.079-1.84-4.079-4.082V653.442z"/>
	<path clip-path="url(#SVGID_4_)" fill="#999999" d="M581.52,680.879H65.441c-13.441,0-24.402-10.399-24.402-23.199V23.199
		C41.039,10.398,52,0,65.441,0H581.52c13.441,0,24.402,10.398,24.402,23.199v634.563C605.922,670.48,594.961,680.879,581.52,680.879
		 M65.441,13.602c-5.519,0-10,4.32-10,9.519V657.68c0,5.281,4.481,9.52,10,9.52H581.52c5.52,0,10-4.32,10-9.52V23.199
		c0-5.277-4.48-9.519-10-9.519H65.441V13.602z"/>
	<path opacity="0.5" clip-path="url(#SVGID_4_)" fill="#999999" d="M125.762,314.719h395.117c3.441,0,6.242,2.801,6.242,6.32v111.36
		c0,3.441-2.801,6.242-6.242,6.242H125.762c-3.442,0-6.321-2.801-6.321-6.242V320.961C119.52,317.52,122.32,314.719,125.762,314.719
		"/>
	<path clip-path="url(#SVGID_4_)" fill="#999999" d="M518.961,429.04H127.68c-9.2,0-16.641-6.238-16.641-14v-102.48
		c0-7.68,7.441-14,16.641-14h391.281c9.199,0,16.641,6.32,16.641,14v102.48C535.602,422.719,528.16,429.04,518.961,429.04
		 M127.68,305.602c-4.559,0-8.239,3.117-8.239,6.878v102.481c0,3.84,3.68,6.879,8.239,6.879h391.281
		c4.559,0,8.238-3.121,8.238-6.879V312.559c0-3.84-3.68-6.879-8.238-6.879H127.68V305.602z"/>
	<path opacity="0.3" clip-path="url(#SVGID_4_)" fill="#999999" d="M114.641,497.2H482.48c2,0,3.598,1.602,3.598,3.602v19.039
		c0,2-1.598,3.601-3.598,3.601H114.641c-2,0-3.602-1.601-3.602-3.601v-19.121C111.039,498.801,112.641,497.2,114.641,497.2"/>
	<path clip-path="url(#SVGID_4_)" fill="#999999" d="M114.641,491.442H482.48c2,0,3.598,1.598,3.598,3.598v19.039
		c0,2-1.598,3.601-3.598,3.601H114.641c-2,0-3.602-1.601-3.602-3.601V495.04C111.039,493.04,112.641,491.442,114.641,491.442"/>
	<path opacity="0.3" clip-path="url(#SVGID_4_)" fill="#999999" d="M114.641,566.961H382.32c2,0,3.602,1.598,3.602,3.598v18.961
		c0,2-1.602,3.601-3.602,3.601H114.641c-2,0-3.602-1.601-3.602-3.601v-19.039C111.039,568.559,112.641,566.961,114.641,566.961"/>
	<path clip-path="url(#SVGID_4_)" fill="#999999" d="M114.641,561.2H382.32c2,0,3.602,1.602,3.602,3.602v19.039
		c0,2-1.602,3.601-3.602,3.601H114.641c-2,0-3.602-1.601-3.602-3.601v-19.039C111.039,562.801,112.641,561.2,114.641,561.2"/>
</g>
<text transform="matrix(1 0 0 1 236.439 208.2964)" fill="#999999" font-family="'FZLTDHK--GBK1-0'" font-size="177.2673">招</text>
</svg>
