<?xml version="1.0" encoding="utf-8"?>
<!-- Generator: Adobe Illustrator 22.0.1, SVG Export Plug-In . SVG Version: 6.00 Build 0)  -->
<svg version="1.1" id="图层_1" xmlns="http://www.w3.org/2000/svg" xmlns:xlink="http://www.w3.org/1999/xlink" x="0px" y="0px"
	 viewBox="0 0 128 128" style="enable-background:new 0 0 128 128;" xml:space="preserve">
<style type="text/css">
	.st0{fill:#FFFFFF;}
	.st1{fill:#999999;}
	.st2{fill:#CCCCCC;}
	.st3{fill:#DDDDDD;}
	.st4{fill:#BBC9FA;}
</style>
<path class="st0" d="M14.9,9.1h85.8c0.8,0,1.5,0.7,1.5,1.5v104.7c0,0.8-0.7,1.5-1.5,1.5H14.9c-0.8,0-1.5-0.7-1.5-1.5V10.6
	C13.4,9.8,14.1,9.1,14.9,9.1z"/>
<path class="st1" d="M99.4,117.9H16.2c-2.2,0-3.9-1.7-3.9-3.7V11.8C12.3,9.7,14,8,16.2,8h83.2c2.2,0,3.9,1.7,3.9,3.7v102.4
	C103.4,116.2,101.6,117.9,99.4,117.9z M16.2,10.2c-0.9,0-1.6,0.7-1.6,1.5v102.4c0,0.8,0.7,1.5,1.6,1.5h83.2c0.9,0,1.6-0.7,1.6-1.5
	V11.8c0-0.9-0.7-1.5-1.6-1.5L16.2,10.2L16.2,10.2z"/>
<path class="st2" d="M27.2,24.6h5.7c0.5,0,0.8,0.4,0.8,0.8v5.7c0,0.5-0.4,0.8-0.8,0.8h-5.7c-0.5,0-0.8-0.4-0.8-0.8v-5.7
	C26.4,24.9,26.8,24.6,27.2,24.6z M41.2,26.1h47.5c0.3,0,0.6,0.2,0.6,0.5v3.1c0,0.3-0.2,0.5-0.6,0.5H41.2c-0.3,0-0.5-0.2-0.5-0.5
	v-3.1C40.7,26.4,40.9,26.1,41.2,26.1z"/>
<path class="st1" d="M27.2,23.6h5.7c0.5,0,0.8,0.4,0.8,0.8v5.7c0,0.5-0.4,0.8-0.8,0.8h-5.7c-0.5,0-0.8-0.4-0.8-0.8v-5.7
	C26.4,24,26.8,23.6,27.2,23.6z M41.2,25.2h47.5c0.3,0,0.6,0.2,0.6,0.5v3.1c0,0.3-0.2,0.5-0.6,0.5H41.2c-0.3,0-0.5-0.2-0.5-0.5v-3.1
	C40.7,25.5,40.9,25.2,41.2,25.2z"/>
<path class="st2" d="M27.2,43.1h5.7c0.5,0,0.8,0.4,0.8,0.8v5.7c0,0.5-0.4,0.8-0.8,0.8h-5.7c-0.5,0-0.8-0.4-0.8-0.8v-5.7
	C26.4,43.5,26.8,43.1,27.2,43.1z M41.2,44.7h47.5c0.3,0,0.6,0.2,0.6,0.6v3.1c0,0.3-0.2,0.6-0.6,0.6H41.2c-0.3,0-0.5-0.2-0.5-0.6
	v-3.1C40.7,44.9,40.9,44.7,41.2,44.7z"/>
<path class="st1" d="M27.2,42.2h5.7c0.5,0,0.8,0.4,0.8,0.8v5.7c0,0.5-0.4,0.8-0.8,0.8h-5.7c-0.5,0-0.8-0.4-0.8-0.8V43
	C26.4,42.5,26.8,42.2,27.2,42.2z M41.2,43.8h47.5c0.3,0,0.6,0.2,0.6,0.6v3.1c0,0.3-0.2,0.6-0.6,0.6H41.2c-0.3,0-0.5-0.2-0.5-0.6
	v-3.1C40.7,44,40.9,43.8,41.2,43.8z"/>
<path class="st2" d="M27.2,60.9h5.7c0.5,0,0.8,0.4,0.8,0.8v5.7c0,0.5-0.4,0.8-0.8,0.8h-5.7c-0.5,0-0.8-0.4-0.8-0.8v-5.7
	C26.4,61.3,26.8,60.9,27.2,60.9z M41.2,62.5h47.5c0.3,0,0.6,0.2,0.6,0.6v3.1c0,0.3-0.2,0.6-0.6,0.6H41.2c-0.3,0-0.5-0.2-0.5-0.6
	v-3.1C40.7,62.8,40.9,62.5,41.2,62.5z"/>
<path class="st1" d="M27.2,60h5.7c0.5,0,0.8,0.4,0.8,0.8v5.7c0,0.5-0.4,0.8-0.8,0.8h-5.7c-0.5,0-0.8-0.4-0.8-0.8v-5.7
	C26.4,60.4,26.8,60,27.2,60z M41.2,61.6h47.5c0.3,0,0.6,0.2,0.6,0.6v3.1c0,0.3-0.2,0.6-0.6,0.6H41.2c-0.3,0-0.5-0.2-0.5-0.6v-3.1
	C40.7,61.9,40.9,61.6,41.2,61.6z"/>
<path class="st3" d="M15.3,113.4h85.1c0.4,0,0.7,0.3,0.7,0.7v0.2c0,0.7-0.6,1.3-1.3,1.3H15.9c-0.7,0-1.3-0.6-1.3-1.3v-0.2
	C14.6,113.7,14.9,113.4,15.3,113.4z"/>
<path class="st0" d="M114.9,58l-6.1,6l-7.3-7.4l5.8-5.8l4.9,1.8L114.9,58z M107.4,65.6l-47,47l-7.3-7.3l47-47L107.4,65.6z"/>
<path class="st4" d="M53.7,107.7l-2.3,6.6v1.4h10.3L53.7,107.7z"/>
<path class="st3" d="M101.1,80.5V60.3l-47.4,47.4l8,8h4.2L101.1,80.5z"/>
<path class="st3" d="M54.4,106.9l56-56.1l3.8,3.8c1.2,1.2,1.2,3.3,0,4.5L60.5,113L54.4,106.9z"/>
<path class="st2" d="M57,109.6l56.3-56.3l1.6,1.6c1.1,1.1,1.1,2.8,0,3.9l-54.3,54.4C60.6,113.2,57,109.6,57,109.6z"/>
<path class="st2" d="M58.1,113.4h10.1l-2.2,2.2h-6.8L58.1,113.4z"/>
<path class="st1" d="M110.2,65.6l-49.8,49.8l-10.1-10.1l49.8-49.8L110.2,65.6z M60.5,112.5l47-46.9l-7.3-7.3l-47,47
	C53.2,105.2,60.5,112.5,60.5,112.5z"/>
<path class="st1" d="M60.5,115.3l-13.1,4.6c-0.7,0.2-1.4-0.1-1.6-0.8c-0.1-0.3-0.1-0.6,0-0.8l4.6-13.1 M48.7,117l9.9-3.5l-6.5-6.5
	C52.2,107,48.7,117,48.7,117z M113.6,62.3l-1.4-1.4c2-2,2.1-5.3,0-7.3c-1.9-2-5.1-2-7.2-0.2c-0.1,0.1-0.1,0.1-0.2,0.2l-1.4-1.4
	c2.8-2.8,7.3-2.8,10.1,0S116.3,59.5,113.6,62.3z"/>
<path class="st1" d="M113.7,62.1l-4.7,4.7L98.9,56.7l4.7-4.7C103.6,52,113.7,62.1,113.7,62.1z M108.9,64.1l2-2l-7.3-7.3l-2,2
	L108.9,64.1z"/>
<path class="st0" d="M48.7,117l3.5-9.9l6.5,6.4L48.7,117z"/>
<path class="st3" d="M58.7,113.5l-9.9,3.5l5-8.4L58.7,113.5z"/>
</svg>
