<?xml version="1.0" encoding="utf-8"?>
<!-- Generator: Adobe Illustrator 22.0.1, SVG Export Plug-In . SVG Version: 6.00 Build 0)  -->
<svg version="1.1" id="图层_1" xmlns="http://www.w3.org/2000/svg" xmlns:xlink="http://www.w3.org/1999/xlink" x="0px" y="0px"
	 viewBox="0 0 50 50" style="enable-background:new 0 0 50 50;" xml:space="preserve">
<style type="text/css">
	.st0{fill:#DDDDDD;}
	.st1{fill:#999999;}
	.st2{fill:#CCCCCC;}
	.st3{fill:#FFFFFF;}
</style>
<g>
	<path class="st0" d="M24.1,43.2c8.8,0,15.8-7,16.1-15.6c0-0.3-0.2-0.5-0.5-0.5H8.5c-0.3,0-0.5,0.2-0.5,0.5l0,0
		C8.2,36.3,15.4,43.2,24.1,43.2z"/>
	<path class="st1" d="M24.1,43.5C15,43.5,7.6,36.1,7.6,27c0-0.2,0.2-0.4,0.4-0.4h32.2c0.2,0,0.4,0.2,0.4,0.4
		C40.6,36.1,33.2,43.5,24.1,43.5z M8.8,27.3c-0.2,0-0.4,0.2-0.4,0.4v0c0.4,8.3,7.3,15,15.7,15s15.3-6.6,15.7-15
		c0-0.2-0.1-0.4-0.4-0.4H8.8z"/>
	<path class="st2" d="M24.2,42c-8.4,0-15.3-6.7-15.7-15h0c0,8.7,7,15.7,15.7,15.7s15.7-6.3,15.7-15l-0.1-0.1
		C39.3,36.1,32.6,42,24.2,42z"/>
	<path class="st3" d="M24.1,25.9v-17c0-0.2-0.2-0.4-0.4-0.4l0,0c-9.6,0.2-17.3,8-17.3,17.7c0,2.8,0.6,5.5,1.9,8
		c0.1,0.2,0.4,0.3,0.6,0.2l0,0l15-8.1C24,26.2,24.1,26.1,24.1,25.9z"/>
	<path class="st1" d="M8.7,34.9c-0.2,0.1-0.4,0-0.5-0.2C6.8,32.1,6,29.2,6,26.2c0-4.8,1.9-9.4,5.3-12.8s8-5.3,12.8-5.3
		c0.2,0,0.4,0.2,0.4,0.4v17.7c0,0.1-0.1,0.3-0.2,0.4L8.7,34.9z M23.7,9.3c0-0.2-0.2-0.4-0.4-0.4h0c-9.1,0.4-16.4,8-16.4,17.3
		c0,2.6,0.6,5.1,1.7,7.5c0.1,0.2,0.3,0.3,0.5,0.2l0,0l14.4-7.8c0.1-0.1,0.2-0.2,0.2-0.4C23.7,25.7,23.7,9.3,23.7,9.3z"/>
	<path class="st3" d="M39.8,27.8l-17.1-0.4l0.1-0.1h16.6l0.2,0c0.2,0.1,0.2,0.2,0.2,0.3V27.8z"/>
	<path class="st0" d="M26.1,24.4h17.1c0.2,0,0.4-0.2,0.4-0.4l0,0c-0.3-9.3-7.8-16.8-17.1-17c-0.2,0-0.4,0.2-0.4,0.4L26.1,24.4
		C26.1,24.4,26.1,24.4,26.1,24.4z"/>
	<path class="st3" d="M43.4,24.4L43.4,24.4c0-9.5-7.6-17.2-17.1-17.5c-0.2,0-0.4,0.2-0.4,0.4v0.1c0,0.2,0.2,0.4,0.4,0.4
		C35.4,8,42.9,15.3,43.4,24.4z"/>
	<path class="st1" d="M44,24.4c0,0.2-0.2,0.4-0.4,0.4H26.1c-0.2,0-0.4-0.2-0.4-0.4V7c0-0.2,0.2-0.4,0.4-0.4l0,0
		c4.8,0,9.3,1.9,12.7,5.2S44,19.6,44,24.4z M26.9,24h15.9c0.2,0,0.4-0.2,0.4-0.4v0c-0.2-4.2-2-8.2-5-11.2s-7-4.7-11.2-5
		c-0.2,0-0.4,0.2-0.4,0.4v15.8C26.5,23.8,26.6,24,26.9,24z"/>
	<path class="st2" d="M23.9,27.3l-13.1,7.4L10.5,34l12.4-6.7L23.9,27.3z"/>
	<path class="st0" d="M23.7,25.7c0,0.2-0.1,0.3-0.2,0.4L9.1,33.8c-0.2,0.1-0.4,0.1-0.6-0.2l-0.1-0.2l15.3-8L23.7,25.7L23.7,25.7z"/>
	<path class="st2" d="M26.5,23.5h16.7V24H26.5V23.5z"/>
</g>
</svg>
