<?xml version="1.0" encoding="utf-8"?>
<!-- Generator: Adobe Illustrator 22.0.1, SVG Export Plug-In . SVG Version: 6.00 Build 0)  -->
<svg version="1.1" id="图层_1" xmlns="http://www.w3.org/2000/svg" xmlns:xlink="http://www.w3.org/1999/xlink" x="0px" y="0px"
	 viewBox="0 0 50 50" style="enable-background:new 0 0 50 50;" xml:space="preserve">
<style type="text/css">
	.st0{fill:#D0D9FB;}
	.st1{fill:#3F63F6;}
	.st2{fill:#7B96F7;}
	.st3{fill:#FFFFFF;}
	.st4{fill:#AFC2F9;}
</style>
<g>
	<path class="st0" d="M24.2,41.8c8,0,14.6-6.4,14.8-14.4c0-0.2-0.2-0.4-0.4-0.5H9.8c-0.2,0-0.4,0.2-0.4,0.4v0
		C9.6,35.4,16.1,41.8,24.2,41.8z"/>
	<path class="st1" d="M24.2,42C15.8,42,9,35.2,9,26.8c0-0.2,0.2-0.3,0.3-0.3H39c0.2,0,0.3,0.2,0.3,0.3C39.3,35.2,32.5,42,24.2,42z
		 M10.1,27.2c-0.2,0-0.3,0.2-0.3,0.3v0c0.4,7.6,6.7,13.7,14.4,13.7s14.1-6.1,14.4-13.7c0-0.2-0.1-0.4-0.3-0.4H10.1z"/>
	<path class="st2" d="M24.2,40.7c-7.8,0-14.1-6.1-14.4-13.8h0c0,8,6.5,14.4,14.4,14.4s14.4-5.8,14.4-13.7l-0.1,0
		C38.2,35.2,32,40.7,24.2,40.7z"/>
	<path class="st3" d="M24.2,25.9V10.2c0-0.2-0.2-0.4-0.4-0.4h0C15,10,7.9,17.2,7.9,26.1c0,2.6,0.6,5.1,1.8,7.4
		c0.1,0.2,0.3,0.3,0.5,0.2c0,0,0,0,0,0L24,26.2C24.1,26.1,24.2,26,24.2,25.9z"/>
	<path class="st1" d="M10.1,34.1c-0.2,0.1-0.4,0-0.5-0.2c-1.3-2.4-2-5.1-2-7.9c0-4.4,1.7-8.6,4.9-11.8s7.3-4.9,11.8-4.9
		c0.2,0,0.4,0.2,0.4,0.4v16.2c0,0.1-0.1,0.3-0.2,0.3L10.1,34.1z M23.8,10.6c0-0.2-0.2-0.4-0.4-0.4h0C15,10.6,8.3,17.6,8.3,26.1
		c0,2.4,0.5,4.7,1.6,6.8c0.1,0.2,0.3,0.3,0.5,0.2c0,0,0,0,0,0L23.6,26c0.1-0.1,0.2-0.2,0.2-0.3C23.8,25.6,23.8,10.6,23.8,10.6z"/>
	<path class="st3" d="M38.6,27.6l-15.8-0.4l0.1-0.1h15.3l0.1,0c0.1,0.1,0.2,0.2,0.2,0.3C38.6,27.4,38.6,27.6,38.6,27.6z"/>
	<path class="st4" d="M26,24.5h15.7c0.2,0,0.4-0.2,0.4-0.4v0c-0.2-8.6-7.2-15.5-15.7-15.7c-0.2,0-0.4,0.2-0.4,0.4L26,24.5
		C26,24.5,26,24.5,26,24.5z"/>
	<path class="st3" d="M41.9,24.5L41.9,24.5c0-8.7-7-15.8-15.7-16.1c-0.2,0-0.4,0.2-0.4,0.4v0.1c0,0.2,0.2,0.4,0.4,0.4
		C34.6,9.4,41.4,16.1,41.9,24.5z"/>
	<path class="st1" d="M42.5,24.5c0,0.2-0.2,0.4-0.4,0.4H26c-0.2,0-0.4-0.2-0.4-0.4V8.4C25.6,8.2,25.7,8,26,8h0
		c4.4,0,8.5,1.7,11.6,4.8C40.7,16,42.4,20.1,42.5,24.5z M26.7,24.1h14.6c0.2,0,0.4-0.2,0.4-0.4v0c-0.2-3.9-1.8-7.5-4.6-10.3
		S30.6,9,26.7,8.8c-0.2,0-0.4,0.2-0.4,0.4v14.5C26.3,23.9,26.5,24.1,26.7,24.1z"/>
	<path class="st2" d="M24,27.1L12,34l-0.4-0.6L23,27.2L24,27.1z"/>
	<path class="st0" d="M23.8,25.6c0,0.2-0.1,0.3-0.2,0.3l-13.2,7.1c-0.2,0.1-0.4,0.1-0.6-0.2l-0.1-0.2l14-7.3L23.8,25.6L23.8,25.6z"
		/>
	<path class="st2" d="M26.3,23.6h15.3v0.5H26.3V23.6z"/>
</g>
</svg>
