<?xml version="1.0" encoding="utf-8"?>
<!-- Generator: Adobe Illustrator 22.0.1, SVG Export Plug-In . SVG Version: 6.00 Build 0)  -->
<svg version="1.1" id="图层_1" xmlns="http://www.w3.org/2000/svg" xmlns:xlink="http://www.w3.org/1999/xlink" x="0px" y="0px"
	 viewBox="0 0 820 820.7" style="enable-background:new 0 0 820 820.7;" xml:space="preserve">
<style type="text/css">
	.st0{opacity:0.3;clip-path:url(#SVGID_2_);fill:#3F63F6;enable-background:new    ;}
	.st1{opacity:0.5;clip-path:url(#SVGID_4_);fill:#3F63F6;enable-background:new    ;}
	.st2{clip-path:url(#SVGID_6_);fill:#3F63F6;}
	.st3{clip-path:url(#SVGID_8_);fill:#FFFFFF;}
	.st4{clip-path:url(#SVGID_10_);fill:#3F63F6;}
	.st5{opacity:0.5;clip-path:url(#SVGID_12_);fill:#3F63F6;enable-background:new    ;}
	.st6{clip-path:url(#SVGID_14_);}
	.st7{fill:none;}
	.st8{fill:#3F63F6;}
	.st9{font-family:'FZZCHJW--GB1-0';}
	.st10{font-size:232.8008px;}
</style>
<g>
	<g>
		<defs>
			<rect id="SVGID_1_" x="0.1" y="0" width="819.8" height="820.7"/>
		</defs>
		<clipPath id="SVGID_2_">
			<use xlink:href="#SVGID_1_"  style="overflow:visible;"/>
		</clipPath>
		<path class="st0" d="M4.9,421.5c0,139.4,77.3,268.1,202.8,337.8c125.5,69.7,280.1,69.7,405.6,0S816,560.8,816,421.5
			c0-139.3-77.3-268.1-202.8-337.8s-280.1-69.7-405.6,0C82.2,153.4,4.9,282.1,4.9,421.5"/>
	</g>
	<g>
		<defs>
			<rect id="SVGID_3_" x="0.1" y="0" width="819.8" height="820.7"/>
		</defs>
		<clipPath id="SVGID_4_">
			<use xlink:href="#SVGID_3_"  style="overflow:visible;"/>
		</clipPath>
		<path class="st1" d="M409.6,788.5C188.8,788.5,9.3,618.8,4.2,407.7c-0.1,3.1-0.1,6.2-0.1,9.3c0,215.4,181.6,390,405.6,390
			c224,0,405.6-174.6,405.6-390c0-3.1,0-6.2-0.1-9.3C809.9,618.8,630.4,788.5,409.6,788.5"/>
	</g>
	<g>
		<defs>
			<rect id="SVGID_5_" x="0.1" y="0" width="819.8" height="820.7"/>
		</defs>
		<clipPath id="SVGID_6_">
			<use xlink:href="#SVGID_5_"  style="overflow:visible;"/>
		</clipPath>
		<path class="st2" d="M409.6,819.7c-109.4,0-212.3-42.6-289.6-120C42.6,622.4,0,519.5,0,410.1c0-109.4,42.6-212.3,120-289.6
			c77.4-77.4,180.2-120,289.6-120c109.4,0,212.3,42.6,289.6,120c77.4,77.4,120,180.2,120,289.6s-42.6,212.3-120,289.6
			C621.9,777.1,519,819.7,409.6,819.7 M409.6,17c-105,0-203.7,40.9-278,115.2c-74.3,74.3-115.1,173-115.1,278
			c0,105,40.9,203.7,115.1,278c74.3,74.3,173,115.1,278,115.1c105,0,203.7-40.9,278-115.1c74.3-74.3,115.1-173,115.1-278
			c0-105-40.9-203.7-115.1-278C613.4,57.9,514.6,17,409.6,17L409.6,17L409.6,17z"/>
	</g>
</g>
<g>
	<g>
		<defs>
			<rect id="SVGID_7_" y="0" width="820" height="820.7"/>
		</defs>
		<clipPath id="SVGID_8_">
			<use xlink:href="#SVGID_7_"  style="overflow:visible;"/>
		</clipPath>
		<path class="st3" d="M162.9,410.1c0,136.3,110.5,246.7,246.7,246.7c136.3,0,246.7-110.5,246.7-246.7
			c0-136.3-110.5-246.7-246.7-246.7C273.3,163.4,162.9,273.9,162.9,410.1"/>
	</g>
	<g>
		<defs>
			<rect id="SVGID_9_" y="0" width="820" height="820.7"/>
		</defs>
		<clipPath id="SVGID_10_">
			<use xlink:href="#SVGID_9_"  style="overflow:visible;"/>
		</clipPath>
		<path class="st4" d="M409.6,665.1c-140.6,0-255-114.3-255-255c0-140.6,114.3-255,255-255c140.6,0,255,114.3,255,255
			C664.6,550.8,550.2,665.1,409.6,665.1 M409.6,171.6c-131.5,0-238.6,107-238.6,238.5c0,131.5,107,238.5,238.6,238.5
			c131.5,0,238.5-107,238.5-238.5C648.1,278.6,541.1,171.6,409.6,171.6L409.6,171.6L409.6,171.6z"/>
	</g>
	<g>
		<defs>
			<rect id="SVGID_11_" y="0" width="820" height="820.7"/>
		</defs>
		<clipPath id="SVGID_12_">
			<use xlink:href="#SVGID_11_"  style="overflow:visible;"/>
		</clipPath>
		<path class="st5" d="M409.6,630.5c-128.7,0-233.6-101.9-238.3-229.5c-0.1,3-0.2,6-0.2,9c0,131.7,106.8,238.5,238.5,238.5
			c131.7,0,238.5-106.8,238.5-238.5c0-3-0.1-6-0.2-9C643.2,528.6,538.3,630.5,409.6,630.5"/>
	</g>
	<g>
		<defs>
			<rect id="SVGID_13_" y="0" width="820" height="820.7"/>
		</defs>
		<clipPath id="SVGID_14_">
			<use xlink:href="#SVGID_13_"  style="overflow:visible;"/>
		</clipPath>
		<g class="st6">
			<path class="st7" d="M513.6,394.3h2.1c0.5,5.5,0.7,11.1,0.7,16.6h-0.9C515.4,405.3,514.8,399.8,513.6,394.3"/>
		</g>
	</g>
</g>
<text transform="matrix(1 0 0 1 293.2056 471.0547)" class="st8 st9 st10">考</text>
</svg>
