<?xml version="1.0" encoding="utf-8"?>
<!-- Generator: Adobe Illustrator 22.0.1, SVG Export Plug-In . SVG Version: 6.00 Build 0)  -->
<svg version="1.1" id="图层_1" xmlns="http://www.w3.org/2000/svg" xmlns:xlink="http://www.w3.org/1999/xlink" x="0px" y="0px"
	 viewBox="0 0 128 128" style="enable-background:new 0 0 128 128;" xml:space="preserve">
<style type="text/css">
	.st0{fill:#FFFFFF;}
	.st1{fill:#3F63F6;}
	.st2{fill:#BBC9FA;}
	.st3{fill:#D0D9FB;}
	.st4{fill:#9DBAF9;}
	.st5{fill:#7B96F7;}
</style>
<path class="st0" d="M25.8,12.9h76.4c1.4,0,2.6,1.2,2.6,2.6v94.3c0,1.4-1.2,2.6-2.6,2.6H25.8c-1.4,0-2.6-1.2-2.6-2.6V15.4
	C23.2,14,24.3,12.9,25.8,12.9z"/>
<path class="st1" d="M100.2,12.9c2.5,0,4.6,2.1,4.6,4.6v90.3c0,2.5-2.1,4.6-4.6,4.6H27.8c-2.5,0-4.6-2.1-4.6-4.6V17.5
	c0-2.5,2.1-4.6,4.6-4.6H100.2 M100.2,10.3H27.8c-3.9,0-7.1,3.2-7.2,7.2v90.3c0,3.9,3.2,7.1,7.2,7.2h72.4c3.9,0,7.1-3.2,7.2-7.2V17.5
	C107.3,13.5,104.1,10.3,100.2,10.3z"/>
<path class="st2" d="M99.9,109.5H28.1c-2.7,0-4.8-2.2-4.9-4.9v3.1c0,2.6,2.1,4.6,4.6,4.6h72.3c2.6,0,4.6-2.1,4.6-4.6v-3.1
	C104.8,107.3,102.6,109.5,99.9,109.5z"/>
<path class="st3" d="M32.7,25.2h62.6c0.4,0,0.8,0.4,0.8,0.8v12.5c0,0.4-0.4,0.8-0.8,0.8H32.7c-0.4,0-0.8-0.4-0.8-0.8V26
	C31.9,25.6,32.2,25.2,32.7,25.2z"/>
<path class="st2" d="M31.9,35.6h64.2v1.2H31.9V35.6z"/>
<path class="st1" d="M94.7,23.8c0.8,0,1.4,0.6,1.4,1.4v10.2c0,0.8-0.6,1.4-1.4,1.4H33.3c-0.8,0-1.4-0.6-1.4-1.4V25.2
	c0-0.8,0.6-1.4,1.4-1.4H94.7 M94.7,22.2H33.3c-1.6,0-3,1.3-3,3v10.2c0,1.6,1.3,3,3,3h61.4c1.6,0,3-1.3,3-3V25.2
	C97.6,23.5,96.3,22.2,94.7,22.2z"/>
<path class="st3" d="M32.7,50.4h10.6c0.4,0,0.8,0.4,0.8,0.8v11.4c0,0.4-0.4,0.8-0.8,0.8H32.7c-0.4,0-0.8-0.4-0.8-0.8V51.2
	C31.9,50.8,32.2,50.4,32.7,50.4z"/>
<path class="st1" d="M42.6,49.5c0.8,0,1.4,0.6,1.4,1.4v9c0,0.8-0.6,1.4-1.4,1.4h-9.3c-0.8,0-1.4-0.6-1.4-1.4v-9
	c0-0.8,0.6-1.4,1.4-1.4L42.6,49.5 M42.6,48.5h-9.3c-1.3,0-2.4,1.1-2.4,2.4v9c0,1.3,1.1,2.4,2.4,2.4h9.3c1.3,0,2.4-1.1,2.4-2.4v-9
	C45.1,49.6,44,48.5,42.6,48.5z"/>
<path class="st3" d="M50.1,50.4h10.6c0.4,0,0.8,0.4,0.8,0.8v11.4c0,0.4-0.4,0.8-0.8,0.8H50.1c-0.4,0-0.8-0.4-0.8-0.8V51.2
	C49.3,50.8,49.6,50.4,50.1,50.4z"/>
<path class="st1" d="M60,49.5c0.8,0,1.4,0.6,1.4,1.4v9c0,0.8-0.6,1.4-1.4,1.4h-9.3c-0.8,0-1.4-0.6-1.4-1.4v-9c0-0.8,0.6-1.4,1.4-1.4
	L60,49.5 M60,48.5h-9.3c-1.3,0-2.4,1.1-2.4,2.4v9c0,1.3,1.1,2.4,2.4,2.4H60c1.3,0,2.4-1.1,2.4-2.4v-9C62.5,49.6,61.4,48.5,60,48.5z"
	/>
<path class="st3" d="M67.7,50.4h10.6c0.4,0,0.8,0.4,0.8,0.8v11.4c0,0.4-0.4,0.8-0.8,0.8H67.7c-0.4,0-0.8-0.4-0.8-0.8V51.2
	C66.9,50.8,67.3,50.4,67.7,50.4z"/>
<path class="st1" d="M77.7,49.5c0.8,0,1.4,0.6,1.4,1.4v9c0,0.8-0.6,1.4-1.4,1.4h-9.3c-0.8,0-1.4-0.6-1.4-1.4v-9
	c0-0.8,0.6-1.4,1.4-1.4L77.7,49.5 M77.7,48.5h-9.3c-1.3,0-2.4,1.1-2.4,2.4v9c0,1.3,1.1,2.4,2.4,2.4h9.3c1.3,0,2.4-1.1,2.4-2.4v-9
	C80.1,49.6,79,48.5,77.7,48.5z"/>
<path class="st3" d="M85.5,50.4H96c0.4,0,0.8,0.4,0.8,0.8v11.4c0,0.4-0.4,0.8-0.8,0.8H85.5c-0.4,0-0.8-0.4-0.8-0.8V51.2
	C84.7,50.8,85,50.4,85.5,50.4z"/>
<path class="st1" d="M95.4,49.5c0.8,0,1.4,0.6,1.4,1.4v9c0,0.8-0.6,1.4-1.4,1.4h-9.3c-0.8,0-1.4-0.6-1.4-1.4v-9
	c0-0.8,0.6-1.4,1.4-1.4L95.4,49.5 M95.4,48.5h-9.3c-1.3,0-2.4,1.1-2.4,2.4v9c0,1.3,1.1,2.4,2.4,2.4h9.3c1.3,0,2.4-1.1,2.4-2.4v-9
	C97.9,49.6,96.8,48.5,95.4,48.5z"/>
<path class="st3" d="M32.7,69.5h10.6c0.4,0,0.8,0.4,0.8,0.8v11.4c0,0.4-0.4,0.8-0.8,0.8H32.7c-0.4,0-0.8-0.4-0.8-0.8V70.3
	C31.9,69.9,32.2,69.5,32.7,69.5z"/>
<path class="st1" d="M42.6,68.6c0.8,0,1.4,0.6,1.4,1.4v9c0,0.8-0.6,1.4-1.4,1.4h-9.3c-0.8,0-1.4-0.6-1.4-1.4v-9
	c0-0.8,0.6-1.4,1.4-1.4H42.6 M42.6,67.6h-9.3c-1.3,0-2.4,1.1-2.4,2.4v9c0,1.3,1.1,2.4,2.4,2.4h9.3c1.3,0,2.4-1.1,2.4-2.4v-9
	C45.1,68.7,44,67.6,42.6,67.6z"/>
<path class="st3" d="M50.1,69.5h10.6c0.4,0,0.8,0.4,0.8,0.8v11.4c0,0.4-0.4,0.8-0.8,0.8H50.1c-0.4,0-0.8-0.4-0.8-0.8V70.3
	C49.3,69.9,49.6,69.5,50.1,69.5z"/>
<path class="st1" d="M60,68.6c0.8,0,1.4,0.6,1.4,1.4v9c0,0.8-0.6,1.4-1.4,1.4h-9.3c-0.8,0-1.4-0.6-1.4-1.4v-9c0-0.8,0.6-1.4,1.4-1.4
	H60 M60,67.6h-9.3c-1.3,0-2.4,1.1-2.4,2.4v9c0,1.3,1.1,2.4,2.4,2.4H60c1.3,0,2.4-1.1,2.4-2.4v-9C62.5,68.7,61.4,67.6,60,67.6z"/>
<path class="st3" d="M67.7,69.5h10.6c0.4,0,0.8,0.4,0.8,0.8v11.4c0,0.4-0.4,0.8-0.8,0.8H67.7c-0.4,0-0.8-0.4-0.8-0.8V70.3
	C66.9,69.9,67.3,69.5,67.7,69.5z"/>
<path class="st1" d="M77.7,68.6c0.8,0,1.4,0.6,1.4,1.4v9c0,0.8-0.6,1.4-1.4,1.4h-9.3c-0.8,0-1.4-0.6-1.4-1.4v-9
	c0-0.8,0.6-1.4,1.4-1.4L77.7,68.6 M77.7,67.6h-9.3c-1.3,0-2.4,1.1-2.4,2.4v9c0,1.3,1.1,2.4,2.4,2.4h9.3c1.3,0,2.4-1.1,2.4-2.4v-9
	C80.1,68.7,79,67.6,77.7,67.6z"/>
<path class="st3" d="M32.7,88.8h10.6c0.4,0,0.8,0.4,0.8,0.8V101c0,0.4-0.4,0.8-0.8,0.8H32.7c-0.4,0-0.8-0.4-0.8-0.8V89.6
	C31.9,89.1,32.2,88.8,32.7,88.8z"/>
<path class="st1" d="M42.6,87.9c0.8,0,1.4,0.6,1.4,1.4v9c0,0.8-0.6,1.4-1.4,1.4h-9.3c-0.8,0-1.4-0.6-1.4-1.4v-9
	c0-0.8,0.6-1.4,1.4-1.4H42.6 M42.6,86.8h-9.3c-1.3,0-2.4,1.1-2.4,2.4v9c0,1.3,1.1,2.4,2.4,2.4h9.3c1.3,0,2.4-1.1,2.4-2.4v-9
	C45.1,87.9,44,86.9,42.6,86.8z"/>
<path class="st3" d="M50.1,88.8h10.6c0.4,0,0.8,0.4,0.8,0.8V101c0,0.4-0.4,0.8-0.8,0.8H50.1c-0.4,0-0.8-0.4-0.8-0.8V89.6
	C49.3,89.1,49.6,88.8,50.1,88.8z"/>
<path class="st1" d="M60,87.9c0.8,0,1.4,0.6,1.4,1.4v9c0,0.8-0.6,1.4-1.4,1.4h-9.3c-0.8,0-1.4-0.6-1.4-1.4v-9c0-0.8,0.6-1.4,1.4-1.4
	H60 M60,86.8h-9.3c-1.3,0-2.4,1.1-2.4,2.4v9c0,1.3,1.1,2.4,2.4,2.4H60c1.3,0,2.4-1.1,2.4-2.4v-9C62.5,87.9,61.4,86.9,60,86.8z"/>
<path class="st3" d="M67.7,88.8h10.6c0.4,0,0.8,0.4,0.8,0.8V101c0,0.4-0.4,0.8-0.8,0.8H67.7c-0.4,0-0.8-0.4-0.8-0.8V89.6
	C66.9,89.1,67.3,88.8,67.7,88.8z"/>
<path class="st1" d="M77.7,87.9c0.8,0,1.4,0.6,1.4,1.4v9c0,0.8-0.6,1.4-1.4,1.4h-9.3c-0.8,0-1.4-0.6-1.4-1.4v-9
	c0-0.8,0.6-1.4,1.4-1.4H77.7 M77.7,86.8h-9.3c-1.3,0-2.4,1.1-2.4,2.4v9c0,1.3,1.1,2.4,2.4,2.4h9.3c1.3,0,2.4-1.1,2.4-2.4v-9
	C80.1,87.9,79,86.9,77.7,86.8z"/>
<path class="st4" d="M85.5,69.5H96c0.4,0,0.8,0.4,0.8,0.8V101c0,0.4-0.4,0.8-0.8,0.8H85.5c-0.4,0-0.8-0.4-0.8-0.8V70.3
	C84.7,69.9,85,69.5,85.5,69.5z"/>
<path class="st1" d="M95.4,68.6c0.8,0,1.4,0.6,1.4,1.4v28.2c0,0.8-0.6,1.4-1.4,1.4h-9.3c-0.8,0-1.4-0.6-1.4-1.4V70
	c0-0.8,0.6-1.4,1.4-1.4H95.4 M95.4,67.6h-9.3c-1.3,0-2.4,1.1-2.4,2.4v28.2c0,1.3,1.1,2.4,2.4,2.4h9.3c1.3,0,2.4-1.1,2.4-2.4V70
	C97.9,68.7,96.8,67.6,95.4,67.6z"/>
<path class="st5" d="M96.1,29.7l-0.3-0.2c-1.4-0.8-2.8-1.9-4.3-3.6l-0.6-0.8h5.2V29.7z"/>
</svg>
