<?xml version="1.0" standalone="no"?><!DOCTYPE svg PUBLIC "-//W3C//DTD SVG 1.1//EN" "http://www.w3.org/Graphics/SVG/1.1/DTD/svg11.dtd"><svg t="1528264841250" class="icon" style="" viewBox="0 0 1024 1024" version="1.1" xmlns="http://www.w3.org/2000/svg" p-id="38826" xmlns:xlink="http://www.w3.org/1999/xlink" width="128" height="128"><defs><style type="text/css"></style></defs><path d="M490.8 942.8c206 0 373.8-164 379.9-368.5 0.2-6.2-4.8-11.4-11-11.6H122.2c-6.2 0-11.3 5.1-11.3 11.3v0.3c6.1 204.6 173.9 368.5 379.9 368.5z" fill="#D0D9FB" p-id="38827"></path><path d="M490.8 947.3c-214.8 0-389-174.2-389-389 0-4.9 4-8.9 8.9-8.9h760.2c4.9 0 8.9 4 8.9 8.9 0 214.9-174.1 389-389 389zM129 567.3c-4.9 0-8.9 4-8.9 8.9v0.5c9.6 196.2 172.2 352.9 370.7 352.9S852 772.9 861.5 576.7c0.3-4.9-3.5-9.1-8.5-9.4H129z" fill="#3F63F6" p-id="38828"></path><path d="M491.7 913.8c-199.2 0-361.6-157.3-369.9-354.5h-0.4c0 204.5 165.8 370.3 370.3 370.3s369.9-148.4 369.9-352.9l-3.1-1.2c-8.3 197.1-167.6 338.3-366.8 338.3z" fill="#7B96F7" p-id="38829"></path><path d="M490.8 534V132.7c0-5.4-4.4-9.8-9.8-9.8h-0.2c-225.7 5.3-407.1 190-407.1 417-0.1 65.8 15.5 130.8 45.4 189.4 2.5 4.8 8.4 6.7 13.2 4.3 0.1 0 0.1-0.1 0.2-0.1l353.2-190.8c3.2-1.8 5.1-5.1 5.1-8.7z" fill="#FFFFFF" p-id="38830"></path><path d="M128.4 746.7c-4.7 2.6-10.7 0.8-13.2-4C81.6 680.4 64 610.7 64 539.8c0-114 44.4-221.2 125-301.9s187.8-125 301.9-125c5.4 0 9.8 4.4 9.8 9.8v417.1c0 3.6-2 6.9-5.1 8.6L128.4 746.7z m352.6-604c0-5.4-4.4-9.8-9.8-9.8h-0.5c-215.3 10.5-387.2 189-387.2 406.9 0 60.8 13.6 120.9 39.8 175.8 2.3 4.9 8.2 6.9 13 4.6 0.1-0.1 0.3-0.1 0.4-0.2l339.2-183.3c3.2-1.7 5.1-5 5.1-8.6V142.7z" fill="#3F63F6" p-id="38831"></path><path d="M861.5 578.1l-404.4-9 3.5-1.9h391.5l3.7 0.6c3.8 1.6 4.8 4.2 5.6 6.7l0.1 3.6z" fill="#FFFFFF" p-id="38832"></path><path d="M537.5 498.5h403c5.4 0 9.7-4.3 9.7-9.7v-0.3c-6.1-219.8-183.6-396.8-403.7-402-5.4-0.1-9.8 4.1-9.9 9.5v402.4c0.3 0 0.6 0 0.9 0.1z" fill="#AFC2F9" p-id="38833"></path><path d="M945.4 498.5h0.6c-0.9-224.4-180.4-406.7-403.7-412-5.4-0.1-9.8 4.1-9.9 9.5v1.7c0 5.3 4.2 9.5 9.5 9.7 216.5 4.8 392 176.2 403.5 391.1z" fill="#FFFFFF" p-id="38834"></path><path d="M960.1 498.5c0 5.3-4.3 9.7-9.6 9.7H536.6c-5.3 0-9.7-4.3-9.7-9.7V86.3c0-5.3 4.3-9.7 9.7-9.7h0.2c112.8 0 219 43.8 298.9 123.5s123.9 185.6 124.4 298.4z m-404-9.8h374.2c5.4 0 9.7-4.4 9.7-9.7v-0.5c-5.3-100-46.8-193.3-118.3-264.5s-165-112.5-265.1-117.3c-5.4-0.3-9.9 3.9-10.2 9.2V479c0 5.3 4.3 9.6 9.7 9.7z" fill="#3F63F6" p-id="38835"></path><path d="M487 567.1L179 741.7l-10.4-16.6 292-157.9z" fill="#7B96F7" p-id="38836"></path><path d="M481 528.4c0 3.9-2.3 7.3-5.9 8.7L137.3 719.7c-4.1 2.2-10.3 2.8-14.3-4.6l-2.4-5.3 360.5-188v6.6z" fill="#D0D9FB" p-id="38837"></path><path d="M546.4 476.1h393.8v12.6H546.4z" fill="#7B96F7" p-id="38838"></path></svg>