<?xml version="1.0" encoding="utf-8"?>
<!-- Generator: Adobe Illustrator 22.0.1, SVG Export Plug-In . SVG Version: 6.00 Build 0)  -->
<svg version="1.1" id="图层_1" xmlns="http://www.w3.org/2000/svg" xmlns:xlink="http://www.w3.org/1999/xlink" x="0px" y="0px"
	 viewBox="0 0 128 128" style="enable-background:new 0 0 128 128;" xml:space="preserve">
<style type="text/css">
	.st0{fill:#FFFFFF;}
	.st1{fill:#D0D9FB;}
	.st2{fill:#3F63F6;}
</style>
<g>
	<path class="st0" d="M106.8,110.5H20.4c-0.7,0-1.2-0.5-1.2-1.2V59.7c0-0.7,0.5-1.2,1.2-1.2h86.4c0.7,0,1.2,0.5,1.2,1.2v49.7
		C108,110,107.5,110.5,106.8,110.5z"/>
	<path class="st0" d="M115,58.1H12.4c-6.6,0-5.8-4.5-5.8-11.1l8-23.5c0-6.6,5.4-12,12-12h73.6c6.6,0,12,5.4,12,12l10,25.7
		C122.2,55.8,121.6,58.1,115,58.1z"/>
	<rect x="20.6" y="103.9" class="st1" width="87.4" height="6.6"/>
	<path class="st2" d="M126.2,52.1l-12.5-35.6l-0.1-0.3c-2-4.2-4.8-8.1-11.6-8.1H25.5c-6.8,0-9.6,3.9-11.6,8.1L1.3,52.1l0.8,0.3H1.6
		c0,6,4.8,10.8,10.8,10.8c1.1,0,2.2-0.2,3.2-0.5v40.7c0,6.7,5.1,12.2,11.5,12.2h73.4c6.3,0,11.5-5.5,11.5-12.2V62.8
		c1,0.3,2.1,0.5,3.2,0.5c6,0,10.8-4.8,10.8-10.8h-0.5C125.4,52.4,126.2,52.1,126.2,52.1z M106.8,103.5c0,3.9-2.8,7-6.3,7H27.1
		c-3.5,0-6.3-3.2-6.3-7v-44h-0.1c0.1-0.1,0.3-0.3,0.4-0.5c2,2.6,5.1,4.2,8.6,4.2s6.6-1.7,8.6-4.2c2,2.6,5.1,4.2,8.6,4.2
		s6.6-1.7,8.6-4.2c2,2.6,5.1,4.2,8.6,4.2c3.5,0,6.6-1.7,8.6-4.2c2,2.6,5.1,4.2,8.6,4.2s6.6-1.7,8.6-4.2c2,2.6,5.1,4.2,8.6,4.2
		s6.6-1.7,8.6-4.2c0.1,0.2,0.2,0.3,0.4,0.5h-0.1L106.8,103.5L106.8,103.5z M115,58.1c-3.1,0-5.7-2.5-5.7-5.7h-5.7
		c0,3.1-2.5,5.7-5.7,5.7c-3.1,0-5.7-2.5-5.7-5.7h-5.7c0,3.1-2.5,5.7-5.7,5.7c-3.1,0-5.7-2.5-5.7-5.7h-5.7c0,3.1-2.5,5.7-5.7,5.7
		c-3.1,0-5.7-2.5-5.7-5.7h-5.7c0,3.1-2.6,5.7-5.7,5.7s-5.7-2.6-5.7-5.7h-5.7c0,3.1-2.6,5.7-5.7,5.7s-5.7-2.6-5.7-5.7h-5.7
		c0,3.1-2.6,5.7-5.7,5.7s-5.7-2.6-5.7-5.7H6.6l12-34.1c1.9-3.9,3.5-5.1,6.9-5.1H102c3.4,0,5,1.2,6.9,5.1l12,34.1h-0.1
		C120.7,55.6,118.2,58.1,115,58.1z"/>
	<path class="st2" d="M29.5,30.5h68.4v5.1H29.5V30.5z"/>
	<g>
		<path class="st2" d="M49.8,78.6V75h0.6c0.5,0,0.9-0.3,1.3-0.8l2.4-5.3H59L57,74c-0.1,0.1-0.1,0.2-0.1,0.3c-0.3,0.5-0.3,0.8-0.3,1
			v22.3h-4.4v-19H49.8z M60.8,72.5v-3.4h4.2v3.4h6.6v-3.4h4.2v3.4h2.7v3.4h-2.7v7.2h2.7v3.8H57.7v-3.7h3v-7.2h-2.5v-3.5H60.8z
			 M58.2,94.4h0.6c0.4,0.2,0.7-0.2,0.9-1l0.9-5.1h4.4l-1.4,7.3c-0.3,1.2-1.1,1.8-2.3,1.9h-3.2V94.4z M71.5,75.9h-6.6v7.2h6.6V75.9z
			 M72.4,95.3l-1-7h4.4l1,5.2c0,0.7,0.3,0.9,0.8,0.8h0.9v3.3h-3.4C73.5,97.4,72.7,96.6,72.4,95.3z"/>
	</g>
</g>
</svg>
