<?xml version="1.0" encoding="utf-8"?>
<!-- Generator: Adobe Illustrator 16.0.0, SVG Export Plug-In . SVG Version: 6.00 Build 0)  -->
<!DOCTYPE svg PUBLIC "-//W3C//DTD SVG 1.1//EN" "http://www.w3.org/Graphics/SVG/1.1/DTD/svg11.dtd">
<svg version="1.1" id="图层_1" xmlns="http://www.w3.org/2000/svg" xmlns:xlink="http://www.w3.org/1999/xlink" x="0px" y="0px"
	 width="50px" height="50px" viewBox="0 0 50 50" enable-background="new 0 0 50 50" xml:space="preserve">
<path fill="#038AD6" d="M48.07,12.482L36.029,1.067v7.115c0,2.415,1.938,4.391,4.308,4.391h7.871L48.07,12.482z M48.07,12.482"/>
<g>
	<path fill="#0099FF" d="M39.94,14.11c-3.021,0-5.491-2.716-5.491-6.035V0.223H13.751c-1.696,0-3.083,1.497-3.083,3.326v9.341h15.21
		c2.076,0,3.776,1.833,3.776,4.075v21.524c0,2.241-1.7,4.074-3.776,4.074h-15.21v3.888c0,1.829,1.388,3.326,3.083,3.326h31.248
		c1.696,0,3.083-1.497,3.083-3.326V14.11H39.94z M39.94,14.11"/>
</g>
<path fill="#038AD6" d="M25.33,19.457v2.759h1.045v-2.759c0-1.829-1.4-3.309-3.124-3.309h-4.688v1.1h4.688
	c0.554,0,1.085,0.233,1.474,0.648C25.111,18.304,25.33,18.872,25.33,19.457L25.33,19.457z M4.5,19.457
	c0-0.585,0.219-1.146,0.609-1.561c0.39-0.41,0.92-0.648,1.475-0.648h2.603v-1.1H6.584c-1.729,0-3.124,1.479-3.124,3.309v2.759h1.044
	L4.5,19.457z M4.5,36.001v-2.757H3.456v2.757c0,1.831,1.399,3.312,3.124,3.312h2.603v-1.107H6.58c-0.555,0-1.085-0.23-1.474-0.646
	C4.72,37.149,4.5,36.588,4.5,36.001L4.5,36.001z M25.33,36.001v-2.757h1.045v2.757c0,0.882-0.331,1.726-0.916,2.342
	c-0.584,0.619-1.377,0.97-2.208,0.97h-4.688v-1.104h4.688c0.554,0,1.085-0.232,1.474-0.646C25.111,37.149,25.33,36.588,25.33,36.001
	L25.33,36.001z M22.076,27.222h4.299v1.016h-4.299v6.113h-0.953v-6.113h-0.955v6.113h-0.95v-6.113h-0.954v6.113h-1.909v-6.113
	h-0.961v6.113h-0.959v-6.113h-0.954v6.113h-0.956v-6.113h-0.955v6.113H9.663v-6.113H8.708v6.113H7.75v-6.113H3.451v-1.016H7.75
	v-6.107h0.953v6.113h0.955v-6.113h1.914v6.113h0.955v-6.113h0.956v6.113h0.96v-6.113h0.953v6.113h0.961v-6.113h1.909v6.113h0.954
	v-6.113h0.95v6.113h0.949v-6.113h0.955L22.076,27.222z M22.076,27.222"/>
</svg>
