<?xml version="1.0" encoding="utf-8"?>
<!-- Generator: Adobe Illustrator 16.0.0, SVG Export Plug-In . SVG Version: 6.00 Build 0)  -->
<!DOCTYPE svg PUBLIC "-//W3C//DTD SVG 1.1//EN" "http://www.w3.org/Graphics/SVG/1.1/DTD/svg11.dtd">
<svg version="1.1" id="图层_1" xmlns="http://www.w3.org/2000/svg" xmlns:xlink="http://www.w3.org/1999/xlink" x="0px" y="0px"
	 width="50px" height="50px" viewBox="0 0 50 50" enable-background="new 0 0 50 50" xml:space="preserve">
<g>
	<path fill="#D3DCE6" d="M34.289,1.558v9.132h9.743L34.289,1.558z M34.289,1.558"/>
	<path fill="#D3DCE6" d="M34.841,30.294H26.89v7.938h-3.538v-7.938h-7.959v-3.539h7.959V18.81h3.543v7.945h7.945V30.294z
		 M33.271,14.322c-1.327,0-2.404-1.077-2.404-2.406V0.337H9.084c-2.218,0-4.016,1.795-4.019,4.012v41.294
		c0,1.067,0.424,2.089,1.177,2.844c0.753,0.751,1.775,1.175,2.842,1.175H41.23c2.216,0,4.014-1.796,4.017-4.01V14.322H33.271z
		 M33.271,14.322"/>
</g>
</svg>
