<?xml version="1.0" encoding="utf-8"?>
<!-- Generator: Adobe Illustrator 16.0.0, SVG Export Plug-In . SVG Version: 6.00 Build 0)  -->
<!DOCTYPE svg PUBLIC "-//W3C//DTD SVG 1.1//EN" "http://www.w3.org/Graphics/SVG/1.1/DTD/svg11.dtd">
<svg version="1.1" id="图层_1" xmlns="http://www.w3.org/2000/svg" xmlns:xlink="http://www.w3.org/1999/xlink" x="0px" y="0px"
	 width="18px" height="18px" viewBox="0 0 18 18" enable-background="new 0 0 18 18" xml:space="preserve">
<g>
	<path fill="#FFFFFF" d="M1.297,4.251c0.25-0.026,0.49-0.036,0.713-0.081c0.304-0.062,0.572-0.205,0.813-0.401
		C3.019,3.6,3.18,3.404,3.287,3.172c0.089-0.206,0.151-0.438,0.206-0.661c0.035-0.161,0.043-0.322,0.07-0.482
		c0.348-0.132,0.706-0.258,1.063-0.392c0.668-0.25,1.338-0.49,1.999-0.741C7.061,0.735,7.49,0.575,7.918,0.423
		c0.269-0.098,0.544-0.169,0.794-0.294C8.891,0.04,9.042,0.066,9.203,0.12c0.395,0.134,0.775,0.268,1.17,0.41
		c0.589,0.215,1.177,0.429,1.757,0.653l2.195,0.802c0.034,0.019,0.069,0.026,0.099,0.036c0.053,0.276,0.1,0.553,0.168,0.821
		c0.071,0.285,0.225,0.543,0.42,0.766c0.284,0.313,0.635,0.5,1.035,0.589c0.16,0.036,0.331,0.036,0.501,0.053h0.169
		c0.02,0.225,0.045,0.428,0.053,0.643c0.021,0.374,0.037,0.74,0.037,1.115c0,0.33-0.011,0.652-0.045,0.981
		c-0.045,0.446-0.098,0.893-0.162,1.329c-0.076,0.642-0.213,1.267-0.41,1.881c-0.158,0.535-0.338,1.062-0.553,1.58
		c-0.17,0.431-0.4,0.83-0.615,1.231c-0.27,0.509-0.59,0.972-0.936,1.419c-0.162,0.205-0.332,0.401-0.511,0.588
		c-0.124,0.145-0.249,0.276-0.384,0.41c-0.401,0.375-0.813,0.732-1.258,1.055c-0.563,0.398-1.15,0.74-1.769,1.033
		c-0.284,0.135-0.578,0.276-0.882,0.366c-0.25,0.078-0.509,0.054-0.75-0.063c-0.401-0.187-0.811-0.354-1.204-0.562
		c-0.544-0.276-1.061-0.604-1.544-0.979c-0.286-0.233-0.563-0.483-0.839-0.715c-0.338-0.285-0.615-0.625-0.901-0.965
		c-0.33-0.393-0.616-0.804-0.883-1.229c-0.286-0.464-0.544-0.938-0.741-1.444c-0.179-0.447-0.366-0.884-0.509-1.339
		c-0.16-0.51-0.276-1.026-0.392-1.553C1.44,8.694,1.395,8.346,1.342,7.999C1.306,7.783,1.288,7.56,1.279,7.347
		c-0.026-0.392-0.044-0.776-0.062-1.17C1.208,5.973,1.19,5.767,1.199,5.563c0.018-0.356,0.054-0.714,0.08-1.062
		C1.288,4.403,1.297,4.322,1.297,4.251L1.297,4.251z M4.474,2.761C4.456,2.841,4.438,2.914,4.42,2.975
		C4.304,3.439,4.099,3.867,3.778,4.223c-0.402,0.455-0.902,0.759-1.49,0.911C2.261,5.143,2.226,5.162,2.216,5.188
		C2.198,5.241,2.189,5.295,2.189,5.349c0.009,0.525,0.018,1.053,0.044,1.579c0.009,0.286,0.044,0.58,0.081,0.866
		c0.044,0.358,0.089,0.714,0.169,1.073c0.107,0.481,0.241,0.961,0.375,1.445c0.178,0.633,0.437,1.238,0.741,1.819
		c0.241,0.464,0.499,0.919,0.821,1.328c0.231,0.294,0.473,0.592,0.714,0.875c0.178,0.194,0.365,0.394,0.562,0.569
		c0.223,0.205,0.464,0.402,0.704,0.592c0.447,0.348,0.919,0.641,1.427,0.893c0.33,0.17,0.669,0.31,1.008,0.463
		c0.062,0.026,0.152,0.063,0.214,0.034c0.196-0.069,0.385-0.151,0.571-0.237c0.295-0.146,0.58-0.287,0.866-0.447
		c0.285-0.172,0.57-0.35,0.839-0.536c0.239-0.168,0.465-0.354,0.687-0.544c0.205-0.171,0.41-0.355,0.598-0.546
		c0.16-0.158,0.313-0.339,0.466-0.522c0.196-0.234,0.383-0.476,0.563-0.724c0.338-0.481,0.643-0.99,0.883-1.526
		c0.099-0.215,0.203-0.42,0.274-0.633c0.17-0.464,0.33-0.929,0.466-1.393c0.125-0.428,0.215-0.864,0.303-1.302
		c0.072-0.392,0.125-0.794,0.162-1.187C15.76,6.932,15.77,6.566,15.789,6.2c0.01-0.17,0-0.34,0-0.509c0-0.16-0.008-0.321-0.02-0.481
		c0-0.027-0.033-0.053-0.063-0.071c-0.037-0.019-0.081-0.027-0.124-0.044c-0.563-0.144-1.019-0.456-1.394-0.885
		c-0.367-0.419-0.58-0.91-0.678-1.454c-0.011,0-0.019,0-0.037-0.009c-0.723-0.269-1.436-0.527-2.158-0.794
		C10.602,1.695,9.889,1.436,9.174,1.16c-0.15-0.054-0.276-0.054-0.418,0C8.158,1.387,7.551,1.61,6.954,1.833
		C6.58,1.966,6.213,2.102,5.839,2.243C5.401,2.422,4.938,2.592,4.474,2.761L4.474,2.761z"/>
	<path fill="#FFFFFF" d="M13.525,5.402l-5.705,5.752l-2.2-2.152L4.902,9.723l2.919,2.871l6.424-6.472L13.525,5.402z"/>
</g>
</svg>
