<?xml version="1.0" encoding="utf-8"?>
<!-- Generator: Adobe Illustrator 16.0.0, SVG Export Plug-In . SVG Version: 6.00 Build 0)  -->
<!DOCTYPE svg PUBLIC "-//W3C//DTD SVG 1.1//EN" "http://www.w3.org/Graphics/SVG/1.1/DTD/svg11.dtd">
<svg version="1.1" id="图层_1" xmlns="http://www.w3.org/2000/svg" xmlns:xlink="http://www.w3.org/1999/xlink" x="0px" y="0px"
	 width="18px" height="18px" viewBox="0 0 18 18" enable-background="new 0 0 18 18" xml:space="preserve">
<path fill="#FFFFFF" d="M3.251,17.171c-0.646,0-1.175-0.528-1.175-1.175V3.018c0-0.65,0.529-1.175,1.175-1.175h1.434
	c0.217,0,0.392-0.174,0.392-0.392c0-0.216-0.175-0.391-0.392-0.391H3.251c-1.081,0-1.958,0.877-1.958,1.958v12.975
	c0,1.077,0.877,1.957,1.958,1.957h3.405v-0.779H3.251L3.251,17.171z M14.748,1.061h-1.419c-0.218,0-0.392,0.175-0.392,0.391
	c0,0.217,0.174,0.392,0.392,0.392h1.419c0.648,0,1.176,0.528,1.176,1.175v12.978c0,0.646-0.527,1.175-1.176,1.175h-3.405v0.779
	h3.405c1.082,0,1.959-0.879,1.959-1.954V3.018C16.707,1.938,15.83,1.061,14.748,1.061L14.748,1.061z M12.846,3.35H5.153
	c-0.486,0-0.878,0.392-0.878,0.878c0,0.487,0.392,0.878,0.878,0.878h7.693c0.482,0,0.879-0.391,0.879-0.878
	C13.725,3.742,13.333,3.35,12.846,3.35z M11.343,1.445c0-0.773-0.627-1.398-1.399-1.398H8.055c-0.773,0-1.398,0.625-1.398,1.398
	v1.993h4.686V1.445L11.343,1.445z M9,2.687c-0.511,0-0.926-0.416-0.926-0.927C8.074,1.249,8.49,0.833,9,0.833
	c0.512,0,0.926,0.416,0.926,0.927C9.926,2.271,9.512,2.687,9,2.687z M12.264,13.872h-2.183v-1.111l2.17-0.011
	c0.196-0.014,0.354-0.09,0.474-0.229c0.118-0.137,0.185-0.303,0.199-0.5c-0.016-0.188-0.081-0.345-0.193-0.465
	c-0.112-0.121-0.27-0.188-0.463-0.205h-1.674l1.764-2.444c0.149-0.195,0.228-0.407,0.228-0.626
	c-0.024-0.161-0.062-0.287-0.108-0.388c-0.049-0.098-0.107-0.175-0.181-0.227c-0.073-0.053-0.159-0.091-0.253-0.116
	c-0.096-0.023-0.197-0.038-0.311-0.044c-0.184,0.021-0.348,0.084-0.49,0.181C11.1,7.786,10.98,7.901,10.889,8.03l-1.9,2.764
	L7.262,8.055c-0.092-0.13-0.21-0.249-0.353-0.357C6.765,7.589,6.6,7.526,6.419,7.508C6.107,7.547,5.894,7.631,5.783,7.764
	C5.667,7.896,5.594,8.067,5.556,8.281c-0.008,0.168,0.023,0.323,0.09,0.463c0.066,0.139,0.14,0.254,0.217,0.346l1.524,2.262h-1.64
	c-0.207,0.016-0.363,0.084-0.472,0.205c-0.109,0.125-0.175,0.277-0.199,0.467c0.024,0.197,0.087,0.359,0.199,0.49
	c0.109,0.129,0.266,0.198,0.472,0.217l2.192,0.012v1.135H5.748c-0.207,0.016-0.363,0.083-0.472,0.207
	c-0.109,0.123-0.175,0.277-0.199,0.465c0.024,0.189,0.087,0.363,0.199,0.518c0.109,0.154,0.266,0.242,0.472,0.256H7.94v1.669
	c0.014,0.323,0.115,0.569,0.3,0.728c0.186,0.156,0.444,0.236,0.78,0.236c0.675,0,1.027-0.32,1.055-0.964v-1.69l2.184,0.012
	c0.194-0.015,0.353-0.09,0.466-0.221c0.111-0.133,0.178-0.297,0.191-0.492c-0.016-0.189-0.08-0.354-0.191-0.49
	C12.615,13.964,12.459,13.893,12.264,13.872L12.264,13.872z"/>
</svg>
