<?xml version="1.0" encoding="utf-8"?>
<!-- Generator: Adobe Illustrator 16.0.0, SVG Export Plug-In . SVG Version: 6.00 Build 0)  -->
<!DOCTYPE svg PUBLIC "-//W3C//DTD SVG 1.1//EN" "http://www.w3.org/Graphics/SVG/1.1/DTD/svg11.dtd">
<svg version="1.1" id="图层_1" xmlns="http://www.w3.org/2000/svg" xmlns:xlink="http://www.w3.org/1999/xlink" x="0px" y="0px"
	 width="18px" height="18px" viewBox="0 0 18 18" enable-background="new 0 0 18 18" xml:space="preserve">
<g>
	<path fill="#FFFFFF" d="M9.93,1.409l6.864,4.262l-0.041,0.066c0.753,0.455,1.255,1.292,1.255,2.254v6.591
		c0,1.447-1.142,2.613-2.564,2.613h-1.961v-0.836h1.961c0.972,0,1.746-0.793,1.746-1.777v-6.59c0-0.988-0.772-1.778-1.732-1.778
		H2.545c-0.19,0-0.373,0.031-0.543,0.089L1.866,6.387L1.852,6.361c-0.612,0.275-1.04,0.901-1.04,1.63v6.591
		c0,0.988,0.771,1.777,1.73,1.777h8.433v0.836H2.542c-1.411,0-2.549-1.166-2.549-2.613v-6.59c0-1.122,0.689-2.078,1.657-2.45
		l6.721-4.155C8.348,1.306,8.335,1.223,8.335,1.14c0-0.462,0.367-0.837,0.819-0.837S9.973,0.678,9.973,1.14
		C9.975,1.234,9.958,1.325,9.93,1.409z M9.256,1.97C9.177,1.98,9.097,1.978,9.018,1.965L3.5,5.376h11.242L9.256,1.97z M5.016,9.953
		l2.346,2.872l6.234-5.159l0.516,0.65L7.25,13.994L4.387,10.49L5.016,9.953L5.016,9.953z"/>
	<rect x="10.404" y="16.361" fill="#FFFFFF" width="3.543" height="0.836"/>
</g>
</svg>
