<?xml version="1.0" encoding="utf-8"?>
<!-- Generator: Adobe Illustrator 16.0.0, SVG Export Plug-In . SVG Version: 6.00 Build 0)  -->
<!DOCTYPE svg PUBLIC "-//W3C//DTD SVG 1.1//EN" "http://www.w3.org/Graphics/SVG/1.1/DTD/svg11.dtd">
<svg version="1.1" id="图层_1" xmlns="http://www.w3.org/2000/svg" xmlns:xlink="http://www.w3.org/1999/xlink" x="0px" y="0px"
	 width="18px" height="18px" viewBox="0 0 18 18" enable-background="new 0 0 18 18" xml:space="preserve">
<path fill="#FFFFFF" d="M17.822,10.508c-0.163,0.166-0.436,0.166-0.604,0L16.303,9.59l0.02,7.983c0,0.235-0.19,0.428-0.426,0.428
	h-4.715c-0.234,0-0.429-0.188-0.429-0.428V13.29H7.327v4.283c0,0.235-0.19,0.428-0.429,0.428h-4.71
	c-0.237,0-0.431-0.188-0.431-0.428L1.743,9.63l-0.954,0.956c-0.169,0.168-0.441,0.168-0.611,0c-0.169-0.168-0.169-0.441,0-0.609
	l8.555-8.555C8.817,1.337,8.928,1.294,9.04,1.295c0.11-0.001,0.222,0.042,0.306,0.126L17.824,9.9
	C17.991,10.068,17.991,10.34,17.822,10.508z M9.043,2.331L2.605,8.778l0.01,8.367H6.47v-4.285c0-0.238,0.19-0.428,0.426-0.428h4.284
	c0.238,0,0.43,0.188,0.43,0.428v4.285h3.855V8.779L9.043,2.331z M15.467,6.435c-0.236,0-0.429-0.192-0.429-0.428V3.864h-2.146
	c-0.234,0-0.43-0.191-0.43-0.429c0-0.236,0.193-0.428,0.43-0.428h2.572c0.235,0,0.43,0.192,0.43,0.428v2.571
	C15.896,6.242,15.702,6.435,15.467,6.435z"/>
</svg>
