<?xml version="1.0" encoding="utf-8"?>
<!-- Generator: Adobe Illustrator 16.0.0, SVG Export Plug-In . SVG Version: 6.00 Build 0)  -->
<!DOCTYPE svg PUBLIC "-//W3C//DTD SVG 1.1//EN" "http://www.w3.org/Graphics/SVG/1.1/DTD/svg11.dtd">
<svg version="1.1" id="图层_1" xmlns="http://www.w3.org/2000/svg" xmlns:xlink="http://www.w3.org/1999/xlink" x="0px" y="0px"
	 width="18px" height="18px" viewBox="0 0 18 18" enable-background="new 0 0 18 18" xml:space="preserve">
<path fill="#AEB9C2" d="M17.822,9.859c-0.163,0.166-0.436,0.166-0.604,0l-0.916-0.918l0.02,7.982c0,0.237-0.19,0.429-0.426,0.429
	h-4.715c-0.234,0-0.428-0.19-0.428-0.429v-4.282H7.327v4.282c0,0.237-0.191,0.429-0.429,0.429H2.187c-0.237,0-0.43-0.19-0.43-0.429
	L1.743,8.982L0.789,9.938c-0.169,0.168-0.442,0.168-0.612,0c-0.168-0.168-0.168-0.442,0-0.61l8.555-8.554
	c0.085-0.085,0.196-0.128,0.307-0.127c0.11-0.001,0.221,0.042,0.305,0.126l8.478,8.48C17.991,9.42,17.991,9.691,17.822,9.859z
	 M9.043,1.682L2.605,8.13l0.01,8.366H6.47V12.21c0-0.237,0.191-0.427,0.427-0.427h4.283c0.239,0,0.43,0.189,0.43,0.427v4.286h3.856
	V8.131L9.043,1.682z M15.467,5.786c-0.236,0-0.429-0.192-0.429-0.428V3.216h-2.146c-0.234,0-0.429-0.191-0.429-0.429
	c0-0.236,0.193-0.428,0.429-0.428h2.573c0.235,0,0.429,0.192,0.429,0.428v2.571C15.896,5.594,15.702,5.786,15.467,5.786z"/>
</svg>
