<?xml version="1.0" encoding="utf-8"?>
<!-- Generator: Adobe Illustrator 16.0.0, SVG Export Plug-In . SVG Version: 6.00 Build 0)  -->
<!DOCTYPE svg PUBLIC "-//W3C//DTD SVG 1.1//EN" "http://www.w3.org/Graphics/SVG/1.1/DTD/svg11.dtd">
<svg version="1.1" id="图层_1" xmlns="http://www.w3.org/2000/svg" xmlns:xlink="http://www.w3.org/1999/xlink" x="0px" y="0px"
	 width="18px" height="18px" viewBox="0 0 18 18" enable-background="new 0 0 18 18" xml:space="preserve">
<path fill="#FFFFFF" d="M1.293,5.886L0.552,6.775l0.742-1.186l7.114,4.448c0.315,0.182,0.868,0.182,1.185,0l7.115-4.448l0.741,1.186
	l-0.741-0.889l0.741-0.888l-0.741,1.185L9.592,1.738c-0.316-0.187-0.869-0.184-1.185,0L1.293,6.183L0.552,4.998L1.293,5.886z
	 M0.552,6.776c-0.598-0.516-0.6-1.262,0-1.779l7.114-4.594c0.758-0.398,1.906-0.398,2.667,0l7.114,4.594
	c0.599,0.515,0.601,1.261,0,1.779l-7.114,4.595c-0.758,0.398-1.906,0.398-2.667,0L0.552,6.776z M0.404,8.11
	c-0.442,0.56-0.396,1.241,0.148,1.779l7.114,4.594c0.761,0.396,1.906,0.396,2.667,0l7.114-4.594c0.547-0.54,0.59-1.219,0.146-1.779
	c-0.058,0.05-0.104,0.1-0.146,0.146l-7.114,4.596c-0.761,0.396-1.906,0.398-2.667,0L0.552,8.255C0.508,8.209,0.463,8.16,0.404,8.11z
	 M0.404,11.225c-0.442,0.562-0.396,1.242,0.147,1.777l7.114,4.596c0.761,0.396,1.905,0.396,2.667,0l7.115-4.596
	c0.546-0.535,0.589-1.217,0.146-1.777c-0.058,0.047-0.104,0.101-0.146,0.146l-7.115,4.594c-0.762,0.396-1.906,0.396-2.667,0
	l-7.114-4.594C0.508,11.324,0.463,11.271,0.404,11.225z"/>
</svg>
