<?xml version="1.0" encoding="utf-8"?>
<!-- Generator: Adobe Illustrator 22.0.1, SVG Export Plug-In . SVG Version: 6.00 Build 0)  -->
<svg version="1.1" id="图层_1" xmlns="http://www.w3.org/2000/svg" xmlns:xlink="http://www.w3.org/1999/xlink" x="0px" y="0px"
	 viewBox="0 0 128 128" style="enable-background:new 0 0 128 128;" xml:space="preserve">
<style type="text/css">
	.st0{fill:#CCCCCC;}
</style>
<path class="st0" d="M67.3,88.2v4.7h-8.5v-4.7c-1.7-0.3-3.4-0.7-5.1-1.3c-2.6-0.9-4.9-2.3-6.7-4.2c-4-4.2-3.8-7.6-3.8-9.7h9.8
	c0,2.4,2.6,4.6,5.9,5.7V66.9c-3.6-0.5-7.2-1.5-10.4-3.5c-3.3-1.9-5.2-5.1-5.2-8.8c0-7.3,6.5-13.4,15.6-14.7V35h8.5v4.9
	c3.9,0.5,7.1,1.6,9.7,3.7c3.4,2.7,4.7,6.2,4.7,8.8h-9.5c-0.7-2.1-2.8-3.2-4.9-3.8v9.8c3.4,0.6,6.9,1.4,10,3.3
	c1.4,0.8,3.2,2.4,4.5,4.4c0.5,1.1,1.8,2.5,1.8,7.4c0,2.4-1.2,5.4-2,6.6c-0.6,0.9-1.8,2.5-4.5,4.3c-1.9,1.3-4,2.3-6.2,2.9
	C69.7,87.7,68.6,88,67.3,88.2L67.3,88.2z M67.3,78.8c2.5-0.7,4.9-2.1,4.9-4.6c0-2.9-2.2-4.6-4.9-5.6V78.8z M58.8,48.5
	c-2.3,0.7-4.5,2.1-4.4,4.8c0,1.8,1.9,2.8,4.4,3.5V48.5z M100,97c15.8-17.2,17.2-43.4,3-62.4c-12.8-17-35.1-23.7-55.1-16.7l-3-8.6
	C68.6,1,95.1,9,110.2,29.2c17,22.5,15.1,53.9-3.8,74.2l3.3,3.3l-12.9,2.9c-1.4,0.3-2.9-0.6-3.2-2c-0.1-0.4-0.1-0.8,0-1.2l2.9-12.9
	C96.6,93.5,100,97,100,97z M29.9,36.2l-3.6-3.3c-14.9,18-15,44.3,0.3,62.4c12.7,15.2,33.4,21.2,52.3,15.1l2.7,8.6
	c-22.4,7.1-46.9,0.1-62-17.9c-18.1-21.6-17.9-53-0.1-74.4l-3.4-3.1l12.7-3.6c1.4-0.4,2.9,0.4,3.3,1.8c0.1,0.4,0.1,0.8,0.1,1.2
	C32.2,23.2,29.9,36.2,29.9,36.2z"/>
</svg>
