<?xml version="1.0" encoding="utf-8"?>
<!-- Generator: Adobe Illustrator 16.0.0, SVG Export Plug-In . SVG Version: 6.00 Build 0)  -->
<!DOCTYPE svg PUBLIC "-//W3C//DTD SVG 1.1//EN" "http://www.w3.org/Graphics/SVG/1.1/DTD/svg11.dtd">
<svg version="1.1" id="图层_1" xmlns="http://www.w3.org/2000/svg" xmlns:xlink="http://www.w3.org/1999/xlink" x="0px" y="0px"
	 width="30px" height="30px" viewBox="0 0 30 30" enable-background="new 0 0 30 30" xml:space="preserve">
<g>
	<g>
		<defs>
			<rect id="SVGID_1_" x="0.598" y="0.583" width="28.803" height="28.834"/>
		</defs>
		<clipPath id="SVGID_2_">
			<use xlink:href="#SVGID_1_"  overflow="visible"/>
		</clipPath>
		<path clip-path="url(#SVGID_2_)" fill="#999999" d="M29.375,14.992c0-7.948-6.443-14.391-14.391-14.391
			c-7.948,0-14.391,6.442-14.391,14.391c0,7.946,6.443,14.39,14.391,14.39c3.185,0,6.214-1.04,8.696-2.924
			c0.303-0.23,0.36-0.661,0.132-0.962c-0.229-0.301-0.658-0.358-0.961-0.132c-2.246,1.708-4.984,2.647-7.867,2.647
			c-7.191,0-13.02-5.831-13.02-13.02c0-7.192,5.829-13.021,13.02-13.021c7.19,0,13.019,5.828,13.019,13.021
			c0,2.662-0.8,5.204-2.271,7.352c-0.215,0.313-0.135,0.739,0.178,0.954c0.311,0.214,0.737,0.134,0.951-0.18
			C28.488,20.746,29.375,17.934,29.375,14.992L29.375,14.992z M29.375,14.992"/>
	</g>
</g>
<g>
	<rect x="8.185" y="11.865" fill="#999999" width="13.629" height="1.704"/>
	<rect x="8.185" y="16.124" fill="#999999" width="13.629" height="1.704"/>
	<rect x="14.148" y="11.865" fill="#999999" width="1.702" height="11.926"/>
	<path fill="#999999" d="M15,13.296c-0.454,0-0.89-0.18-1.21-0.502l-5.179-5.18c-0.289-0.338-0.27-0.842,0.045-1.156
		c0.315-0.314,0.818-0.334,1.157-0.044L15,11.592l5.179-5.178c0.338-0.29,0.842-0.271,1.156,0.044
		c0.315,0.314,0.335,0.818,0.045,1.156l-5.179,5.18C15.882,13.113,15.45,13.294,15,13.296L15,13.296z M15,13.296"/>
</g>
</svg>
