<?xml version="1.0" encoding="utf-8"?>
<!-- Generator: Adobe Illustrator 16.0.0, SVG Export Plug-In . SVG Version: 6.00 Build 0)  -->
<!DOCTYPE svg PUBLIC "-//W3C//DTD SVG 1.1//EN" "http://www.w3.org/Graphics/SVG/1.1/DTD/svg11.dtd">
<svg version="1.1" id="图层_1" xmlns="http://www.w3.org/2000/svg" xmlns:xlink="http://www.w3.org/1999/xlink" x="0px" y="0px"
	 width="30px" height="30px" viewBox="0 0 30 30" enable-background="new 0 0 30 30" xml:space="preserve">
<g>
	<g>
		<defs>
			<rect id="SVGID_1_" x="0.598" y="0.583" width="28.803" height="28.834"/>
		</defs>
		<clipPath id="SVGID_2_">
			<use xlink:href="#SVGID_1_"  overflow="visible"/>
		</clipPath>
		<path clip-path="url(#SVGID_2_)" fill="#999999" d="M29.375,14.992c0-7.948-6.443-14.391-14.391-14.391
			c-7.948,0-14.391,6.442-14.391,14.391c0,7.946,6.443,14.39,14.391,14.39c3.185,0,6.214-1.04,8.696-2.924
			c0.303-0.23,0.36-0.661,0.132-0.962c-0.229-0.301-0.658-0.358-0.961-0.132c-2.246,1.708-4.984,2.647-7.867,2.647
			c-7.191,0-13.02-5.831-13.02-13.02c0-7.192,5.829-13.021,13.02-13.021c7.19,0,13.019,5.828,13.019,13.021
			c0,2.662-0.8,5.204-2.271,7.352c-0.215,0.313-0.135,0.739,0.178,0.954c0.311,0.214,0.737,0.134,0.951-0.18
			C28.488,20.746,29.375,17.934,29.375,14.992L29.375,14.992z M29.375,14.992"/>
	</g>
	<path fill="#999999" d="M14.299,17.732c0,0.379,0.306,0.686,0.685,0.686c0.378,0,0.685-0.307,0.685-0.686V7.453
		c0-0.378-0.307-0.685-0.685-0.685c-0.379,0-0.685,0.307-0.685,0.685V17.732z M14.299,17.732"/>
	<path fill="#999999" d="M14.13,13.854c-0.25-0.285-0.682-0.313-0.968-0.064c-0.285,0.25-0.314,0.682-0.064,0.968l4.796,5.482
		c0.249,0.283,0.683,0.313,0.968,0.064c0.283-0.251,0.313-0.683,0.064-0.965L14.13,13.854z M14.13,13.854"/>
</g>
</svg>
