<?xml version="1.0" encoding="utf-8"?>
<!-- Generator: Adobe Illustrator 16.0.0, SVG Export Plug-In . SVG Version: 6.00 Build 0)  -->
<!DOCTYPE svg PUBLIC "-//W3C//DTD SVG 1.1//EN" "http://www.w3.org/Graphics/SVG/1.1/DTD/svg11.dtd">
<svg version="1.1" id="图层_1" xmlns="http://www.w3.org/2000/svg" xmlns:xlink="http://www.w3.org/1999/xlink" x="0px" y="0px"
	 width="18px" height="18px" viewBox="0 0 18 18" enable-background="new 0 0 18 18" xml:space="preserve">
<path fill="#FFFFFF" d="M17.38,14.4l-5.435-5.51l2.57-2.604c0.428-0.435,0.428-1.144,0-1.579l-4.014-4.069
	c-0.208-0.211-0.484-0.327-0.777-0.327c-0.294,0-0.571,0.116-0.779,0.327L1.219,8.474c-0.208,0.211-0.322,0.49-0.322,0.789
	c0,0.297,0.114,0.578,0.322,0.79l4.013,4.068c0.208,0.211,0.484,0.328,0.778,0.328c0.294,0,0.57-0.117,0.778-0.328l2.569-2.604
	l5.433,5.51c0.208,0.211,0.483,0.326,0.778,0.326c0.293,0,0.57-0.115,0.777-0.326l1.033-1.047
	C17.809,15.543,17.809,14.836,17.38,14.4L17.38,14.4z M10.531,8.89l6.141,6.229c0.039,0.039,0.039,0.104,0,0.143l-1.033,1.047
	c-0.023,0.025-0.052,0.029-0.07,0.029s-0.047-0.004-0.069-0.029l-6.141-6.227l-3.277,3.322c-0.024,0.025-0.052,0.029-0.071,0.029
	c-0.019,0-0.047-0.007-0.071-0.029L1.926,9.335c-0.024-0.025-0.03-0.053-0.03-0.072s0.005-0.047,0.03-0.071l7.727-7.836
	c0.025-0.024,0.053-0.029,0.072-0.029c0.019,0,0.045,0.005,0.069,0.029l4.013,4.069c0.039,0.04,0.039,0.104,0,0.143L10.531,8.89
	L10.531,8.89z"/>
<path fill="#FFFFFF" d="M7.585,16.674H0.798c-0.276,0-0.5,0.229-0.5,0.506c0,0.281,0.224,0.51,0.5,0.51h6.787
	c0.276,0,0.5-0.229,0.5-0.51C8.085,16.9,7.861,16.674,7.585,16.674L7.585,16.674z"/>
</svg>
