<?xml version="1.0" encoding="utf-8"?>
<!-- Generator: Adobe Illustrator 16.0.0, SVG Export Plug-In . SVG Version: 6.00 Build 0)  -->
<!DOCTYPE svg PUBLIC "-//W3C//DTD SVG 1.1//EN" "http://www.w3.org/Graphics/SVG/1.1/DTD/svg11.dtd">
<svg version="1.1" id="图层_1" xmlns="http://www.w3.org/2000/svg" xmlns:xlink="http://www.w3.org/1999/xlink" x="0px" y="0px"
	 width="18px" height="18px" viewBox="0 0 18 18" enable-background="new 0 0 18 18" xml:space="preserve">
<path fill="#FFFFFF" d="M11.254,9.182c-1.907,0-3.459,1.552-3.459,3.46c0,1.906,1.552,3.461,3.459,3.461
	c1.909,0,3.461-1.555,3.461-3.461C14.715,10.732,13.163,9.182,11.254,9.182z M11.254,15.332c-1.482,0-2.689-1.206-2.689-2.689
	s1.207-2.689,2.689-2.689c1.484,0,2.691,1.206,2.691,2.689S12.738,15.332,11.254,15.332z"/>
<path fill="#FFFFFF" d="M11.309,10.618l-0.479,1.411H9.313l1.218,0.883l-0.482,1.429l1.235-0.884l1.221,0.884l-0.459-1.429
	l1.233-0.883h-1.518L11.309,10.618z"/>
<path fill="#FFFFFF" d="M9.07,4.306h5.422v0.647H9.07V4.306z"/>
<path fill="#FFFFFF" d="M7.613,6.491h6.879v0.648H7.613V6.491z"/>
<path fill="#FFFFFF" d="M14.986-0.002H3.638c-1.031,0-1.87,0.838-1.87,1.868v14.268c0,1.03,0.839,1.868,1.87,1.868h11.35
	c1.029,0,1.869-0.838,1.869-1.868V1.866C16.855,0.836,16.02-0.002,14.986-0.002z M2.757,1.866c0-0.484,0.392-0.878,0.88-0.878h2.47
	l-3.35,3.344V1.866z M15.867,16.134c0,0.484-0.393,0.88-0.881,0.88H3.638c-0.486,0-0.88-0.395-0.88-0.88V8.078l7.09-7.09h5.141
	c0.484,0,0.88,0.393,0.88,0.878L15.867,16.134L15.867,16.134z"/>
</svg>
