<?xml version="1.0" encoding="utf-8"?>
<!-- Generator: Adobe Illustrator 16.0.0, SVG Export Plug-In . SVG Version: 6.00 Build 0)  -->
<!DOCTYPE svg PUBLIC "-//W3C//DTD SVG 1.1//EN" "http://www.w3.org/Graphics/SVG/1.1/DTD/svg11.dtd">
<svg version="1.1" id="图层_1" xmlns="http://www.w3.org/2000/svg" xmlns:xlink="http://www.w3.org/1999/xlink" x="0px" y="0px"
	 width="18px" height="18px" viewBox="0 0 18 18" enable-background="new 0 0 18 18" xml:space="preserve">
<path fill="#FFFFFF" d="M2.657,14.678h5.677v0.812H2.657V14.678z M14.012,14.678v0.812h1.621V0.079H3.468v1.622h0.811V0.89h10.543
	v13.788H14.012z M2.657,12.244h8.92v0.811h-8.92V12.244z M1.035,2.682v15.07c0,0.092,0.074,0.17,0.167,0.17h11.83
	c0.094,0,0.169-0.076,0.169-0.17V2.682c0-0.094-0.075-0.169-0.168-0.169H1.202C1.109,2.512,1.035,2.587,1.035,2.682z M1.846,3.323
	h10.542v13.788H1.846V3.323z M2.657,4.944h8.92v0.812h-8.92V4.944L2.657,4.944z M2.657,7.377h8.92v0.812h-8.92V7.377z M2.657,9.811
	h8.92v0.812h-8.92V9.811z"/>
</svg>
