<?xml version="1.0" encoding="utf-8"?>
<!-- Generator: Adobe Illustrator 16.0.0, SVG Export Plug-In . SVG Version: 6.00 Build 0)  -->
<!DOCTYPE svg PUBLIC "-//W3C//DTD SVG 1.1//EN" "http://www.w3.org/Graphics/SVG/1.1/DTD/svg11.dtd">
<svg version="1.1" id="图层_1" xmlns="http://www.w3.org/2000/svg" xmlns:xlink="http://www.w3.org/1999/xlink" x="0px" y="0px"
	 width="24px" height="24px" viewBox="0 0 24 24" enable-background="new 0 0 24 24" xml:space="preserve">
<path fill="#2C972F" d="M11.999,23.912c-6.57,0-11.911-5.347-11.911-11.913c0-6.569,5.341-11.911,11.911-11.911
	c6.572,0,11.914,5.342,11.914,11.911C23.912,18.565,18.57,23.912,11.999,23.912z M11.999,1.509c-5.782,0-10.488,4.708-10.488,10.49
	c0.008,5.789,4.698,10.48,10.488,10.487c5.782,0,10.491-4.703,10.491-10.487C22.489,6.217,17.78,1.509,11.999,1.509z"/>
<path fill="#2C972F" d="M15.081,5.233c1.253,0.073,2.385,0.694,2.966,2.071c0.595,1.401,0.332,2.701-0.695,3.813
	c-0.727,0.787-1.511,1.524-2.273,2.278c-0.329,0.327-0.855,0.337-1.145,0.034c-0.288-0.305-0.256-0.722,0.092-1.074
	c0.749-0.75,1.509-1.493,2.248-2.252c1.119-1.143,0.624-2.961-0.922-3.37c-0.64-0.168-1.255-0.05-1.744,0.404
	c-0.789,0.729-1.526,1.509-2.308,2.239c-0.166,0.156-0.439,0.289-0.654,0.277c-0.575-0.038-0.866-0.735-0.467-1.148
	c0.849-0.897,1.731-1.761,2.646-2.591C13.382,5.412,14.114,5.237,15.081,5.233z M4.83,15.288c-0.011-0.929,0.355-1.821,1.013-2.475
	c0.744-0.757,1.499-1.502,2.253-2.248c0.357-0.357,0.797-0.383,1.101-0.078c0.315,0.316,0.283,0.717-0.09,1.093
	c-0.717,0.719-1.445,1.43-2.156,2.157c-0.877,0.898-0.915,2.108-0.106,2.925c0.775,0.779,2.057,0.783,2.866-0.007
	c0.735-0.717,1.452-1.455,2.186-2.174c0.442-0.429,1.11-0.275,1.229,0.304c0.032,0.242-0.035,0.487-0.188,0.677
	c-0.801,0.843-1.595,1.686-2.464,2.456c-1.064,0.933-2.311,1.091-3.61,0.526C5.619,17.89,4.82,16.651,4.83,15.288z M14.563,9.809
	c-0.044,0.088-0.097,0.278-0.218,0.399c-1.468,1.487-2.937,2.965-4.413,4.438c-0.273,0.289-0.73,0.303-1.02,0.03
	c-0.013-0.013-0.024-0.024-0.036-0.036c-0.299-0.301-0.29-0.713,0.042-1.048c1.449-1.454,2.904-2.9,4.36-4.348
	c0.232-0.237,0.512-0.338,0.835-0.199C14.397,9.171,14.547,9.401,14.563,9.809z"/>
</svg>
