<?xml version="1.0" encoding="utf-8"?>
<!-- Generator: Adobe Illustrator 16.0.0, SVG Export Plug-In . SVG Version: 6.00 Build 0)  -->
<!DOCTYPE svg PUBLIC "-//W3C//DTD SVG 1.1//EN" "http://www.w3.org/Graphics/SVG/1.1/DTD/svg11.dtd">
<svg version="1.1" id="图层_1" xmlns="http://www.w3.org/2000/svg" xmlns:xlink="http://www.w3.org/1999/xlink" x="0px" y="0px"
	 width="18px" height="18px" viewBox="0 0 18 18" enable-background="new 0 0 18 18" xml:space="preserve">
<path fill="#FFFFFF" d="M0.84,13.293c-0.049,0-0.098-0.021-0.123-0.061c-0.024-0.035-0.037-0.101-0.012-0.137
	c0.197-0.43,0.221-0.85,0.086-1.293c-0.012-0.049,0-0.086,0.025-0.135c0.024-0.036,0.074-0.061,0.123-0.061l7.347-0.015
	c0.222,0,0.431,0.089,0.591,0.247c0.16,0.159,0.247,0.37,0.247,0.592c0,0.221-0.087,0.432-0.247,0.59
	c-0.16,0.16-0.369,0.248-0.591,0.248L0.84,13.293z M1.123,11.902c0.074,0.371,0.05,0.74-0.074,1.097l7.237-0.013
	c0.148,0,0.283-0.063,0.394-0.16c0.098-0.098,0.16-0.246,0.16-0.393c0-0.31-0.246-0.558-0.554-0.558L1.123,11.902z"/>
<path fill="#FFFFFF" d="M0.237,13.982c-0.037,0-0.074-0.014-0.099-0.035c-0.025-0.026-0.037-0.063-0.037-0.098v-0.692
	c0-0.084,0.061-0.146,0.147-0.146h0.689c0.086,0,0.148,0.063,0.148,0.146c0,0.087-0.062,0.149-0.148,0.149H0.384v0.404L8.286,13.7
	c0.185,0,0.309-0.037,0.394-0.124c0.124-0.124,0.148-0.344,0.16-0.614v-0.333v-0.184c0-0.088,0.061-0.149,0.148-0.149
	c0.086,0,0.148,0.063,0.148,0.149v0.517c0.012,0.271,0.036,0.49,0.16,0.614C9.381,13.663,9.504,13.7,9.689,13.7h2.646
	c0.087,0,0.147,0.061,0.147,0.149c0,0.086-0.062,0.146-0.147,0.146H9.689c-0.271,0-0.456-0.062-0.604-0.209
	c-0.038-0.037-0.075-0.075-0.099-0.124c-0.025,0.049-0.062,0.087-0.099,0.124c-0.136,0.134-0.333,0.209-0.604,0.209L0.237,13.982z
	 M13.629,13.971c-0.087,0-0.148-0.062-0.148-0.146c0-0.088,0.063-0.148,0.148-0.148h3.949v-0.404h-0.555
	c-0.084,0-0.146-0.063-0.146-0.147c0-0.087,0.063-0.147,0.146-0.147h0.689c0.086,0,0.146,0.062,0.146,0.147v0.688
	c0,0.039-0.012,0.073-0.035,0.099c-0.025,0.026-0.063,0.038-0.1,0.038L13.629,13.971z"/>
<path fill="#FFFFFF" d="M8.963,12.592c-0.086,0-0.147-0.061-0.147-0.146L8.803,1.331c0-0.147-0.062-0.283-0.161-0.394
	c-0.098-0.099-0.245-0.16-0.393-0.16h-6.72L1.074,11.755c0,0.087-0.074,0.147-0.149,0.138c-0.085,0-0.147-0.072-0.135-0.147
	L1.246,0.63c0-0.074,0.062-0.136,0.147-0.136H8.25c0.221,0,0.43,0.086,0.59,0.246C9,0.9,9.087,1.109,9.087,1.331l0.012,11.114
	C9.111,12.531,9.037,12.592,8.963,12.592z"/>
<path fill="#FFFFFF" d="M8.963,12.592c-0.086,0-0.147-0.061-0.147-0.146L8.803,1.331c0-0.222,0.086-0.431,0.246-0.591
	c0.161-0.16,0.369-0.246,0.59-0.246h6.854c0.075,0,0.149,0.062,0.149,0.136l0.517,11.114c0,0.084-0.062,0.148-0.138,0.148
	c-0.071,0-0.146-0.064-0.146-0.139L16.372,0.777H9.65c-0.146,0-0.281,0.062-0.392,0.16c-0.098,0.099-0.16,0.247-0.16,0.394
	l0.013,11.114C9.111,12.531,9.037,12.592,8.963,12.592L8.963,12.592z"/>
<path fill="#FFFFFF" d="M13.59,13.281c-0.085,0-0.146-0.063-0.146-0.148s0.063-0.146,0.146-0.146h3.409
	c-0.134-0.367-0.185-0.738-0.146-1.094h-3.312c-0.086,0-0.147-0.063-0.147-0.147c0-0.087,0.063-0.149,0.147-0.149h3.481
	c0.049,0,0.086,0.024,0.111,0.051c0.024,0.039,0.036,0.072,0.036,0.123c-0.073,0.431-0.012,0.875,0.185,1.306
	c0.024,0.049,0.014,0.098-0.012,0.135c-0.025,0.036-0.074,0.063-0.123,0.063L13.59,13.281z M9.678,13.281
	c-0.468,0-0.838-0.383-0.838-0.836c0-0.221,0.086-0.434,0.247-0.592c0.159-0.16,0.368-0.246,0.591-0.246h2.731
	c0.087,0,0.147,0.062,0.147,0.146c0,0.087-0.062,0.148-0.147,0.148H9.678c-0.148,0-0.284,0.061-0.394,0.16
	c-0.098,0.098-0.16,0.246-0.16,0.393c0,0.307,0.246,0.555,0.554,0.555h2.67c0.086,0,0.148,0.063,0.148,0.146
	c0,0.087-0.063,0.15-0.148,0.15L9.678,13.281z M0.237,13.293c-0.086,0-0.148-0.072-0.148-0.145L0.569,2.02
	c0-0.074,0.062-0.136,0.148-0.136h0.615c0.086,0,0.148,0.062,0.148,0.148c0,0.086-0.062,0.148-0.148,0.148h-0.48l-0.48,10.977
	C0.384,13.232,0.311,13.293,0.237,13.293z M17.714,13.281c-0.073,0-0.147-0.063-0.147-0.133l-0.492-10.98H16.57
	c-0.088,0-0.149-0.062-0.149-0.148s0.063-0.147,0.149-0.147h0.652c0.072,0,0.146,0.062,0.146,0.135l0.505,11.114
	C17.859,13.208,17.8,13.271,17.714,13.281C17.727,13.281,17.714,13.281,17.714,13.281z"/>
<path fill="#FFFFFF" d="M15.104,9.294c-0.309,0-0.565-0.246-0.565-0.566V6.55c0-0.307,0.247-0.566,0.565-0.566
	c0.31,0,0.565,0.246,0.565,0.566v2.19C15.658,9.048,15.413,9.294,15.104,9.294z M15.104,6.278c-0.146,0-0.271,0.123-0.271,0.271
	v2.19c0,0.146,0.123,0.271,0.271,0.271c0.148,0,0.271-0.123,0.271-0.271V6.55C15.375,6.401,15.253,6.278,15.104,6.278z"/>
<path fill="#FFFFFF" d="M13.456,16.998h-0.974c-0.11,0-0.223-0.049-0.297-0.122c-0.074-0.087-0.121-0.196-0.108-0.31l0.307-7.813
	c0-0.074,0.063-0.136,0.147-0.136h0.9c0.072,0,0.146,0.062,0.146,0.136l0.308,7.813c0,0.111-0.037,0.223-0.109,0.31
	C13.678,16.949,13.566,16.998,13.456,16.998z M12.668,8.899l-0.296,7.667c0,0.039,0.012,0.062,0.037,0.088
	c0.024,0.023,0.049,0.037,0.087,0.037h0.972c0.037,0,0.062-0.014,0.085-0.037c0.025-0.026,0.037-0.063,0.037-0.088l-0.295-7.667
	H12.668L12.668,8.899z"/>
<path fill="#FFFFFF" d="M13.678,15.645h-1.416c-0.087,0-0.148-0.063-0.148-0.147s0.063-0.146,0.148-0.146h1.402
	c0.087,0,0.146,0.062,0.146,0.146C13.822,15.582,13.751,15.645,13.678,15.645z"/>
<path fill="#FFFFFF" d="M11.695,8.384c-0.088,0-0.147-0.063-0.147-0.148s0.062-0.147,0.147-0.147h2.548
	c0.087,0,0.147,0.062,0.147,0.147s-0.062,0.148-0.147,0.148H11.695z"/>
<path fill="#FFFFFF" d="M2.292,2.205H2.268c-0.086,0-0.148-0.062-0.148-0.148s0.062-0.148,0.148-0.148h0.024
	c0.086,0,0.148,0.062,0.148,0.148C2.44,2.131,2.378,2.205,2.292,2.205z M7.646,2.205H7.584c-0.086,0-0.147-0.062-0.147-0.148
	s0.062-0.148,0.147-0.148h0.062c0.086,0,0.148,0.062,0.148,0.148C7.794,2.131,7.72,2.205,7.646,2.205z M7.228,2.205H7.166
	c-0.086,0-0.148-0.062-0.148-0.148S7.08,1.909,7.166,1.909h0.062c0.086,0,0.147,0.062,0.147,0.148
	C7.375,2.131,7.314,2.205,7.228,2.205z M6.821,2.205H6.76c-0.086,0-0.148-0.062-0.148-0.148S6.674,1.909,6.76,1.909h0.062
	c0.086,0,0.147,0.062,0.147,0.148C6.969,2.131,6.896,2.205,6.821,2.205z M6.403,2.205H6.354c-0.086,0-0.148-0.062-0.148-0.148
	s0.062-0.148,0.148-0.148h0.062c0.086,0,0.147,0.062,0.147,0.148C6.551,2.131,6.49,2.205,6.403,2.205z M5.997,2.205H5.935
	c-0.086,0-0.147-0.062-0.147-0.148S5.85,1.909,5.935,1.909h0.062c0.087,0,0.148,0.062,0.148,0.148
	C6.145,2.131,6.083,2.205,5.997,2.205z M5.59,2.205H5.529c-0.086,0-0.147-0.062-0.147-0.148s0.062-0.148,0.147-0.148H5.59
	c0.087,0,0.148,0.062,0.148,0.148C5.726,2.131,5.665,2.205,5.59,2.205z M5.172,2.205H5.111c-0.086,0-0.148-0.062-0.148-0.148
	s0.062-0.148,0.148-0.148h0.062c0.085,0,0.147,0.062,0.147,0.148C5.32,2.131,5.258,2.205,5.172,2.205z M4.766,2.205H4.705
	c-0.086,0-0.147-0.062-0.147-0.148s0.061-0.148,0.147-0.148h0.062c0.085,0,0.147,0.062,0.147,0.148
	C4.914,2.131,4.84,2.205,4.766,2.205z M4.348,2.205H4.286c-0.086,0-0.147-0.062-0.147-0.148S4.2,1.909,4.286,1.909h0.062
	c0.086,0,0.148,0.062,0.148,0.148C4.496,2.131,4.434,2.205,4.348,2.205z M3.942,2.205H3.88c-0.086,0-0.147-0.062-0.147-0.148
	S3.794,1.909,3.88,1.909h0.062c0.085,0,0.147,0.062,0.147,0.148C4.089,2.131,4.015,2.205,3.942,2.205z M3.523,2.205H3.461
	c-0.086,0-0.147-0.062-0.147-0.148s0.061-0.148,0.147-0.148h0.062c0.086,0,0.147,0.062,0.147,0.148
	C3.67,2.131,3.609,2.205,3.523,2.205z M3.117,2.205H3.056c-0.086,0-0.148-0.062-0.148-0.148S2.97,1.909,3.056,1.909h0.061
	c0.086,0,0.148,0.062,0.148,0.148C3.265,2.131,3.191,2.205,3.117,2.205z M2.698,2.205H2.637c-0.086,0-0.148-0.062-0.148-0.148
	s0.062-0.148,0.148-0.148h0.061c0.086,0,0.148,0.062,0.148,0.148C2.846,2.131,2.785,2.205,2.698,2.205z M8.027,2.205H8.002
	c-0.085,0-0.147-0.062-0.147-0.148s0.062-0.148,0.147-0.148h0.025c0.086,0,0.148,0.062,0.148,0.148
	C8.175,2.131,8.114,2.205,8.027,2.205z M2.255,3.128H2.23c-0.086,0-0.148-0.062-0.148-0.148c0-0.085,0.062-0.147,0.148-0.147h0.024
	c0.086,0,0.148,0.062,0.148,0.147C2.403,3.054,2.329,3.128,2.255,3.128z M7.646,3.128H7.584c-0.086,0-0.147-0.062-0.147-0.148
	c0-0.085,0.062-0.147,0.147-0.147h0.062c0.086,0,0.148,0.062,0.148,0.147C7.782,3.054,7.72,3.128,7.646,3.128z M7.228,3.128H7.166
	c-0.086,0-0.148-0.062-0.148-0.148c0-0.085,0.062-0.147,0.148-0.147h0.062c0.086,0,0.147,0.062,0.147,0.147
	C7.375,3.054,7.302,3.128,7.228,3.128z M6.809,3.128H6.748C6.662,3.128,6.6,3.066,6.6,2.98c0-0.085,0.062-0.147,0.148-0.147h0.061
	c0.087,0,0.148,0.062,0.148,0.147C6.957,3.054,6.896,3.128,6.809,3.128z M6.403,3.128H6.341c-0.086,0-0.148-0.062-0.148-0.148
	c0-0.085,0.062-0.147,0.148-0.147h0.062c0.087,0,0.148,0.062,0.148,0.147C6.538,3.054,6.477,3.128,6.403,3.128z M5.984,3.128H5.923
	c-0.086,0-0.147-0.062-0.147-0.148c0-0.085,0.062-0.147,0.147-0.147h0.062c0.086,0,0.147,0.062,0.147,0.147
	C6.132,3.054,6.059,3.128,5.984,3.128z M5.566,3.128H5.504c-0.086,0-0.147-0.062-0.147-0.148c0-0.085,0.062-0.147,0.147-0.147h0.062
	c0.086,0,0.148,0.062,0.148,0.147C5.714,3.054,5.652,3.128,5.566,3.128z M5.16,3.128H5.099c-0.086,0-0.148-0.062-0.148-0.148
	c0-0.085,0.062-0.147,0.148-0.147H5.16c0.086,0,0.147,0.062,0.147,0.147C5.295,3.054,5.233,3.128,5.16,3.128z M4.742,3.128H4.68
	c-0.086,0-0.147-0.062-0.147-0.148c0-0.085,0.061-0.147,0.147-0.147h0.062c0.085,0,0.147,0.062,0.147,0.147
	C4.889,3.054,4.815,3.128,4.742,3.128z M4.323,3.128H4.261c-0.086,0-0.147-0.062-0.147-0.148c0-0.085,0.061-0.147,0.147-0.147h0.062
	c0.086,0,0.147,0.062,0.147,0.147C4.471,3.054,4.41,3.128,4.323,3.128L4.323,3.128z M3.917,3.128H3.855
	c-0.086,0-0.147-0.062-0.147-0.148c0-0.085,0.061-0.147,0.147-0.147h0.062c0.086,0,0.147,0.062,0.147,0.147
	C4.052,3.054,3.991,3.128,3.917,3.128z M3.498,3.128H3.437c-0.086,0-0.148-0.062-0.148-0.148c0-0.085,0.062-0.147,0.148-0.147h0.061
	c0.087,0,0.148,0.062,0.148,0.147C3.646,3.054,3.572,3.128,3.498,3.128z M3.08,3.128H3.031c-0.086,0-0.148-0.062-0.148-0.148
	c0-0.085,0.062-0.147,0.148-0.147h0.061c0.087,0,0.148,0.062,0.148,0.147C3.228,3.054,3.167,3.128,3.08,3.128z M2.674,3.128H2.612
	c-0.086,0-0.148-0.062-0.148-0.148c0-0.085,0.062-0.147,0.148-0.147h0.062c0.086,0,0.147,0.062,0.147,0.147
	C2.809,3.054,2.748,3.128,2.674,3.128z M8.027,3.128H8.002c-0.085,0-0.147-0.062-0.147-0.148c0-0.085,0.062-0.147,0.147-0.147h0.025
	c0.086,0,0.148,0.062,0.148,0.147C8.175,3.054,8.114,3.128,8.027,3.128z M2.219,4.051H2.194c-0.086,0-0.148-0.062-0.148-0.147
	c0-0.086,0.062-0.148,0.148-0.148h0.025c0.085,0,0.147,0.062,0.147,0.148C2.366,3.989,2.292,4.051,2.219,4.051z M7.634,4.051h-0.05
	c-0.086,0-0.147-0.062-0.147-0.147c0-0.086,0.062-0.148,0.147-0.148h0.062c0.086,0,0.148,0.062,0.148,0.148
	C7.782,3.989,7.72,4.051,7.634,4.051z M7.228,4.051H7.166c-0.086,0-0.148-0.062-0.148-0.147c0-0.086,0.062-0.148,0.148-0.148h0.062
	c0.086,0,0.147,0.062,0.147,0.148C7.363,3.989,7.302,4.051,7.228,4.051z M6.809,4.051H6.748C6.662,4.051,6.6,3.989,6.6,3.903
	c0-0.086,0.062-0.148,0.148-0.148h0.061c0.087,0,0.148,0.062,0.148,0.148C6.944,3.989,6.883,4.051,6.809,4.051z M6.391,4.051H6.329
	c-0.086,0-0.148-0.062-0.148-0.147c0-0.086,0.062-0.148,0.148-0.148h0.062c0.086,0,0.147,0.062,0.147,0.148
	C6.538,3.989,6.465,4.051,6.391,4.051z M5.972,4.051H5.911c-0.086,0-0.148-0.062-0.148-0.147c0-0.086,0.062-0.148,0.148-0.148h0.061
	c0.086,0,0.147,0.062,0.147,0.148C6.12,3.989,6.046,4.051,5.972,4.051z M5.554,4.051H5.492c-0.086,0-0.147-0.062-0.147-0.147
	c0-0.086,0.061-0.148,0.147-0.148h0.062c0.085,0,0.148,0.062,0.148,0.148C5.702,3.989,5.627,4.051,5.554,4.051L5.554,4.051z
	 M5.136,4.051H5.075c-0.087,0-0.148-0.062-0.148-0.147c0-0.086,0.061-0.148,0.148-0.148h0.061c0.086,0,0.147,0.062,0.147,0.148
	C5.283,3.989,5.222,4.051,5.136,4.051z M4.717,4.051H4.655c-0.086,0-0.147-0.062-0.147-0.147c0-0.086,0.061-0.148,0.147-0.148h0.062
	c0.086,0,0.147,0.062,0.147,0.148C4.864,3.989,4.803,4.051,4.717,4.051z M4.298,4.051H4.236c-0.085,0-0.147-0.062-0.147-0.147
	c0-0.086,0.062-0.148,0.147-0.148h0.062c0.087,0,0.147,0.062,0.147,0.148C4.446,3.989,4.385,4.051,4.298,4.051z M3.88,4.051H3.818
	c-0.086,0-0.148-0.062-0.148-0.147c0-0.086,0.062-0.148,0.148-0.148H3.88c0.086,0,0.147,0.062,0.147,0.148
	C4.027,3.989,3.966,4.051,3.88,4.051z M3.461,4.051H3.4c-0.085,0-0.147-0.062-0.147-0.147c0-0.086,0.062-0.148,0.147-0.148h0.062
	c0.086,0,0.147,0.062,0.147,0.148C3.609,3.989,3.547,4.051,3.461,4.051L3.461,4.051z M3.056,4.051H2.994
	c-0.086,0-0.147-0.062-0.147-0.147c0-0.086,0.062-0.148,0.147-0.148h0.062c0.086,0,0.147,0.062,0.147,0.148
	C3.191,3.989,3.129,4.051,3.056,4.051z M2.637,4.051H2.576c-0.087,0-0.148-0.062-0.148-0.147c0-0.086,0.061-0.148,0.148-0.148h0.062
	c0.085,0,0.147,0.062,0.147,0.148C2.772,3.989,2.71,4.051,2.637,4.051z M8.027,4.051H8.002c-0.085,0-0.147-0.062-0.147-0.147
	c0-0.086,0.062-0.148,0.147-0.148h0.025c0.086,0,0.148,0.062,0.148,0.148C8.175,3.989,8.114,4.051,8.027,4.051z M2.182,4.975H2.157
	c-0.087,0-0.148-0.062-0.148-0.148c0-0.087,0.061-0.148,0.148-0.148h0.024c0.086,0,0.147,0.062,0.147,0.148
	C2.316,4.913,2.255,4.975,2.182,4.975z M7.634,4.975H7.572c-0.086,0-0.147-0.062-0.147-0.148c0-0.087,0.062-0.148,0.147-0.148h0.062
	c0.086,0,0.148,0.062,0.148,0.148S7.72,4.975,7.634,4.975z M7.215,4.975H7.154c-0.086,0-0.148-0.062-0.148-0.148
	c0-0.087,0.062-0.148,0.148-0.148h0.061c0.087,0,0.148,0.062,0.148,0.148S7.302,4.975,7.215,4.975z M6.796,4.975H6.735
	c-0.085,0-0.147-0.062-0.147-0.148c0-0.087,0.062-0.148,0.147-0.148h0.062c0.086,0,0.148,0.062,0.148,0.148
	C6.944,4.913,6.883,4.975,6.796,4.975z M6.378,4.975H6.317c-0.086,0-0.148-0.062-0.148-0.148c0-0.087,0.062-0.148,0.148-0.148h0.062
	c0.086,0,0.147,0.062,0.147,0.148S6.453,4.975,6.378,4.975z M5.96,4.975H5.898c-0.086,0-0.147-0.062-0.147-0.148
	c0-0.087,0.062-0.148,0.147-0.148H5.96c0.086,0,0.147,0.062,0.147,0.148S6.034,4.975,5.96,4.975z M5.542,4.975H5.48
	c-0.087,0-0.148-0.062-0.148-0.148c0-0.087,0.061-0.148,0.148-0.148h0.061c0.086,0,0.148,0.062,0.148,0.148
	C5.677,4.913,5.615,4.975,5.542,4.975z M5.111,4.975H5.049c-0.086,0-0.147-0.062-0.147-0.148c0-0.087,0.062-0.148,0.147-0.148h0.062
	c0.086,0,0.147,0.062,0.147,0.148S5.197,4.975,5.111,4.975z M4.692,4.975H4.63c-0.085,0-0.147-0.062-0.147-0.148
	c0-0.087,0.062-0.148,0.147-0.148h0.062c0.086,0,0.147,0.062,0.147,0.148C4.84,4.913,4.778,4.975,4.692,4.975L4.692,4.975z
	 M4.273,4.975H4.212c-0.085,0-0.147-0.062-0.147-0.148c0-0.087,0.062-0.148,0.147-0.148h0.062c0.086,0,0.148,0.062,0.148,0.148
	C4.421,4.913,4.36,4.975,4.273,4.975z M3.855,4.975H3.794c-0.086,0-0.148-0.062-0.148-0.148c0-0.087,0.062-0.148,0.148-0.148h0.062
	c0.086,0,0.148,0.062,0.148,0.148C4.003,4.913,3.942,4.975,3.855,4.975z M3.437,4.975H3.375c-0.086,0-0.148-0.062-0.148-0.148
	c0-0.087,0.062-0.148,0.148-0.148h0.062c0.086,0,0.147,0.062,0.147,0.148S3.511,4.975,3.437,4.975z M3.018,4.975H2.957
	c-0.086,0-0.147-0.062-0.147-0.148c0-0.087,0.062-0.148,0.147-0.148h0.062c0.087,0,0.148,0.062,0.148,0.148S3.092,4.975,3.018,4.975
	z M2.6,4.975H2.539c-0.086,0-0.147-0.062-0.147-0.148c0-0.087,0.061-0.148,0.147-0.148H2.6c0.085,0,0.147,0.062,0.147,0.148
	C2.748,4.913,2.674,4.975,2.6,4.975L2.6,4.975z M8.027,4.975H8.002c-0.085,0-0.147-0.062-0.147-0.148
	c0-0.087,0.062-0.148,0.147-0.148h0.025c0.086,0,0.148,0.062,0.148,0.148S8.114,4.975,8.027,4.975z"/>
<path fill="#FFFFFF" d="M2.132,5.896H2.107c-0.086,0-0.147-0.061-0.147-0.147s0.061-0.148,0.147-0.148h0.024
	c0.087,0,0.147,0.062,0.147,0.148S2.219,5.896,2.132,5.896z M7.634,5.896H7.572c-0.086,0-0.147-0.061-0.147-0.147
	s0.062-0.148,0.147-0.148h0.062c0.086,0,0.148,0.062,0.148,0.148S7.72,5.896,7.634,5.896z M7.215,5.896H7.154
	c-0.086,0-0.148-0.061-0.148-0.147s0.062-0.148,0.148-0.148h0.061c0.087,0,0.148,0.062,0.148,0.148S7.289,5.896,7.215,5.896z
	 M6.784,5.896H6.723c-0.086,0-0.148-0.061-0.148-0.147s0.062-0.148,0.148-0.148h0.061c0.086,0,0.147,0.062,0.147,0.148
	S6.871,5.896,6.784,5.896z M6.366,5.896H6.304c-0.086,0-0.147-0.061-0.147-0.147s0.062-0.148,0.147-0.148h0.062
	c0.086,0,0.148,0.062,0.148,0.148S6.453,5.896,6.366,5.896z M5.948,5.896H5.887c-0.087,0-0.148-0.061-0.148-0.147
	S5.8,5.602,5.887,5.602h0.061c0.086,0,0.147,0.062,0.147,0.148C6.083,5.835,6.021,5.896,5.948,5.896z M5.517,5.896H5.455
	c-0.086,0-0.147-0.061-0.147-0.147S5.37,5.601,5.455,5.601h0.062c0.086,0,0.148,0.062,0.148,0.148S5.603,5.896,5.517,5.896z
	 M5.099,5.896H5.037c-0.086,0-0.147-0.061-0.147-0.147s0.062-0.148,0.147-0.148h0.062c0.086,0,0.147,0.062,0.147,0.148
	S5.172,5.896,5.099,5.896z M4.68,5.896H4.618c-0.085,0-0.147-0.061-0.147-0.147s0.062-0.148,0.147-0.148H4.68
	c0.086,0,0.147,0.062,0.147,0.148C4.815,5.835,4.754,5.896,4.68,5.896z M4.249,5.896H4.188c-0.086,0-0.148-0.061-0.148-0.147
	s0.062-0.148,0.148-0.148H4.25c0.086,0,0.148,0.062,0.148,0.148S4.335,5.896,4.249,5.896z M3.831,5.896H3.769
	c-0.086,0-0.148-0.061-0.148-0.147s0.062-0.148,0.148-0.148h0.062c0.087,0,0.148,0.062,0.148,0.148S3.905,5.896,3.831,5.896
	L3.831,5.896z M3.4,5.896H3.339c-0.086,0-0.148-0.061-0.148-0.147s0.062-0.148,0.148-0.148H3.4c0.086,0,0.147,0.062,0.147,0.148
	S3.486,5.896,3.4,5.896z M2.981,5.896H2.919c-0.086,0-0.147-0.061-0.147-0.147s0.061-0.148,0.147-0.148h0.062
	c0.086,0,0.148,0.062,0.148,0.148S3.068,5.896,2.981,5.896z M2.563,5.896H2.502c-0.086,0-0.148-0.061-0.148-0.147
	s0.062-0.148,0.148-0.148h0.062c0.086,0,0.147,0.062,0.147,0.148S2.637,5.896,2.563,5.896z M8.027,5.896H8.002
	c-0.085,0-0.147-0.061-0.147-0.147s0.062-0.148,0.147-0.148h0.025c0.086,0,0.148,0.062,0.148,0.148S8.114,5.896,8.027,5.896z"/>
<path fill="#FFFFFF" d="M2.095,6.82H2.07c-0.085,0-0.147-0.062-0.147-0.147S1.985,6.524,2.07,6.524h0.025
	c0.086,0,0.148,0.063,0.148,0.148S2.182,6.82,2.095,6.82z M7.634,6.82H7.572c-0.086,0-0.147-0.062-0.147-0.147
	s0.062-0.148,0.147-0.148h0.062c0.086,0,0.148,0.063,0.148,0.148S7.708,6.82,7.634,6.82z M7.203,6.82H7.141
	c-0.085,0-0.147-0.062-0.147-0.147s0.062-0.148,0.147-0.148h0.062c0.086,0,0.148,0.063,0.148,0.148S7.289,6.82,7.203,6.82z
	 M6.784,6.82H6.723c-0.086,0-0.148-0.062-0.148-0.147s0.062-0.148,0.148-0.148h0.061c0.086,0,0.147,0.063,0.147,0.148
	S6.858,6.82,6.784,6.82z M6.354,6.82H6.292c-0.087,0-0.148-0.062-0.148-0.147s0.061-0.148,0.148-0.148h0.062
	c0.086,0,0.147,0.063,0.147,0.148S6.44,6.82,6.354,6.82z M5.935,6.82H5.874c-0.086,0-0.148-0.062-0.148-0.147
	s0.062-0.148,0.148-0.148h0.061c0.086,0,0.148,0.063,0.148,0.148C6.07,6.759,6.009,6.82,5.935,6.82z M5.504,6.82H5.443
	c-0.086,0-0.147-0.062-0.147-0.147s0.062-0.148,0.147-0.148h0.062c0.086,0,0.147,0.063,0.147,0.148S5.578,6.82,5.504,6.82z
	 M5.075,6.82H5.012c-0.086,0-0.148-0.062-0.148-0.147s0.062-0.148,0.148-0.148h0.063c0.085,0,0.147,0.063,0.147,0.148
	S5.16,6.82,5.075,6.82z M4.655,6.82H4.594c-0.086,0-0.148-0.062-0.148-0.147s0.062-0.148,0.148-0.148h0.061
	c0.087,0,0.148,0.063,0.148,0.148S4.729,6.82,4.655,6.82z M4.224,6.82H4.163c-0.086,0-0.147-0.062-0.147-0.147
	s0.062-0.148,0.147-0.148h0.062c0.086,0,0.148,0.063,0.148,0.148S4.311,6.82,4.224,6.82z M3.806,6.82H3.745
	c-0.087,0-0.148-0.062-0.148-0.147s0.062-0.148,0.148-0.148h0.061c0.086,0,0.147,0.063,0.147,0.148
	C3.942,6.759,3.88,6.82,3.806,6.82z M3.375,6.82H3.314c-0.087,0-0.148-0.062-0.148-0.147s0.061-0.148,0.148-0.148h0.061
	c0.086,0,0.147,0.063,0.147,0.148S3.461,6.82,3.375,6.82z M2.944,6.82H2.883c-0.086,0-0.147-0.062-0.147-0.147
	s0.062-0.148,0.147-0.148h0.062c0.086,0,0.147,0.063,0.147,0.148S3.031,6.82,2.944,6.82z M2.526,6.82H2.464
	c-0.086,0-0.148-0.062-0.148-0.147s0.062-0.148,0.148-0.148h0.062c0.086,0,0.148,0.063,0.148,0.148S2.6,6.82,2.526,6.82z
	 M8.027,6.82H8.002c-0.085,0-0.147-0.062-0.147-0.147s0.062-0.148,0.147-0.148h0.025c0.086,0,0.148,0.063,0.148,0.148
	S8.114,6.82,8.027,6.82z"/>
<path fill="#FFFFFF" d="M2.058,7.743H2.034c-0.086,0-0.148-0.062-0.148-0.146c0-0.088,0.062-0.148,0.148-0.148h0.024
	c0.086,0,0.148,0.061,0.148,0.148C2.206,7.682,2.145,7.743,2.058,7.743z M7.634,7.743H7.572c-0.086,0-0.147-0.062-0.147-0.146
	c0-0.088,0.062-0.148,0.147-0.148h0.062c0.086,0,0.148,0.061,0.148,0.148C7.77,7.682,7.708,7.743,7.634,7.743z M7.203,7.743H7.141
	c-0.085,0-0.147-0.062-0.147-0.146c0-0.088,0.062-0.148,0.147-0.148h0.062c0.086,0,0.148,0.061,0.148,0.148
	C7.351,7.682,7.277,7.743,7.203,7.743z M6.772,7.743H6.711c-0.086,0-0.148-0.062-0.148-0.146c0-0.088,0.062-0.148,0.148-0.148h0.061
	c0.086,0,0.148,0.061,0.148,0.148C6.92,7.682,6.858,7.743,6.772,7.743z M6.341,7.743H6.28c-0.087,0-0.148-0.062-0.148-0.146
	c0-0.088,0.062-0.148,0.148-0.148h0.061c0.086,0,0.148,0.061,0.148,0.148C6.49,7.682,6.428,7.743,6.341,7.743z M5.911,7.743H5.862
	c-0.086,0-0.148-0.062-0.148-0.146c0-0.088,0.062-0.148,0.148-0.148h0.061c0.086,0,0.147,0.061,0.147,0.148
	C6.059,7.682,5.997,7.743,5.911,7.743z M5.492,7.743H5.43c-0.085,0-0.147-0.062-0.147-0.146c0-0.088,0.062-0.148,0.147-0.148h0.062
	c0.086,0,0.147,0.061,0.147,0.148C5.627,7.682,5.566,7.743,5.492,7.743z M5.061,7.743H5c-0.086,0-0.148-0.062-0.148-0.146
	c0-0.088,0.062-0.148,0.148-0.148h0.062c0.087,0,0.148,0.061,0.148,0.148C5.209,7.682,5.136,7.743,5.061,7.743z M4.63,7.743H4.569
	c-0.086,0-0.147-0.062-0.147-0.146c0-0.088,0.062-0.148,0.147-0.148H4.63c0.086,0,0.148,0.061,0.148,0.148
	C4.778,7.682,4.717,7.743,4.63,7.743z M4.2,7.743H4.139c-0.086,0-0.148-0.062-0.148-0.146c0-0.088,0.062-0.148,0.148-0.148H4.2
	c0.086,0,0.148,0.061,0.148,0.148C4.348,7.682,4.286,7.743,4.2,7.743z M3.769,7.743H3.708c-0.087,0-0.148-0.062-0.148-0.146
	c0-0.088,0.062-0.148,0.148-0.148h0.061c0.086,0,0.148,0.061,0.148,0.148C3.917,7.682,3.855,7.743,3.769,7.743z M3.351,7.743H3.289
	c-0.086,0-0.147-0.062-0.147-0.146c0-0.088,0.062-0.148,0.147-0.148h0.062c0.086,0,0.147,0.061,0.147,0.148
	C3.486,7.682,3.424,7.743,3.351,7.743z M2.919,7.743H2.858c-0.086,0-0.148-0.062-0.148-0.146c0-0.088,0.062-0.148,0.148-0.148h0.061
	c0.086,0,0.148,0.061,0.148,0.148C3.068,7.682,2.994,7.743,2.919,7.743z M2.489,7.743H2.428c-0.086,0-0.148-0.062-0.148-0.146
	c0-0.088,0.062-0.148,0.148-0.148h0.061c0.087,0,0.148,0.061,0.148,0.148C2.637,7.682,2.563,7.743,2.489,7.743z M8.027,7.743H8.002
	c-0.085,0-0.147-0.062-0.147-0.146c0-0.088,0.062-0.148,0.147-0.148h0.025c0.086,0,0.148,0.061,0.148,0.148
	C8.175,7.682,8.114,7.743,8.027,7.743z"/>
<path fill="#FFFFFF" d="M2.021,8.679H1.997c-0.086,0-0.147-0.062-0.147-0.148c0-0.086,0.062-0.146,0.147-0.146h0.025
	c0.086,0,0.148,0.061,0.148,0.146C2.169,8.604,2.107,8.679,2.021,8.679z M7.621,8.679H7.56c-0.086,0-0.147-0.062-0.147-0.148
	c0-0.086,0.061-0.146,0.147-0.146h0.062c0.087,0,0.148,0.061,0.148,0.146C7.77,8.604,7.708,8.679,7.621,8.679z M7.19,8.679H7.129
	c-0.086,0-0.148-0.062-0.148-0.148c0-0.086,0.062-0.146,0.148-0.146H7.19c0.086,0,0.148,0.061,0.148,0.146
	C7.338,8.604,7.277,8.679,7.19,8.679z M6.76,8.679H6.699c-0.087,0-0.148-0.062-0.148-0.148c0-0.086,0.061-0.146,0.148-0.146H6.76
	c0.086,0,0.147,0.061,0.147,0.146C6.907,8.604,6.846,8.679,6.76,8.679z M6.329,8.679H6.268c-0.086,0-0.148-0.062-0.148-0.148
	c0-0.086,0.062-0.146,0.148-0.146H6.33c0.086,0,0.148,0.061,0.148,0.146C6.477,8.604,6.416,8.679,6.329,8.679z M5.898,8.679H5.837
	c-0.086,0-0.147-0.062-0.147-0.148c0-0.086,0.062-0.146,0.147-0.146h0.062c0.086,0,0.148,0.061,0.148,0.146
	C6.046,8.604,5.984,8.679,5.898,8.679z M5.468,8.679H5.406c-0.086,0-0.148-0.062-0.148-0.148c0-0.086,0.062-0.146,0.148-0.146h0.062
	c0.086,0,0.147,0.061,0.147,0.146C5.615,8.604,5.554,8.679,5.468,8.679z M5.037,8.679H4.975c-0.086,0-0.148-0.062-0.148-0.148
	c0-0.086,0.062-0.146,0.148-0.146h0.062c0.086,0,0.148,0.061,0.148,0.146C5.185,8.604,5.123,8.679,5.037,8.679z M4.606,8.679H4.545
	c-0.086,0-0.148-0.062-0.148-0.148c0-0.086,0.062-0.146,0.148-0.146h0.062c0.086,0,0.147,0.061,0.147,0.146
	C4.754,8.604,4.692,8.679,4.606,8.679z M4.175,8.679H4.114c-0.087,0-0.148-0.062-0.148-0.148c0-0.086,0.062-0.146,0.148-0.146h0.061
	c0.086,0,0.148,0.061,0.148,0.146C4.323,8.604,4.261,8.679,4.175,8.679z M3.745,8.679H3.683c-0.086,0-0.147-0.062-0.147-0.148
	c0-0.086,0.061-0.146,0.147-0.146h0.063c0.085,0,0.147,0.061,0.147,0.146C3.892,8.604,3.831,8.679,3.745,8.679z M3.314,8.679H3.252
	c-0.086,0-0.147-0.062-0.147-0.148c0-0.086,0.062-0.146,0.147-0.146h0.062c0.085,0,0.147,0.061,0.147,0.146
	C3.461,8.604,3.4,8.679,3.314,8.679z M2.883,8.679H2.821c-0.086,0-0.147-0.062-0.147-0.148c0-0.086,0.062-0.146,0.147-0.146h0.062
	c0.086,0,0.148,0.061,0.148,0.146C3.031,8.604,2.969,8.679,2.883,8.679z M2.452,8.679H2.391c-0.087,0-0.148-0.062-0.148-0.148
	c0-0.086,0.061-0.146,0.148-0.146h0.061C2.539,8.384,2.6,8.444,2.6,8.53C2.6,8.604,2.539,8.679,2.452,8.679z M8.027,8.679H8.002
	c-0.085,0-0.147-0.062-0.147-0.148c0-0.086,0.062-0.146,0.147-0.146h0.025c0.086,0,0.148,0.061,0.148,0.146
	C8.175,8.604,8.114,8.679,8.027,8.679z"/>
<path fill="#FFFFFF" d="M1.985,9.604H1.96c-0.087,0-0.147-0.063-0.147-0.148S1.874,9.306,1.96,9.306h0.024
	c0.085,0,0.147,0.063,0.147,0.148C2.132,9.527,2.058,9.604,1.985,9.604z M7.646,9.604H7.584c-0.086,0-0.147-0.063-0.147-0.148
	s0.062-0.148,0.147-0.148h0.062c0.086,0,0.148,0.063,0.148,0.148C7.794,9.527,7.732,9.604,7.646,9.604z M7.24,9.604H7.179
	c-0.086,0-0.147-0.063-0.147-0.148s0.062-0.148,0.147-0.148H7.24c0.086,0,0.147,0.063,0.147,0.148
	C7.388,9.527,7.326,9.604,7.24,9.604z M6.846,9.604H6.784c-0.085,0-0.147-0.063-0.147-0.148s0.062-0.148,0.147-0.148h0.062
	c0.085,0,0.147,0.063,0.147,0.148C6.981,9.527,6.92,9.604,6.846,9.604z M6.44,9.604H6.378c-0.086,0-0.148-0.063-0.148-0.148
	s0.062-0.148,0.148-0.148H6.44c0.085,0,0.147,0.063,0.147,0.148C6.575,9.527,6.514,9.604,6.44,9.604z M6.034,9.604H5.972
	c-0.085,0-0.147-0.063-0.147-0.148s0.062-0.148,0.147-0.148h0.062c0.086,0,0.147,0.063,0.147,0.148
	C6.181,9.527,6.107,9.604,6.034,9.604z M5.627,9.604H5.566c-0.085,0-0.147-0.063-0.147-0.148S5.48,9.306,5.566,9.306h0.062
	c0.086,0,0.148,0.063,0.148,0.148C5.775,9.527,5.702,9.604,5.627,9.604z M5.222,9.604H5.16c-0.085,0-0.148-0.063-0.148-0.148
	S5.075,9.306,5.16,9.306h0.062c0.086,0,0.147,0.063,0.147,0.148C5.369,9.527,5.308,9.604,5.222,9.604z M4.815,9.604H4.754
	c-0.086,0-0.147-0.063-0.147-0.148s0.061-0.148,0.147-0.148h0.062c0.086,0,0.147,0.063,0.147,0.148
	C4.963,9.527,4.901,9.604,4.815,9.604z M4.41,9.604H4.348C4.261,9.604,4.2,9.54,4.2,9.454s0.062-0.148,0.148-0.148H4.41
	c0.086,0,0.147,0.063,0.147,0.148C4.557,9.527,4.496,9.604,4.41,9.604z M4.003,9.604H3.942c-0.086,0-0.148-0.063-0.148-0.148
	s0.062-0.148,0.148-0.148h0.062c0.085,0,0.147,0.063,0.147,0.148C4.151,9.527,4.089,9.604,4.003,9.604z M3.597,9.604H3.536
	c-0.086,0-0.148-0.063-0.148-0.148S3.45,9.307,3.536,9.307h0.061c0.086,0,0.148,0.063,0.148,0.148
	C3.745,9.527,3.683,9.604,3.597,9.604z M3.203,9.604H3.142c-0.086,0-0.148-0.063-0.148-0.148s0.062-0.148,0.148-0.148h0.062
	c0.086,0,0.147,0.063,0.147,0.148C3.339,9.527,3.277,9.604,3.203,9.604z M2.797,9.604H2.735c-0.086,0-0.147-0.063-0.147-0.148
	S2.65,9.307,2.735,9.307h0.062c0.086,0,0.147,0.063,0.147,0.148C2.932,9.527,2.871,9.604,2.797,9.604z M2.391,9.604H2.329
	c-0.085,0-0.147-0.063-0.147-0.148s0.062-0.148,0.147-0.148h0.063c0.086,0,0.147,0.063,0.147,0.148
	C2.539,9.527,2.464,9.604,2.391,9.604z M8.027,9.604H8.002c-0.085,0-0.147-0.063-0.147-0.148s0.062-0.148,0.147-0.148h0.025
	c0.086,0,0.148,0.063,0.148,0.148C8.175,9.527,8.114,9.604,8.027,9.604z"/>
<path fill="#FFFFFF" d="M1.948,10.525H1.923c-0.085,0-0.147-0.063-0.147-0.148s0.062-0.146,0.147-0.146h0.025
	c0.086,0,0.147,0.061,0.147,0.146S2.021,10.525,1.948,10.525z M7.646,10.525H7.584c-0.086,0-0.147-0.063-0.147-0.148
	s0.062-0.146,0.147-0.146h0.062c0.086,0,0.148,0.061,0.148,0.146S7.732,10.525,7.646,10.525z M7.24,10.525H7.179
	c-0.086,0-0.147-0.063-0.147-0.148s0.062-0.146,0.147-0.146H7.24c0.086,0,0.147,0.061,0.147,0.146S7.326,10.525,7.24,10.525z
	 M6.834,10.525H6.772c-0.085,0-0.147-0.063-0.147-0.148s0.062-0.146,0.147-0.146h0.062c0.086,0,0.147,0.061,0.147,0.146
	S6.907,10.525,6.834,10.525z M6.428,10.525H6.366c-0.086,0-0.148-0.063-0.148-0.148S6.28,10.23,6.366,10.23h0.062
	c0.086,0,0.147,0.06,0.147,0.146S6.501,10.525,6.428,10.525z M6.021,10.525H5.96c-0.086,0-0.147-0.063-0.147-0.148
	S5.874,10.23,5.96,10.23h0.062c0.086,0,0.147,0.06,0.147,0.146S6.095,10.525,6.021,10.525z M5.615,10.525H5.554
	c-0.086,0-0.148-0.063-0.148-0.148s0.062-0.146,0.148-0.146h0.062c0.086,0,0.148,0.061,0.148,0.146
	C5.751,10.464,5.689,10.525,5.615,10.525z M5.209,10.525H5.148C5.061,10.525,5,10.464,5,10.377s0.062-0.146,0.148-0.146H5.21
	c0.086,0,0.147,0.061,0.147,0.146C5.345,10.464,5.283,10.525,5.209,10.525z M4.791,10.525H4.729c-0.087,0-0.148-0.063-0.148-0.148
	s0.061-0.146,0.148-0.146h0.062c0.086,0,0.147,0.061,0.147,0.146S4.877,10.525,4.791,10.525z M4.385,10.525H4.323
	c-0.087,0-0.148-0.063-0.148-0.148s0.061-0.146,0.148-0.146h0.063c0.085,0,0.147,0.061,0.147,0.146S4.471,10.525,4.385,10.525z
	 M3.979,10.525H3.917c-0.087,0-0.148-0.063-0.148-0.148s0.062-0.146,0.148-0.146h0.062c0.085,0,0.147,0.061,0.147,0.146
	S4.064,10.525,3.979,10.525z M3.572,10.525H3.511c-0.087,0-0.148-0.063-0.148-0.148s0.062-0.146,0.148-0.146h0.061
	c0.086,0,0.148,0.061,0.148,0.146S3.658,10.525,3.572,10.525z M3.167,10.525H3.105c-0.087,0-0.148-0.063-0.148-0.148
	s0.062-0.146,0.148-0.146h0.062c0.086,0,0.148,0.061,0.148,0.146S3.252,10.525,3.167,10.525z M2.76,10.525H2.698
	c-0.086,0-0.147-0.063-0.147-0.148s0.062-0.146,0.147-0.146H2.76c0.086,0,0.147,0.061,0.147,0.146S2.833,10.525,2.76,10.525z
	 M2.354,10.525H2.292c-0.086,0-0.147-0.063-0.147-0.148s0.062-0.146,0.147-0.146h0.062c0.086,0,0.148,0.061,0.148,0.146
	S2.428,10.525,2.354,10.525L2.354,10.525z M8.027,10.525H8.002c-0.085,0-0.147-0.063-0.147-0.148s0.062-0.146,0.147-0.146h0.025
	c0.086,0,0.148,0.061,0.148,0.146S8.114,10.525,8.027,10.525z"/>
<path fill="#FFFFFF" d="M10.848,9.294c-0.31,0-0.568-0.246-0.568-0.566v-2.19c0-0.308,0.246-0.566,0.568-0.566
	c0.307,0,0.564,0.247,0.564,0.566v2.19C11.398,9.048,11.152,9.294,10.848,9.294z M10.848,6.278c-0.148,0-0.271,0.123-0.271,0.271
	v2.19c0,0.146,0.123,0.271,0.271,0.271c0.147,0,0.271-0.123,0.271-0.271V6.55C11.104,6.401,10.995,6.278,10.848,6.278z"/>
<path fill="#FFFFFF" d="M14.686,8.899h-3.434c-0.086,0-0.146-0.061-0.146-0.146V6.524c0-0.086,0.062-0.147,0.146-0.147h3.434
	c0.086,0,0.148,0.062,0.148,0.147v2.229C14.834,8.839,14.771,8.899,14.686,8.899z M11.398,8.617h3.14V6.673h-3.14V8.617z"/>
</svg>
