<?xml version="1.0" encoding="utf-8"?>
<!-- Generator: Adobe Illustrator 16.0.0, SVG Export Plug-In . SVG Version: 6.00 Build 0)  -->
<!DOCTYPE svg PUBLIC "-//W3C//DTD SVG 1.1//EN" "http://www.w3.org/Graphics/SVG/1.1/DTD/svg11.dtd">
<svg version="1.1" id="图层_1" xmlns="http://www.w3.org/2000/svg" xmlns:xlink="http://www.w3.org/1999/xlink" x="0px" y="0px"
	 width="18px" height="18px" viewBox="0 0 18 18" enable-background="new 0 0 18 18" xml:space="preserve">
<path fill="#FFFFFF" d="M7.519,9.741H0.845c-0.41,0-0.742,0.331-0.742,0.741v6.678c0,0.408,0.332,0.74,0.742,0.74h6.674
	c0.41,0,0.742-0.332,0.742-0.74v-6.678C8.261,10.072,7.929,9.741,7.519,9.741z M7.075,16.715H1.29v-5.789h5.785V16.715z
	 M13.818,8.258c2.254,0,4.078-1.826,4.078-4.079c0-2.253-1.824-4.08-4.078-4.08s-4.08,1.827-4.08,4.08
	C9.738,6.432,11.564,8.258,13.818,8.258z M13.818,1.287c1.596,0,2.893,1.297,2.893,2.892c0,1.596-1.297,2.892-2.893,2.892
	s-2.894-1.295-2.894-2.892C10.926,2.584,12.223,1.287,13.818,1.287z M17.156,9.741H10.48c-0.408,0-0.742,0.331-0.742,0.741v6.678
	c0,0.408,0.332,0.74,0.742,0.74h6.676c0.41,0,0.74-0.332,0.74-0.74v-6.678C17.896,10.072,17.566,9.741,17.156,9.741z M16.711,16.715
	h-5.785v-5.789h5.785V16.715z M7.519,0.099H0.845c-0.41,0-0.742,0.333-0.742,0.744v6.673c0,0.411,0.332,0.742,0.742,0.742h6.674
	c0.41,0,0.742-0.331,0.742-0.742V0.842C8.261,0.431,7.929,0.099,7.519,0.099z M7.075,7.07H1.29V1.287h5.785V7.07z"/>
</svg>
