<?xml version="1.0" encoding="utf-8"?>
<!-- Generator: Adobe Illustrator 16.0.0, SVG Export Plug-In . SVG Version: 6.00 Build 0)  -->
<!DOCTYPE svg PUBLIC "-//W3C//DTD SVG 1.1//EN" "http://www.w3.org/Graphics/SVG/1.1/DTD/svg11.dtd">
<svg version="1.1" id="图层_1" xmlns="http://www.w3.org/2000/svg" xmlns:xlink="http://www.w3.org/1999/xlink" x="0px" y="0px"
	 width="20px" height="24px" viewBox="0 0 20 24" enable-background="new 0 0 20 24" xml:space="preserve">
<path fill="#999999" d="M11.422,20.811h1.659c0,1.721-1.393,3.113-3.112,3.113c-1.719,0-3.113-1.393-3.113-3.113h1.66
	c0,0.803,0.65,1.454,1.453,1.454S11.422,21.613,11.422,20.811L11.422,20.811z M8.433,3.524C7.675,2.664,7.757,1.353,8.617,0.595
	c0.86-0.759,2.171-0.676,2.93,0.183c0.691,0.785,0.691,1.961,0,2.746c3.708,0.737,6.38,3.99,6.381,7.772v4.15l1.142,2.604
	c0.207,0.409,0.044,0.909-0.364,1.117c-0.135,0.066-0.285,0.098-0.435,0.087H1.668c-0.459-0.002-0.829-0.375-0.827-0.834
	c0-0.113,0.024-0.225,0.069-0.329l1.142-2.604v-4.15C2.033,7.541,4.709,4.265,8.433,3.524z M16.299,15.977
	c-0.061-0.108-0.096-0.229-0.104-0.354v-4.327c0-3.439-2.787-6.227-6.226-6.227s-6.226,2.788-6.226,6.227v4.327
	c-0.001,0.115-0.025,0.227-0.073,0.332l-0.705,1.608h14.04L16.299,15.977z"/>
</svg>
