<?xml version="1.0" encoding="utf-8"?>
<!-- Generator: Adobe Illustrator 16.0.0, SVG Export Plug-In . SVG Version: 6.00 Build 0)  -->
<!DOCTYPE svg PUBLIC "-//W3C//DTD SVG 1.1//EN" "http://www.w3.org/Graphics/SVG/1.1/DTD/svg11.dtd">
<svg version="1.1" id="图层_1" xmlns="http://www.w3.org/2000/svg" xmlns:xlink="http://www.w3.org/1999/xlink" x="0px" y="0px"
	 width="18px" height="18px" viewBox="0 0 18 18" enable-background="new 0 0 18 18" xml:space="preserve">
<path fill="#FFFFFF" d="M8.145,2.139h4.071v0.704H8.145V2.139L8.145,2.139z"/>
<path fill="#FFFFFF" d="M8.145,3.768h4.071v0.704H8.145V3.768L8.145,3.768z"/>
<path fill="#FFFFFF" d="M8.145,5.567h4.071v0.704H8.145V5.567L8.145,5.567z"/>
<path fill="#FFFFFF" d="M3.882,9.217h4.071V9.92H3.882V9.217z"/>
<path fill="#FFFFFF" d="M3.882,10.977h4.071v0.703H3.882V10.977z"/>
<path fill="#FFFFFF" d="M3.812,7.558h8.404v0.704H3.812V7.558z"/>
<path fill="#FFFFFF" d="M17.012,9.147l-1.851-1.85c-0.134-0.13-0.363-0.13-0.494,0L14.414,7.55V1.711
	c0-0.931-0.76-1.688-1.688-1.688H3.683L1.41,5.975v9.072c0,0.93,0.758,1.688,1.688,1.688h3.516l-0.263,0.779
	c-0.04,0.131-0.011,0.273,0.081,0.363c0.071,0.072,0.162,0.1,0.252,0.1c0.04,0,0.081-0.008,0.111-0.018l2.799-0.951
	c0.051-0.02,0.104-0.051,0.143-0.08l0.193-0.193h2.797c0.93,0,1.688-0.758,1.688-1.688V12.25l2.604-2.609
	C17.15,9.511,17.15,9.278,17.012,9.147z M10.139,15.514l-1.343-1.346l4.759-4.757l1.344,1.343L10.139,15.514z M4.613,1.66
	c0.171,0.191,0.263,0.444,0.252,0.708C4.855,2.63,4.744,2.873,4.542,3.044l-1.92,1.748l1.435-3.738L4.613,1.66z M3.087,16.029
	c-0.536,0-0.98-0.437-0.98-0.982V6.196l2.91-2.637c0.688-0.626,0.737-1.688,0.111-2.375L4.724,0.74h7.993
	c0.535,0,0.979,0.435,0.979,0.98v6.548L7.37,14.594c-0.04,0.041-0.07,0.08-0.081,0.141L6.845,16.04H3.087V16.029z M9.28,16.371
	l-2.04,0.689l0.688-2.043l0.354-0.354l1.343,1.344L9.28,16.371z M13.695,15.047c0,0.537-0.434,0.982-0.979,0.982h-2.093l3.071-3.074
	V15.047z M15.402,10.248l-1.342-1.343l0.857-0.859l1.346,1.344L15.402,10.248z"/>
</svg>
