<?xml version="1.0" encoding="utf-8"?>
<!-- Generator: Adobe Illustrator 16.0.0, SVG Export Plug-In . SVG Version: 6.00 Build 0)  -->
<!DOCTYPE svg PUBLIC "-//W3C//DTD SVG 1.1//EN" "http://www.w3.org/Graphics/SVG/1.1/DTD/svg11.dtd">
<svg version="1.1" id="图层_1" xmlns="http://www.w3.org/2000/svg" xmlns:xlink="http://www.w3.org/1999/xlink" x="0px" y="0px"
	 width="18px" height="18px" viewBox="0 0 18 18" enable-background="new 0 0 18 18" xml:space="preserve">
<path fill="#FFFFFF" d="M4.798,6.796h7.032v1.28H4.798V6.796z M4.798,3.831h7.032v1.28H4.798V3.831z M4.798,9.803h4.021v1.278H4.798
	V9.803z M16.788,12.854c-0.528-0.883-0.521-0.898-0.521-0.898s-1.83,0.513-2.172-1.241h-1.061c0,0-0.292,1.757-2.162,1.236
	c-0.541,0.899-0.559,0.93-0.559,0.93s1.463,1.024,0,2.411l0.565,0.934c0,0,1.616-0.695,2.146,1.209H14.1
	c0,0,0.336-1.752,2.153-1.233c0.519-0.884,0.526-0.89,0.526-0.89S15.408,14.123,16.788,12.854z M13.541,15.688
	c-0.891,0-1.616-0.724-1.616-1.614c0-0.894,0.724-1.618,1.616-1.618c0.895,0,1.618,0.727,1.618,1.618
	C15.159,14.964,14.436,15.688,13.541,15.688z M3.521,16.189c-0.662,0-1.198-0.535-1.198-1.197V3.007
	c0-0.662,0.536-1.199,1.198-1.199h9.586c0.662,0,1.199,0.537,1.199,1.199v6.367h1.486V1.52c0-0.827-0.668-1.497-1.494-1.497H2.331
	c-0.826,0-1.496,0.669-1.496,1.497v14.964c0,0.824,0.67,1.494,1.496,1.494h6.882v-1.789H3.521z"/>
</svg>
