<?xml version="1.0" encoding="utf-8"?>
<!-- Generator: Adobe Illustrator 16.0.0, SVG Export Plug-In . SVG Version: 6.00 Build 0)  -->
<!DOCTYPE svg PUBLIC "-//W3C//DTD SVG 1.1//EN" "http://www.w3.org/Graphics/SVG/1.1/DTD/svg11.dtd">
<svg version="1.1" id="图层_1" xmlns="http://www.w3.org/2000/svg" xmlns:xlink="http://www.w3.org/1999/xlink" x="0px" y="0px"
	 width="26px" height="22px" viewBox="0 0 26 22" enable-background="new 0 0 26 22" xml:space="preserve">
<path fill="#999999" d="M2.508,0.507h20.984c1.287,0,2.331,1.044,2.331,2.332l0,0V19.16c0,1.287-1.044,2.332-2.331,2.332l0,0H2.508
	c-1.288,0-2.332-1.045-2.332-2.332l0,0V2.839C0.177,1.551,1.22,0.507,2.508,0.507z M23.96,7.618l-10.61,4.245
	c-0.22,0.087-0.467,0.087-0.687,0L2.042,7.618V19.16c0,0.258,0.209,0.467,0.467,0.467h20.984c0.257,0,0.468-0.209,0.468-0.467V7.618
	z M23.96,5.613V2.839c0-0.257-0.211-0.466-0.468-0.466H2.508c-0.258,0-0.467,0.208-0.467,0.466v2.774L13,9.997L23.96,5.613z"/>
</svg>
